<svg width="56" height="58" fill="none" xmlns="http://www.w3.org/2000/svg"><path fill-rule="evenodd" clip-rule="evenodd" d="M13.66 17.683C15.298 16.05 27.445 5.436 33.697 0v57.284L14.148 39.99v.093H2a2 2 0 01-2-2v-18.4a2 2 0 012-2h11.66z" fill="#000"/><path fill-rule="evenodd" clip-rule="evenodd" d="M40.126 44.054l.22.002c8.645 0 15.653-7.009 15.653-15.654 0-8.646-7.008-15.654-15.654-15.654-.073 0-.146 0-.219.002v2l.22-.002c7.54 0 13.653 6.113 13.653 13.654 0 7.54-6.113 13.654-13.654 13.654-.073 0-.146 0-.219-.002v2z" fill="#FFEA39"/><path fill-rule="evenodd" clip-rule="evenodd" d="M40 35.908l.11.001c4.392 0 7.953-3.31 7.953-7.392 0-4.082-3.56-7.392-7.954-7.392H40v2h.11c3.428 0 5.953 2.55 5.953 5.392 0 2.843-2.525 5.392-5.954 5.392H40v2z" fill="#FFEA39"/></svg>