<svg width="360" height="304" fill="none" xmlns="http://www.w3.org/2000/svg"><path d="M424 153.696c-31.536-.026-32.874 12.641-64.399 16.461-18.48 1.86-30.497 2.915-52.32-20.206-29.18-32.244-42.721-69.338-74.462-94.495C208.32 34.37 192.835-.387 164.396 38.593c-14.672 21.588-23.891 46.367-38.234 71.172-21.278 34.933-31.402 71.098-52.32 83.01-19.631 8.822-32.966-12.314-54.336-28.424-12.214-8.62-19.2-9.248-32.195-8.745-34.592 1.709-17.584-2.036-46.29-1.91" stroke="#353941" stroke-width=".5" stroke-linecap="round" stroke-linejoin="round"/><path d="M424 153.696c-32.4-.05-33.964 12.616-66.406 16.914-42.658 4.875-55.231-23.347-94.587-75.244-26.381-34.104-18.51-14.828-50.314-50.842-39.438-43.779-50.828-5.403-84.524 55.14-25.847 44.985-34.109 77.304-54.337 90.046-19.611 9.927-32.935-10.983-54.337-26.866-12.14-8.444-19.2-9.097-32.194-8.369-35.137 2.539-13.87-.955-46.29-.779" stroke="#353941" stroke-width=".5" stroke-linecap="round" stroke-linejoin="round"/><path d="M424 153.696c-43.132-.176-71.056 38.728-112.696 4.574-15.053-13.018-25.733-27.846-42.257-48.58-30.755-38.074-29.51-24.603-48.297-45.99-18.757-22.167-31.999-44.031-52.331-31.114-13.797 10.38-24.323 31.365-36.227 53.23-32.586 59.134-36.239 80.722-54.337 97.812-18.85 15.406-31.937-.603-52.32-17.617-28.707-23.172-38.42-7.188-70.439-12.365-4.188-.176.473-.025-14.086.05" stroke="#353941" stroke-width=".5" stroke-linecap="round" stroke-linejoin="round"/><path d="M424 153.696c-31.762-.151-32.946 10.279-64.399 17.014-39.716 7.741-53.462-12.641-90.555-54.787-33.388-37.396-29.807-19.351-50.313-44.659-18.623-23.8-31.907-48.203-52.32-38.05-14.055 8.671-24.272 28.324-38.234 53.204-23.891 42.071-33.131 81.251-54.337 97.134-29.447 18.271-41.599-34.707-84.525-31.515-39.026 3.669-16.956 1.508-48.297 1.659" stroke="#353941" stroke-width=".5" stroke-linecap="round" stroke-linejoin="round"/><path d="M424 153.696c-36.31-.227-45.365 17.516-80.491 19.728-42.566.704-67.147-57.024-106.657-75.948-13.798-6.81-19.878-19.175-36.228-42.372-24.292-33.475-38.635-32.344-64.399 10.656-34.932 59.663-43.945 110.705-70.44 118.596-24.014 4.273-38.696-32.42-68.421-33.902-17.132-.101-5.845 2.89-56.354 3.191" stroke="#353941" stroke-width=".5" stroke-linecap="round" stroke-linejoin="round"/><path d="M424 153.696c-31.989-.277-34.86 9.273-64.399 17.466-40.488 10.43-55.098-11.334-92.571-44.583-31.619-27.52-30.332-11.435-48.297-35.486-18.819-26.59-31.855-58.984-52.33-59.01-32.606 4.172-61.323 102.261-82.508 134.455-31.33 43.603-49.151-13.973-84.525-17.165-16.782-.679-13.232 3.971-58.35 4.323" stroke="#353941" stroke-width=".5" stroke-linecap="round" stroke-linejoin="round"/><path d="M424 153.696c-32.915-.176-30.425 6.559-62.383 17.089-38.892 12.038-53.575-4.976-90.564-34.606-35.137-27.745-33.8-11.309-50.314-32.37-18.973-26.313-31.783-63.759-52.32-71.524-35.281-8.62-62.249 98.792-86.53 134.027C51 207 33.961 149.222-2.637 148.116c-17.461.277-16.875 5.228-56.354 5.605" stroke="#353941" stroke-width=".5" stroke-linecap="round" stroke-linejoin="round"/><path d="M424 153.696c-32.596-.201-30.805 5.881-62.383 17.29-38.532 13.144-53.945-3.644-90.564-28.826-35.117-23.699-34.417-7.539-50.314-28.348-18.664-26.79-31.793-68.509-52.32-81.326-35.229-17.165-60.561 88.388-84.524 127.719C52.667 207.377 34.61 149.474-.63 146.91c-17.8-.377-21.504 6.359-58.36 6.761" stroke="#353941" stroke-width=".5" stroke-linecap="round" stroke-linejoin="round"/><path d="M424 153.696c-32.565-.251-30.569 5.001-62.383 17.467-39.355 14.651-55.705-3.519-92.57-24.152-33.07-17.894-33.121-2.84-48.308-23.196-19.333-28.726-32.935-76.979-54.336-92.585-35.6-20.885-58.483 88.111-84.525 129-30.754 44.056-48.112-14.124-84.525-14.526-18.232.679-23.675 7.716-56.353 8.017" stroke="#353941" stroke-width=".5" stroke-linecap="round" stroke-linejoin="round"/><path d="M424 153.696c-30.497-.276-27.215 2.262-60.376 16.813-39.274 16.612-55.963.453-92.571-16.411-35.086-15.631-35.209.428-50.314-20.306-19.261-29.53-32.956-82.055-54.336-102.814-36.012-29.63-57.629 82.432-84.525 126.237-30.219 45.011-47.782-10.807-82.508-12.717-18.932-.025-26.66 8.872-58.36 9.223" stroke="#353941" stroke-width=".5" stroke-linecap="round" stroke-linejoin="round"/><path d="M424 153.696c-53.483-.553-62.609 34.782-110.68 22.292-16.318-4.624-27.616-11.133-44.274-16.738-34.344-10.932-34.674 5.655-50.313-18.924-28.202-48.705-47.834-151.971-84.525-102.889-22.461 32.973-30.744 81.628-52.32 117.692-16.792 25.684-28.902 20.934-48.297 5.755-43.234-34.255-43.934-7.766-92.57-7.163" stroke="#353941" stroke-width=".5" stroke-linecap="round" stroke-linejoin="round"/><path d="M424 153.696c-29.324-.352-26.001.126-60.376 17.291-38.471 18.673-57.804 3.317-92.571-5.278-35.312-8.092-35.744 8.168-50.314-12.566-19.251-31.012-32.945-90.725-54.336-120.682-36.341-45.262-56.261 72.103-84.525 120.582C50.64 202.15 33.89 140.326-4.653 142.588c-18.047 1.885-28.326 10.731-54.327 11.108" stroke="#353941" stroke-width=".5" stroke-linecap="round" stroke-linejoin="round"/><path d="M424 153.696c-55.613-.754-58.319 32.722-108.673 26.69-16.525-2.287-27.482-6.559-44.274-8.897-34.654-4.197-34.932 10.706-48.297-5.755-28.141-40.713-49.285-172.101-84.525-140.913-21.586 22.82-31.052 75.47-52.32 118.747-31.855 60.517-49.48 1.533-84.525-2.061-20.248-.879-32.297 11.712-60.366 12.189" stroke="#353941" stroke-width=".5" stroke-linecap="round" stroke-linejoin="round"/><path d="M424 153.696c-22.904-.251-23.449-3.367-58.36 16.612-39.17 21.94-60.181 8.093-94.587 6.962-33.645-.453-35.312 14.3-48.297-1.835-28.861-42.447-50.447-187.934-86.531-152.398-21.062 24.528-30.59 79.893-52.32 122.165-31.083 56.018-48.966-3.443-84.525-4.826-20.022.352-32.143 12.818-58.36 13.295" stroke="#353941" stroke-width=".5" stroke-linecap="round" stroke-linejoin="round"/><path d="M424 153.696c-23.675-.301-24.395-3.568-58.36 16.788-38.532 22.745-59.573 10.003-94.587 12.541-35.168 3.292-36.362 19.879-50.314-.955-28.274-48.856-49.747-194.494-84.524-162.752-20.62 22.87-30.528 80.471-52.32 123.823-31.084 57.351-48.853-2.488-84.525-3.744-20.455.452-32.863 13.747-58.36 14.299" stroke="#353941" stroke-width=".5" stroke-linecap="round" stroke-linejoin="round"/><path d="M424 153.696c-17.934-.251-23.974-3.946-50.314 12.038-50.519 31.54-59.954 15.406-102.633 22.493-35.086 6.585-36.485 23.398-50.314 2.589-28.881-50.59-50.869-208.945-86.531-171.222-20.125 25.383-30.064 84.819-52.32 126.412-30.64 52.651-47.556-7.917-84.524-7.238-20.455 1.508-32.02 14.325-56.354 14.903" stroke="#353941" stroke-width=".5" stroke-linecap="round" stroke-linejoin="round"/><path d="M424 153.696c-17.893-.302-24.303-4.247-50.314 12.113-49.027 31.566-56.929 17.542-98.61 26.64-35.652 8.519-38.008 24.604-50.314 12.691-29.251-36.591-51.455-210.955-86.531-191.1-20.28 15.983-30.517 75.595-52.32 123.195-31.577 64.437-49.5 4.523-84.524.929-21.793-.904-35.333 14.828-60.377 15.507" stroke="#353941" stroke-width=".5" stroke-linecap="round" stroke-linejoin="round"/><path d="M424 153.696c-18.181-.327-24.653-4.524-50.314 12.189-49.871 33.299-60.386 18.748-100.617 32.068-36.464 12.867-38.388 31.691-52.319 10.379-19.632-35.335-34.253-119.953-56.343-172.529-36.455-80.094-51.888 54.536-84.525 112.088-30.065 48.328-46.558-12.893-84.525-10.254-20.352 2.488-31.71 15.406-54.337 16.084" stroke="#353941" stroke-width=".5" stroke-linecap="round" stroke-linejoin="round"/><path d="M424 153.696c-18.068-.352-24.879-4.851-50.314 12.264-50.951 35.21-62.022 19.804-102.633 37.899-34.715 16.335-36.794 34.028-50.314 13.194-28.943-52.752-51.682-234.88-86.531-203.29-19.343 22.14-29.859 86.1-52.32 129.704-30.476 54.41-47.443-7.062-84.524-6.66-21.052 1.408-33.605 16.135-56.354 16.889" stroke="#353941" stroke-width=".5" stroke-linecap="round" stroke-linejoin="round"/><path d="M424 153.696c-18.387-.402-25.249-5.076-50.314 12.34-49.665 35.511-59.213 21.538-98.61 40.814-35.508 18.245-38.09 35.762-50.314 24.428-29.385-36.667-52.134-234.102-86.531-222.139-19.837 11.963-30.167 75.32-52.32 125.432-31.453 66.524-49.1 5.78-84.524 1.734-22.904-1.206-36.599 16.537-60.377 17.391" stroke="#353941" stroke-width=".5" stroke-linecap="round" stroke-linejoin="round"/><path d="M424 153.696c-18.232-.427-25.311-5.328-50.314 12.516-22.862 16.838-20.773 18.446-64.399 30.736-65.778 19.276-68.813 55.641-84.525 41.392-30.095-37.17-53.174-247.095-88.547-227.542-19.354 15.732-29.798 80.748-52.32 128.498-30.898 60.743-48.143-.905-84.525-3.267-22.214-.126-35.693 16.737-58.36 17.642" stroke="#353941" stroke-width=".5" stroke-linecap="round" stroke-linejoin="round"/><path d="M424 153.696c-18.057-.477-25.414-5.579-50.314 12.717-25.455 19.276-18.479 17.24-66.405 33.048-65.367 22.317-67.589 64.211-84.525 43.503-29.91-46.167-53.256-257.348-88.548-230.13-18.87 19.552-29.694 86.377-52.32 130.935-30.363 55.013-47.185-7.213-84.524-7.891-21.793.879-34.469 16.863-56.354 17.818" stroke="#353941" stroke-width=".5" stroke-linecap="round" stroke-linejoin="round"/><path d="M424 153.696c-18.232-.502-25.62-5.755-50.314 12.893-29.828 23.247-17.697 16.436-66.405 34.807-63.546 24.604-67.558 69.213-84.525 48.68-29.736-45.765-53.514-262.35-88.548-236.84-18.736 18.773-29.653 86.327-52.32 131.061-30.322 55.038-47.216-7.414-84.525-8.57-22.306.628-34.355 16.939-56.343 17.969" stroke="#353941" stroke-width=".5" stroke-linecap="round" stroke-linejoin="round"/><path d="M424 153.696c-18.099-.528-25.682-6.007-50.314 13.068-31.844 25.484-15.608 15.155-66.405 36.567-61.951 26.765-67.527 74.214-84.525 53.857-29.674-45.564-53.73-267.426-88.548-243.55-18.469 17.843-29.859 86.779-52.32 131.186-30.27 55.039-47.083-7.64-84.524-9.248-22.472.352-34.685 17.039-56.354 18.12" stroke="#353941" stroke-width=".5" stroke-linecap="round" stroke-linejoin="round"/><path d="M424 153.696c-18.078-.578-25.774-6.232-50.314 13.27-34.581 28.399-13.849 13.923-66.405 38.2-63.679 30.233-68.135 83.889-86.542 55.767-20.043-37.396-35.621-143.426-58.359-213.091-35.992-103.04-49.264 46.267-84.515 104.623-29.416 43.829-45.128-19.201-84.525-16.864-20.927 2.413-32.338 17.015-52.32 18.095" stroke="#353941" stroke-width=".5" stroke-linecap="round" stroke-linejoin="round"/><path d="M424 153.696c-18.068-.603-25.846-6.308-50.314 13.521-36.094 30.233-13.941 13.696-66.405 39.13-62.115 31.037-68.196 87.106-86.542 59.486-19.271-35.586-34.273-134.831-56.343-207.612-36.752-114.324-49.665 29.806-84.524 92.635-29.736 48.73-46.023-14.275-84.525-15.004-22.111.855-33.47 16.663-54.337 17.844" stroke="#353941" stroke-width=".5" stroke-linecap="round" stroke-linejoin="round"/><path d="M424 153.696c-18.181-.653-25.939-6.333-50.314 13.747-37.472 31.968-13.962 13.471-66.405 40.085-61.673 32.294-67.929 90.826-86.542 63.206-19.209-35.083-34.221-134.353-56.343-208.29-36.835-116.31-49.511 27.619-84.524 90.121-29.695 48.178-45.93-14.752-84.525-16.335-22.09.352-33.687 16.235-54.327 17.466" stroke="#353941" stroke-width=".5" stroke-linecap="round" stroke-linejoin="round"/><path d="M424 153.696c-18.469-.704-26.217-6.233-50.314 13.998-35.6 30.937-12.48 13.295-64.399 39.96-59.862 31.791-69.163 90.097-86.531 70.921-29.633-43.302-54.337-274.236-88.548-255.966-18.407 15.28-29.416 83.915-52.32 128.121-30.147 53.33-46.65-9.399-84.525-14.023-23.14-1.458-35.312 15.682-56.343 16.989" stroke="#353941" stroke-width=".5" stroke-linecap="round" stroke-linejoin="round"/><path d="M424 153.696c-17.985-.704-26.031-6.509-50.314 14.25-9.105 8.067-12.532 11.912-20.125 17.843-12.923 9.399-27.739 13.873-46.291 24.126-57.351 32.822-66.981 92.435-84.524 73.536-29.602-42.624-54.471-274.99-88.538-258.077-18.366 14.652-29.334 83.135-52.32 127.091-30.044 52.675-46.64-9.927-84.524-15.356-23.11-1.96-35.745 15.23-56.354 16.587" stroke="#353941" stroke-width=".5" stroke-linecap="round" stroke-linejoin="round"/><path d="M424 153.696c-18.129-.754-26.134-6.509-50.314 14.501-38.913 35.033-20.279 17.215-64.399 41.618-55.818 31.992-67.949 91.353-84.525 80.245-29.776-31.264-54.542-267.853-88.537-262.5-18.685 8.62-29.376 75.973-52.32 122.994-30.538 57.828-47.052-4.222-84.525-12.616-24.18-3.996-37.205 14.325-58.36 15.758" stroke="#353941" stroke-width=".5" stroke-linecap="round" stroke-linejoin="round"/><path d="M424 153.696c-17.985-.754-26.103-6.484-50.314 14.727-8.992 8.143-12.501 12.164-20.125 18.246-12.223 9.022-26.505 13.495-44.274 23.322-55.602 31.917-67.599 93.062-84.525 82.407-30.27-30.485-55.828-273.71-90.554-258.857-18.273 13.27-29.365 80.924-52.32 123.548-30.023 50.916-46.362-11.159-84.524-18.547-23.398-3.192-35.734 13.721-56.354 15.154" stroke="#353941" stroke-width=".5" stroke-linecap="round" stroke-linejoin="round"/><path d="M424 153.696c-18.109-.804-26.165-6.358-50.314 14.979-9.157 8.368-12.542 12.289-20.125 18.346-12.368 9.122-26.597 13.37-44.274 23.146-57.557 33.073-68.361 100.15-86.531 82.633-30.24-40.06-55.808-276.85-90.565-252.85-18.026 17.768-29.282 84.87-52.32 123.145-18.602 27.947-31.453 14.577-52.32-5.478-41.505-38.954-58.349-5.931-86.53-3.921" stroke="#353941" stroke-width=".5" stroke-linecap="round" stroke-linejoin="round"/><path d="M424 153.696c-17.07-.779-25.682-6.006-48.297 13.42-8.756 7.816-12.357 12.013-20.125 18.623-12.831 10.254-25.702 13.571-44.274 23.473-56.045 30.912-69.122 97.385-86.542 87.86-30.239-27.871-56.055-265.868-90.554-253.478-18.283 11.963-29.334 77.908-52.32 118.873-29.94 48.68-46.146-12.44-84.524-22.04-23.604-4.574-36.022 11.837-56.354 13.319" stroke="#353941" stroke-width=".5" stroke-linecap="round" stroke-linejoin="round"/><path d="M424 153.696c-17.121-.804-25.712-5.906-48.297 13.621-8.684 7.791-12.44 12.189-20.125 18.749-12.882 10.329-25.775 13.495-44.274 23.297-55.623 30.635-68.958 98.918-86.542 90.021-29.591-26.036-55.118-252.447-88.537-251.467-18.5 6.006-29.571 70.57-52.32 113.67C53.542 214.54 37.12 154.425-.62 141.859c-24.786-6.911-37.092 10.254-58.36 11.812" stroke="#353941" stroke-width=".5" stroke-linecap="round" stroke-linejoin="round"/><path d="M424 153.696c-17.121-.829-25.764-5.805-48.297 13.848-8.859 8.017-12.378 12.214-20.125 18.824-12.944 10.354-26.011 13.395-44.274 22.995-55.499 30.309-68.608 100.275-86.542 91.957-29.56-24.654-55.273-247.899-88.547-247.95-18.531 5.379-29.458 68.761-52.32 111.108-30.312 51.645-46.702-7.891-84.525-21.538-24.951-7.665-37.247 9.198-58.36 10.782" stroke="#353941" stroke-width=".5" stroke-linecap="round" stroke-linejoin="round"/><path d="M424 153.696c-18.16-.88-26.289-5.856-50.314 15.833-35.476 33.023-15.783 15.531-62.382 38.903-54.81 28.726-68.423 100.301-86.542 92.862-29.56-22.845-55.437-240.007-88.547-240.962-18.706 4.775-29.345 66.247-52.32 107.387-30.27 49.811-46.692-8.796-84.525-23.498-24.848-8.344-37.38 7.942-58.35 9.475" stroke="#353941" stroke-width=".5" stroke-linecap="round" stroke-linejoin="round"/><path d="M424 153.696c-18.15-.905-26.247-5.655-50.314 15.984-35.065 32.545-16.843 16.034-62.382 37.848-54.388 27.293-68.165 100.351-86.542 93.791-29.488-20.984-55.581-232.065-88.547-234-18.757 4.121-29.335 63.935-52.32 103.693-30.25 48.026-46.6-9.626-84.525-25.459-24.828-9.072-37.452 6.635-58.36 8.143" stroke="#353941" stroke-width=".5" stroke-linecap="round" stroke-linejoin="round"/><path d="M424 153.696c-18.109-.905-26.248-5.454-50.314 16.134-35.476 32.797-19.569 17.241-62.382 36.768-53.946 25.886-67.888 100.351-86.542 94.721-30.126-19.602-56.857-232.87-90.554-226.637-18.417 8.369-29.344 67.554-52.32 102.688-17.152 23.775-29.478 15.808-48.297-3.368-50.673-52.198-60.211-22.618-92.57-20.306" stroke="#353941" stroke-width=".5" stroke-linecap="round" stroke-linejoin="round"/><path d="M424 153.696c-18.181-.93-26.289-5.228-50.314 16.285-34.849 32.093-19.394 17.09-62.382 35.687-53.647 24.554-67.517 100.376-86.542 95.626-29.416-17.341-56.034-216.283-88.547-220.028-18.84 2.815-29.376 59.386-52.32 96.28-30.199 44.433-46.353-11.284-84.525-29.354-24.797-10.53-37.617 4.046-58.36 5.504" stroke="#353941" stroke-width=".5" stroke-linecap="round" stroke-linejoin="round"/><path d="M424 153.696c-18.675-.955-26.546-4.75-50.314 16.411-10.639 9.751-14.26 13.872-22.131 19.15-12.831 7.69-26.124 9.173-42.258 16.16-53.194 24.579-66.519 104.95-86.531 94.445-29.725-25.032-55.983-214.826-88.548-211.132-18.499 6.811-29.354 62.553-52.32 94.923-17.244 21.94-29.622 13.395-48.296-5.906-50.592-52.978-61.117-26.213-92.581-24.051" stroke="#353941" stroke-width=".5" stroke-linecap="round" stroke-linejoin="round"/><path d="M424 153.696c-18.52-.93-26.371-4.599-50.314 16.436-31.556 28.499-20.156 18.045-60.376 31.666-51.528 18.773-68.021 93.666-86.531 97.385-29.324-3.669-56.456-188.588-88.548-202.084-19.271-3.317-29.622 48.077-52.32 84.016-30.713 44.809-46.939-7.867-84.524-29.178-26.063-13.672-39.11.377-60.377 1.759" stroke="#353941" stroke-width=".5" stroke-linecap="round" stroke-linejoin="round"/><path d="M424 153.696c-20.383-1.03-27.39-3.895-52.32 18.271-30.013 27.167-23.295 16.637-60.376 28.6-51.106 17.868-66.941 97.536-86.542 96.405-30.178-10.983-57.773-193.036-90.554-191.88-18.644 5.026-29.416 55.993-52.32 84.718-17.502 19.704-30.013 10.279-48.297-8.67-50.2-52.651-57.907-29.555-92.57-27.444" stroke="#353941" stroke-width=".5" stroke-linecap="round" stroke-linejoin="round"/><path d="M424 153.696c-20.588-1.03-27.462-3.519-52.32 18.271-30.353 26.991-25.002 16.687-60.376 26.589-51.034 15.757-66.313 96.229-86.542 96.43-29.642-8.419-56.857-174.489-88.547-181.727-18.438-.05-28.491 43.88-50.314 74.641-30.672 39.733-46.671-10.027-84.525-33.149-26.113-14.903-38.841-2.287-60.376-1.055" stroke="#353941" stroke-width=".5" stroke-linecap="round" stroke-linejoin="round"/><path d="M424 153.696c-20.66-1.031-27.503-3.142-52.32 18.271-29.941 26.136-24.683 16.109-60.376 24.603-50.633 13.572-65.912 94.847-86.542 96.456-29.735-6.057-57.063-163.406-88.547-171.499-18.562-.779-28.542 40.99-50.314 69.791-30.672 37.195-46.579-11.159-84.525-35.134-26.185-15.531-38.316-3.669-60.376-2.488" stroke="#353941" stroke-width=".5" stroke-linecap="round" stroke-linejoin="round"/><path d="M424 153.696c-18.983-.93-26.453-3.267-50.314 16.537-32.657 27.846-25.877 17.115-62.382 24.126-49.943 11.184-65.511 93.188-86.542 96.305-29.9-3.594-57.382-151.921-88.547-160.818-18.562-1.508-28.676 38.05-50.314 64.714-30.64 34.556-46.465-12.264-84.514-37.044-26.166-16.059-38.893-4.9-60.377-3.845" stroke="#353941" stroke-width=".5" stroke-linecap="round" stroke-linejoin="round"/><path d="M424 153.696c-14.436-.729-21.36-2.212-36.228 6.258-15.763 9.726-23.305 20.005-36.228 26.388-23.325 9.751-43.811-4.85-70.439 21.261-37.452 39.533-44.5 102.161-70.439 70.168-26.278-36.466-47.484-125.91-72.445-138.551-24.313-7.615-36.578 57.124-66.406 68.157-23.47 6.057-36.989-25.534-68.422-47.348-27.544-18.245-39.911-7.288-62.383-6.333" stroke="#353941" stroke-width=".5" stroke-linecap="round" stroke-linejoin="round"/><path d="M424 153.696c-14.487-.703-21.391-2.01-36.228 6.359-15.536 9.474-23.562 19.753-36.228 25.558-23.788 9.023-43.78-7.64-70.439 17.894-35.312 36.567-43.594 97.31-68.422 74.867-26.34-27.845-47.556-111.861-72.445-129.302-24.571-12.817-37.288 47.423-66.406 59.436-23.86 7.314-38.028-23.699-68.422-45.89-29.026-20.432-40.745-9.801-64.4-8.922" stroke="#353941" stroke-width=".5" stroke-linecap="round" stroke-linejoin="round"/><path d="M424 153.696c-23.222-1.055-27.616-1.508-56.343 21.035-23.006 17.718-26.33 11.31-54.337 11.033-47.401.98-62.598 73.862-84.524 92.309-29.345 18.095-57.249-93.54-86.531-118.798-34.87-24.503-45.17 88.288-100.617 37.999-33.584-31.64-46.394-50.967-84.535-45.287-8.005 1.257-9.281 1.508-16.103 1.709" stroke="#353941" stroke-width=".5" stroke-linecap="round" stroke-linejoin="round"/><path d="M424 153.696c-30.641-1.483-32.699 3.845-60.376 23.774-21.679 14.929-30.631 5.529-54.337 5.504-46.743 1.86-60.808 82.457-84.525 93.616-30.383 8.167-57.619-95.023-86.531-111.032-19.961-7.967-30.003 22.442-52.32 40.588-17.923 13.068-30.538 5.503-48.297-11.636-56.22-55.416-56.435-41.895-96.594-40.814" stroke="#353941" stroke-width=".5" stroke-linecap="round" stroke-linejoin="round"/><path d="M424 153.696c-28.737-1.307-31.639 2.915-58.36 22.015-22.461 15.507-28.737 6.736-54.336 4.273-46.497-2.765-60.716 73.887-84.525 91.68-30.404 16.813-58.36-76.325-86.531-96.279-34.592-19.653-44.542 74.038-100.617 21.889-59.09-56.47-55.067-44.483-98.61-43.578" stroke="#353941" stroke-width=".5" stroke-linecap="round" stroke-linejoin="round"/><path d="M424 153.696c-29.231-1.207-32.123 3.694-58.36 21.663-21.164 13.923-26.556 6.685-52.32 1.609-46.126-7.59-60.489 64.362-84.524 88.212-30.682 25.081-58.947-57.099-86.532-79.994-35.517-25.157-45.95 62.628-100.616 14.073-59.132-54.209-51.22-46.267-100.627-45.563" stroke="#353941" stroke-width=".5" stroke-linecap="round" stroke-linejoin="round"/><path d="M424 153.696c-31.814-1.206-34.108 6.132-60.376 22.543-20.702 12.164-28.254 2.664-52.32-2.965-45.9-8.897-58.298 65.392-84.525 88.689-31.968 23.423-59.358-50.539-86.531-69.815-35.137-20.985-45.005 55.666-100.617 5.403-58.648-54.209-55.973-44.207-98.61-43.855" stroke="#353941" stroke-width=".5" stroke-linecap="round" stroke-linejoin="round"/><path d="M424 153.696c-44.037-1.608-50.54 24.101-74.462 27.193-24.56 1.131-42.741-24.956-68.422-4.826-29.705 26.137-39.912 83.764-68.423 87.609-27.544 1.031-47.659-43.377-70.439-61.698-26.216-18.622-38.615 13.295-66.405 14.551-25.25-.527-39.078-25.961-72.446-49.936-26.834-18.748-37.442-12.943-62.383-12.893" stroke="#353941" stroke-width=".5" stroke-linecap="round" stroke-linejoin="round"/><path d="M424 153.696c-27.544-.905-30.939 3.694-56.343 19.377-21.597 12.792-27.174 5.931-52.32-4.926-46.002-18.522-56.662 44.382-84.525 79.768-33.614 38.627-61.395-14.225-86.531-35.964-37.421-29.63-48.225 32.923-100.617-10.605-60.17-51.495-51.435-47.424-102.644-47.65" stroke="#353941" stroke-width=".5" stroke-linecap="round" stroke-linejoin="round"/><path d="M424 153.696c-30.127-.905-33.234 6.107-58.36 20.206-35.6 18.748-54.542-32.269-86.531-6.182-33.625 30.786-47.947 121.134-100.627 83.939-15.464-11.686-24.807-25.131-38.234-34.681-21.206-13.546-32.133-2.212-52.32 1.206-34.16 4.348-49.12-27.871-90.554-54.486-22.286-13.596-33.265-9.851-56.354-10.027" stroke="#353941" stroke-width=".5" stroke-linecap="round" stroke-linejoin="round"/><path d="M424 153.696c-30.435-.804-33.872 6.836-58.36 19.854-22.45 11.134-30.167-1.307-54.336-13.722-42.998-20.256-53.967 45.966-84.525 81.879-36.506 39.909-59.059 3.393-84.525-16.134-38.44-27.369-47.288 17.14-100.617-26.967-59.244-49.936-57.032-44.357-100.617-44.91" stroke="#353941" stroke-width=".5" stroke-linecap="round" stroke-linejoin="round"/><path d="M424 153.696c-28.614-.653-32.39 5.73-56.343 18.522-22.832 11.485-29.55.829-54.337-14.576-43.327-25.484-53.688 35.611-84.524 76.023-38.883 48.529-59.091 19.779-86.532-.905-40.312-28.7-47.103 9.098-102.633-36.617-57.825-48.202-59.533-41.743-98.61-42.447" stroke="#353941" stroke-width=".5" stroke-linecap="round" stroke-linejoin="round"/><path d="M424 153.696c-28.439-.628-32.37 6.107-56.343 18.246-21.226 10.027-27.647 1.734-52.32-16.16-43.77-30.459-53.009 24.805-84.525 69.414-38.244 52.173-55.921 39.959-84.524 17.743-45.324-34.531-50.283-3.468-102.634-44.408-60.798-48.253-58.164-43.804-102.633-44.835" stroke="#353941" stroke-width=".5" stroke-linecap="round" stroke-linejoin="round"/><path d="M424 153.696c-40.436-.779-50.499 22.493-72.445 21.739-25.27-3.292-42.813-42.297-68.423-31.465-23.263 12.44-30.805 49.484-66.416 94.344-24.971 30.611-39.798 33.124-64.399 16.135-51.466-36.768-44.068-21.211-78.485-37.245-28.305-13.873-45.406-35.335-78.485-54.083-20.558-11.033-31.125-8.746-54.337-9.4" stroke="#353941" stroke-width=".5" stroke-linecap="round" stroke-linejoin="round"/><path d="M424 153.696c-28.933-.477-34.252 7.716-56.343 17.718-37.349 15.532-53.657-44.03-84.525-32.545-19.878 9.675-30.25 41.14-50.313 71.65-35.652 53.078-50.015 70.997-84.525 47.474-48.822-34.23-39.747-23.725-70.44-39.155-33.922-17.618-65.51-51.746-96.593-61.699-13.664-3.895-21.092-2.814-40.25-3.443" stroke="#353941" stroke-width=".5" stroke-linecap="round" stroke-linejoin="round"/><path d="M424 153.696c-28.943-.377-34.417 8.092-56.343 17.567-37.689 14.803-53.555-47.021-84.525-37.27-19.559 8.469-29.612 38.577-50.313 70.469-25.435 38.803-38.78 63.809-60.377 66.8-14.322.779-23.963-7.866-42.257-20.683-39.9-28.374-35.518-21.614-62.383-38.753-42.843-27.821-66.426-55.391-104.65-57.602-6.996-.302-9.157-.101-22.132-.528" stroke="#353941" stroke-width=".5" stroke-linecap="round" stroke-linejoin="round"/><path d="M424 153.696c-39.273-.377-50.766 22.794-72.445 19.728-25.507-6.182-42.834-50.891-68.423-44.282-18.181 6.861-22.831 25.232-74.462 108.77-40.189 63.508-54.717 33.4-102.633-1.86-126.32-90.725-121.226-80.848-165.017-82.356" stroke="#353941" stroke-width=".5" stroke-linecap="round" stroke-linejoin="round"/><path d="M424 153.696c-28.943-.201-35.333 9.073-56.343 17.265-38.481 13.345-54.851-56.32-86.541-46.066-13.901 6.233-22.986 23.724-36.228 47.398-9.219 16.21-9.075 14.778-18.109 29.857-33.46 57.099-45.54 95.299-86.531 66.247-26.639-19.427-15.547-16.889-58.36-49.032-96.954-71.324-97.19-64.086-140.868-65.669" stroke="#353941" stroke-width=".5" stroke-linecap="round" stroke-linejoin="round"/><path d="M424 153.696c-28.943-.101-35.631 9.475-56.343 17.115-38.008 12.314-53.565-55.893-84.525-51.445-16.349 4.398-23.552 21.965-54.336 73.535-19.21 33.35-31.897 68.635-52.32 84.694-27.462 18.773-51.219-19.829-82.508-48.303-37.556-33.651-80.914-60.819-104.65-70.017-16.834-6.031-26.33-4.75-48.297-5.579" stroke="#353941" stroke-width=".5" stroke-linecap="round" stroke-linejoin="round"/><path d="M424 153.696c-28.851-.025-35.868 9.851-56.343 17.014-21.885 6.66-30.991-7.69-52.32-34.054-26.999-32.646-39.757-29.655-64.399 12.994-18.233 32.017-15.455 25.433-24.149 41.09-19.312 36.089-32.75 76.4-54.336 91.856C131.862 307.15 121.182 221.551-.62 163.17c-22.276-10.304-31.546-8.419-58.36-9.449" stroke="#353941" stroke-width=".5" stroke-linecap="round" stroke-linejoin="round"/><path d="M424 153.696c-54.964-.101-57.701 47.197-100.617-8.369-12.614-16.562-22.934-31.389-36.228-34.43-19.426-2.036-29.797 23.473-54.336 63.734-30.096 50.866-47.196 131.162-86.531 110.956-31.176-18.221-40.118-56.521-98.611-96.832-56.364-38.05-78.022-34.029-106.656-35.059" stroke="#353941" stroke-width=".5" stroke-linecap="round" stroke-linejoin="round"/><path d="M424 153.696c-36.516.025-49.13 21.865-70.429 18.045-26.206-7.414-42.916-60.643-68.422-64.966-12.985-.527-21.813 11.586-32.195 28.475-29.468 49.283-26.01 42.196-46.29 90.071-19.766 46.142-35.971 79.14-64.4 60.995C103.475 259.073 101.52 204.789-.62 161.512c-22.46-9.173-31.628-6.961-58.36-7.841" stroke="#353941" stroke-width=".5" stroke-linecap="round" stroke-linejoin="round"/><path d="M424 153.696c-26.947.075-34.355 9.299-54.337 16.436-23.047 7.288-32.431-7.715-54.336-39.055-26.752-37.571-39.5-38.878-64.4 2.036-3.138 5.253-19.127 31.842-22.142 37.421-18.314 35.989-31.494 84.493-52.32 111.66-31.319 36.994-56.024-18.874-84.524-55.566-30.682-38.627-55.253-50.716-90.554-65.116-24.098-9.525-32.596-7.012-60.377-7.816" stroke="#353941" stroke-width=".5" stroke-linecap="round" stroke-linejoin="round"/><path d="M424 153.696c-35.971.201-49.12 22.267-70.429 17.592-27.286-8.871-43.944-68.232-70.439-72.68-12.954-.428-21.844 12.239-32.205 28.976-21.514 35.386-23.366 36.768-38.234 75.37-23.253 60.919-40.086 108.644-70.439 89.871-26.299-18.371-32.184-49.761-68.422-88.489-24.025-24.83-46.003-33.953-74.462-44.432-22.45-7.942-30.898-5.479-58.35-6.208" stroke="#353941" stroke-width=".5" stroke-linecap="round" stroke-linejoin="round"/><path d="M424 153.696c-35.888.251-49.007 22.518-70.429 17.492-26.443-9.023-42.813-66.423-68.422-75.672-12.903-2.965-21.731 7.741-32.195 23.75-24.22 38.325-27.399 45.061-40.251 79.767-23.551 64.413-40.446 114.525-70.439 96.28-26.309-18.296-32.842-53.053-68.422-92.686-24.282-26.086-47.597-34.832-76.468-44.257-21.227-6.559-29.633-4.096-56.354-4.674" stroke="#353941" stroke-width=".5" stroke-linecap="round" stroke-linejoin="round"/><path d="M424 153.696c-36.619.302-50.653 24.453-72.445 16.889-26.052-11.988-42.824-70.796-68.423-78.286-12.871-2.035-21.689 9.475-32.194 25.685-25.301 39.985-25.054 40.236-46.291 100.099-18.325 51.118-35.394 96.984-64.399 76.903-25.64-19.904-33.254-57.551-68.422-96.38-23.1-24.528-45.303-32.445-74.462-41.19-21.37-6.057-29.777-3.393-56.354-3.72" stroke="#353941" stroke-width=".5" stroke-linecap="round" stroke-linejoin="round"/><path d="M424 153.696c-25.219.226-32.637 8.721-52.32 16.16-41.486 14.048-52.906-59.085-84.525-78.587-15.814-7.715-26.751 3.77-54.336 51.621-19.55 36.089-32.349 96.103-54.337 136.263-34.036 57.627-59.244-12.44-86.531-55.465-30.661-47.122-52.515-54.712-90.554-66.096-24.52-7.062-32.41-3.795-60.377-3.896" stroke="#353941" stroke-width=".5" stroke-linecap="round" stroke-linejoin="round"/><path d="M424 153.696c-53.287.502-60.068 50.891-100.617-15.104-38.975-64.74-47.484-75.697-90.554-.428-20.105 37.547-33.481 103.392-56.353 143.904-33.676 54.963-57.856-16.913-86.531-62.603-30.003-46.418-52.372-53.48-90.565-63.482-23.274-5.781-31.628-2.363-58.36-2.312" stroke="#353941" stroke-width=".5" stroke-linecap="round" stroke-linejoin="round"/><path d="M424 153.696c-53.647.553-60.418 52.776-102.634-19.025-37.03-63.985-47.288-73.812-88.547-1.206-28.398 53.631-47.896 181.224-86.531 168.206-34.397-15.758-46.528-98.893-100.617-130.936-38.924-21.663-78.774-17.341-104.65-17.039" stroke="#353941" stroke-width=".5" stroke-linecap="round" stroke-linejoin="round"/><path d="M424 153.696c-53.246.528-60.736 53.254-102.634-19.301-37.411-65.569-46.053-74.138-84.524-12.013-30.95 51.646-49.254 182.556-86.531 180.596-35.94-6.785-47.485-96.33-100.617-131.74-11.257-7.037-20.465-10.002-32.195-13.043-42.988-10.656-37.689-5.379-76.468-4.524" stroke="#353941" stroke-width=".5" stroke-linecap="round" stroke-linejoin="round"/><path d="M424 153.696c-51.476.402-61.23 51.721-100.617-15.506-14.6-25.509-23.315-43.78-36.228-54.813-17.748-12.892-29.56 2.966-48.297 32.496-33.058 53.254-49.994 182.355-86.531 186.225-36.547-1.357-48.955-96.757-102.633-132.519-11.298-7.037-20.527-9.902-32.195-12.742-42.041-9.826-38.12-4.523-76.478-3.141" stroke="#353941" stroke-width=".5" stroke-linecap="round" stroke-linejoin="round"/><path d="M424 153.696c-51.404.302-61.446 52.173-100.617-15.205-37.905-66.825-46.846-86.453-86.531-22.643-30.754 51.394-49.192 186.049-86.531 185.22-36.588-5.931-48.328-100.602-102.634-134.404-38.213-22.191-85.944-14.023-106.666-12.968" stroke="#353941" stroke-width=".5" stroke-linecap="round" stroke-linejoin="round"/><path d="M424 153.696c-51.065.201-61.735 52.5-100.617-14.903-37.895-67.403-47.175-89.343-86.531-26.238-30.703 51.344-49.12 187.809-86.531 187.533-36.619-5.479-48.575-101.507-102.634-135.083-39.448-22.819-94.042-12.113-106.666-11.309" stroke="#353941" stroke-width=".5" stroke-linecap="round" stroke-linejoin="round"/><path d="M424 153.696c-53.297.075-61.652 55.289-102.634-18.221-35.096-64.06-46.794-89.343-86.541-22.819-29.118 52.248-48.585 191.352-86.531 186.2-36.341-9.952-48.204-105.327-102.634-136.666-37.966-20.281-86.17-9.927-104.65-8.469" stroke="#353941" stroke-width=".5" stroke-linecap="round" stroke-linejoin="round"/><path d="M424 153.696c-53.977-.126-61.724 55.893-102.634-17.693-34.519-63.256-46.187-90.499-84.524-29.328-30.518 51.092-49.09 190.221-86.531 190.9-36.691-4.624-49.069-102.336-102.634-135.636-38.131-22.015-90.894-9.726-106.656-8.243" stroke="#353941" stroke-width=".5" stroke-linecap="round" stroke-linejoin="round"/><path d="M424 153.696c-53.688-.478-62.012 55.792-102.634-16.813-32.472-59.186-46.352-95.626-86.541-28.449-28.974 52.072-48.533 191.076-86.531 186.451-36.413-9.399-48.678-103.643-102.634-135.133-37.884-20.507-83.958-8.394-104.65-6.056" stroke="#353941" stroke-width=".5" stroke-linecap="round" stroke-linejoin="round"/><path d="M424 153.696c-52.968-.779-62.424 55.491-102.634-15.908-31.484-57.1-46.444-97.863-86.541-30.937-28.933 51.997-48.492 190.07-86.531 185.622-36.259-9.148-49.028-102.06-102.634-133.726-38.82-21.261-87.9-7.237-104.64-5.051" stroke="#353941" stroke-width=".5" stroke-linecap="round" stroke-linejoin="round"/><path d="M424 153.696c-34.448-.729-48.626 22.92-70.429 19.955-39.695-9.475-57.145-138.275-102.633-90.952-16.01 18.02-23.552 35.662-32.195 60.919-23.253 70.067-40.889 149.76-70.439 146.442-42.967-10.58-49.737-129.252-132.822-142.119-37.328-5.303-41.825.905-74.462 5.78" stroke="#353941" stroke-width=".5" stroke-linecap="round" stroke-linejoin="round"/><path d="M424 153.696c-33.131-.93-46.98 20.809-68.422 20.382-39.655-4.524-58.422-130.358-100.617-96.48-13.726 12.364-23.819 30.685-32.195 52.902-23.449 65.292-40.919 152.172-70.439 157.299-43.924 1.306-52.433-128.298-136.845-140.939-36.526-4.951-41.598 1.257-74.462 6.861" stroke="#353941" stroke-width=".5" stroke-linecap="round" stroke-linejoin="round"/><path d="M424 153.696c-34.119-1.206-48.709 22.141-70.429 20.206-39.592-7.514-57.999-135.736-102.633-93.088-14.93 15.657-22.996 33.476-32.195 60.04-23.202 69.112-40.837 147.095-70.439 143.979-43.163-10.178-52-128.121-134.828-139.204-34.581-4.172-39.85 1.91-72.445 8.067" stroke="#353941" stroke-width=".5" stroke-linecap="round" stroke-linejoin="round"/><path d="M424 153.696c-34.191-1.583-48.626 21.412-70.429 20.08-27.647-4.398-44.49-66.975-70.439-93.615-25.27-22.995-48.286 14.476-64.399 60.366-23.14 67.956-40.786 144.155-70.439 141.014-43.07-10.002-53.935-125.508-134.828-136.691-33.975-4.222-39.922 2.061-72.445 8.846" stroke="#353941" stroke-width=".5" stroke-linecap="round" stroke-linejoin="round"/><path d="M424 153.696c-34.633-1.96-48.338 20.683-70.429 19.929-27.194-3.468-42.782-60.316-68.422-89.82-24.828-25.986-47.289 4.574-64.399 50.741-23.789 66.875-41.692 146.995-72.446 143.677-41.743-9.55-57.022-123.044-134.828-134.178-33.79-4.272-40.693 2.463-72.445 9.601" stroke="#353941" stroke-width=".5" stroke-linecap="round" stroke-linejoin="round"/><path d="M424 153.697c-53.462-3.619-64.183 54.309-104.64-13.044-28.902-49.383-47.7-98.516-84.525-37.848-29.447 52.274-48.657 180.722-88.547 171.699-36.187-12.214-51.785-90.725-104.65-121.838-36.414-20.03-69.03-6.735-100.618 1.005" stroke="#353941" stroke-width=".5" stroke-linecap="round" stroke-linejoin="round"/><path d="M424 153.671c-34.283-2.664-48.503 19.175-70.429 19.678-27.955-1.835-44.366-60.19-70.439-88.564-25.918-25.458-47.247 7.816-64.399 54.762-22.986 64.664-40.611 135.334-70.439 132.092-42.833-9.525-60.89-119.376-136.845-129.428-31.618-3.669-39.397 3.217-70.439 11.41" stroke="#353941" stroke-width=".5" stroke-linecap="round" stroke-linejoin="round"/><path d="M424 153.671c-34.438-3.091-48.451 18.17-70.429 19.301-28.161-.955-44.109-57.351-70.439-86.277-62.732-62.502-79.534 187.633-134.838 181.601-43.163-9.449-63.74-117.943-138.861-126.99-29.808-3.167-38.348 3.82-68.423 12.34" stroke="#353941" stroke-width=".5" stroke-linecap="round" stroke-linejoin="round"/><path d="M424 153.671c-34.489-3.594-48.441 16.888-70.429 18.647-27.286-.025-43.162-51.117-68.422-81.074-63.196-69.389-80.121 173.835-134.828 173.81-42.988-4.699-68.731-113.57-138.862-124.075-30.939-4.021-40.127 3.519-70.439 12.641" stroke="#353941" stroke-width=".5" stroke-linecap="round" stroke-linejoin="round"/><path d="M424 153.671c-52.989-6.258-65.542 46.895-102.634-5.404-29.992-43.905-50.406-100.953-86.541-42.246-28.635 49.987-47.556 159.687-86.531 155.389-37.452-7.816-59.728-79.642-110.68-111.434-38.172-22.392-72.29-4.121-96.594 3.645" stroke="#353941" stroke-width=".5" stroke-linecap="round" stroke-linejoin="round"/><path d="M424 153.671c-53.421-7.037-65.86 45.287-102.634-4.373-14.538-20.457-24.066-40.035-38.234-55.591-48.811-49.108-68.144 83.688-104.65 143.652-33.306 50.816-63.185-2.965-98.61-46.368-36.156-43.754-54.378-50.917-80.492-52.349-22.286-.704-32.997 6.408-58.36 14.978" stroke="#353941" stroke-width=".5" stroke-linecap="round" stroke-linejoin="round"/><path d="M424 153.645c-34.952-5.101-47.988 12.943-70.429 16.663-28.5 2.789-44.387-45.765-70.439-74.29-61.93-62.527-76.725 164.939-134.838 158.456-50.005-9.902-78.516-116.033-152.947-116.561-20.033.402-30.58 7.213-54.337 15.682" stroke="#353941" stroke-width=".5" stroke-linecap="round" stroke-linejoin="round"/><path d="M424 153.646c-54.079-8.721-66.632 41.568-102.634-2.538-14.661-18.799-23.922-37.069-38.234-52.626-61.827-62.1-75.707 159.234-134.838 152.801-51.99-9.902-81.387-111.434-150.93-113.922-21.515-.201-33.244 7.715-56.354 16.235" stroke="#353941" stroke-width=".5" stroke-linecap="round" stroke-linejoin="round"/><path d="M424 153.646c-56.302-10.003-67.085 41.065-104.64-4.373-30.394-38.401-51.198-90.298-84.535-36.919-28.552 48.881-46.774 140.109-86.531 135.963-41.578-7.414-74.843-72.706-114.713-100.426-35.878-23.473-67.25-4.072-92.57 5.679" stroke="#353941" stroke-width=".5" stroke-linecap="round" stroke-linejoin="round"/><path d="M424 153.646c-57.485-10.958-67.414 38.702-104.64-3.645-31.906-37.999-52.546-89.996-86.531-32.143-28.491 51.419-45.961 133.977-86.531 127.191-45.375-10.379-75.573-69.438-112.696-96.882-35.91-25.031-67.569-4.599-92.571 5.428" stroke="#353941" stroke-width=".5" stroke-linecap="round" stroke-linejoin="round"/><path d="M424 153.62c-59.07-12.289-67.476 36.693-104.64-2.915-31.073-34.782-52.804-87.936-86.531-30.811-28.933 51.821-45.745 128.548-86.531 122.215-51.085-10.782-78.094-68.107-114.713-95.199-34.931-24.227-66.56-3.342-90.565 6.66" stroke="#353941" stroke-width=".5" stroke-linecap="round" stroke-linejoin="round"/><path d="M424 153.621c-59.708-13.445-67.939 34.255-104.64-2.161-31.536-33.023-53.184-85.7-86.531-29.505-29.931 53.154-45.653 125.131-88.548 116.837-56.425-13.294-76.653-63.533-112.696-91.705-35.106-25.81-67.517-3.493-90.565 6.484" stroke="#353941" stroke-width=".5" stroke-linecap="round" stroke-linejoin="round"/><path d="M424 153.621c-60.86-14.828-68.217 31.716-104.64-1.734-32.112-31.239-53.534-83.136-86.531-27.821-29.952 52.777-45.365 117.893-86.531 112.665-60.5-10.304-76.119-55.792-112.696-87.81-35.21-29.127-66.56-7.011-92.582 4.65" stroke="#353941" stroke-width=".5" stroke-linecap="round" stroke-linejoin="round"/><path d="M424 153.62c-62.228-16.335-68.546 28.801-104.64-1.558-32.575-29.203-53.863-80.27-86.531-25.76-30.517 53.38-45.118 114.425-88.548 108.242-20.99-3.644-30.877-4.674-50.313-19.753-23.49-19.1-37.38-43.252-58.36-63.608-35.374-32.772-65.644-10.933-94.588 2.412" stroke="#353941" stroke-width=".5" stroke-linecap="round" stroke-linejoin="round"/><path d="M424 153.621c-64.348-17.969-69.451 27.419-106.657-3.066-34.231-29.806-53.493-75.898-86.531-18.547-31.433 56.722-44.685 105.452-86.531 100.652-21.092-2.966-33.141-2.237-54.337-19.427C52.37 181.14 40.846 137.713-.61 133.717c-22.543-1.408-36.279 9.374-58.36 19.879" stroke="#353941" stroke-width=".5" stroke-linecap="round" stroke-linejoin="round"/><path d="M424 153.62c-67.095-20.08-69.03 25.207-106.657-2.764-35.003-27.796-53.688-73.259-86.531-16.688-33.213 59.261-44.644 101.03-88.548 96.38-18.808-2.261-31.988 1.106-54.336-17.19-36.32-31.515-47.69-76.073-88.548-80.195-22.492-1.483-36.28 9.6-58.36 20.382" stroke="#353941" stroke-width=".5" stroke-linecap="round" stroke-linejoin="round"/><path d="M424 153.596c-68.309-21.79-69.297 22.442-106.657-2.463-35.456-25.459-53.801-70.771-86.531-14.803-32.513 57.351-44.356 95.023-86.531 92.535-21.35-1.634-33.264 3.267-54.337-12.063-22.09-17.316-35.805-44.307-56.342-66.499-34.551-35.41-66.91-9.65-92.581 3.267" stroke="#353941" stroke-width=".5" stroke-linecap="round" stroke-linejoin="round"/><path d="M424 153.596c-71.087-23.976-69.884 21.236-108.673-3.77-14.909-10.279-24.046-21.839-38.234-31.741-23.099-14.928-33.018-2.966-48.297 23.749-39.047 69.741-46.281 87.107-90.555 85.624-14.847-.252-28.593 6.459-50.313-10.053-35.775-29.329-47.134-80.848-88.548-85.297-22.317-1.558-36.114 10.003-58.36 21.463" stroke="#353941" stroke-width=".5" stroke-linecap="round" stroke-linejoin="round"/><path d="M424 153.621c-72.044-25.76-69.194 16.838-106.657-2.765-15.69-8.997-25.208-20.733-40.25-30.887-23.377-14.651-32.926-2.99-48.297 23.649-19.097 33.702-33.79 63.634-56.343 77.205-13.52 7.288-22.266 5.855-36.228 6.383-12.409.779-27.215 8.394-48.297-7.338-20.856-16.964-34.479-45.438-54.337-69.012-32.4-36.541-60.839-14.023-92.57 2.714" stroke="#353941" stroke-width=".5" stroke-linecap="round" stroke-linejoin="round"/><path d="M424 153.62c-21.031-7.941-35.004-13.722-56.343-8.771-21.196 5.58-29.386 16.21-52.32 4.7-15.043-8.243-23.665-18.221-38.234-27.745-24.005-14.577-33.182-2.438-48.297 23.548-45.797 79.893-51.929 77.782-92.571 81.577-12.511 1.533-27.42 10.631-48.297-4.649-20.712-16.662-34.602-46.695-54.347-71.173-32.39-38.175-61.374-14.325-92.57 2.488" stroke="#353941" stroke-width=".5" stroke-linecap="round" stroke-linejoin="round"/><path d="M424 153.62c-21.545-8.569-36.465-15.481-58.36-10.228-19.662 5.378-27.976 15.632-50.313 6.006-14.755-7.037-24.077-16.813-38.234-25.734-25.126-14.778-34.016-.905-48.297 23.447-43.297 74.692-51.425 74.465-90.555 79.291-15.299 2.287-28.171 12.666-48.297-.226-20.855-15.004-34.21-45.061-54.336-72.229-33.542-43.377-63.401-17.542-94.588-.352" stroke="#353941" stroke-width=".5" stroke-linecap="round" stroke-linejoin="round"/><path d="M424 153.621c-20.372-8.369-35.374-16.461-56.343-12.667-21.082 4.6-28.953 16.713-52.32 8.269-14.765-6.007-23.829-15.004-38.234-23.724-27.853-15.833-35.168 1.08-54.337 33.601-38.152 64.136-49.964 60.868-84.525 66.925-15.032 3.066-28.325 14.928-48.297 2.513-21.75-15.33-35.322-48.68-56.342-77.003-31.722-40.638-60.613-15.984-92.571 2.036" stroke="#353941" stroke-width=".5" stroke-linecap="round" stroke-linejoin="round"/><path d="M424 153.646c-22.297-9.626-37.277-18.246-58.36-14.175-19.456 4.549-27.616 16.135-50.313 9.349-14.693-5.076-23.943-13.571-38.234-21.94-28.162-15.506-35.014.98-54.337 33.425-40.868 67.529-55.355 58.432-86.531 66.549-14.158 4.222-28.048 17.115-48.297 2.84-21.648-17.19-35.6-53.103-56.343-80.698-30.445-38.25-60.047-12.892-90.565 4.624" stroke="#353941" stroke-width=".5" stroke-linecap="round" stroke-linejoin="round"/><path d="M424 153.646c-23.531-10.556-37.802-19.528-58.36-16.085-19.323 4.072-27.461 16.16-50.313 10.581-15.65-4.524-25.455-13.496-40.251-21.387-26.968-13.395-33.378 3.066-52.32 34.405-38.615 62.98-52.516 56.923-84.525 65.946-15.516 4.9-28.531 18.873-48.297 6.584-21.668-15.481-35.332-51.696-56.343-82.105-31.073-42.774-60.067-17.039-92.57 2.061" stroke="#353941" stroke-width=".5" stroke-linecap="round" stroke-linejoin="round"/><path d="M424 153.671c-25.126-11.686-39.201-21.588-60.376-17.617-18.305 4.297-26.989 16.411-50.314 10.957-14.878-4.147-24.035-11.937-38.234-19.251-26.628-12.842-33.11 2.589-50.314 30.962-40.065 65.519-55.129 58.633-86.531 69.163-16.01 5.956-29.663 21.94-50.313 6.961C53.007 206.071 41.545 131.806-.63 127.861c-21.031-.93-34.036 11.284-58.36 25.785" stroke="#353941" stroke-width=".5" stroke-linecap="round" stroke-linejoin="round"/><path d="M424 153.671c-34.849-16.763-45.92-28.499-78.485-12.616-30.415 14.451-43.739.98-70.439-12.315-34.263-16.009-34.787 13.169-68.422 57.728-29.499 37.823-47.443 33.224-70.439 43.075-12.46 5.881-19.241 14.476-34.212 13.923-41.578-5.328-55.962-114.525-104.65-116.334-19.991.251-32.585 12.189-56.353 26.539" stroke="#353941" stroke-width=".5" stroke-linecap="round" stroke-linejoin="round"/><path d="M424 153.696c-25.352-12.616-38.502-23.548-58.36-21.814-19.137 2.714-26.947 16.084-50.313 14.275-14.631-1.81-23.964-8.244-38.234-15.431-28.769-13.848-33.893-.076-52.32 29.806-40.961 65.493-60.449 56.32-88.548 69.941-15.804 8.369-29.437 25.685-50.314 7.867-21.555-20.709-35.497-63.081-56.343-92.887-28.778-38.477-59.152-9.751-88.547 8.243" stroke="#353941" stroke-width=".5" stroke-linecap="round" stroke-linejoin="round"/><path d="M424 153.696c-26.186-13.345-39.706-25.71-60.376-23.247-18.408 3.267-27.657 17.567-52.32 14.451-14.981-2.539-24.139-9.349-38.235-15.582-26.689-10.907-31.885 5.529-50.313 34.782-39.088 60.743-59.039 52.877-86.531 67.68-15.722 9.198-29.427 27.293-50.314 8.922-21.39-21.186-35.61-65.267-56.343-95.727-28.81-39.482-59.008-9.475-88.547 8.721" stroke="#353941" stroke-width=".5" stroke-linecap="round" stroke-linejoin="round"/><path d="M424 153.696c-24.797-12.843-38.368-25.76-58.36-25.006-18.962 1.834-26.72 15.732-50.313 15.657-14.621-.704-24.005-6.434-38.234-13.169-28.038-12.817-33.358-1.257-50.314 26.488-40.436 65.066-60.345 59.06-88.548 74.516-16.308 9.625-29.766 28.951-50.313 12.566-19.797-18.07-32.668-56.22-52.32-90.776-31.248-52.525-58.308-22.644-94.588-.276" stroke="#353941" stroke-width=".5" stroke-linecap="round" stroke-linejoin="round"/><path d="M424 153.696c-24.581-12.817-38.203-26.79-58.36-26.514-18.87 1.407-26.576 15.506-50.313 16.21-14.601-.226-23.943-5.579-38.234-12.189-28.295-12.641-33.389-1.181-50.314 26.464-38.759 62.251-58.607 59.084-86.531 74.792-16.936 10.153-29.139 28.876-48.297 17.667C58.666 226.603 41.977 132.661 5.42 124.845c-23.737-3.669-39.654 13.571-64.4 28.851" stroke="#353941" stroke-width=".5" stroke-linecap="round" stroke-linejoin="round"/><path d="M424 153.696c-29.581-15.632-46.095-36.014-72.445-24.528-24.725 11.962-34.479 20.004-66.416 5.755-44.83-20.432-38.873-2.639-72.446 43.854-29.9 40.111-48.647 40.488-72.445 55.089-21.813 14.199-37.123 42.196-64.4.176-26.894-44.056-40.64-103.919-70.438-110.026-23.85-3.443-39.068 14.149-64.39 29.68" stroke="#353941" stroke-width=".5" stroke-linecap="round" stroke-linejoin="round"/><path d="M424 153.696c-24.354-13.043-38.049-28.8-58.36-29.529-19.179.578-27.564 16.134-52.32 17.416-14.703.1-23.839-5.052-38.234-11.184-28.223-11.535-32.544 2.061-50.313 30.485-38.667 60.668-60.737 56.546-88.548 77.255-15.887 12.566-28.707 30.836-48.297 13.445-20.64-20.909-34.119-66.046-54.337-102.487-30.29-51.62-59.532-15.632-92.57 4.599" stroke="#353941" stroke-width=".5" stroke-linecap="round" stroke-linejoin="round"/><path d="M424 153.696c-23.202-12.49-36.691-28.198-56.343-30.56-30.764-1.734-31.166 33.4-90.564 7.69-28.697-12.063-33.09-1.734-50.314 26.363-39.829 63.734-62.084 60.04-90.564 82.533-17.368 14.526-30.086 32.822-50.314 11.585-20.61-24.252-34.18-71.449-54.337-106.407-29.149-47.474-59.193-10.329-90.544 8.796" stroke="#353941" stroke-width=".5" stroke-linecap="round" stroke-linejoin="round"/><path d="M424 153.696c-22.924-12.365-36.598-28.701-56.343-31.44-19.549-1.458-25.959 12.968-50.314 16.989-40.497 4.926-56.055-39.055-84.514 7.238-42.041 69.464-59.985 68.031-90.565 90.072-18.448 13.898-30.702 35.586-50.313 22.015C58.8 231.126 41.987 127.433 5.42 121.301c-23.994-2.463-39.89 17.517-64.4 32.395" stroke="#353941" stroke-width=".5" stroke-linecap="round" stroke-linejoin="round"/><path d="M424 153.696c-22.687-12.265-36.516-29.178-56.343-32.32-19.518-1.809-25.898 12.616-50.314 16.838-40.58 5.278-56.147-38.778-84.514 7.465-41.887 69.388-60.037 68.86-90.564 92.182-18.366 14.627-30.652 36.617-50.314 22.343C58.769 231.528 42.028 125.825 5.41 120.296c-23.995-1.986-40.18 18.773-64.4 33.4" stroke="#353941" stroke-width=".5" stroke-linecap="round" stroke-linejoin="round"/><path d="M424 153.696c-23.336-12.641-37.751-31.163-58.36-33.425-26.473-1.081-34.828 30.585-82.508 10.832-33.841-14.351-37.658-7.289-54.336 20.432-39.294 64.663-61.992 66.071-90.555 91.077-15.927 14.576-28.778 34.983-48.297 17.416-33.192-34.481-48.41-138.35-86.53-140.838-23.223-.025-38.852 20.357-62.383 34.506" stroke="#353941" stroke-width=".5" stroke-linecap="round" stroke-linejoin="round"/><path d="M424 153.696c-22.358-12.139-36.372-30.158-56.343-34.079-19.488-2.513-25.579 11.862-50.314 16.512-40.652 5.931-56.384-38.15-84.514 7.891-42.792 71.248-61.693 70.972-92.571 98.24-16.339 15.003-29.025 36.541-48.297 21.236C57.884 231.579 42.41 120.145 3.413 118.26c-23.222.427-39.16 21.563-62.382 35.436" stroke="#353941" stroke-width=".5" stroke-linecap="round" stroke-linejoin="round"/><path d="M424 153.696c-22.122-11.962-36.279-30.359-56.343-34.556-19.395-2.739-25.671 11.586-50.314 16.059-40.878 5.705-56.353-38.426-84.514 7.741-42.731 71.349-61.59 71.876-92.571 100.275-17.213 16.386-30.167 38.854-50.313 19.276-21.474-23.9-35.446-78.009-56.354-118.797-12.203-22.418-19.415-26.765-32.204-26.263-22.43 2.312-37.988 22.996-60.377 36.265" stroke="#353941" stroke-width=".5" stroke-linecap="round" stroke-linejoin="round"/><path d="M424 153.696c-21.689-11.636-36.218-30.409-56.343-34.782-19.477-2.915-25.61 11.284-50.314 15.406-40.621 5.076-56.487-38.653-84.514 7.388-42.741 71.575-61.529 72.832-92.581 102.211-17.327 16.964-30.209 39.23-50.314 19.049-33.254-38.174-48.42-146.266-86.53-146.492-23.285 1.433-39.49 23.775-62.383 37.245" stroke="#353941" stroke-width=".5" stroke-linecap="round" stroke-linejoin="round"/><path d="M424 153.696c-21.36-11.359-36.115-30.409-56.343-35.008-19.488-3.117-25.558 10.982-50.314 14.752-40.672 4.499-56.507-39.105-84.514 7.012-44.017 73.962-62.969 74.314-94.588 106.181-17.841 18.597-30.342 37.999-50.313 14.4-20.599-27.267-34.14-79.968-54.337-119.702-11.925-22.065-19.127-26.689-32.205-25.609-22.43 3.343-38.707 25.358-60.366 37.974" stroke="#353941" stroke-width=".5" stroke-linecap="round" stroke-linejoin="round"/><path d="M424 153.696c-21.082-11.133-36.063-30.459-56.343-35.234-27.256-4.574-35.343 27.594-82.508 7.916-59.378-25.76-35.292 15.582-104.65 82.784-17.78 16.863-28.717 23.775-44.274 40.387-19.92 21.914-32.195 36.29-52.32 6.157-20.61-33.601-34.222-87.986-54.337-122.743-27.626-43.956-58.174 3.192-88.547 20.733" stroke="#353941" stroke-width=".5" stroke-linecap="round" stroke-linejoin="round"/><path d="M424 153.696c-20.774-10.882-36.022-30.485-56.343-35.461-27.153-4.825-35.148 26.992-82.508 6.912-58.679-25.735-35.528 14.877-104.65 83.537-17.852 17.391-28.666 24.579-44.274 41.668-19.436 21.865-31.3 35.185-50.314 8.671-20.599-31.591-34.17-86.227-54.336-123.774-28.583-49.509-58.957.377-90.555 18.447" stroke="#353941" stroke-width=".5" stroke-linecap="round" stroke-linejoin="round"/><path d="M424 153.696c-20.414-10.53-35.878-30.233-56.343-35.285-27.122-4.901-34.561 26.187-82.508 5.403-35.642-15.858-39.788-8.243-56.353 19.804-39.5 66.624-62.507 73.284-92.571 106.684-19.375 22.066-31.258 35.31-50.314 8.319-20.506-31.918-34.324-87.283-54.336-124.503C2.97 84.76-27.721 136.054-58.98 153.721" stroke="#353941" stroke-width=".5" stroke-linecap="round" stroke-linejoin="round"/><path d="M424 153.696c-20.208-10.279-35.683-29.831-56.343-34.933-19.683-3.568-25.507 9.952-50.314 11.561-40.292.98-56.548-41.14-84.514 5.277-44.181 74.993-62.465 76.903-94.588 111.887-19.364 21.688-31.062 37.974-50.313 13.143-20.444-29.303-34.283-84.367-54.337-123.949-11.935-22.065-19.178-26.212-32.205-23.976-22.533 5.379-39.232 29.203-60.366 40.99" stroke="#353941" stroke-width=".5" stroke-linecap="round" stroke-linejoin="round"/><path d="M424 153.696c-20.496-10.229-36.794-30.988-58.36-34.933-19.199-2.262-26.864 12.013-52.32 10.781-14.919-1.307-24.066-7.037-38.234-13.144-43.965-17.969-31.454 27.57-98.61 93.616-17.656 17.089-26.731 23.573-42.258 41.492-19.847 23.272-31.783 31.616-50.313 2.187-21.35-36.743-35.58-96.003-56.343-128.423-26.453-37.32-57.423 12.415-86.531 28.424" stroke="#353941" stroke-width=".5" stroke-linecap="round" stroke-linejoin="round"/><path d="M424 153.696c-25.702-12.616-45.509-42.397-74.462-32.772-36.403 13.571-39.562 9.073-74.462-6.006-34.818-14.25-33.903 11.661-68.422 59.361-29.18 39.456-45.879 45.413-76.469 81.451-28.583 33.124-42.751 12.189-64.4-42.145-30.393-77.858-38.82-114.6-72.445-99.12-20.053 10.304-33.974 29.279-52.32 39.231" stroke="#353941" stroke-width=".5" stroke-linecap="round" stroke-linejoin="round"/><path d="M424 153.696c-19.796-9.55-36.516-30.183-58.36-34.204-18.808-2.312-25.856 10.455-50.313 8.721-14.765-1.634-23.891-7.364-38.234-13.898-45.705-19.854-32.781 26.187-100.617 93.892-17.728 17.416-26.464 23.774-42.258 42.271-19.827 23.448-31.731 31.591-50.313 1.483-21.37-37.446-35.539-96.832-56.343-128.85C1.18 86.57-29.758 138.09-58.97 153.721" stroke="#353941" stroke-width=".5" stroke-linecap="round" stroke-linejoin="round"/><path d="M424 153.696c-18.767-8.847-34.973-28.072-56.343-33.199-19.642-3.569-25.97 8.972-50.314 7.263-14.641-1.608-23.973-7.263-38.234-13.998-28.182-12.818-34.262-3.167-52.32 27.644-37.864 63.433-60.386 70.52-90.564 105.076-19.303 22.543-31.135 35.536-50.314 7.188-20.557-33.224-34.262-88.765-54.336-124.93C21.09 111.299 14.073 106.524-.62 111.198c-21.844 8.319-38.748 32.194-58.36 42.498" stroke="#353941" stroke-width=".5" stroke-linecap="round" stroke-linejoin="round"/><path d="M424 153.696c-19.148-8.796-36.053-28.851-58.36-32.797-18.921-2.312-25.856 9.701-50.313 6.032-14.93-2.815-24.159-9.198-38.234-15.557-44.758-19.05-33.913 28.5-98.611 92.058-18.613 17.969-27.554 23.824-44.274 43.226-20.084 23.573-31.783 31.616-50.313 1.935-20.63-35.762-34.273-90.926-54.337-123.874-27.41-41.065-58.298 13.395-88.537 28.977" stroke="#353941" stroke-width=".5" stroke-linecap="round" stroke-linejoin="round"/><path d="M424 153.696c-18.531-8.293-35.868-28.122-58.36-32.043-19.117-2.287-25.763 9.349-50.313 4.624-16.031-3.669-25.723-11.133-40.251-17.24-42.638-16.461-32.915 32.772-98.611 94.797-21.637 20.105-25.465 21.035-46.29 45.337-19.045 21.84-30.909 24.001-48.297-5.88-20.547-37.849-34.324-92.686-54.337-122.216-26.36-34.857-57.402 17.919-86.53 32.621" stroke="#353941" stroke-width=".5" stroke-linecap="round" stroke-linejoin="round"/><path d="M424 153.696c-18.397-8.042-35.436-27.368-58.36-31.264-19.724-2.337-26.546 9.651-52.32 2.689-15.402-4.699-24.261-11.736-38.234-17.542-42.411-16.034-33.223 34.355-98.61 94.747-18.068 16.411-26.423 21.814-42.258 39.959-20.002 23.197-31.587 32.093-50.313 2.614C63.358 209.89 49.6 155.355 29.568 123.362c-27.43-39.859-58.339 15.381-88.547 30.334" stroke="#353941" stroke-width=".5" stroke-linecap="round" stroke-linejoin="round"/><path d="M424 153.696c-17.214-7.313-33.913-25.332-56.343-30.158-20.455-3.392-26.031 7.816-50.314 2.061-14.909-4.121-24.097-11.058-38.234-17.743-26.515-11.786-34.633.252-50.313 26.992-37.905 64.211-60.552 68.308-90.555 100.778-18.849 20.985-30.61 38.778-50.313 13.495-20.516-29.253-34.211-82.834-54.337-119.827-11.812-20.181-19.065-23.524-32.194-19.427-22.523 8.494-40.858 34.355-60.377 43.829" stroke="#353941" stroke-width=".5" stroke-linecap="round" stroke-linejoin="round"/><path d="M424 153.696c-17.183-7.087-34.952-25.835-58.36-29.63-19.631-2.262-25.733 8.143-50.313.277-16.144-5.705-25.785-13.898-40.251-19.628-42.113-14.853-33.841 38.401-98.611 94.168-18.674 15.808-26.515 20.281-42.257 37.974-20.156 23.021-31.526 32.52-50.313 3.946-20.537-33.878-34.304-87.283-54.337-118.27-27.42-38.527-58.462 16.964-88.537 31.163" stroke="#353941" stroke-width=".5" stroke-linecap="round" stroke-linejoin="round"/><path d="M424 153.696c-16.864-6.736-33.182-23.699-56.343-28.374-20.846-3.317-26.114 7.037-50.314-.905-16.061-5.855-25.733-14.149-40.25-20.256-43.678-16.536-35.745 38.904-98.611 91.077-17.965 14.602-27.112 19.452-42.257 35.763-19.776 21.864-31.001 36.265-50.314 10.404-20.259-29.856-34.468-82.934-54.336-115.681C20.4 108.785 13.126 106.147-.62 111.449c-21.72 9.576-39.973 33.803-58.36 42.247" stroke="#353941" stroke-width=".5" stroke-linecap="round" stroke-linejoin="round"/><path d="M424 153.696c-16.03-6.182-32.812-22.87-56.343-27.469-20.99-3.242-26.237 6.585-50.314-2.438-16.164-6.609-25.578-15.079-40.25-21.06-43.163-15.607-36.64 42.121-98.611 90.474-16.853 12.867-26.145 17.617-40.251 31.942-19.683 20.759-31.515 40.563-52.32 13.647-20.187-28.776-34.499-81.075-54.336-113.118-11.246-16.712-18.562-19.1-32.195-13.822-21.483 9.575-40.426 33.827-58.36 41.844" stroke="#353941" stroke-width=".5" stroke-linecap="round" stroke-linejoin="round"/><path d="M424 153.695c-15.176-5.654-31.238-20.984-54.337-26.187-22.667-4.272-27.266 6.183-52.32-4.322-15.968-7.238-25.969-16.21-40.25-21.84-26.104-8.997-35.199 10.48-50.314 35.562-36.773 59.587-59.852 54.962-90.564 86.704-18.953 20.231-30.436 37.421-50.314 12.641-19.282-26.539-33.398-75.144-52.31-107.362-11.863-18.799-19.117-21.664-32.194-17.341-22.43 8.745-41.764 34.078-60.377 42.145" stroke="#353941" stroke-width=".5" stroke-linecap="round" stroke-linejoin="round"/><path d="M424 153.696c-15.413-5.529-31.804-21.161-56.343-25.634-21.412-3.167-26.392 5.655-50.314-5.454-15.197-7.564-24.529-15.983-38.234-21.864-25.455-9.676-35.333 7.414-50.313 32.596-37.216 61.447-60.191 55.189-90.555 84.618-19.178 19.427-30.445 39.381-50.313 18.22-32.256-38.677-47.36-134.831-84.525-124.829-23.037 7.691-43.41 34.381-62.383 42.347" stroke="#353941" stroke-width=".5" stroke-linecap="round" stroke-linejoin="round"/><path d="M424 153.696c-14.652-5.076-28.779-18.296-52.32-24.001-23.511-4.95-27.637 4.122-50.314-5.88-34.818-16.587-55.478-50.942-86.541-.528-40.508 67.629-57.125 59.763-88.548 83.311-22.842 18.12-32.729 43.202-52.32 31.918C61.012 214.842 42.821 107.529 7.427 111.4c-23.892 4.599-46.034 34.028-66.406 42.296" stroke="#353941" stroke-width=".5" stroke-linecap="round" stroke-linejoin="round"/><path d="M424 153.696c-14.611-4.85-29.54-18.472-54.337-23.598-22.893-4.072-27.204 4.071-50.313-7.992-16.051-8.897-25.846-18.497-40.251-24.127-25.27-8.419-35.868 11.661-50.314 35.562-35.857 58.205-59.265 48.554-88.547 73.56-19.951 18.07-30.61 40.638-50.314 25.182C56.958 201.949 41.473 103.81 3.393 113.511c-22.945 7.263-44.017 33.023-62.383 40.185" stroke="#353941" stroke-width=".5" stroke-linecap="round" stroke-linejoin="round"/><path d="M424 153.696c-14.281-4.549-28.974-17.643-54.337-22.769-23.685-4.172-27.863 3.845-52.32-10.757-16.226-10.153-26.113-19.804-40.25-24.151-25.157-6.157-35.889 17.768-50.314 40.964-35.415 55.114-58.936 41.442-88.548 67.328-19.57 18.17-30.281 40.16-50.313 23.247-20.507-19.98-34.037-64.89-54.337-96.38-11.946-17.266-19.2-19.829-32.195-15.858-22.512 8.117-42.658 31.741-60.366 38.376" stroke="#353941" stroke-width=".5" stroke-linecap="round" stroke-linejoin="round"/><path d="M424 153.696c-14.024-4.272-26.885-15.883-52.32-21.538-24.365-4.825-28.429 2.388-50.314-10.304-36.083-22.09-53.688-51.67-86.541 2.061-39.479 65.594-56.682 50.289-88.548 69.665-22.543 14.928-31.309 39.909-50.313 35.587-33.11-12.064-52.33-114.324-86.531-114.324-23.871 2.186-48.318 31.64-68.423 38.828" stroke="#353941" stroke-width=".5" stroke-linecap="round" stroke-linejoin="round"/><path d="M424 153.696c-13.942-4.046-26.011-15.054-52.32-20.709-25.465-4.925-29.046 2.212-52.32-13.093-15.464-10.606-24.622-20.03-38.234-25.333-23.253-7.615-34.932 10.782-50.314 36.265-35.332 57.3-57.557 41.744-86.531 59.688-21.844 14.853-30.877 40.311-50.313 34.606-32.144-13.747-51.055-108.87-84.525-109.021-23.85 2.061-48.544 30.811-68.422 37.622" stroke="#353941" stroke-width=".5" stroke-linecap="round" stroke-linejoin="round"/><path d="M424 153.696c-13.736-3.795-25.301-14.249-52.32-20.055-25.774-5.051-29.293 1.332-52.32-14.752-15.979-11.586-26.031-22.116-40.251-26.363-21.905-4.976-33.336 14.023-48.297 38.602-36.156 58.129-58.966 37.044-88.548 55.943-21.144 14.953-30.465 40.764-50.313 34.028C59.386 205.744 41.936 112.958 5.42 118.286c-23.274 4.85-46.157 29.454-64.4 35.41" stroke="#353941" stroke-width=".5" stroke-linecap="round" stroke-linejoin="round"/><path d="M424 153.696c-13.88-3.669-24.251-13.37-52.32-19.452-26.566-5.303-29.89.679-54.337-17.969-15.176-11.912-24.858-21.538-38.234-25.132-41.897-8.142-41.907 69.64-98.61 81.326-15.794 2.891-25.27 1.986-38.235 9.726-21.761 14.577-31.361 42.9-52.32 35.059-32.719-16.461-48.461-103.844-86.53-96.707-22.873 5.529-45.149 27.821-62.383 33.174" stroke="#353941" stroke-width=".5" stroke-linecap="round" stroke-linejoin="round"/><path d="M424 153.696c-13.787-3.443-23.336-12.515-52.32-18.849-26.196-5.353-29.88-.653-52.32-18.12-15.032-12.063-24.745-22.266-38.234-26.488-22.369-5.353-34.129 15.355-50.314 41.643-34.972 55.189-57.444 30.309-86.531 44.332-22.039 12.264-30.383 39.507-50.313 39.004-32.36-4.951-51.014-91.856-84.525-93.464-23.665.829-49.758 26.489-68.422 31.942" stroke="#353941" stroke-width=".5" stroke-linecap="round" stroke-linejoin="round"/><path d="M424 153.696c-14.292-3.393-21.566-11.46-52.32-18.246-27.657-5.755-30.795-1.306-56.353-23.221-14.343-12.466-24.828-22.392-38.234-24.101-40.457-1.66-40.488 78.109-98.611 79.717-16.02.151-25.321-1.86-38.234 5.831-20.558 13.923-29.818 41.567-50.314 37.773-32.626-10.078-48.461-92.686-86.53-87.258-23.203 4.524-45.489 24.831-62.383 29.505" stroke="#353941" stroke-width=".5" stroke-linecap="round" stroke-linejoin="round"/><path d="M424 153.696c-11.606-2.589-14.785-6.71-36.228-13.446-19.734-5.956-31.279-6.509-42.257-9.449-27.781-8.746-45.323-43.905-70.439-44.006-29.427 2.614-38.697 50.942-66.406 71.173-27.256 17.793-46.115-3.644-70.439 12.013-23.665 17.291-36.125 59.16-66.405 26.489-27.266-31.716-38.554-75.596-70.44-70.142-22.8 4.925-44.098 23.121-60.376 27.343" stroke="#353941" stroke-width=".5" stroke-linecap="round" stroke-linejoin="round"/><path d="M424 153.696c-11.4-2.413-14.549-6.333-36.228-13.018-22.451-6.66-35.014-7.088-46.29-11.687-26.762-12.49-45.025-48.479-70.439-42.723-28.419 9.273-36.578 57.802-66.406 73.409-26.525 11.938-44.634-9.851-68.422 6.987-22.811 18.17-35.632 59.813-66.406 27.167-26.31-30.007-37.514-69.665-68.422-65.367-22.842 4.171-44.439 21.336-60.367 25.232" stroke="#353941" stroke-width=".5" stroke-linecap="round" stroke-linejoin="round"/><path d="M424 153.696c-11.03-2.211-14.456-6.006-36.228-12.641-26.546-7.841-37.185-7.364-50.314-14.778-25.856-16.084-43.44-49.685-68.422-40.361-28.058 13.295-35.579 61.648-66.416 73.736-26.278 8.419-44.572-14.752-68.422 3.871-22.111 19.301-35.21 60.466-66.406 28.072-28.11-31.34-36.536-66.599-70.429-60.266-21.874 4.875-42.174 19.125-56.343 22.367" stroke="#353941" stroke-width=".5" stroke-linecap="round" stroke-linejoin="round"/><path d="M424 153.696c-11.791-2.212-12.697-5.177-36.228-12.239-14.703-4.298-24.251-6.158-36.228-9.626-37.195-11.56-55.118-64.286-86.531-44.608-22.276 16.235-30.147 49.735-52.32 66.498-19.878 13.169-34.345 2.212-54.336-1.407-40.395-5.58-47.454 65.719-82.508 45.815-19.519-13.069-32.71-43.453-52.32-59.236-25.26-18.044-60.582 10.154-82.508 14.778" stroke="#353941" stroke-width=".5" stroke-linecap="round" stroke-linejoin="round"/><path d="M424 153.696c-11.863-2.086-10.896-4.398-38.234-12.415-19.529-5.504-28.408-7.339-38.234-11.058-34.129-14.325-53.843-69.288-86.542-40.462-21.226 20.859-28.284 51.243-50.313 64.789-20.043 10.53-34.654-2.689-54.337-6.484-38.471-5.403-46.733 68.233-82.508 48.127-20.29-13.344-33.851-44.558-54.337-57.3-24.128-12.767-58.802 10.983-78.485 14.828" stroke="#353941" stroke-width=".5" stroke-linecap="round" stroke-linejoin="round"/><path d="M424 153.696c-.041 0-66.498-19.653-76.469-23.774-34.283-15.708-53.575-71.475-86.541-40.764-21.092 21.789-28.408 52.5-50.313 64.89-20.054 9.475-34.654-5.102-54.337-9.977-38.399-7.389-46.651 67.83-82.508 51.52-19.446-10.732-32.503-38.728-52.32-52.827-24.756-15.506-60.788 7.389-80.492 10.932" stroke="#353941" stroke-width=".5" stroke-linecap="round" stroke-linejoin="round"/><path d="M424 153.696c-.041 0-65.058-18.698-78.485-25.333-33.285-18.22-52.948-73.837-86.531-37.798-21.052 24.554-28.82 56.144-52.32 64.061-19.529 4.875-33.522-10.329-52.32-14.577-37.123-5.88-45.951 71.274-82.508 54.687-19.436-10.656-32.524-37.773-52.34-50.389-24.365-13.496-60.356 6.358-78.475 9.349" stroke="#353941" stroke-width=".5" stroke-linecap="round" stroke-linejoin="round"/><path d="M424 153.696c-2.212-.327-63.988-17.567-80.492-27.192-32.801-20.985-52.134-75.571-86.541-34.205-20.136 26.037-27.883 54.561-50.313 61.095-19.529 3.971-33.543-12.088-52.32-16.863-36.804-6.785-46.147 71.575-82.508 58.607-20.095-9.098-33.635-37.22-54.337-49.032-24.262-11.912-59.615 5.052-76.469 7.615" stroke="#353941" stroke-width=".5" stroke-linecap="round" stroke-linejoin="round"/><path d="M424 153.696c-5.083-.678-57.619-15.732-76.469-25.559-33.357-18.823-52.258-73.837-84.524-43.352-20.908 21.89-28.892 53.832-50.314 65.342-19.014 8.294-32.935-6.383-52.32-15.053-42.494-16.964-47.854 63.181-84.524 61.296-19.282-3.016-32.277-27.494-52.32-43.428-26.32-19.251-63.638-1.834-82.508.754" stroke="#353941" stroke-width=".5" stroke-linecap="round" stroke-linejoin="round"/><path d="M424 153.696c-9.085-1.131-58.658-15.506-78.485-27.393-33.162-21.664-52.371-78.26-86.531-37.798-20.702 26.363-29.067 57.803-52.32 62.452-20.424 2.262-35.034-17.391-54.337-21.94-35.518-5.454-45.786 75.998-82.518 66.398-19.971-7.138-33.337-33.45-54.337-44.684-24.735-11.485-59.975 1.156-74.462 2.94" stroke="#353941" stroke-width=".5" stroke-linecap="round" stroke-linejoin="round"/><path d="M424 153.696c-8.756-.98-49.984-12.641-72.445-24.478-36.156-20.056-54.234-77.733-86.532-48.153-21.01 21.438-29.272 54.435-50.313 66.247-19.714 8.972-34.345-8.595-54.337-18.899-41.207-19.15-47.34 58.582-82.508 67.68-19.94 2.965-33.326-20.482-54.336-37.296-26.598-19.828-62.023-7.363-82.508-5.126" stroke="#353941" stroke-width=".5" stroke-linecap="round" stroke-linejoin="round"/><path d="M424 153.696c-5.618-.578-45.406-9.902-72.445-25.006-23.47-13.747-32.802-34.757-52.32-50.54-39.48-29.127-52.835 47.751-82.508 66.549-32.01 16.763-54.718-41.216-84.525-15.883-18.418 17.994-29.921 56.772-52.32 67.026-19.004 6.559-31.927-12.616-52.32-30.837-28.82-24.629-60.418-13.897-86.531-11.334" stroke="#353941" stroke-width=".5" stroke-linecap="round" stroke-linejoin="round"/><path d="M424 153.696c-10.927-1.056-44.428-10.38-66.406-22.091-26.937-14.803-31.104-28.524-52.32-49.585-42.658-39.984-55.345 34.456-84.524 58.456-31.783 22.569-55.253-35.385-84.525-17.466-19.272 14.199-29.077 50.665-50.314 69.313-20.002 15.356-33.913-1.508-54.336-20.759-30.95-28.574-56.703-20.859-90.555-17.868" stroke="#353941" stroke-width=".5" stroke-linecap="round" stroke-linejoin="round"/><path d="M424 153.696c-9.682-.854-40.272-8.519-62.383-20.206-29.54-16.134-31.875-27.343-54.336-50.866-43.214-43.05-56.014 29.102-84.525 54.812-32.699 25.685-56.302-35.938-86.531-17.064-19.92 14.928-30.343 54.837-52.32 73.585-19.19 14.2-32.637-1.081-52.32-19.527-31.032-28.575-56.518-23.373-90.565-20.734" stroke="#353941" stroke-width=".5" stroke-linecap="round" stroke-linejoin="round"/><path d="M424 153.696c-9.394-.754-37.226-7.289-58.36-18.246-29.426-15.833-32.873-25.559-54.336-49.911-42.7-46.796-55.222 11.585-82.508 44.583-33.039 36.265-56.498-23.8-86.532-15.506-21.658 8.52-30.712 45.84-52.32 73.083-17.193 19.904-29.519 15.556-48.296-1.056-30.199-27.444-37.525-37.22-100.627-32.947" stroke="#353941" stroke-width=".5" stroke-linecap="round" stroke-linejoin="round"/><path d="M424 153.696c-10.155-.728-36.135-6.634-56.343-17.265-47.875-26.112-58.967-72.43-86.541-70.017-21.186 4.323-33.008 37.924-50.314 60.165-32.339 38.025-54.923-17.491-84.525-15.632-38.316 6.635-47.885 120.255-98.61 83.337-28.388-22.066-34.242-44.709-106.647-40.588" stroke="#353941" stroke-width=".5" stroke-linecap="round" stroke-linejoin="round"/><path d="M424 153.696c-10.227-.679-34.571-5.73-54.337-16.085-50.097-27.418-57.073-68.383-84.524-72.127-21.114-.528-33.409 29.856-50.314 54.158-33.378 45.011-56.209-10.831-86.531-10.932-40.693 4.071-49.244 124.226-100.617 88.036-26.155-19.829-36.135-46.518-106.656-43.05" stroke="#353941" stroke-width=".5" stroke-linecap="round" stroke-linejoin="round"/><path d="M424 153.696c-85.657-5.202-105.731-81.025-136.845-88.665-22.142-3.04-34.787 28.525-52.32 52.953-32.369 42.146-54.439-9.626-84.524-11.385-41.146 1.634-51.559 124.377-100.617 93.917-25.847-17.692-38.111-49.811-108.674-46.82" stroke="#353941" stroke-width=".5" stroke-linecap="round" stroke-linejoin="round"/><path d="M424 153.696c-86.099-4.7-104.249-81.376-136.845-89.418-22.142-3.066-34.818 28.398-52.32 52.022-32.935 41.392-55.694-14.224-86.531-11.661-41.269 7.64-50.55 130.132-100.617 96.908-23.232-16.813-40.652-50.515-106.666-47.851" stroke="#353941" stroke-width=".5" stroke-linecap="round" stroke-linejoin="round"/><path d="M424 153.696c-87.375-4.273-104.835-85.674-138.861-90.424-22.163-.653-34.572 32.294-52.32 53.782-31.814 35.033-53.895-18.296-84.525-14.451-41.794 9.5-50.941 133.298-100.617 101.331-20.393-14.401-43.05-52.224-106.656-50.238" stroke="#353941" stroke-width=".5" stroke-linecap="round" stroke-linejoin="round"/><path d="M424 153.696c-87.354-3.745-103.817-86.252-138.861-91.153-21.134-.678-33.316 29.002-50.314 50.415-32.73 38.124-54.789-17.718-86.531-12.39-41.64 11.233-51.199 133.072-98.61 107.01-21.628-13.47-45.303-55.264-108.663-53.882" stroke="#353941" stroke-width=".5" stroke-linecap="round" stroke-linejoin="round"/><path d="M424 153.696c-88.548-3.418-104.784-89.57-140.868-91.278-21.175 1.307-33.11 31.691-50.313 50.665-31.866 31.591-54.995-24.126-86.531-13.495C104.442 117.984 95.49 241.23 45.671 206.95 28.467 194.058.12 152.741-58.98 153.696" stroke="#353941" stroke-width=".5" stroke-linecap="round" stroke-linejoin="round"/><path d="M424 153.696c-89.196-3.091-104.311-88.815-140.868-91.228-21.206.88-33.048 30.434-50.313 48.328-30.775 28.5-53.339-23.171-84.525-13.496-43.05 17.568-52.505 142.723-100.617 112.967-17.584-12.113-47.947-57.35-106.656-56.571" stroke="#353941" stroke-width=".5" stroke-linecap="round" stroke-linejoin="round"/><path d="M424 153.696c-29.602-.905-42.34-6.107-56.343-15.381-29.581-20.432-37.102-34.305-54.337-54.812-43.183-50.012-55.869 3.82-82.508 26.74-30.25 22.619-52.896-28.725-84.524-13.571-42.947 24.78-51.857 147.85-100.617 114.148-15.454-11.686-48.215-57.627-104.65-57.124" stroke="#353941" stroke-width=".5" stroke-linecap="round" stroke-linejoin="round"/><path d="M424 153.696c-41.815-1.106-59.327-7.514-108.673-67.529-45.519-54.083-56.024-.98-84.525 21.664-29.869 20.381-52.505-30.234-84.525-12.617-43.492 28.098-52.32 150.992-100.617 117.541-15.042-11.435-49.006-59.31-104.65-59.059" stroke="#353941" stroke-width=".5" stroke-linecap="round" stroke-linejoin="round"/><path d="M424 153.696c-37.987-.83-56.692-3.292-106.656-64.84-10.711-13.018-20.033-23.322-32.195-25.986-22.276-2.664-34.592 26.187-52.32 41.065-30.507 22.242-53.256-30.862-86.531-10.178-44.346 31.716-52.639 154.233-100.617 120.958-24.457-18.698-29.858-41.995-86.53-58.984-7.676-2.111-10.012-2.01-18.11-2.01" stroke="#353941" stroke-width=".5" stroke-linecap="round" stroke-linejoin="round"/><path d="M424 153.696c-41.897-.804-53.287-.678-110.68-68.408-44.984-51.796-56.826 3.745-84.524 18.597-28.861 12.315-51.425-36.416-84.525-9.851C99.874 133.69 92.26 252.338 43.654 214.389c-24.23-20.457-30.476-42.9-86.531-59.135-6.503-1.633-9.034-1.533-16.102-1.558" stroke="#353941" stroke-width=".5" stroke-linecap="round" stroke-linejoin="round"/><path d="M424 153.696c-36.495-.628-50.962 4.524-108.673-64.689-45.715-53.681-57.28-4.197-84.525 11.159-28.789 13.043-50.89-36.14-84.525-9.073-45.498 40.588-53.678 160.114-100.617 126.061-25.856-20.659-27.43-41.895-86.53-61.196-7.656-2.312-10.012-2.237-18.11-2.262" stroke="#353941" stroke-width=".5" stroke-linecap="round" stroke-linejoin="round"/><path d="M424 153.696c-36.609-.628-39.634 3.016-74.462-25.936-29.787-25.333-44.922-61.648-70.429-62.502-28.768 1.683-36.629 43.528-68.422 31.364-24.035-10.405-41.455-31.49-68.423-2.74-33.233 38.125-42.113 101.382-68.422 125.734-24.817 19.452-41.146-21.11-70.439-42.623-14.62-10.153-42.761-23.197-62.383-23.297" stroke="#353941" stroke-width=".5" stroke-linecap="round" stroke-linejoin="round"/><path d="M424 153.696c-35.456-.503-38.286 5.604-76.469-26.64-29.323-25.383-45.426-63.482-72.445-60.693-28.027 5.328-33.717 40.965-66.406 25.232-27.976-14.425-42.226-28.398-68.422 3.795-33.275 43.378-41.866 106.182-68.422 127.166-24.591 15.909-40.374-25.483-70.44-46.594-15.032-9.977-42.503-22.216-60.376-22.266" stroke="#353941" stroke-width=".5" stroke-linecap="round" stroke-linejoin="round"/><path d="M424 153.696c-25.219-.226-33.789 4.423-54.337-8.394-31.155-20.733-44.737-41.894-60.376-59.06-42.669-45.387-56.199 4.072-82.508 6.66-28.295-.024-48.225-45.89-84.525-.954-45.827 60.09-53.01 169.01-100.617 125.231-14.672-14.376-22.11-27.218-38.234-39.382-12.82-9.122-42.73-24-62.383-24.101" stroke="#353941" stroke-width=".5" stroke-linecap="round" stroke-linejoin="round"/><path d="M424 153.696c-25.754-.302-34.057 6.107-56.343-8.369-32.339-22.191-41.722-39.13-60.376-58.909-42.546-43.352-55.15 6.007-82.508 3.368-28.295-5.303-47.073-48.655-84.525 3.97C94.554 160.91 87.928 264.05 39.631 215.445c-14.755-15.581-22.09-27.971-38.244-39.356-13.047-8.67-41.352-22.267-60.377-22.392" stroke="#353941" stroke-width=".5" stroke-linecap="round" stroke-linejoin="round"/><path d="M424 153.696c-25.98-.226-33.738 7.313-56.343-6.962-51.034-34.179-62.763-77.079-94.587-76.651-21.834 1.885-30.981 21.487-50.314 16.059-18.87-6.81-31.762-26.187-52.32-21.563-37.884 11.938-65.953 110.705-84.525 144.055-31.402 52.123-49.583-8.42-84.524-32.898-10.022-6.584-40.426-21.94-60.377-22.04" stroke="#353941" stroke-width=".5" stroke-linecap="round" stroke-linejoin="round"/><path d="M424 153.696c-26.042-.151-33.378 8.545-56.343-5.554-35.055-22.92-43.163-40.085-64.399-60.87-41.445-38.878-53.267 7.917-82.508-5.302-31.207-16.235-45.488-49.358-84.525 16.914-45.066 78.36-50.581 170.066-100.617 112.414-22.615-26.791-28.058-39.809-80.502-56.295-5.268-1.307-8.17-1.282-14.086-1.307" stroke="#353941" stroke-width=".5" stroke-linecap="round" stroke-linejoin="round"/><path d="M424 153.696c-26.309-.075-33.038 9.751-56.343-4.147-51.692-32.947-63.175-75.068-96.604-76.727-23.737.302-30.363 17.793-52.32 4.449-33.44-22.116-45.467-46.142-84.525 24.754-28.449 52.475-33.069 85.724-52.32 115.028-30.29 41.517-47.32-22.191-84.524-44.483-6.452-3.619-37.319-18.773-56.354-18.874" stroke="#353941" stroke-width=".5" stroke-linecap="round" stroke-linejoin="round"/><path d="M424 153.696c-25.805-.05-31.886 10.329-54.337-1.583-50.632-29.304-63.092-71.852-96.594-77.783-23.757-2.79-31.556 13.873-52.319.704-33.43-23.272-45.159-50.49-84.525 22.87-32.092 60.743-34.911 90.599-54.337 120.154-30.744 42.096-47.381-25.307-86.53-46.921-4.497-2.337-36.023-17.366-54.337-17.466" stroke="#353941" stroke-width=".5" stroke-linecap="round" stroke-linejoin="round"/><path d="M424 153.696c-25.651-.025-31.701 11.46-54.337.1-50.509-27.846-63.915-71.072-98.61-77.757-24.756-3.468-30.476 11.51-52.32-5.88-34.036-28.626-45.179-45.79-82.508 27.192-34.798 68.76-38.193 102.436-58.36 126.588-29.55 30.685-44.16-35.813-86.53-55.466-36.681-16.084-42.906-14.702-50.315-14.777" stroke="#353941" stroke-width=".5" stroke-linecap="round" stroke-linejoin="round"/><path d="M424 153.696c-25.949-.025-31.227 12.692-54.337 1.785-48.935-25.584-62.691-66.122-96.594-76.954-24.868-6.685-31.865 7.138-52.319-10.052-18.788-16.864-31.948-37.497-52.32-22.342-14.971 12.917-25.301 36.49-44.274 75.47-18.644 39.281-29.633 89.042-50.314 106.734-28.377 19.678-40.91-43.402-84.525-61.396-36.804-14.376-38.45-13.169-48.297-13.245" stroke="#353941" stroke-width=".5" stroke-linecap="round" stroke-linejoin="round"/><path d="M424 153.696c-35.868 0-27.071 22.191-76.468-10.405-27.668-18.547-44.47-49.685-72.446-61.874-14.837-5.805-23.48-3.543-36.228-5.504-13.18-2.739-19.353-12.565-34.211-27.569-28.068-27.067-42.432-6.61-64.399 39.28-35.137 74.441-20.794 46.545-42.257 100.603-40.817 98.994-57.177 4.323-100.617-18.472-7.913-3.82-42.206-15.003-42.258-15.003-4.846-1.081-7.675-1.031-14.085-1.081" stroke="#353941" stroke-width=".5" stroke-linecap="round" stroke-linejoin="round"/><path d="M424 153.696c-15.249 0-12.11-.251-22.132 4.197-22.821 9.5-31.937 1.86-52.32-11.083-24.385-15.33-33.799-31.766-56.343-51.067-24.416-20.056-36.649-16.562-54.336-21.186-31.454-9.877-46.96-81.88-84.525-16.562-7.604 13.923-11.791 23.598-22.132 46.569-28.809 63.231-17.533 43.829-36.228 89.318-34.365 79.943-52.052 16.712-84.524-15.255-17.667-15.984-61.025-24.881-70.44-24.931" stroke="#353941" stroke-width=".5" stroke-linecap="round" stroke-linejoin="round"/><path d="M424 153.696c-15.331.025-12.203-.251-22.132 4.599-21.792 10.078-31.052 3.921-50.313-8.067-33.646-20.508-45.633-45.715-74.462-63.156-15.969-9.073-24.952-8.922-38.235-13.848-25.414-10.68-39.973-61.798-66.405-42.774-12.903 11.134-22.657 33.4-32.195 55.265-35.291 81.653-2.654.301-40.251 98.868-23.17 58.858-36.876 60.617-64.399 23.347-32.267-44.533-28.902-36.768-80.502-53.304-4.578-.93-7.573-.88-14.086-.93" stroke="#353941" stroke-width=".5" stroke-linecap="round" stroke-linejoin="round"/><path d="M424 153.696c-16.658.05-11.009-.704-24.148 6.057-22.081 10.53-31.197 2.764-50.314-8.294-29.972-16.838-44.408-43.729-74.462-62.904-16.391-9.952-25.26-10.656-38.234-17.492-24.025-14.25-39.49-68.484-66.416-43.176-14.096 15.305-23.778 41.82-38.234 76.099-10.485 24.453-9.508 19.778-18.109 42.673-17.492 47.75-30.343 90.55-52.32 85.825-23.562-8.469-35.59-55.214-68.423-67.077-.04-.025-40.21-11.309-40.25-11.309-4.301-.402-5.834-.377-12.08-.402" stroke="#353941" stroke-width=".5" stroke-linecap="round" stroke-linejoin="round"/><path d="M424 153.696c-16.843.05-10.834-.955-24.148 6.56-22.173 11.686-31.063 4.196-50.314-6.334-22.852-11.987-35.508-29.278-58.36-49.886-27.173-23.95-39.52-23.95-56.353-35.662-13.335-10.907-21.916-30.61-36.228-45.136-29.005-26.263-44.5 27.795-68.422 85.271-32.267 75.571-43.255 133.952-70.44 123.07-18.807-10.128-31.875-44.307-52.309-60.266-12.738-8.821-22.337-8.318-40.25-13.068-15.146-4.298-8.52-4.473-26.166-4.549" stroke="#353941" stroke-width=".5" stroke-linecap="round" stroke-linejoin="round"/><path d="M424 153.696c-17.306.025-10.742-1.181-24.149 7.062-22.306 12.893-31.062 5.554-50.313-4.398-23.037-11.184-35.714-28.198-60.376-50.716-28.985-26.01-45.355-29.027-58.36-42.774-28.82-33.902-43.626-96.405-82.508-.98-9.291 23.347-13.53 36.014-22.132 55.943-16.195 36.064-21.874 62.503-36.228 92.032-32.76 62.377-51.826-19.326-84.524-41.316-6.01-3.544-9.857-4.725-16.103-6.157-47.402-9.927-28.182-8.621-48.287-8.696" stroke="#353941" stroke-width=".5" stroke-linecap="round" stroke-linejoin="round"/><path d="M424 153.696c-18.788.025-9.703-1.508-26.165 8.847-23.223 13.671-33.347 2.99-50.314-4.599-20.938-9.676-35.394-27.394-60.376-50.741-28.871-26.54-44.48-32.345-56.353-46.242-12.697-16.411-21.093-36.617-34.211-49.485-29.839-25.232-45.674 47.926-70.429 106.408-25.342 57.049-38.265 130.785-68.422 112.037-18.315-13.773-30.796-46.821-50.314-61.422-12.265-7.992-21.206-6.811-38.234-10.254-19.704-4.398-6.287-4.448-28.172-4.524" stroke="#353941" stroke-width=".5" stroke-linecap="round" stroke-linejoin="round"/><path d="M424 153.696c-18.839 0-9.62-1.784-26.165 9.45-23.521 15.028-33.635 4.171-50.314-2.69-22.307-9.499-39.016-29.856-66.405-55.716-47.752-44.684-40.889-27.545-66.416-72.229-10.156-17.567-19.601-33.199-32.195-31.364-20.269 6.685-33.059 56.446-52.32 106.835-9.034 22.769-6.389 13.018-16.102 40.034-22.647 64.413-36.115 110.655-68.423 68.761-22.05-30.083-28.15-49.912-52.32-55.441-8.313-1.608-12.5-1.483-22.131-3.016-24.9-4.473-3.972-4.624-30.189-4.624" stroke="#353941" stroke-width=".5" stroke-linecap="round" stroke-linejoin="round"/></svg>