<svg width="56" height="47" fill="none" xmlns="http://www.w3.org/2000/svg"><path fill-rule="evenodd" clip-rule="evenodd" d="M50.978 38.01C54.113 34.644 56 30.307 56 25.574c0-10.715-9.674-19.401-21.607-19.401-11.932 0-21.606 8.686-21.606 19.401 0 10.716 9.674 19.402 21.606 19.402 3.888 0 7.537-.922 10.688-2.536l9.376 4.52-3.48-8.948z" fill="#FFEA39"/><path fill-rule="evenodd" clip-rule="evenodd" d="M5.024 31.84C1.888 28.471 0 24.134 0 19.401 0 8.686 9.674 0 21.607 0c11.932 0 21.606 8.686 21.606 19.402 0 10.715-9.674 19.401-21.606 19.401-3.889 0-7.537-.922-10.688-2.536l-9.375 4.52 3.48-8.948z" fill="#000"/></svg>