<svg width="329" height="190" fill="none" xmlns="http://www.w3.org/2000/svg"><path d="M.012 163.424l321.212-2.781v8.221c0 2.225-1.397 4.129-3.301 4.463l-90.83 16.183a12.028 12.028 0 01-3.264.148L3.499 171.213c-1.966-.161-3.487-2.065-3.487-4.352v-3.437z" fill="#BFC8D6"/><path d="M118.226 150.258l204.148 15.033c3.647.272 6.626-2.584 6.626-6.379V6.874C329 3.078 326.033 0 322.374 0l-7.22 4.166L118.226 0c-3.004 0-5.44 2.782-5.44 6.206v137.438c-.012 3.437 2.423 6.391 5.44 6.614z" fill="#BFC8D6"/><path d="M114.962 150.258l204.16 15.033c3.659.272 6.627-2.584 6.627-6.379V6.874c0-3.796-2.968-6.874-6.627-6.874h-204.16c-3.004 0-5.44 2.782-5.44 6.206v137.438c0 3.437 2.436 6.391 5.44 6.614z" fill="#EBEFF2"/><path d="M121.329 140.578l190.153 13.055c2.967.21 5.39-2.138 5.39-5.242V15.293c0-3.103-2.411-5.625-5.39-5.637L121.329 8.84c-2.485-.013-4.488 2.262-4.488 5.093v121.23c-.012 2.819 2.003 5.242 4.488 5.415z" fill="#D8DEE8"/><path d="M244.043 22.142l51.305.136.013-4.896-51.318.025v4.735zm-24.169-1.409l11.855.012v-3.338h-11.855v3.326zm-.013 4.611l11.856.05.012-3.339-11.855-.037-.013 3.326zm-59.07-.284l45.99.222v-3.288l-45.99-.124v3.19zm-7.554 4.388l45.532.347.013-3.277-45.533-.247-.012 3.177zm0 4.414l45.533.482v-3.276l-45.533-.383v3.177zm-.012 4.426l45.532.606.013-3.276-45.545-.52v3.19zm66.636-8.332l11.856.086v-3.35l-11.856-.062v3.326zm-.013 4.611l11.856.123v-3.35l-11.844-.099-.012 3.326zm0 4.599l11.844.16.012-3.338-11.856-.136v3.314zm-.013 4.611l11.856.198v-3.35l-11.856-.161v3.313zm-31.759-.507l29.176.47v-3.313l-29.176-.408v3.251zm31.747 5.118l11.856.235.012-3.35-11.856-.198-.012 3.313zm.001 4.612l11.856.26v-3.338l-11.856-.235V53zm-.013 4.611l11.856.297.013-3.338-11.856-.272-.013 3.313zM174.39 47.523l32.354.618v-3.288l-32.342-.557-.012 3.227zm-16.813 4.105l41.156.914.012-3.276-41.156-.828-.012 3.19zm0 4.438l41.156 1.026v-3.276l-41.156-.94v3.19zm62.235 6.156l11.855.334v-3.35l-11.855-.297v3.313zm-.013 4.612l11.856.358v-3.338l-11.843-.346-.013 3.326zm0 4.611l11.844.396.012-3.338-11.856-.384v3.326zm-.012 4.611l11.856.433v-3.35l-11.856-.408v3.325zm-.013 4.612l11.856.457.013-3.338-11.856-.445-.013 3.326zm0 4.599l11.856.507v-3.338l-11.856-.482v3.313zm-.012 4.611l11.856.544v-3.35l-11.844-.507-.012 3.313zm0 4.612l11.843.568.013-3.338-11.856-.544v3.314zm-.012 4.61l11.855.606v-3.338l-11.855-.58V99.1zm0 4.612l11.843.643.012-3.35-11.855-.606v3.313zm-.013 4.612l11.856.667v-3.338l-11.856-.643v3.314zm-.012 4.61l11.856.705.012-3.338-11.856-.692-.012 3.325zm0 4.612l11.856.742v-3.35l-11.856-.717v3.325zm-.013 4.611l11.856.767v-3.338l-11.843-.754-.013 3.325zm0 4.612l11.844.804.012-3.338-11.856-.792v3.326zm-.012 4.599l11.856.853v-3.35l-11.856-.816v3.313zm-.012 4.611l11.856.878.012-3.338-11.856-.853-.012 3.313zm-.001 4.612l11.856.914v-3.338l-11.856-.89v3.314zM185.035 20.67l32.329.05.012-3.313-32.341.012v3.252zm-24.38 93.18l45.978 2.88.012-3.301-45.99-2.769v3.19zm-7.554 3.943l45.533 2.98v-3.276l-45.52-2.881-.013 3.177zm0 4.426l45.52 3.103.013-3.276-45.533-3.004v3.177zm-19.632 3.017l44.346 3.152.012-3.226-44.358-3.066v3.14zm-.012 4.364l44.358 3.288v-3.239l-44.346-3.189-.012 3.14zm0 4.364l44.346 3.412.012-3.239-44.358-3.313v3.14zm51.442-23.106l32.329 1.928v-3.313l-32.329-1.867v3.252zm-24.17-45.842l45.99 1.41v-3.289l-45.99-1.31v3.19zm-7.553 4.191l45.532 1.534.013-3.277-45.533-1.434-.012 3.177zm-.001 4.413l45.533 1.657v-3.263l-45.533-1.57v3.177zm-.012 4.427l45.532 1.78v-3.264l-45.532-1.706v3.19zm34.839 5.884l29.188 1.237v-3.314l-29.176-1.174-.012 3.251zm-13.674 3.907l32.354 1.459v-3.301l-32.342-1.385-.012 3.227zm-16.813 3.672l41.156 1.966.012-3.264-41.156-1.891-.012 3.19zm-.001 4.425l41.156 2.09v-3.276l-41.156-2.003v3.19zm-9.135 3.932l40.661 2.188v-3.25l-40.661-2.103v3.165zm-.013 4.414l40.662 2.299.012-3.251-40.661-2.225-.013 3.177zm36.607-43.023l32.329.89v-3.313l-32.329-.828v3.251zM244.03 29.56l29.362.21.012-4.834-29.374-.124v4.748zm36.965.26l-5.539-.038.013-4.834 5.538.025-.012 4.847zm-36.978 6.552l29.375.334v-4.822l-29.375-.247v4.735zm36.965.42l-5.526-.062v-4.834l5.539.05-.013 4.846zm-36.976 6.404l29.374.458V38.82l-29.374-.371v4.747zm36.965.568l-5.527-.086v-4.834l5.539.074-.012 4.846zm-37.04 47.82l51.306 2.337.013-4.896-51.319-2.188v4.747zm-.012 7.406l29.374 1.471v-4.822l-29.374-1.384v4.735zm36.965 1.854l-5.526-.272v-4.846l5.538.272-.012 4.846zm-36.977 4.97l29.374 1.595v-4.834l-29.362-1.509-.012 4.748zm36.964 2.002l-5.526-.296v-4.834l5.539.284-.013 4.846zm-36.977 4.809l29.375 1.719v-4.834l-29.362-1.632-.013 4.747zm36.965 2.164l-5.526-.321.012-4.834 5.526.309-.012 4.846zm-36.866-64.732l51.319 1.014v-4.895l-51.306-.866-.013 4.747zm-.012 7.406l29.374.717.012-4.822-29.374-.63-.012 4.735zm36.965.902l-5.527-.136.013-4.834 5.526.124-.012 4.846zm-36.978 5.922l29.375.84.012-4.833-29.374-.754-.013 4.747zm36.977 1.051l-5.538-.16.012-4.834 5.526.148v4.846zM243.956 78.01l29.362 1.087.012-4.833-29.374-1.002v4.748zm36.965 1.372l-5.539-.21.013-4.834 5.526.185v4.859zm-36.977 5.44l29.362 1.211.012-4.821-29.374-1.138v4.748zm36.965 1.533l-5.539-.235.012-4.834 5.539.21-.012 4.859zm-36.953-15.256l29.374.964.012-4.834-29.374-.877-.012 4.747zm36.977 1.211l-5.539-.173.012-4.846 5.527.173v4.846zm-37.051 47.128l51.318 3.226v-4.895l-51.306-3.066-.012 4.735zm-.013 7.417l29.374 1.978.013-4.834-29.374-1.891-.013 4.747zm36.978 2.485l-5.539-.371.012-4.834 5.527.346v4.859zm-36.978 4.327l29.362 2.102.012-4.834-29.374-2.015v4.747zm36.965 2.646l-5.539-.396.013-4.834 5.526.384v4.846zm-36.977 4.166l29.362 2.226.012-4.822-29.374-2.139v4.735zm36.965 2.807l-5.539-.421.013-4.834 5.526.408v4.847zm-43.208-3.252l1.138.087.185-122.714h-1.125l-.198 122.627zM209.834 4.166c0 1.41 1.051 2.56 2.349 2.56 1.298 0 2.349-1.138 2.349-2.56 0-1.421-1.051-2.559-2.349-2.571-1.298.012-2.349 1.162-2.349 2.571z" fill="#fff"/><path opacity=".48" d="M319.122 165.291L116 150.345l-1.038-.075c-1.385-.098-2.633-.778-3.598-1.817 14.613-.803 23.7-5.983 29.548-11.349 11.757-10.768 9.717-21.375 22.401-28.459 15.825-8.827 28.262 2.361 40.266-8.679 7.282-6.688 3.709-11.683 12.659-21.672 9.915-11.077 16.381-7.356 26.346-17.32 12.597-12.598 6.305-22.402 17.159-31.451 13.167-10.979 27.372-.816 39.908-11.35 5.402-4.537 8.369-11.138 9.927-18.16h9.544c3.659 0 6.627 3.078 6.627 6.873v152.026c0 3.796-2.968 6.651-6.627 6.379z" fill="#fff"/><path d="M105.344 149.43l215.88 15.825-94.131 16.764a12.068 12.068 0 01-3.264.148L-.001 163.425l101.908-13.884a16.1 16.1 0 013.437-.111z" fill="#EBEFF2"/><path d="M289.723 165.39l-179.719-13.376-55.632 7.529 178.185 14.291 57.166-8.444zm-4.76-88.307c4.105 4.784 3.474 9.531 3.474 9.531-.408 3.128-2.274 5.44-3.14 6.49-26.184 31.835-37.237 38.14-37.237 38.14-7.529 4.315-31.587 16.913-57.994 10.669-7.022-1.656-15.552-4.562-20.028-7.615-35.506-24.231-33.923-45.545-34.702-51.936l35.16 33.911c.025 0 105.752-49.377 114.467-39.19z" fill="#D8DEE8"/><path d="M210.527 57.648c-10.842-.284-19.249 9-18.754 20.634.495 11.534 9.556 21.004 20.238 21.251 10.669.248 19.039-8.802 18.717-20.3-.333-11.608-9.371-21.3-20.201-21.585z" fill="#321840"/><path d="M209.81 37.187c-21.388-.58-37.843 17.766-36.718 40.65 1.113 22.487 18.866 40.809 39.598 41.254 20.683.445 37.027-17.048 36.545-39.4-.47-22.748-18.112-41.923-39.425-42.504zm2.2 62.346c-10.681-.247-19.743-9.717-20.238-21.252-.494-11.633 7.912-20.918 18.755-20.633 10.829.284 19.867 9.977 20.188 21.573.334 11.51-8.048 20.56-18.705 20.312z" fill="url(#paint0_linear_1512_10309)"/><path d="M168.901 32.663c33.689-23.144 72.57-11.869 98.693 11.052 8.233 7.232 15.577 15.367 22.389 23.786 2.534 3.128 7.257 6.998 5.823 11.967-.668 2.325-2.634 4.401-4.018 6.318-3.833 5.279-7.888 10.385-12.289 15.169-7.01 7.64-14.749 13.859-23.267 19.484 8.283-5.465 15.615-12.412 22.167-19.966 4.277-4.945 8.221-12.388 10.286-18.606 1.693-5.118.445-6.54-2.226-9.841-14.439-17.815-31.71-37.089-54.408-45.199-21.512-7.702-46.621-5.514-66.921 8.432a915.89 915.89 0 013.771-2.596z" fill="#C7CCD3"/><path d="M130.391 71.086c-1.694 2.226-1.62 5.551.173 8.024 23.452 32.366 48.821 52.777 82.188 53.692.21 0 .421.012.631.012 32.996.668 56.572-18.21 77.774-48.957 1.62-2.336 1.496-5.637-.296-7.949-23.057-29.807-48.413-52.517-82.077-53.47-.643-.012-1.274-.024-1.929-.024-33.009-.124-53.791 18.816-76.464 48.672zm82.299 47.993c-20.744-.445-38.498-18.767-39.598-41.255-1.125-22.871 15.33-41.23 36.718-40.649 21.326.581 38.955 19.756 39.437 42.491.47 22.365-15.874 39.858-36.557 39.413z" fill="#fff"/><path d="M180.609 27.038l3.795-2.609c-4.463 1.719-8.703 3.882-12.795 6.466l-3.783 2.596c4.079-2.584 8.32-4.747 12.783-6.453z" fill="#C7CCD3"/><path d="M167.826 33.49l3.783-2.596a71.757 71.757 0 00-2.695 1.78l-3.783 2.597c.89-.618 1.78-1.212 2.695-1.78z" fill="#9E9E9E"/><path d="M22.413 83.77l16.43-.32V58.265c0-9.111 6.528-15.762 14.18-14.885 7.283.841 12.932 8.246 12.932 16.554v22.97l12.413-.247V60.702c0-7.888-2.436-15.59-6.96-21.846-4.686-6.465-11.164-10.78-18.384-12.016-7.603-1.298-15.108.94-21.005 6.527-6.132 5.81-9.606 14.354-9.606 23.873v26.53z" fill="url(#paint1_linear_1512_10309)"/><path d="M18.952 65.337l60.999 2.794c3.77.174 6.75 3.994 6.75 8.543v39.771c0 4.513-2.98 8.556-6.726 9.038l-60.714 7.726c-5.39.68-9.878-3.276-9.915-8.864L9.1 75.092c-.037-5.65 4.438-10.014 9.853-9.755z" fill="url(#paint2_linear_1512_10309)"/><path d="M44.074 92.783c-.013-5.106 3.82-9.222 8.37-8.987 3.918.197 7.083 3.758 7.293 8.11.161 3.375-1.372 6.403-3.758 8.085-1.026.717-1.533 2.114-1.323 3.424l1.706 11.065c.21 1.397-.741 2.782-2.027 2.905l-4.426.421c-1.323.123-2.337-1.101-2.114-2.572l1.73-11.584c.21-1.372-.407-2.67-1.483-3.325-2.361-1.46-3.968-4.266-3.968-7.542z" fill="url(#paint3_linear_1512_10309)"/><path d="M29.287 83.77l16.43-.32V58.265c0-9.111 6.528-15.762 14.18-14.885 7.283.841 12.932 8.246 12.932 16.554v22.97l12.413-.247V60.702c0-7.888-2.436-15.59-6.96-21.846-4.686-6.465-11.164-10.78-18.384-12.016-7.603-1.298-15.108.94-21.005 6.527-6.132 5.81-9.606 14.354-9.606 23.873v26.53z" fill="url(#paint4_linear_1512_10309)"/><path d="M25.825 65.338l60.999 2.794c3.77.173 6.75 3.993 6.75 8.542v39.772c0 4.512-2.98 8.555-6.726 9.037l-60.714 7.727c-5.39.68-9.878-3.276-9.915-8.864l-.247-49.254c-.037-5.65 4.438-10.014 9.853-9.754z" fill="url(#paint5_linear_1512_10309)"/><path d="M50.948 92.784c-.013-5.106 3.82-9.223 8.37-8.988 3.919.197 7.083 3.758 7.294 8.11.16 3.375-1.373 6.404-3.759 8.085-1.026.717-1.533 2.114-1.323 3.425l1.706 11.064c.21 1.397-.741 2.782-2.027 2.906l-4.426.42c-1.323.124-2.337-1.1-2.114-2.572l1.73-11.584c.211-1.372-.407-2.67-1.483-3.325-2.361-1.459-3.968-4.265-3.968-7.541z" fill="#F4F7FA"/><path d="M266.568 50.824c1.249.024 2.361-.977 2.361-2.226v-30.87a2.274 2.274 0 00-2.262-2.274h-24.615a2.224 2.224 0 00-2.213 2.237c0 1.237.903 2.238 2.114 2.238l22.266.05v28.533c-.012 1.26 1.1 2.3 2.349 2.312z" fill="url(#paint6_linear_1512_10309)"/><path d="M242.04 141.357l24.615 1.52a2.107 2.107 0 002.262-2.126v-30.87c0-1.249-1.113-2.312-2.361-2.374-1.249-.062-2.349.915-2.349 2.164v28.533l-22.266-1.335c-1.224-.074-2.163.865-2.163 2.102 0 1.236 1.038 2.311 2.262 2.386z" fill="url(#paint7_linear_1512_10309)"/><path d="M154.337 48.908c1.125.024 1.929-.928 1.929-2.114V19.756l20.609.05c1.149 0 2.126-.965 2.126-2.164 0-1.2-.878-2.176-2.028-2.176h-22.537c-1.113 0-2.028.964-2.028 2.139v29.127c0 1.174.816 2.15 1.929 2.176z" fill="url(#paint8_linear_1512_10309)"/><path d="M154.436 135.954l22.538 1.397c1.15.074 2.077-.84 2.077-2.04 0-1.199-1.026-2.225-2.176-2.287l-20.609-1.224v-27.037c0-1.187-.816-2.188-1.929-2.238-1.112-.049-1.928.866-1.928 2.052v29.127c0 1.162.902 2.176 2.027 2.25z" fill="url(#paint9_linear_1512_10309)"/><path opacity=".8" d="M205.446 71.519a7.379 7.379 0 017.356 4.352c3.152 7.12-2.967 8.987-2.967 8.987L61.592 117.385l-1.904-33.59L205.446 71.52z" fill="#fff"/><defs><linearGradient id="paint0_linear_1512_10309" x1="249.254" y1="78.131" x2="173.036" y2="78.131" gradientUnits="userSpaceOnUse"><stop stop-color="#828CE4"/><stop offset=".996" stop-color="#6177C5"/></linearGradient><linearGradient id="paint1_linear_1512_10309" x1="93.968" y1="54.222" x2="1.492" y2="55.656" gradientUnits="userSpaceOnUse"><stop stop-color="#4868AF"/><stop offset=".996" stop-color="#9598F4"/></linearGradient><linearGradient id="paint2_linear_1512_10309" x1="92.761" y1="98.14" x2="-.605" y2="99.588" gradientUnits="userSpaceOnUse"><stop stop-color="#4868AF"/><stop offset=".996" stop-color="#6777B6"/></linearGradient><linearGradient id="paint3_linear_1512_10309" x1="59.743" y1="100.795" x2="44.07" y2="100.795" gradientUnits="userSpaceOnUse"><stop stop-color="#4868AF"/><stop offset="1" stop-color="#819FE1"/></linearGradient><linearGradient id="paint4_linear_1512_10309" x1="71.733" y1="-47.003" x2="53.101" y2="102.054" gradientUnits="userSpaceOnUse"><stop offset=".004" stop-color="#828CE4"/><stop offset="1" stop-color="#5D75C2"/></linearGradient><linearGradient id="paint5_linear_1512_10309" x1="65.95" y1="61.186" x2="33.853" y2="137.669" gradientUnits="userSpaceOnUse"><stop offset=".004" stop-color="#5C74C1"/><stop offset="1" stop-color="#8994E7"/></linearGradient><linearGradient id="paint6_linear_1512_10309" x1="249.95" y1="39.126" x2="267.402" y2="15.459" gradientUnits="userSpaceOnUse"><stop stop-color="#7F8AE1"/><stop offset=".996" stop-color="#6177C5"/></linearGradient><linearGradient id="paint7_linear_1512_10309" x1="250.262" y1="118.895" x2="267.795" y2="142.673" gradientUnits="userSpaceOnUse"><stop stop-color="#7F8AE1"/><stop offset=".996" stop-color="#6579C9"/></linearGradient><linearGradient id="paint8_linear_1512_10309" x1="169.903" y1="37.892" x2="153.515" y2="15.667" gradientUnits="userSpaceOnUse"><stop stop-color="#7E8AE0"/><stop offset=".996" stop-color="#6278C6"/></linearGradient><linearGradient id="paint9_linear_1512_10309" x1="170.214" y1="113.813" x2="153.892" y2="135.948" gradientUnits="userSpaceOnUse"><stop stop-color="#808AE1"/><stop offset=".996" stop-color="#6278C6"/></linearGradient></defs></svg>