<svg width="54" height="64" fill="none" xmlns="http://www.w3.org/2000/svg"><path d="M11.943 52.898h20.565v2.75H11.943v-2.75zm0 3.895h20.565v2.749H11.943v-2.75zm0 4.123h20.565c0 1.645-1.36 2.978-3.038 2.978H14.981c-1.678 0-3.038-1.333-3.038-2.978zM31.15 49.234h-3.048V.119h2.344c1.993 0 2.345 1.133 2.345 1.876.078.898.258 3.235.352 5.392.094 2.156 1.602 1.836 2.345 1.406.977-.703 3.235-2.414 4.455-3.633 1.219-1.22 2.618-.43 3.165.117l3.986 3.516c1.98 1.52 1.855 2.192.938 3.282l-3.752 4.22c-1.524 1.524-.938 2.58.118 2.813.977.079 3.493.258 5.744.352 2.251.094 2.892 1.524 2.931 2.227v5.744c0 1.219-1.172 1.836-1.758 1.993-1.016.273-3.681.82-6.214.82-2.532 0-1.837 1.72-1.172 2.579l3.517 3.751c1.5 1.125.782 2.657.234 3.282-.938.86-3.095 2.86-4.22 3.986-1.126 1.125-2.736.156-3.4-.47l-4.455-3.281c-1.5-.938-2.11.234-2.228.937-.039 1.368-.117 4.478-.117 5.978s-1.407 2.11-2.11 2.228z" fill="#000"/><path d="M1.38 16.216C4.36 4.584 12.46.12 22.227.12v49.115H12.102c.343-3.08-3.725-10.823-8.339-17.625-4.184-6.168-2.551-13.732-2.382-15.393z" fill="#FFEA39"/><path fill-rule="evenodd" clip-rule="evenodd" d="M27.823 34.908c5.482-.145 9.88-4.626 9.88-10.132 0-5.506-4.398-9.986-9.88-10.131v20.263z" fill="#F2F2F2"/></svg>