<svg width="35" height="35" fill="none" xmlns="http://www.w3.org/2000/svg"><circle cx="17.5" cy="17.5" r="17.5" fill="#2E3239"/><path d="M25.205 10.408a.057.057 0 00-.028-.026 18.274 18.274 0 00-4.51-1.398.069.069 0 00-.072.034c-.206.374-.394.76-.561 1.153a16.87 16.87 0 00-5.065 0c-.168-.395-.359-.78-.57-1.153a.071.071 0 00-.072-.034 18.223 18.223 0 00-4.51 1.398.064.064 0 00-.029.025c-2.872 4.289-3.659 8.472-3.273 12.603a.076.076 0 00.03.052 18.373 18.373 0 005.53 2.795.072.072 0 00.078-.025c.428-.582.806-1.197 1.132-1.84a.07.07 0 00-.038-.097 12.096 12.096 0 01-1.729-.824.07.07 0 01-.028-.091.07.07 0 01.022-.027 9.41 9.41 0 00.343-.269.069.069 0 01.071-.01c3.626 1.655 7.55 1.655 11.133 0a.07.07 0 01.072.01c.111.09.227.182.344.27a.07.07 0 01-.006.118 11.35 11.35 0 01-1.729.821.07.07 0 00-.037.099c.331.64.71 1.254 1.13 1.839.01.012.021.02.035.025a.07.07 0 00.043.001 18.31 18.31 0 005.54-2.795.072.072 0 00.03-.05c.461-4.777-.774-8.926-3.276-12.604zM13.826 20.495c-1.091 0-1.99-1.002-1.99-2.232 0-1.23.881-2.232 1.99-2.232 1.118 0 2.009 1.01 1.991 2.232 0 1.23-.882 2.232-1.99 2.232zm7.361 0c-1.091 0-1.99-1.002-1.99-2.232 0-1.23.881-2.232 1.99-2.232 1.118 0 2.008 1.01 1.99 2.232 0 1.23-.872 2.232-1.99 2.232z" fill="#fff"/></svg>