<svg xmlns="http://www.w3.org/2000/svg" viewBox="0 0 1000 1000"><path d="M454.29 14.04c-9.35 4.25-17.64 11.48-23.17 19.77-2.76 4.25-20.41 65.47-20.41 70.79 0 .64-2.76 2.34-6.38 4.25-4.68 2.34-13.6 3.19-37.42 3.19-27.42 0-32.52.64-40.6 4.46-14.24 6.8-25.08 20.62-29.55 37.63-1.91 7.87-4.46 15.94-5.53 17.86-1.7 3.61-8.5 3.83-96.51 3.83-89.5 0-95.02.21-102.68 4.04-10.63 5.53-20.62 17.22-23.38 27.21-3.19 11.27-3.19 740.42 0 751.69 2.76 9.99 12.75 21.68 23.38 27.21 7.86 4.04 16.37 4.04 407.31 4.04 381.58 0 399.65-.21 407.73-4.04 10.84-4.89 21.47-16.79 24.23-27.21 3.19-11.26 3.19-740.42 0-751.69-2.76-9.99-12.75-21.68-23.38-27.21-7.65-3.83-13.18-4.04-102.68-4.04-88.01 0-94.81-.21-96.51-3.83-1.06-1.91-3.61-9.99-5.53-17.86-4.46-17.01-15.3-30.82-29.55-37.63-8.08-3.83-13.18-4.46-40.61-4.46-23.6 0-32.74-.85-37.41-3.19-6.59-3.4-6.38-2.55-15.94-41.45-7.02-28.91-8.5-32.1-17.64-41.67C548.04 11.7 542.09 10 500 10c-31.67 0-38.48.64-45.71 4.04zm78.66 36.78c4.46 4.04 7.01 10.42 12.97 34.65 8.5 33.38 13.82 44.43 25.72 52.72 13.18 8.93 18.5 9.99 51.66 9.99 40.18 0 39.54-.43 48.68 34.23 3.61 13.61 6.59 26.15 6.59 27.85 0 2.98-18.07 3.19-177.93 2.34-98-.64-178.36-1.49-178.78-1.7-.43-.21 2.34-12.33 5.95-26.79 9.14-36.56 8.08-35.93 48.89-35.93 33.16 0 38.48-1.06 51.66-9.99 11.69-8.08 17.43-19.34 24.87-49.53 8.08-32.95 9.78-37.2 15.52-39.96 2.55-1.28 16.79-2.34 31.68-2.34 25.08-.22 27.42.2 32.52 4.46zM284.44 222.37c3.19 10.84 11.69 20.83 21.47 24.87 5.74 2.55 39.75 2.98 193.87 2.98 126.7 0 188.98-.64 193.02-2.34 9.57-3.61 19.77-14.88 22.32-24.66 1.91-7.86 2.98-9.14 8.93-10.2 12.97-2.13 166.88 0 169.21 2.34 1.49 1.49 1.91 114.37 1.7 368.83l-.64 366.49H105.66l-.64-366.7c-.43-320.57 0-366.92 2.76-369.04 2.13-1.49 30.19-2.13 88.43-2.13l85.46.21 2.77 9.35z"/><path d="M243.63 371.17c-9.35 5.74-11.48 14.03-11.48 46.34 0 47.41 2.34 49.53 51.02 49.53 48.89 0 51.02-2.13 51.02-49.96s-2.13-49.96-51.44-49.96c-28.28.02-33.38.65-39.12 4.05zm159.86 40.82c-7.23 8.5-7.02 15.73.64 23.38l6.17 6.16h345.24l6.16-6.16c7.65-7.65 7.87-14.88.64-23.38l-5.54-6.59H409.02l-5.53 6.59zM243.63 562.5c-9.35 5.74-11.48 14.03-11.48 46.34 0 47.41 2.34 49.53 51.02 49.53 48.89 0 51.02-2.13 51.02-49.96s-2.13-49.96-51.44-49.96c-28.28.01-33.38.65-39.12 4.05zm159.86 40.81c-7.23 8.5-7.02 15.73.64 23.38l6.17 6.17h345.24l6.16-6.17c7.65-7.65 7.87-14.88.64-23.38l-5.53-6.59H409.02l-5.53 6.59zM243.63 753.82c-9.35 5.74-11.48 14.03-11.48 46.34 0 47.41 2.34 49.53 51.02 49.53 48.89 0 51.02-2.13 51.02-49.96s-2.13-49.96-51.44-49.96c-28.28.01-33.38.65-39.12 4.05zm159.86 40.82c-7.23 8.5-7.02 15.73.64 23.38l6.17 6.17h345.24l6.16-6.17c7.65-7.65 7.87-14.88.64-23.38l-5.53-6.59H409.02l-5.53 6.59z"/></svg>