<svg width="349" height="288" fill="none" xmlns="http://www.w3.org/2000/svg"><g clip-path="url(#clip0_1512_9342)"><path d="M168.608 272.663c70.39 0 127.453-5.382 127.453-12.021 0-6.638-57.063-12.02-127.453-12.02s-127.452 5.382-127.452 12.02c0 6.639 57.063 12.021 127.452 12.021z" fill="#EBEBF2"/><path d="M205.533 261.306h-73.849l12.695-36.56h48.458l12.696 36.56z" fill="#262930"/><path d="M274.238 243.15H62.979c-7.053 0-12.695-5.72-12.695-12.684V113.409h236.649v117.057c0 7.047-5.725 12.684-12.695 12.684z" fill="url(#paint0_linear_1512_9342)"/><path d="M286.933 213.14H50.283V89.7c0-7.047 5.726-12.684 12.696-12.684h211.259c7.053 0 12.695 5.72 12.695 12.683V213.14z" fill="#262930"/><path d="M277.806 89.865H59.826v110.259h217.98V89.865z" fill="url(#paint1_linear_1512_9342)"/><path d="M168.608 233.534a6.884 6.884 0 006.887-6.881c0-3.8-3.083-6.881-6.887-6.881a6.885 6.885 0 00-6.887 6.881c0 3.8 3.084 6.881 6.887 6.881z" fill="url(#paint2_linear_1512_9342)"/><path d="M224.784 261.306H112.433c0-3.731 3.07-6.798 6.804-6.798h98.659c3.817 0 6.888 2.984 6.888 6.798z" fill="#262930"/><path d="M274.902 288c28.504 0 51.612-3.303 51.612-7.378s-23.108-7.378-51.612-7.378-51.611 3.303-51.611 7.378S246.398 288 274.902 288z" fill="#EBEBF2"/><path d="M300.708 277.72h-51.695c-4.066 0-7.385-3.316-7.385-7.378v-99.067c0-4.063 3.319-7.379 7.385-7.379h51.695c4.066 0 7.385 3.316 7.385 7.379v99.15c0 4.062-3.319 7.295-7.385 7.295z" fill="#262930"/><path d="M308.092 171.772h-66.381v97.575h66.381v-97.575z" fill="url(#paint3_linear_1512_9342)"/><path d="M274.902 239.088c-10.123 0-18.338-8.207-18.338-18.321s8.215-18.321 18.338-18.321c10.123 0 18.338 8.207 18.338 18.321-.083 10.114-8.298 18.321-18.338 18.321zm0-33.161c-8.215 0-14.936 6.715-14.936 14.923 0 8.207 6.721 14.922 14.936 14.922 8.214 0 14.936-6.715 14.936-14.922 0-8.29-6.722-14.923-14.936-14.923z" fill="#fff"/><path d="M273.574 227.731l-6.389-5.638 2.655-2.984 3.319 2.901 6.39-7.295 3.07 2.736-9.045 10.28z" fill="#fff"/><path d="M283.2 175.668h-16.679a4.636 4.636 0 01-4.646-4.642h25.971a4.636 4.636 0 01-4.646 4.642z" fill="#262930"/><path opacity=".15" d="M280.876 171.772h-12.032a.743.743 0 01-.746-.746c0-.415.332-.746.746-.746h12.032c.415 0 .747.331.747.746a.744.744 0 01-.747.746z" fill="#fff"/><path d="M226.112 159.171H95.506c-4.065 0-7.384-3.316-7.384-7.378V72.871c0-4.063 3.319-7.379 7.385-7.379h130.605c4.066 0 7.385 3.316 7.385 7.379v78.922c0 4.062-3.319 7.378-7.385 7.378z" fill="#262930"/><path d="M226.112 72.87H95.506v78.923h130.606V72.871z" fill="#393E46"/><path d="M123.054 83.399h-13.608v1.824h13.608v-1.824zm32.112 0h-27.797v1.824h27.797v-1.824z" fill="#4868AF"/><path d="M128.863 90.86h-13.608v1.824h13.608V90.86z" fill="#fff"/><path d="M212.503 90.86h-79.408v1.824h79.408V90.86z" fill="#46BAEA"/><path d="M128.863 97.74h-13.608v1.825h13.608V97.74z" fill="#fff"/><path d="M212.503 97.74h-79.408v1.825h79.408V97.74z" fill="#46BAEA"/><path d="M128.863 104.622h-13.608v1.824h13.608v-1.824z" fill="#fff"/><path d="M212.503 104.622h-79.408v1.824h79.408v-1.824z" fill="#46BAEA"/><path d="M128.863 111.585h-13.608v1.824h13.608v-1.824z" fill="#fff"/><path d="M123.054 118.881h-13.608v1.824h13.608v-1.824zm32.112 0h-27.797v1.824h27.797v-1.824z" fill="#4868AF"/><path d="M184.291 126.259h-51.196v1.824h51.196v-1.824zm0 6.881h-51.196v1.824h51.196v-1.824z" fill="#fff"/><path d="M128.78 133.14h-4.481v1.824h4.481v-1.824zm.083 6.881h-13.608v1.823h13.608v-1.823z" fill="#46BAEA"/><path d="M184.291 140.021h-51.196v1.823h51.196v-1.823zm28.793-13.762h-25.059v1.824h25.059v-1.824zm0 6.881h-25.059v1.824h25.059v-1.824zm0 6.881h-25.059v1.823h25.059v-1.823z" fill="#fff"/><path d="M212.503 111.585h-79.408v1.824h79.408v-1.824z" fill="#46BAEA"/><path d="M186.78 170.529h-16.678v16.663h16.678v-16.663zm24.229 0h-16.678v16.663h16.678v-16.663zm24.147 0h-16.678v16.663h16.678v-16.663zm33.108-45.182h-25.059v1.824h25.059v-1.824zm0 6.881h-25.059v1.824h25.059v-1.824zm0 6.881h-25.059v1.824h25.059v-1.824z" fill="#2E3239"/></g><defs><linearGradient id="paint0_linear_1512_9342" x1="78.82" y1="84.904" x2="258.196" y2="264.443" gradientUnits="userSpaceOnUse"><stop stop-color="#494F58"/><stop offset="1" stop-color="#31363D"/></linearGradient><linearGradient id="paint1_linear_1512_9342" x1="86.709" y1="62.971" x2="250.734" y2="227.145" gradientUnits="userSpaceOnUse"><stop stop-color="#2E3239"/><stop offset="1" stop-color="#414751"/></linearGradient><linearGradient id="paint2_linear_1512_9342" x1="163.718" y1="221.753" x2="173.451" y2="231.495" gradientUnits="userSpaceOnUse"><stop stop-color="#D7D7D7"/><stop offset="1" stop-color="#D8E9FF"/></linearGradient><linearGradient id="paint3_linear_1512_9342" x1="233.863" y1="179.603" x2="315.821" y2="261.635" gradientUnits="userSpaceOnUse"><stop stop-color="#2E3239"/><stop offset="1" stop-color="#3E444D"/></linearGradient><clipPath id="clip0_1512_9342"><path fill="#fff" d="M0 0h349v288H0z"/></clipPath></defs></svg>