<svg width="357" height="224" fill="none" xmlns="http://www.w3.org/2000/svg"><g clip-path="url(#clip0_1512_9523)"><path opacity=".6" d="M356.975 199.056c-.178 5.083-1.457 10.782-4.255 17.385-1.95 4.611-6.37 7.572-11.232 7.572l-194.225-.066h-27.592l-36.508-.013H66.271l-18.741-.013h-4.66l-19.92-.013c-5.989 0-11.535-3.275-14.587-8.594a193.776 193.776 0 01-8.307-16.245h356.919v-.013z" fill="#2E3239"/><path opacity=".6" d="M356.975 199.056c-.178 5.083-1.457 10.782-4.255 17.385-1.95 4.611-6.37 7.572-11.232 7.572l-194.225-.066h-27.592l-36.508-.013H66.271l-18.741-.013h-4.66l-19.92-.013c-5.989 0-11.535-3.275-14.587-8.594a193.776 193.776 0 01-8.307-16.245h356.919v-.013z" fill="#2E3239"/><path opacity=".6" d="M356.975 199.056c-.178 5.083-1.457 10.782-4.255 17.385-1.95 4.611-6.37 7.572-11.232 7.572l-194.225-.066h-27.592l-36.508-.013H66.271l-18.741-.013h-4.66l-19.92-.013c-5.989 0-11.535-3.275-14.587-8.594a193.776 193.776 0 01-8.307-16.245h356.919v-.013z" fill="#2E3239"/><path opacity=".6" d="M357 199.111c-.177 5.069-1.456 10.753-4.253 17.337-1.949 4.599-6.366 7.552-11.226 7.552l-194.123-.065H119.82l-36.488-.013H66.448l-18.73-.013H43.06l-19.909-.014c-5.986 0-11.53-3.266-14.58-8.57A193.01 193.01 0 01.27 199.124H357v-.013z" fill="#2E3239"/><path d="M12.775 199.085h22.692v-72.212H12.775v72.212z" fill="#4868AF"/><path d="M33.593 199.085h28.01v-72.212h-28.01v72.212z" fill="#455F97"/><path d="M12.78 140.697H33.6v-.721H12.78v.721zm0 15.432H33.6v-.72H12.78v.72zm0 15.445H33.6v-.72H12.78v.72zm0 15.433H33.6v-.721H12.78v.721zm19.415-58.165a.55.55 0 00-.544-.563.55.55 0 00-.545.563c0 .315.24.564.544.564a.55.55 0 00.545-.564z" fill="#455F97"/><path d="M29.194 128.842a.55.55 0 00-.544-.563.55.55 0 00-.545.563c0 .315.24.564.544.564a.55.55 0 00.545-.564z" fill="#83817F"/><path d="M26.192 128.842a.55.55 0 00-.544-.563.55.55 0 00-.544.563c0 .315.24.564.544.564a.55.55 0 00.544-.564z" fill="#F1A34F"/><path d="M23.192 128.842a.55.55 0 00-.545-.563.55.55 0 00-.544.563c0 .315.24.564.544.564a.55.55 0 00.545-.564z" fill="#83817F"/><path d="M32.195 158.962a.55.55 0 00-.544-.564.55.55 0 00-.545.564c0 .314.24.563.544.563.304.013.545-.249.545-.563z" fill="#455F97"/><path d="M29.194 158.962a.55.55 0 00-.544-.564.55.55 0 00-.545.564c0 .314.24.563.544.563.304.013.545-.249.545-.563z" fill="#83817F"/><path d="M26.192 158.962a.55.55 0 00-.544-.564.55.55 0 00-.544.564c0 .314.24.563.544.563.304.013.544-.249.544-.563z" fill="#F1A34F"/><path d="M23.192 158.962a.55.55 0 00-.545-.564.55.55 0 00-.544.564c0 .314.24.563.544.563.304.013.545-.249.545-.563z" fill="#83817F"/><path d="M32.195 176.333a.55.55 0 00-.544-.563.55.55 0 00-.545.563c0 .315.24.564.544.564.304.013.545-.249.545-.564z" fill="#455F97"/><path d="M29.194 176.333a.55.55 0 00-.544-.563.55.55 0 00-.545.563c0 .315.24.564.544.564.304.013.545-.249.545-.564z" fill="#83817F"/><path d="M26.192 176.333a.55.55 0 00-.544-.563.55.55 0 00-.544.563c0 .315.24.564.544.564.304.013.544-.249.544-.564z" fill="#F1A34F"/><path d="M23.192 176.333a.55.55 0 00-.545-.563.55.55 0 00-.544.563c0 .315.24.564.544.564.304.013.545-.249.545-.564z" fill="#83817F"/><path d="M36.264 132.286h22.97v-.734h-22.97v.734zm0 2.188h22.97v-.733h-22.97v.733zm0 2.437h22.97v-.733h-22.97v.733z" fill="#163560"/><path d="M303.299 199.111h22.692v-72.338h-22.692v72.338z" fill="#4868AF"/><path d="M332.489 136.844c-.025-.237-.038-.486-.063-.735a72.244 72.244 0 01-.101-1.719c-.013-.237-.013-.486-.026-.735-.012-.486-.012-.972-.012-1.457 0-.236 0-.486.012-.735.026-1.509.114-3.071.266-4.698h-8.446v72.338h28.011v-18.308c-6.028-13.885-17.982-24.843-19.641-43.951z" fill="#455F97"/><path d="M303.305 140.621h20.818v-.721h-20.818v.721zm0 15.473h20.818v-.722h-20.818v.722zm0 15.459h20.818v-.722h-20.818v.722zm0 15.472h20.818v-.722h-20.818v.722zm18.877-57.714c.3 0 .544-.253.544-.565a.555.555 0 00-.544-.564.555.555 0 00-.545.564c0 .312.244.565.545.565z" fill="#455F97"/><path d="M319.181 129.311c.3 0 .544-.253.544-.565a.555.555 0 00-.544-.564.555.555 0 00-.545.564c0 .312.244.565.545.565z" fill="#83817F"/><path d="M316.724 128.746a.55.55 0 00-.545-.564.55.55 0 00-.544.564c0 .315.24.565.544.565.304.013.545-.25.545-.565z" fill="#F1A34F"/><path d="M313.178 129.311a.555.555 0 00.545-.565.555.555 0 00-.545-.564c-.3 0-.544.253-.544.564 0 .312.244.565.544.565z" fill="#83817F"/><path d="M322.739 158.931a.55.55 0 00-.545-.564.55.55 0 00-.544.564.55.55 0 00.544.564.558.558 0 00.545-.564z" fill="#455F97"/><path d="M319.738 158.931a.55.55 0 00-.545-.564.55.55 0 00-.544.564.55.55 0 00.544.564.558.558 0 00.545-.564z" fill="#83817F"/><path d="M316.724 158.931a.55.55 0 00-.545-.564.55.55 0 00-.544.564c0 .315.24.564.544.564a.55.55 0 00.545-.564z" fill="#F1A34F"/><path d="M313.723 158.931a.55.55 0 00-.545-.564.55.55 0 00-.544.564c0 .315.24.564.544.564a.55.55 0 00.545-.564z" fill="#83817F"/><path d="M322.739 176.333a.55.55 0 00-.545-.564.55.55 0 00-.544.564.55.55 0 00.544.564.558.558 0 00.545-.564z" fill="#455F97"/><path d="M319.738 176.333a.55.55 0 00-.545-.564.55.55 0 00-.544.564.55.55 0 00.544.564.558.558 0 00.545-.564z" fill="#83817F"/><path d="M316.724 176.333a.55.55 0 00-.545-.564.55.55 0 00-.544.564c0 .315.24.564.544.564a.55.55 0 00.545-.564z" fill="#F1A34F"/><path d="M313.723 176.333a.55.55 0 00-.545-.564.55.55 0 00-.544.564c0 .315.24.564.544.564a.55.55 0 00.545-.564z" fill="#83817F"/><path d="M332.299 131.476c0 .25-.012.486-.012.735h-5.496v-.735h5.508zm.038 2.913h-5.533v-.734h5.508c0 .249.013.498.025.734zm.152 2.455h-5.685v-.735h5.622c.025.249.038.485.063.735z" fill="#163560"/><path d="M299.979 106.445h-73.56l-3.647-53.098h73.547l3.66 53.098zm-78.739.118h-73.559l-3.66-53.098h73.56l3.659 53.098zm-80.752-.118H66.929l-3.66-53.098h73.56l3.659 53.098zm159.237 7.18h-73.559v53.098h73.559v-53.098zm-79.814 0h-73.559v53.098h73.559v-53.098zm-80.208 0H66.144v53.098h73.559v-53.098z" fill="#FEFEFE"/><path d="M140.337 167.509h-74.51v-55.26h74.51v55.26zm-73.37-1.18h72.243v-52.901H66.967v52.901z" fill="#2E3239"/><g opacity=".5"><path d="M273.197 150.032c0-.576-.013-1.179-.013-1.808 0-.131 0-.275-.013-.406v-.052a148.517 148.517 0 00-.114-4.088c-.063-1.559-.152-3.092-.291-4.441-.127-1.271-.266-2.385-.469-3.171-.455-1.912-1.519-3.17-2.481-4.1l-.684-.708a.185.185 0 00-.165-.052c-.013 0-.038 0-.051.013a5.024 5.024 0 00-.379-.236c.05-.34.101-.655.139-.943.114-.93.126-1.507.126-1.585.418-.026.697-.066.697-.066.785-.183.836-2.921.658-4.402l.152-.039c.887-.301 1.659-1.52.279-2.188-.785-.38-4.622-2.253-6.256-.537-.038-.262-.025-.576-.025-.576-.114.222-.177.55-.19.786-.152-.184-.418-.21-.418-.21.19.092.279.275.317.432-1.634 2.503.848 5.057 1.19 5.45.228.275.393.315.481.302a.283.283 0 00.051.065 6.571 6.571 0 01-1.038 2.568c-.064-.013-.114 0-.19.039-1.773 1.179-3.229 3.734-3.749 4.952-.126.289.102.459.33.669a200.263 200.263 0 00-1.659 4.519c-.228-.917-.621-2.318-1.127-3.327-.823-1.638-2.001-1.638-2.014-1.638a5.327 5.327 0 00-.354-.078 30.22 30.22 0 00-1.292-.197s-.253-.039-.24-.026c-.026 0-.064 0-.102-.013-.139-.079-.202-.642-.202-1.284 0-.288.012-.577.025-.839.355.027.595.027.595.027.671-.053 1.089-1.926 1.241-3.433 0 0 .329-.825.329-1.729 0-.498-.101-1.022-.43-1.441a1.701 1.701 0 00-.469-.433c-.038-.039-.088-.078-.126-.118-.621-.72-3.166-3.406-4.837-1.847-.038-.157-.583-1.913-3.23-1.336.127-.013 1.33-.144 1.685.354-.051-.027-1.064-.485-1.71-.079-.658.419-.772 1.821-.671 2.24.101.433.823 1.703 1.304 1.703.178 0 .38-.065.545-.144-.076.223-.14.472-.19.747-.507 2.489 1.089 4.376 1.912 3.917.456-.262.81.406.912.603-.127 1.572-.557 2.594-.887 2.869-.126.013-.405.052-.747.105 0 0-1.051.118-1.937.485-.076.026-.152.052-.228.091-.367.157-.646.354-.747.577 0 0 0 .013-.013.013-.95 1.899-1.899 6.721-2.558 10.153.101.052.19.105.291.157-.126.76-.24 1.441-.342 1.965-.114.603-.202 1.022-.265 1.179-.355.852-1.431 5.529-2.356 7.848-.126.275-.38.747-.646.917-.379.249-.899.838-.81 1.297.101.472.19 1.192.671 1.192.203 0 .532-.406.836-.891.202.118.253-.222.481-.432l.013-.013c.253-.223.38-1.205.38-1.205.114-.328.202-.433.24-.472v-.013l.013-.013c.013-.013.025-.04.051-.092a160.63 160.63 0 002.064-3.694c.975-1.821 1.95-3.787 2.127-4.612.101-.498.342-1.467.62-2.555.038-.013.064-.013.089-.026-.57 3.957-1.874 8.201-1.95 9.996-.013.262 0 .472.051.629a.81.81 0 00.342.459 24.82 24.82 0 00-.102 1.729c-.076 2.214.266 4.664.722 6.904h12.081c.734-4.31.835-7.664.81-9.577 0-.38-.013-.694-.025-.956.012-.052.025-.092.025-.144.241-1.847-.139-4.337-.583-6.786.152.013.33 0 .532-.014a.563.563 0 00.152.014.239.239 0 00.152-.053 15.12 15.12 0 001.33-.249c.253.105.506.197.76.302-.076.773-.14 1.454-.178 2.03-.038.524-.164 1.507-.177 1.795 0 .066.051.144.139.21-.329 1.179-.835 3.629-.873 7.441-.013 1.284.025 3.799-.254 5.987h11.739a74.96 74.96 0 00.152-1.847c.126-1.638.253-3.341.367-4.9.127-1.664.228-2.987.291-3.721.038-.406.051-.641.051-.641.025-.341.051-.616.063-.852a.353.353 0 00.216-.092c.012-.039.05-1.821.038-4.31zm-11.384-5.018l-.203-.17.203-.314v.484z" fill="#B1C9F2"/><path d="M243.793 148.263c-.798-3.17-2.001-6.249-2.229-6.694-.354-.694-2.228-1.192-3.001-1.363-.101-.104-.139-.262-.139-.432 0-.131.025-.262.051-.393.05-.262-.178-.498-.431-.432-.013 0-.025 0-.038.013 0-.171-.013-.354 0-.537v-.511c0-.131.013-.262.013-.393.658.118 1.304.052 1.304.052a1.02 1.02 0 01-.127-.327c.064.157.342.275.342.275.19 0 .595-.21.595-.21s-.418 0-.747-.72c.342-.76.57-1.979.684-3.04 0 0 .367-.904.367-1.886 0-.551-.114-1.127-.481-1.573-.19-.235-.354-.393-.519-.484a2.32 2.32 0 00-.456-.38 4.598 4.598 0 00-1.937-.76 4.017 4.017 0 00-1.444.039c-4.483-.956-4.913 7.599-4.255 8.123.671.524 2.28.458 2.28.458-.089-.091-.19-.288-.19-.288.24.197.696.275 1.114.288a9.584 9.584 0 01-.165 1.009c-.038-.026-.063-.039-.101-.065a.219.219 0 00-.342.157c-.076.602-.253 1.716-.57 1.716-.443 0-3.482.38-3.71.773-.076.131-.861 1.978-1.861 4.428-.494 1.232-1.051 2.607-1.596 3.996v14.057c.456-.812 1-1.808 1.52-2.79.354-.026.645-.092.797-.197.672-.471 1.786-5.699 2.102-7.284.064-.288.089-.458.089-.458s.557 1.362.798 2.03l.101.865c-.266.681-1.215 3.052-1.975 5.201l-.14.013c-.177.432-.291.943-.379 1.507-.152.458-.279.891-.368 1.244a106.41 106.41 0 00-.734 3.118h14.6c-.05-1.991-.215-4.258-.633-5.856-.114-.406-.202-.799-.304-1.153-.126-.471-.24-.904-.342-1.297a3.115 3.115 0 001.039-.511c.684-.524 1.089-1.284 1.329-2.083.406-.327.633-.891.722-1.611.228-1.467-.114-3.577-.633-5.634z" fill="#B1C9F2"/><path d="M283.947 128.481s-2.862-.328-5.407 1.375c-2.545 1.704-2.596 7.887-4.799 8.922-2.204 1.035-5.496 2.633-5.154 5.778.329 3.144 1.38 4.153-.038 6.026-1.406 1.874 1.026 6.551 5.09 5.149 4.065-1.402 16.741-5.699 18.02-8.175 1.279-2.463.646-5.358-.633-7.73-1.267-2.384 1.583-10.795-7.079-11.345z" fill="#7F1E17"/><path d="M289.455 166.382h-12.156v-.131c-.013-2.031.152-7.337.304-11.935.139-4.166.266-7.743.266-7.743.24-.078.734-.144 1-.209a2.54 2.54 0 001.824-1.638c.354-1.009.62-2.502.62-4.376l.266.053 4.419.904v.091c0 .053-.012.131-.012.223 0 .066-.013.131-.013.21 0 .039 0 .065-.013.105v.104c0 .04.001.092-.012.144 0 .066 0 .145-.013.223v.341c0 .065 0 .131-.013.209 0 .158-.012.328-.012.498v.668c0 1.179.734 2.214 1.836 2.542.557.17 1.038.314 1.038.314s.304.917.684 2.359c.481 1.86 1.076 4.585 1.241 7.349.19 3.42-1.304 5.49-1.254 9.695z" fill="#FFB27D"/><path d="M285.986 141.32s-.101 1.441-.101 2.79c-2.47-.065-3.774-2.397-4.306-3.694l4.407.904z" fill="#E8945B"/><path d="M286.809 142.604s-5.838.105-5.85-3.669c0-3.759-.76-6.288 2.975-6.511 3.736-.222 4.458 1.219 4.749 2.476.304 1.258-.355 7.586-1.874 7.704z" fill="#FFB27D"/><path d="M286.593 132.332s-1.595 4.415-4.052 5.071c-2.456.655-3.52-.027-3.52-.027s1.887-1.546 2.279-4.244c0 0 4.09-2.896 5.293-.8z" fill="#7F1E17"/><path d="M286.201 132.699s1.19.459 1.672 1.35c.481.877.886 2.03.785 3.458 0 0 1.203-3-.152-4.703-1.431-1.808-2.305-.105-2.305-.105z" fill="#7F1E17"/><path d="M293.191 166.382h-15.385l-.494-.131-.304-.079s-.671-.236-1.279-1.664a1.346 1.346 0 01-.089-.275c-.24.668-.532 1.389-.874 2.149h-5.622c.19-.642.38-1.232.545-1.716.569-1.638 1.139-5.411 1.785-8.765.431-2.214.899-4.231 1.431-5.319.101-.196.19-.38.304-.563 1.785-3.027 4.66-3.433 4.672-3.446 6.155 5.201 10.891.406 10.891.406s1.063.302 2.102 1.415c.684.734 1.355 1.821 1.684 3.42.772 3.72.139 11.345.633 14.568z" fill="#EE9849"/></g><path d="M220.784 167.574h-74.509v-55.26h74.509v55.26zm-73.382-1.179h72.243v-52.901h-72.243v52.901z" fill="#2E3239"/><g opacity=".5"><path d="M280.49 103.248l-.329-2.633-.658-5.24-.507-4.075v-.013l-1.178-9.42-2.621-20.909-14.562.014 1.431 11.397.139 1.1.063.564.038.275.583 4.612.19 1.546.114.93.012.079.076.642.241 1.965.025.196.304 2.45.215 1.677.444 3.55.05.446v.052l.026.236.05.432.051.393.684 5.463.012.105.178 1.441.747 5.948h14.562l-.38-3.223z" fill="#AFCDFB"/><path d="M281.301 106.445h-.405l-.406-3.21-.329-2.633-.658-5.24-.507-4.075v-.013l-1.178-9.42-2.621-20.908h.405l2.558 20.345 1.241 9.93.026.21.494 3.944.658 5.28.291 2.305.431 3.485z" fill="#699FF0"/><path d="M296.686 106.445h-14.562l-.506-3.956-.216-1.73-.671-5.345-.164-1.376-.393-3.065-1.317-10.494-2.457-19.52 14.575-.013 5.711 45.499z" fill="#AFCDFB"/><path d="M276.058 85.981a.726.726 0 01-.696-.615l-.215-1.69c-.038-.34.202-.63.531-.63.342 0 .646.276.697.617l.215 1.69c.051.353-.19.629-.532.629zm5.42 0a.726.726 0 01-.696-.615l-.216-1.69c-.038-.34.203-.63.532-.63.342 0 .646.276.697.617l.215 1.69c.051.353-.19.629-.532.629z" fill="#699FF0"/><path d="M244.325 83.95c.076-.196.975-2.279 4.457-.85 0 0-1.76-.564-2.292.013 0 0 1.456-.367 2.292.34.849.707.861 2.529.684 3.04-.165.523-1.254 1.952-1.9 1.82-.24-.052-.493-.183-.721-.327.076.301.139.642.19.996.456 3.314-1.862 5.306-2.926 4.493-.683-.524-1.304.603-1.304.603l-5.344-8.856c.013.013 4.458-4.048 6.864-1.271z" fill="#7F1E17"/><path d="M243.958 98.65c-.228-.956-.76-3.131-.925-5.856l-.266.576-3.925.55s.177 1.258.253 2.437c.063.93.025 1.48-.114 1.992-.304.026 5.281.367 4.977.301z" fill="#FFB27D"/><path d="M238.842 93.92s.177 1.258.253 2.438c2.216.078 3.267-1.887 3.672-2.987l-3.925.55z" fill="#E2915A"/><path d="M237.766 94.327s5.255 1.113 5.483-2.123c.228-3.235 1.063-5.266-2.28-6.104-3.343-.852-4.09.262-4.432 1.283-.342 1.022-.139 6.564 1.229 6.944z" fill="#FFB27D"/><path d="M236.828 85.615c.887-.813 1.482-.485 1.798-.118 2.989-.996 4.673 1.663 4.673 1.663.19 2.385 1.786 4.049 1.786 4.049s-1.001.393-3.166-.59c-.659-.301-1.229-.89-1.697-1.572.785 1.65 1.925 2.96 1.925 2.96-2.558-1.715-3.356-5.554-3.432-5.947-.342.223-1.013.72-1.254 1.284-.316.773-.557 2.437-1.051 2.293 0-.013-.911-2.804.418-4.022z" fill="#7F1E17"/><path d="M245.705 106.445h-11.194c.62-2.567 1.937-4.781 2.976-6.236.785-1.113 1.418-1.781 1.481-1.847l3.115.197 1.862.118c.038.104.658 1.873 1.241 4.742.177.891.354 1.9.506 3 .013 0 .013.013.013.026z" fill="#FFB27D"/><path d="M245.895 104.323c-.988-3.812-1.874-5.555-1.937-5.66a5.953 5.953 0 00-1.862-.118c-.063 0-.127.013-.19.013-2.342.262-4.343 1.599-4.419 1.651-1.735 1.494-2.659 3.721-3.077 6.236h11.992c-.178-.76-.342-1.467-.507-2.122z" fill="#C65447"/><path d="M243.666 106.445h-1.051c.076-.288.127-.445.127-.445l.924.445z" fill="#AA413E"/><path d="M245.718 106.445h-.431a38.707 38.707 0 00-.304-1.284c-.329-1.349-.595-2.253-.836-2.869-.468-1.231-.797-1.323-1.177-1.637-.583-.485-1.507-.839-2.28-.485-.987.458-1.291 2.044-1.304 2.987 0 .354.076 1.572.215 3.301h-.455c-.127-1.703-.19-2.934-.19-3.38 0-1.074.303-2.777 1.405-3.288.899-.406 1.963-.262 2.634.341.342.314.874.484 1.646 2.633.317.851.659 2.017 1.051 3.616.013.039.013.052.026.065z" fill="#1C468A"/><path d="M245.895 104.323c-.139-.21-.279-.406-.418-.59-.089-.118-.177-.236-.279-.34-.05-.066-.101-.118-.139-.171-.139-.157-.278-.314-.405-.445-.165-.17-.329-.341-.481-.485-1.938-1.768-3.179-1.284-3.179-1.284-.721.184-.481 1.664.216 3.708.177.537.392 1.127.633 1.729h5.318c-.443-.799-.861-1.533-1.266-2.122z" fill="#C65447"/><path d="M260.343 71.728s1.596.157 2.647 1.506c.735.944.899 3.145 1.836 3.904.937.76.95 2.254-.025 2.896-.975.629-6.534 1.074-8.459-.42-1.937-1.493.317-2.332-.139-4.86-.216-1.179 1.152-3.367 4.14-3.026z" fill="#163560"/><path d="M268.777 96.37s.962.865 1.127 1.14c.165.289.431.996-.19 1.062-.633.052-.899-.04-1.026-.341-.126-.301-.43-1.323-.43-1.323l.519-.537z" fill="#F4A269"/><path d="M271.474 101.021c.051-.013.076-.052.076-.104 0-.079-.05-1.821-.949-2.738a1.857 1.857 0 00-1.254-.55c-1.38-.04-1.406 1.218-1.444 2.331-.012.655-.038 1.258-.278 1.638-.038.052-.013.118.038.157.05.039.126.026.164-.013.279-.419.292-1.087.317-1.742.025-1.114.063-2.162 1.228-2.136.418.013.785.17 1.077.459.835.838.873 2.541.873 2.554 0 .066.051.118.114.131.013.013.026.013.038.013zm3.774 5.424l-.278-3.262-.228-2.699 1.304-.039.633 2.856.241 1.074.101.472.241 1.074.114.498h-2.128v.026z" fill="#235187"/><path d="M275.248 106.445h-11.84l.026-5.934 1.468-.013h9.84l.227 2.685.279 3.262z" fill="#163560"/><path d="M270.74 101.336c.051 0 .089-.026.101-.079.013-.065.317-1.742-.418-2.803a1.904 1.904 0 00-1.152-.773c-1.38-.315-1.659.89-1.912 1.939-.139.615-.279 1.205-.595 1.506-.038.04-.038.118.013.171.05.052.126.052.164.013.355-.354.507-.983.659-1.612.253-1.06.481-2.057 1.659-1.795.417.092.747.315.987.655.671.97.38 2.608.38 2.621-.013.065.025.131.089.144.012.013.025.013.025.013z" fill="#163560"/><path d="M275.894 106.445h-.646l-.278-3.262-.228-2.685h.405l.354 2.803.393 3.144z" fill="#235187"/><path d="M263.902 81.606s1.697.459 2.431 2.62c.747 2.175.874 6.826 1.469 8.28.595 1.454 1.444 4.127 1.444 4.127s-.52.471-1.14.445c0 0-3.71-4.638-3.9-5.882-.178-1.258-.304-9.59-.304-9.59z" fill="#FFB27D"/><path d="M257.735 96.659c.81-2.581 1.418-3.328 1.19-4.127-.177-.603-1.101-11.136-1.101-11.136.126-.04.392-.078.544-.118a1.16 1.16 0 00.899-.89c.127-.55.177-1.363.051-2.372l.152.026 2.52.485s.038.786.139 1.52v.013a1.648 1.648 0 001.19 1.376l.595.17s1.229 2.607 1.735 5.28c.507 2.672-1.152 3.838 1.165 9.17 2.356 5.463-9.535 2.03-9.079.603z" fill="#FFB27D"/><path d="M261.977 78.527s.038.786.139 1.52c-1.38-.04-2.266-1.31-2.646-2.004l2.507.484z" fill="#E8945B"/><path d="M262.522 79.222s-3.242.052-3.495-1.992c-.253-2.044-.849-3.42 1.203-3.537 2.064-.118 2.558.655 2.811 1.336.241.681.317 4.127-.519 4.193z" fill="#FFB27D"/><path d="M261.699 73.64s-.583 2.398-1.913 2.765c-1.316.353-1.962-.013-1.962-.013s.937-.839.975-2.306c.012-.013 2.089-1.585 2.9-.446z" fill="#163560"/><path d="M261.509 73.837s.696.249 1.025.734c.33.471.634 1.1.672 1.873 0 0 .468-1.638-.406-2.555-.924-.969-1.291-.052-1.291-.052z" fill="#163560"/><path d="M256.849 86.06s.202 1.56.468 2.974c.177.93.367 1.808.545 2.122.43.773.823.904.823.904l3.001.721 1.051.249 3.102-.983s.95-4.14.064-6.485c-.887-2.332-1.988-3.956-1.988-3.956s-2.305 2.607-6.079-.21l-.987 4.664z" fill="#fff"/><path d="M262.116 106.445c-.114-1.179-.177-2.214-.164-3.039a78.504 78.504 0 00-.102-4.677 92.79 92.79 0 00-.38-5.24c-.038-.38-.076-.642-.088-.76v-.066h4.318a72.874 72.874 0 011.19 2.817c.367.89.735 1.86 1.001 2.66.038.104.063.209.101.3.013.053.038.118.051.17.063.197.113.368.151.525.026.092.038.17.051.249.038.17.063.55.076 1.1.051 1.271.063 3.433.063 5.948h-6.268v.013z" fill="#ED7D2B"/><path d="M265.688 98.388c-.076.184-.165.367-.241.55a.389.389 0 01-.051.105c-.177.459-.354.944-.494 1.441-.569 1.9-.937 4.049-1.165 5.948h-6.179c-.114-1.781-.291-3.812-.418-5.489a69.096 69.096 0 01-.165-2.384c-.012-.184-.012-.354-.025-.498-.013-.433.063-.904.177-1.389.342-1.415 1.102-2.908 1.507-3.655.178-.314.279-.498.279-.498l.57.052.202.014 1.684.144.266.026 1.482.13 1.494.132s.013.026.038.092c.025.078.076.21.127.38.392 1.14 1.304 4.048.912 4.9z" fill="#F99746"/><path d="M265.852 91.89s-.583.511-1.849.537c-1.519.026-5.331-.393-5.331-.393s-.114.472-.038.97c0 0 4.749 1.166 7.294.17 0 .013.253-.642-.076-1.284z" fill="#233862"/><path d="M252.062 99.161l7.281 2.581.937-3.943-7.281-2.581-.937 3.943z" fill="#163560"/><path d="M260.28 97.799s-2.064 1.415-4.318.51c-2.254-.903-2.95-3.091-2.95-3.091l7.268 2.58z" fill="#235187"/><path d="M259.407 97.026a.25.25 0 00-.14-.04h-.075a.357.357 0 00-.342.315v.04a.47.47 0 00.405.458.354.354 0 00.392-.223.39.39 0 00.026-.131.5.5 0 00-.266-.42zm-.152.629a.316.316 0 01-.266-.302v-.013c.013-.144.127-.236.278-.223a.316.316 0 01.266.302.19.19 0 01-.025.091c-.038.105-.139.158-.253.144z" fill="#17467F"/><path d="M254.772 98.192s.076.59 0 .877c-.076.289-.367.669-.468.669-.114 0 .025-.603-.026-.59-.05.013-.202.996-.392 1.022-.19.026-.507-1.1-.469-1.546.051-.445.418-.97.418-.97l.937.538z" fill="#FFB27D"/><path d="M257.824 81.396s-1.76.25-2.495 2.175c-.557 1.493-.481 6.184-.823 7.651-.329 1.415-.544 3.839-.658 6.026-.013.17-.013.406-.013.406l.937.538c-.063.157.215-.616.266-.8.975-3.026 1.19-4.414 1.709-6.72.19-.878.925-2.817 1.229-3.459.747-1.559 1.418-2.148.658-3.89l-.81-1.927z" fill="#FFB27D"/><path d="M269.145 96.724s.633.302.797.498c.165.197.444.472.304.498-.152.026-.646-.314-.646-.314l-.455-.682z" fill="#F4A269"/><path d="M269.955 97.982s-.583-.393-.899-.249c-.317.144-.279.668-.152.786.114.105.975.236 1.152-.065a.328.328 0 00-.101-.472z" fill="#FFB27D"/><path d="M263.307 81.449s-2.216.786-4.939-.157c0 0-1.773.078-2.456 1.021-.684.944-1.33 3.433-1.33 3.433s1.165 1.965 3.748 1.991c2.571.04 7.725-1.664 7.725-1.664s.709.223 1.203-.196c0 0-.899-2.712-1.836-3.485-.938-.773-2.115-.943-2.115-.943z" fill="#fff"/><path d="M259.406 97.091c0-.065.52-6.629.482-10.363-.013-1.965-.304-3.38-.532-4.218-.253-.917-.659-1.337-.671-1.363l-.14.026c.013.013 1.102 1.848 1.14 5.542.025 3.72-.481 10.271-.481 10.337l.202.04z" fill="#0C2442"/><path d="M282.478 79.26s-3.102-.392-4.672 2.595c-1.558 2.987-1.431 7.323-2.951 9.367-1.519 2.044.253 3.983.253 3.983l11.802.406s.823-2.28 0-5.031c-.823-2.725 3.191-10.9-4.432-11.32z" fill="#B64C41"/><path d="M289.342 106.445h-2.938c-.316-.746-.532-1.388-.595-1.768-.051-.341-.165-.891-.291-1.546-.102-.472-.216-.996-.33-1.546-.025-.131-.063-.262-.088-.393a449.189 449.189 0 00-.861-3.852c1.025-.21 2.152-.301 3.128-.327.151 0 .303-.014.455-.014.216 1.468.418 2.961.583 4.258l.038.315c.228 1.781.405 3.131.519 3.445.089.223.215.747.38 1.428z" fill="#E8945B"/><path d="M285.505 103.131c-.329.825-.494 1.86-.291 3.314h-7.041c.089-.288.139-.537.139-.799v-.131c0-.052 0-.092-.012-.144 0-.039-.013-.079-.013-.118 0-.039-.013-.079-.013-.118-.012-.052-.025-.105-.038-.17a7.113 7.113 0 01-.038-.184c-.012-.065-.038-.131-.05-.183a1.348 1.348 0 01-.038-.131c-.013-.026-.013-.052-.026-.092-.012-.065-.038-.131-.063-.196a63.392 63.392 0 00-.354-1.022c-.038-.105-.076-.197-.114-.315-.026-.078-.064-.157-.089-.235-.013-.053-.038-.105-.051-.158-.05.197-.101.406-.152.603a1.72 1.72 0 01-.038.144c-.101.419-.202.812-.304 1.179a43.706 43.706 0 00-.405 1.73c-.012.091-.05.209-.088.327h-3.128c.013-.052.038-.105.051-.144.126-.301.354-1.677.671-3.472l.038-.249c.114-.655.228-1.362.367-2.096.316-1.782.671-3.681 1.051-5.267.278-1.165.57-2.161.861-2.816.013-.026.025-.053.051-.079 0 0 0-.013.012-.013.127-.183.393-.354.709-.485 0 0 .013 0 .026-.013.025-.013.038-.013.063-.026.532-.223 1.228-.38 1.811-.485.114-.026.24-.039.342-.065.025 0 .038 0 .05-.013.114-.013.203-.04.304-.053.178-.026.342-.105.482-.21a.957.957 0 00.291-.38c.316-.667.608-1.86.608-3.458l.177.04 3.064.628v.511c0 .053 0 .118-.012.17v.328c0 .079 0 .17-.013.249v.694c0 .616.025 1.206.127 1.48a.24.24 0 00.19.158c.088.013.164.013.202.013h.051s1.304 1.86 2.127 4.18c.165.47.317.956.431 1.454.114.484.19.969.215 1.454.063 2.07-1.418 2.856-2.14 4.664z" fill="#FFB27D"/><path d="M284.314 87.802s-.063.996-.076 1.94c-1.709-.053-2.621-1.665-2.988-2.568l3.064.628z" fill="#E8945B"/><path d="M284.885 88.693s-4.052.066-4.052-2.541c0-2.607-.532-4.363 2.064-4.52 2.583-.157 3.089.838 3.292 1.716.203.865-.241 5.254-1.304 5.345z" fill="#FFB27D"/><path d="M277.186 101.781c.759 2.175 1.152 3.053 1.127 3.878 2.418-3.878 6.8-4.467 6.8-4.467l-8.307-.983c.076.537.19 1.061.38 1.572z" fill="#CB7D45"/><path d="M286.075 81.894c-.621-.786-1.102-.616-1.368-.38-2.178-1.244-3.647.603-3.647.603-.266 1.873-1.582 2.947-1.582 2.947s.721.394 2.443.014c2.039-.446 2.609-2.83 2.685-3.145.253.236.734.734.886 1.219.203.668.292 2.03.684 1.991 0 .013.836-2.07-.101-3.249z" fill="#B64C41"/><path d="M288.316 96.213c-.051-2.174-.608-3.485-1.102-4.127-.05-.078-.114-.144-.164-.196-.152-.118-.304-.197-.899-.301a35.31 35.31 0 00-1.33-.197h-.05c-.064-.013-.19-.026-.203-.013.114.21 1.013 2.044 1.19 2.633.203.681-.316 1.284-1.127 1.56-.633.209-1.456.222-2.254-.08h-.012a3.907 3.907 0 01-1.697-1.283c-.026-.04-.064-.079-.102-.144-.304-.55-.924-2.044-1.139-2.594a1.26 1.26 0 01-.076-.197s-.14.013-.355.053c-.43.065-1.177.222-1.811.497-.025.014-.038.014-.063.027-.013 0-.013 0-.025.013a2.744 2.744 0 00-.545.314l.013.013c-.063.053-.127.105-.177.157l-.013.014c-.025.026-.038.052-.063.091-.33.655-.672 1.651-.988 2.817-.443 1.585-.861 3.485-1.216 5.267-.152.759-.304 1.493-.43 2.161.114.066.228.118.342.171.329.157.645.275.949.353.19.053.355.079.532.105.469.066.874.052 1.178.013.24-.026.418-.065.544-.105h.026c-.051.341-.241.97-.216 1.664.013.354.076.734.241 1.074.089.171.19.341.342.498h9.7c.772-.864 1.063-2.869 1.139-4.886.076-2.476-.126-4.94-.139-5.372z" fill="#fff"/><path d="M252.961 73.902h-.19v-3.904h4.052v.197h-3.862v3.707zm14.563.145h-.19V70.05h-3.584v-.197h3.774v4.193zm-.001 10.231h-4.052v-.196h3.862v-3.708h.19v3.904zm-10.978.144h-3.774V80.23h.19v3.996h3.584v.197z" fill="#B64C41"/></g><g opacity=".5"><path d="M159.622 106.786h-12.486l-3.178-46.22h12.46l3.204 46.22z" fill="#AFCDFB"/><path d="M160.179 106.786h-.557l-3.204-46.22h.558l3.203 46.22z" fill="#699FF0"/><path d="M181.073 106.786h-19.792l-3.191-46.22h19.779l.684 9.852.089 1.336.38 5.345.025.472.038.498.013.222.063.983.063.747v.17l.102 1.336v.092l.329 4.769.886 12.655.178 2.66v.052l.354 5.031z" fill="#AFCDFB"/><path d="M155.747 95.336c-.456 0-.861-.393-.899-.865l-.165-2.345a.785.785 0 01.773-.865c.456 0 .861.393.899.865l.165 2.345c.038.485-.317.865-.773.865zm7.37 0c-.456 0-.861-.393-.899-.865l-.164-2.345a.784.784 0 01.772-.865c.456 0 .861.393.899.865l.165 2.345c.038.485-.317.865-.773.865z" fill="#699FF0"/><path d="M188.012 99.947s.127 1.14.291 1.638c.165.498 1.343 1.69 1.723 1.428.392-.275-.051-1.271.05-1.651.102-.38-.57-1.782-.823-2.057-.24-.288-1.241.642-1.241.642z" fill="#FFB27D"/><path d="M179.984 79.981s6.686 8.175 8.205 12.682c1.52 4.507 1.748 7.756 1.748 7.756s-.747.314-1.963.288c0 0-2.14-6.511-3.052-7.14-.911-.642-6.306-7.599-6.091-9.642.203-2.07 1.153-3.944 1.153-3.944z" fill="#E58638"/><path d="M164.13 92.663s-1.342-.079-1.925 0c-.582.079-2.051 1.061-1.76 1.507.291.445 1.469.183 1.912.353.431.17 2.102-.249 2.444-.458.329-.21-.671-1.402-.671-1.402z" fill="#FFB27D"/><path d="M187.252 106.786h-7.559c-.988-2.293-1.406-3.524-1.406-3.524l2.343-1.507.088-.052 3.913-2.516 1.406-.904s.063.681.202 1.769c.203 1.611.532 4.14 1.013 6.734z" fill="#163560"/><path d="M184.91 99.187s-.165.813-.38 2.096a117.65 117.65 0 00-.81 5.49h-7.205c-.355-2.699-.57-4.874-.684-6.249a96.216 96.216 0 01-.127-1.651l4.812.157 4.09.131.304.026z" fill="#1C468A"/><path d="M180.68 80.44l-1.405 1.14-2.191-.472c.013-.21.101-1.048.177-1.808 0-.04.013-.092.013-.131.063-.655.127-1.205.127-1.205l1.937-1.035.722-.393c0 .013-.013.72-.013.825-.013 1.834.633 3.079.633 3.079z" fill="#FFB27D"/><path d="M177.148 79.863c.05-.026 2.861-.904 3.191-.799.316.105.544.734.544.734l-4.634 1.1s.316-.773.899-1.035z" fill="#E58638"/><path d="M186.29 99.855c-.329 2.306-8.434 2.581-10.675.485-.253-.236-.342-1.35-.354-2.843-.026-2.921.228-7.323.101-9.564a17.71 17.71 0 01.127-3.196c.265-2.149.759-3.826.759-3.826s3.875-1.323 4.635-1.1c3.647 1.074 5.736 17.739 5.407 20.044z" fill="#EE9849"/><path d="M175.261 97.497c-.026-2.921.228-7.323.101-9.564a17.71 17.71 0 01.127-3.196l2.355-.433s3.014 9.865-2.583 13.193z" fill="#E58638"/><path d="M179.896 77.4c-.38.878-1.976 1.625-2.647 1.913 0-.04.013-.092.013-.131a74.75 74.75 0 01.126-1.205l1.938-1.035c.456-.026.734.091.57.458z" fill="#FCA56B"/><path d="M176.413 77.846s3.71 1.166 4.217-1.18c.506-2.344 1.329-3.772-1.013-4.624-2.343-.852-3.001-.092-3.356.642-.367.72-.798 4.795.152 5.162z" fill="#FFB27D"/><path d="M176.375 72.448s.418 2.738.963 2.62c.531-.118 1.025-.21 1 .616-.025.825-.709 1.769.975 1.926 1.697.144 3.799-4.35 3.28-5.201-1.494-2.463-8.358-2.948-6.218.04z" fill="#163560"/><path d="M176.248 80.898s-3.824 7.52-5.989 8.555c-2.153 1.035-6.496 2.751-6.496 2.751s.164 1.952 1 2.28c.836.314 6.927-1.323 7.687-1.533.759-.21 5.964-4.231 6.559-5.306.595-1.061.038-6.563-2.761-6.747z" fill="#EE9849"/><path d="M219.91 95.493l.33 4.742c-1.596 2.28-3.723 4.612-5.813 4.808-.785.066-1.633-.262-2.494-.851-3.229-2.227-6.598-8.097-7.408-9.564-.127-.223-.19-.34-.19-.34l.469-.957 2.114-4.284.291-.59s.114.21.317.577a165.613 165.613 0 003.888 6.577c1.165 1.847 2.292 3.484 2.975 4.113l5.521-4.231z" fill="#233862"/><path d="M208.374 88.864c-2.558.825-6.964-1.415-6.964-1.415s2.355-1.821 2.241-5.607l1.975 1.637 1.343 1.114s0 .655-.152 1.808c-.038.301-.089.642-.152 1.008a6.19 6.19 0 011.709 1.455z" fill="#FFB27D"/><path d="M206.956 84.593s0 .655-.152 1.808c-1.482-.263-3.166-2.739-3.166-2.739.76-.222 1.418-.262 1.976-.183l1.342 1.114z" fill="#ED975D"/><path d="M207.728 84.527s-4.216.72-4.609-2.004c-.392-2.712-1.203-4.454 1.469-5.018 2.672-.576 3.343.38 3.698 1.258.354.878.531 5.515-.558 5.764z" fill="#FFB27D"/><path d="M199.358 105.017c.013-.825.013-1.703 0-2.607 0-.21-.013-.432-.013-.655-.012-.236-.012-.472-.025-.708a9.319 9.319 0 01-.025-.602 43.506 43.506 0 01-.064-2.214c0-2.843.279-5.516.862-7.638.341-1.27.785-2.332 1.342-3.144l.012-.013c.266-.394.57-.721.887-.97.013-.013.038-.026.051-.04.177-.13 1.278.42 2.279.944a4.072 4.072 0 002.532.393 5.07 5.07 0 00.216-.04l.886.8c1.076 1.035 2.241 2.424 2.761 4.546.164.668.291 1.546.405 2.542.19 1.69.329 3.773.405 5.895.038.904.063 1.808.089 2.699.012.629.025 1.231.038 1.834v.052c.012.144.012.302.012.446v.262h-12.663c0-.079.013-.171.013-.262l.038-1.127c-.051-.131-.038-.262-.038-.393z" fill="#2B478B"/><path d="M201.599 106.786h-2.304c0-.079.012-.171.012-.262.013-.367.026-.734.038-1.127 0-.131 0-.262.013-.393.013-.825.013-1.703 0-2.607 0-.21-.013-.432-.013-.655-.012-.236-.012-.472-.025-.708a9.319 9.319 0 01-.025-.602 43.51 43.51 0 01-.064-2.214c.874-2.175 1.596-3.76 1.596-3.76h2.203s.102.694.165 1.795c.114 2.489.089 7.061-1.596 10.533z" fill="#233862"/><path d="M205.057 93.96l-.532.655c-.342.406-.811.983-1.342 1.638a347.427 347.427 0 00-3.863 4.782c-.683.877-1.177 1.532-1.253 1.703-.14.327-.76 2.187-1.355 4.048h-3.698c.253-1.992.671-4.363 1.292-5.83.468-1.114 3.583-6.564 5.774-10.376.709-1.218 1.317-2.28 1.71-2.96.316-.538.493-.852.493-.852l.494 1.27 2.039 5.28.241.642zm-1.938-11.686s.431-.079.368-.695c-.064-.615-.064-1.414.417-1.27.482.144.507.55.71.314.202-.236.202-1.218 1.646-1.284 1.443-.065 2.026.446 2.697.144.671-.301.709-1.35.709-1.35s-.19.368-.481.499c0 0 1.114-1.572-.177-2.66-1.292-1.087-2.609-.38-3.369-.327-1.646.105-2.722.196-3.254 1.323-.545 1.127-.329 4.232.734 5.306z" fill="#2B478B"/><path d="M197.852 71.295h-9.358c-.431 0-.786-.367-.786-.812v-9.354c0-.445.355-.812.786-.812h9.358c.43 0 .785.367.785.812v9.354c0 .445-.355.812-.785.812z" fill="#E9E9E9"/><path d="M197.446 70.81h-8.547a.72.72 0 01-.71-.733v-8.542a.72.72 0 01.71-.734h8.547a.72.72 0 01.709.734v8.542a.72.72 0 01-.709.733z" fill="#7B97C1"/><path d="M192.938 61.797a.23.23 0 01.228-.236.23.23 0 01.228.236.23.23 0 01-.228.236.23.23 0 01-.228-.236zm1.836.341c.063-.118.203-.157.304-.092a.23.23 0 01.089.314c-.064.118-.203.158-.304.092a.23.23 0 01-.089-.314zm1.557 1.284a.235.235 0 01.317.065.254.254 0 01-.063.328.235.235 0 01-.317-.066.236.236 0 01.063-.327zm.773 2.449a.232.232 0 00.228-.235.232.232 0 00-.228-.236.232.232 0 00-.228.236c0 .13.102.236.228.236zm-.557 2.254a.232.232 0 00.228-.236.232.232 0 00-.228-.236.232.232 0 00-.228.236c0 .13.102.236.228.236zm-1.254 1.061a.234.234 0 010 .327.216.216 0 01-.316 0 .234.234 0 010-.327.216.216 0 01.316 0zm-2.355.76a.23.23 0 01.228-.236.23.23 0 01.228.236.23.23 0 01-.228.236.23.23 0 01-.228-.236zm-1.38-7.808c-.064-.118-.203-.157-.304-.092a.23.23 0 00-.089.314c.064.118.203.158.304.092a.23.23 0 00.089-.314zm-1.557 1.284a.235.235 0 00-.317.065.254.254 0 00.063.328.236.236 0 00.317-.066c.063-.118.038-.262-.063-.328zm-.773 2.449a.232.232 0 00.228-.235.232.232 0 00-.228-.236.232.232 0 00-.228.236c0 .13.102.236.228.236zm.544 2.254a.232.232 0 00.228-.236.232.232 0 00-.228-.236.232.232 0 00-.228.236c0 .13.102.236.228.236zm1.267 1.061a.234.234 0 000 .327.216.216 0 00.316 0 .234.234 0 000-.327.216.216 0 00-.316 0zm2.064-3.55a.23.23 0 01.228-.236.23.23 0 01.228.236.23.23 0 01-.228.236.23.23 0 01-.228-.236z" fill="#B7D3F3"/><path d="M193.369 62.714h-.063v2.922h.063v-2.922z" fill="#B7D3F3"/><path d="M194.733 64.334l-1.493 1.214.117.154 1.494-1.213-.118-.155z" fill="#B7D3F3"/><path d="M198.168 78.435h-.19v-3.904h4.052v.197h-3.862v3.707zm14.562.157h-.177v-4.008h-3.584v-.197h3.761v4.205zm0 10.219h-4.052v-.196h3.875v-3.708h.177v3.904zm-10.978.144h-3.774v-4.192h.19v3.996h3.584v.196z" fill="#B64C41"/></g><g opacity=".5"><path d="M195.167 133.813s-1.089.406-1.544 2.253c-.469 1.848-1.621 9.053-.596 9.053 1.026 0 2.178-2.659 2.178-2.659l-.038-8.647z" fill="#E8945B"/><path d="M189.33 149.979v.014c0 .026 0 .065-.013.131v.563c-.013.249-.025.55-.051.891 0 .052 0 .092-.012.144 0 .092-.013.183-.013.288 0 .092-.013.197-.013.301v.118c0 .079-.012.158-.012.249v.013c0 .092-.013.171-.013.262a7.834 7.834 0 00-.025.564c-.013.144-.013.288-.026.432-.025.524-.063 1.087-.088 1.677 0 .079-.013.157-.013.249l-.038.681c0 .079-.013.17-.013.262-.012.328-.038.655-.05.983l-.114 2.004v.053c-.038.563-.064 1.126-.102 1.69-.025.353-.038.694-.063 1.035-.038.576-.063 1.152-.101 1.703-.038.733-.089 1.441-.127 2.109h-5.394c-.152-1.454-.304-2.895-.431-4.219-.139-1.506-.266-2.856-.354-3.917 0-.078-.013-.144-.013-.222 0-.053-.013-.118-.013-.171-.038-.537-.076-1.074-.126-1.611-.013-.092-.013-.197-.026-.288 0-.066-.012-.118-.012-.184-.013-.105-.013-.223-.026-.327-.012-.223-.038-.446-.05-.655 0-.079-.013-.144-.013-.223 0-.052-.013-.105-.013-.17-.012-.118-.012-.223-.025-.341 0-.066-.013-.144-.013-.21-.025-.314-.05-.615-.063-.904 0-.052-.013-.091-.013-.144l-.038-.498c0-.052-.012-.104-.012-.144l-.038-.524c-.013-.131-.026-.262-.026-.38v-.039c0-.039 0-.065-.012-.105v-.144c0-.039 0-.078-.013-.118 0-.078-.012-.144-.012-.196 0-.053-.013-.105-.013-.157l2.748-.171 4.888-.354z" fill="#2B478B"/><path d="M189.33 149.979v.014c0 .026 0 .065-.013.131v.563c-.013.249-.025.55-.051.891 0 .052 0 .091-.012.144 0 .092-.013.183-.013.288 0 .092-.013.197-.013.301v.118c0 .079-.012.158-.012.249v.013c0 .092-.013.171-.013.262a7.834 7.834 0 00-.025.564c-.013.144-.013.288-.026.432-.025.524-.063 1.087-.088 1.677 0 .079-.013.157-.013.249l-.038.681c0 .079-.013.17-.013.262-.012.328-.038.655-.05.983l-.114 2.004v.053c-.038.563-.064 1.126-.102 1.69-.025.353-.038.694-.063 1.035-.038.576-.063 1.152-.101 1.703-.038.733-.089 1.441-.127 2.109h-1.14l-1.836-3-2.114-3.459-1.039-1.69c0-.078-.012-.144-.012-.223 0-.052-.013-.118-.013-.17a67.17 67.17 0 00-.127-1.611c-.012-.092-.012-.197-.025-.289 0-.065-.013-.117-.013-.183-.012-.105-.012-.223-.025-.327-.013-.223-.038-.446-.051-.656 0-.078-.012-.144-.012-.222 0-.053-.013-.105-.013-.171-.013-.117-.013-.222-.025-.34 0-.066-.013-.144-.013-.21-.025-.314-.051-.616-.063-.904 0-.052-.013-.091-.013-.144l-.038-.498c0-.052-.013-.105-.013-.144a31.927 31.927 0 00-.038-.524c-.012-.131-.025-.262-.025-.38v-.039c0-.039 0-.066-.013-.105v-.144c0-.039 0-.079-.012-.118 0-.065-.013-.131-.013-.196 0-.053-.013-.105-.013-.158-.025-.275-.038-.524-.05-.707-.026-.328-.038-.511-.038-.511l2.608.249 3.204.301 1.862.157z" fill="#233862"/><path d="M193.914 166.382h-4.774l-.621-2.109-1.329-4.546-2.204-7.52-.557-1.926-.089-.302-.139-.497-.228-.786 7.129-.891c0 .013.013.026.013.026.025.079.101.301.203.668 0 .013.012.026.012.039.279 1.009.684 3.053.722 6.21.013 1.677-.076 5.909.937 7.651.469.839.76 2.293.925 3.983z" fill="#2B478B"/><path d="M189.254 130.066s-3.343 1.703-5.268 1.074c0 0 .468-.629 1.304-1.1-.051-.288-.089-.55-.114-.786a16.38 16.38 0 01-.114-1.35l2.052-1.703.455-.38c-.012.406.013.786.064 1.127 0 .026.012.052.012.079.33 2.043 1.609 3.039 1.609 3.039z" fill="#FFB27D"/><path d="M191.432 148.342c.012.223-.671.445-.861.537-.849.393-1.685.537-2.52.76-.583.157-1.165.275-1.786.341-1.785.183-3.9-.223-4.622-.223a.3.3 0 01-.202-.079c-.051-.039-.089-2.292-.051-5.148 0-.105 0-.236.013-.341v-.039c.012-1.114.05-2.28.101-3.433.101-2.554.304-5.03.633-6.393.393-1.611 1.279-2.673 2.089-3.446l.583-.589a.14.14 0 01.139-.039c.646.118 1.355.118 2.026-.236.76-.393 1.596-.812 1.735-.708 1.583 1.219 2.368 4.848 2.355 8.961v.393c-.012.42-.025.852-.05 1.284-.177 3.04.19 5.372.291 6.905.013.419.127 1.244.127 1.493z" fill="#83817F"/><path d="M187.658 126.987s0 .013-.013.027c-.126.235-1.013 1.781-2.469 2.227-.101-.852-.114-1.35-.114-1.35l2.051-1.703c.266.328.456.629.52.747.025.039.025.052.025.052z" fill="#E8945B"/><path d="M184.48 127.852s3.191.55 3.482-1.507c.304-2.056.912-3.38-1.114-3.812-2.026-.432-2.533.288-2.799.943-.253.668-.392 4.179.431 4.376z" fill="#FFB27D"/><path d="M187.379 125.808s.418-.445.178-.72c-.241-.275-.38.144-.583.131-.19-.013-.544-.603-.57-1.127-.025-.524-1.874.275-2.621.026-.747-.249-1.393-1.284-.228-1.834.684-.327 4.103-2.004 5.395-.301 1.646 2.175-.557 4.441-.849 4.795-.291.353-.468.249-.468.249s-.507-.734-.254-1.219z" fill="#2C3A64"/><path d="M188.861 144.019s4.407 1.493 5.078.995c.671-.511.608-2.358.608-2.358l-5.458.314-.228 1.049z" fill="#E8945B"/><path d="M190.685 142.067s-1.583.249-2.014.864c-.43.603 1.418.118 1.646-.039.228-.157.368-.825.368-.825z" fill="#E8945B"/><path d="M189.026 122.179c-.013-.157-.038-.576-.178-.838 0 0 .013.432-.05.655-.064.223.228.183.228.183z" fill="#2C3A64"/><path d="M189.368 121.826s-.406.039-.431.367l.139.196c.013.013-.012-.406.292-.563z" fill="#2C3A64"/><path d="M190.799 132.031s3.811 9.551 3.545 11.07c-.278 1.52-7.319 3.302-7.319 3.302l-.127-1.087 4.23-3.629s-4.027-6.145-3.508-7.337c.519-1.179 2.938-2.921 3.179-2.319z" fill="#FFB27D"/><path d="M187.62 135.66c1.292.066 2.533-.236 3.863-1.572.215-.223.481-.354.367-.642-.431-1.022-1.659-3.17-3.153-4.166-.14-.092-.241-.013-.393.079-.544.314-1.735 1.257-1.811 2.371-.063.996.266 2.712.456 3.629.064.314.367.288.671.301z" fill="#83817F"/><path d="M186.886 145.316s-1.545.249-1.773.576c-.228.328.19 1.205.62 1.284.431.092 1.279-.773 1.279-.773l-.126-1.087z" fill="#FFB27D"/><path d="M199.637 166.382h-4.292a54.266 54.266 0 01-1.077-4.127c-1.051-4.808-1.19-8.555-1.165-10.507 0-.314.013-.576.026-.799.012-.459.038-.694.038-.694l.861.131.62.091 2.634.38 1.975.288.292.04v.406c0 .183 0 .38-.013.563v1.284c0 .55-.013 1.114-.013 1.677v1.939c0 1.022-.012 2.044-.012 3.013v5.935c.038.079.063.157.088.236 0 .052.013.105.038.144z" fill="#F99746"/><path d="M199.638 166.382h-1.292l-.114-.236 1.254-.878v.747c.038.079.063.157.088.236.026.039.038.092.064.131z" fill="#E07D32"/><path d="M199.561 151.198a843.71 843.71 0 00-.063 9.957c0 .746-1.254 4.375-1.266 4.991-1.013-1.493-1.9-11.869-3.305-14.49.012-.956-1.76-1.401-1.76-1.401l6.103.89.291.053z" fill="#E07D32"/><path d="M200.524 124.053c.038-.131.494-1.612 2.722-1.114 0 0-1.114-.144-1.418.301 0 0 .887-.419 1.431-.065.557.354.646 1.533.557 1.886-.088.354-.696 1.428-1.101 1.428-.152 0-.317-.052-.456-.117.063.183.114.393.164.628.431 2.097-.911 3.682-1.608 3.289-.443-.249-.785.55-.785.55l-3.697-5.07c.012-.026 2.583-3.223 4.191-1.716z" fill="#233862"/><path d="M194.712 148.709c1.684-5.555-.165-6.761.012-9.538.177-2.777 2.254-5.764 2.254-5.764s.102-.013.291-.027c.14-.078.178-.681.178-1.323 0-.76-.064-1.572-.064-1.572l2.495-.511.152-.026c0 1.795.456 2.974.785 3.249.317.039 1.646.21 2.457.563.304.131.544.289.62.485.684 1.559 1.368 5.489 1.849 8.293.266 1.559.469 2.777.582 3.039.292.721 1.203 4.664 1.989 6.616l-.988.302s-3.267-5.607-3.571-7.075a64.34 64.34 0 00-.608-2.489c-.038-.157-.089-.327-.127-.485-.493 1.376-.734 2.005-.721 2.607.025.852.569 1.612 1.734 4.297.621 1.455-11.029 5.031-9.319-.641z" fill="#FFB27D"/><path d="M197.383 130.891s.051.813.064 1.572c1.393-.039 2.127-1.362 2.431-2.083l-2.495.511z" fill="#E8945B"/><path d="M200.131 130.092s.735-1.192.912-2.214c.127-.734-.228-3.432-2.862-3.039 0 0-.759.078-1.481.576-.57.393-1.393 1.258-.469 3.616l.241.799 3.659.262z" fill="#233862"/><path d="M196.915 131.612s3.305.052 3.305-2.07.43-3.55-1.684-3.681c-2.102-.131-2.52.681-2.685 1.401-.165.708.215 4.285 1.064 4.35z" fill="#FFB27D"/><path d="M202.525 166.028c.114.118.228.249.342.367h-4.572a10.449 10.449 0 01-.114-.341c-.987-3.144-1.025-9.17-.937-13.035l.038-1.205.038-.931a55.94 55.94 0 01.076-1.441l6.218-.314c.114.196.215.419.304.668.278.76.468 1.703.57 2.777.038.472.076.957.088 1.455.14 5.083-2.317 11.712-2.051 12z" fill="#F99746"/><path d="M195.953 126.07c.506-.642.899-.497 1.114-.314 1.773-1.022 2.963.498 2.963.498.215 1.533 1.279 2.397 1.279 2.397s-.608.38-1.988.013c-.418-.118-.798-.419-1.127-.799a7.857 7.857 0 001.329 1.677c-1.658-.786-2.317-3.183-2.393-3.432-.202.183-.595.589-.722.995-.164.537-.24 1.651-.557 1.625.026 0-.658-1.69.102-2.66z" fill="#233862"/><path d="M208.223 151.984s.304.734.62.943c.317.21.76.695.671 1.088-.088.393-.164 1.008-.557 1.008-.392 0-1.317-1.808-1.431-2.148-.114-.341-.215-.406-.215-.406l.912-.485z" fill="#FFB27D"/><path d="M204.791 151.63c.013.223 0 .393-.038.524-.126.446-.582.642-1.684.524-.671-.078-.975-1.257-1.102-2.279-.405 1.454-.962 2.266-1.696 2.436-1.064.249-6.813.669-7.168-2.03-.392-2.961 1.153-7.939 1.216-10.769-.152-1.009-.215-1.874-.19-2.62.051-2.018.608-3.145 1.038-3.603.127-.105.241-.157.735-.249l1.089-.17s.215-.027.202-.027c-.088.171-1.063 1.69-.975 2.188.102.524 3.85.446 4.154.157.291-.288 1.076-2.462 1.076-2.462s1.532.17 2.267.746l-.013.013a.612.612 0 01.19.223c.798 1.598 1.596 5.647 2.153 8.529-1.355.786-2.545.55-2.913.445.494 3.354 1.583 6.918 1.659 8.424z" fill="#fff"/><path d="M207.514 152.875s.114.825.316 1.022c.216.196.241.537.456.353.228-.196-.772-1.375-.772-1.375z" fill="#FFB27D"/><path d="M188.532 143.206c-.089.328-.114.695.101 1.35.216.655.38.694.595.262.216-.433.33-.852.596-1.35.152-.275-.102-.694-.469-.786a.703.703 0 00-.823.524z" fill="#E8945B"/><path d="M189.33 142.682s.645.131.759.42c.114.288-.063.707-.076.943-.012.236-.152.157-.177.052-.025-.105-.127-.799-.127-.799l-.379-.616z" fill="#E8945B"/><path d="M195.598 133.63s-1.001 0-1.684 1.375c-.697 1.389-1.127 3.603-1.127 3.603s.683 1.926 2.114 1.611c1.419-.327.697-6.589.697-6.589z" fill="#fff"/><path d="M162.383 157.879c-.076 2.843-.367 6.001-1.102 8.516h-4.964c.076-.079.14-.17.216-.249 1.494-1.69 1.304-4.743.759-7.323-.519-2.463-1.367-4.494-1.367-4.494l3.115-1.978 3.14-1.992c.013 0 .317 3.446.203 7.52z" fill="#E8945B"/><path d="M161.344 146.966c2.773-.733 5.813-5.175 5.813-5.175l-.786-.694c-.81.983-4.166 2.686-4.166 2.686.013-.904 0-1.73-.063-2.476-.367-5.084-2.229-6.774-2.735-7.154a.735.735 0 00-.127-.091v.105c-.012.157-.025.458-.038.877-.088 3.118-.202 12.538 2.102 11.922z" fill="#FFB27D"/><path d="M166.384 141.097c.013-.118-.05-1.69.456-2.018.393-.249.975-.969 1.165-.93.19.04.709 1.192.405 1.952-.304.76-1.241 1.69-1.241 1.69l-.785-.694zm-7.344 25.285h-4.242c-.051-.21-.102-.406-.165-.616a114.479 114.479 0 01-1.19-4.218c-.241-.918-.456-1.887-.671-2.856l-.076-.354a40.442 40.442 0 01-.57-3.524c-.165-1.481-.203-2.843-.051-3.931a5.31 5.31 0 01.304-1.192l.114-.013 6.256-.642s.139 1.323.291 3.315c.139 1.742.291 3.995.38 6.314.012.302.025.59.025.891.013.328.013.655.025.983.051 2.201-.19 4.127-.43 5.843z" fill="#FFB27D"/><path d="M157.127 128.415s-1.494 1.31-.126 2.817c0 0-1.14.118-1.52-.21 0 0 .076.158.152.236 0 0-1.266.053-1.798-.367-.519-.406-.19-7.14 3.343-6.393 0 0 2.989-.236 2.71 3.354-.279 3.577.848 3.577.848 3.577s-.316.157-.468.157c0 0-.228-.092-.266-.21 0 0 .038.197.101.262 0 0-1.215.118-1.823-.354-.621-.484-1.33-2.135-1.153-2.869z" fill="#233862"/><path d="M161.611 136.263h-8.155c.582-1.507 1.418-2.607 2.051-2.738.342-.092.912-1.363.912-3.393l.152.026 2.558.524s-.064.838-.064 1.624c0 .655.038 1.324.178 1.402.189.013.354.053.354.053s1.38 1.008 2.014 2.502z" fill="#FFB27D"/><path d="M159.128 130.682s-.063.838-.063 1.624c-1.431-.039-2.191-1.388-2.507-2.148l2.57.524z" fill="#E8945B"/><path d="M156.292 129.869s-.747-1.231-.937-2.279c-.127-.747.241-3.524 2.938-3.131 0 0 .785.078 1.519.589.583.406 1.431 1.297.481 3.721l-.24.825-3.761.275z" fill="#233862"/><path d="M159.597 131.429s-3.394.052-3.394-2.123c0-2.188-.443-3.655 1.723-3.786 2.165-.131 2.583.707 2.76 1.428.177.734-.203 4.415-1.089 4.481z" fill="#FFB27D"/><path d="M159.483 125.468s-.924 2.567-2.355 2.947c-1.431.38-2.039-.013-2.039-.013s1.089-.904 1.317-2.463c-.013-.013 2.368-1.69 3.077-.471z" fill="#233862"/><path d="M159.242 125.677s.697.577.861 1.127c.165.563.241 1.703.57 1.664 0 0 .697-1.743-.089-2.725-.823-1.048-1.342-.066-1.342-.066z" fill="#233862"/><path d="M147.909 152.98l1.013.314s3.356-5.764 3.66-7.271c.101-.485.342-1.467.633-2.568a608.155 608.155 0 011.355-5.044l.253-1.126.861-3.826s-1.633.171-2.596.59c-.316.131-.557.301-.645.498-.71 1.598-1.406 5.646-1.9 8.528-.279 1.612-.481 2.856-.595 3.118-.317.721-1.241 4.782-2.039 6.787z" fill="#FFB27D"/><path d="M159.381 125.756s-.658 2.685-2.456 3.55c0 0 1.798-1.651 1.95-3.419.152-1.769.506-.131.506-.131z" fill="#233862"/><path d="M159.153 140.861c.14 3.629.672 7.219 2.191 6.983 1.874-.288 2.355-2.083 2.457-3.432a7.917 7.917 0 00-.026-1.494s-.924 0-1.063-.144c-.709-.681-.494-7.31-.849-7.992-.354-.694-2.621-1.126-2.621-1.126s-.228 3.629-.089 7.205z" fill="#fff"/><path d="M150.505 157.748s1.329.485 3.305.8c2.431.393 5.838.537 8.877-.8 0 0 .253-5.292-.469-8.044-.722-2.764-1.051-4.074-1.051-4.074s-2.887.852-5.812.197a8.357 8.357 0 01-1.229-.367s-1.81 4.493-2.304 6.406c-.507 1.913-1.317 5.882-1.317 5.882z" fill="#2B478B"/><path d="M147.529 147.608c0 .917.899 1.468 1.861 1.743.925.262 1.912.262 2.229.039.532-.367 1.406-4.481 1.659-5.725.05-.223.076-.354.076-.354s.696 1.703.709 1.874c.013.065.013.17.025.262.013.104.013.196.013.196s3.761 1.965 7.053.157c0 0 1.342-7.991.76-9.367-.291-.681-1.798-2.096-2.393-2.699-.14-.131-.127-.406-.064-.655.038-.209-.139-.393-.342-.34-.392.104-1.089.091-1.836-.171a4.708 4.708 0 01-1.114-.563c-.101-.079-.253 0-.266.131-.051.472-.19 1.349-.456 1.349-.354 0-2.735.302-2.912.603-.064.105-.684 1.559-1.469 3.485-1.482 3.603-3.533 8.869-3.533 10.035z" fill="#fff"/><path d="M153.341 143.311s.697 1.703.709 1.874c.013.065.013.17.026.262.329.288.734.497 1.152.628 1.178.367 1.684-1.952 1.608-3.118-.076-1.152-1.722-4.467-2.279-4.532-.545-.079-1.216 4.886-1.216 4.886z" fill="#768499"/><path d="M153.278 143.678c.05-.223.076-.354.076-.354a1.153 1.153 0 00-.076.354z" fill="#E58638"/><path d="M150.707 162.399c-.05.97-.316 3.406-1.709 3.275-.545-.052-1.583-.275-2.634-.537h-.025v-1.782c-.127-.432-.064-.943 0-1.257v-5.529c.392-.118.911-.183 1.507-.118.126.013.24.04.367.066.114.026.24.052.367.091 1.874.564 2.051 1.756 1.925 2.608-.101.851.266 2.214.202 3.183z" fill="#D36C26"/><path d="M148.238 156.517c0 .026 0 .052-.012.078-.013.079-.013.131-.026.131l-.367-.091s.013-.079.013-.184a.843.843 0 00-.064-.34c-.012-.04-.038-.066-.063-.092a.617.617 0 00-.38-.21c-.164-.026-.304-.013-.405.04a.452.452 0 00-.127.091c-.076.079-.126.184-.164.262a.87.87 0 00-.051.171l-.253-.027v-.393a1.08 1.08 0 01.266-.393c.025-.026.063-.052.088-.078a.918.918 0 01.748-.171c.265.053.468.171.595.354.038.039.063.092.088.144a1.5 1.5 0 01.114.708z" fill="#D37129"/><path d="M149.795 162.189c-.05.97-.316 3.407-1.697 3.276-.392-.04-1.013-.158-1.722-.315h-.025v-1.781c-.127-.433-.063-.944 0-1.258v-5.882h.304a3.85 3.85 0 011.026.183c.063.013.126.039.177.052.126.04.253.092.367.144 1.064.485 1.38 1.219 1.406 1.887.012.183 0 .367-.026.524-.114.838.241 2.201.19 3.17z" fill="#F99746"/><path opacity=".4" d="M149.125 162.386c-.241 1.323-.773 2.083-2.039 1.729-.418-.118-.633-.406-.722-.76-.127-.432-.063-.943 0-1.257.038-.197.076-.341.076-.341l2.685.629z" fill="#D86713"/><path d="M149.124 162.386s-.62.616-1.456.406c-.836-.223-1.228-1.035-1.228-1.035l2.684.629z" fill="#D37129"/><path d="M149.631 158.482s-1 1.231-2.773 1.022c-.089-.013-.19-.026-.291-.053a3.463 3.463 0 00-.165-.039c-.025 0-.051-.013-.076-.013v-3.197h.304a3.84 3.84 0 011.026.184c.063.013.126.039.177.052.127.04.253.092.367.144 1.089.498 1.406 1.232 1.431 1.9z" fill="#ED7D2B"/><path d="M146.554 159.871a.223.223 0 00.266-.171l.05-.209c.026-.131-.05-.249-.164-.276a.222.222 0 00-.266.171l-.051.209a.213.213 0 00.165.276z" fill="#D86713"/><path d="M147.972 152.796s-.303.76-.633.97c-.316.209-.633.72-.696 1.126-.127.747.43 1.206.836 1.206.405 0 .797-.577 1.038-1.952.013-.079.405-.865.405-.865l-.95-.485z" fill="#FFB27D"/><path d="M158.077 146.678c2.14 0 3.014-.76 3.09-.812l.139-1.048c-.025.013-2.887 1.794-7.331.091l.088.786c1.71.655 2.9.983 4.014.983z" fill="#B64C41"/><path d="M168.663 137.416l-.05 1.035-.064 1.349-.063 1.127h-1.811l-.05-1.127-.076-1.349-.051-1.035h2.165z" fill="#233862"/><path d="M168.79 137.573h-2.406l.064-.38h2.292l.05.38zm-.975-.38l.57-.131.076.131h-.646zm.798 1.258l-.063 1.349h-1.925l-.076-1.349h2.064z" fill="#fff"/><path d="M168.613 138.451s-.494-.38-.57.131c-.038.248.506 1.087.506 1.087.19-.184.33-1.101.064-1.218z" fill="#FFB27D"/><path d="M177.553 135.136s2.57-.288 4.862 1.232c2.292 1.532 2.343 7.087 4.319 8.017 1.975.93 4.938 2.372 4.634 5.188-.304 2.83-1.241 3.734.026 5.411 1.266 1.677-.925 5.882-4.584 4.625-3.66-1.258-15.057-5.123-16.196-7.35-1.153-2.214-.583-4.821.569-6.944 1.14-2.122-1.418-9.681 6.37-10.179z" fill="#163560"/><path d="M173.501 154.381c-.165-1.559-.279-2.594-.279-2.594-.05.013-.987.302-1.887 1.271-.62.655-1.215 1.638-1.519 3.079-.519 2.489-.342 6.956-.393 10.258h5.192c-.177-2.751-.76-8.607-1.114-12.014z" fill="#fff"/><path d="M175.717 146.691s.088 1.297.088 2.502c2.216-.065 3.394-2.161 3.875-3.327l-3.963.825z" fill="#E8945B"/><path d="M174.982 147.844s5.255.092 5.255-3.302c0-3.38.684-5.659-2.672-5.856-3.355-.196-4.001 1.088-4.267 2.214-.279 1.14.317 6.826 1.684 6.944z" fill="#FFB27D"/><path d="M175.172 138.608s1.444 3.969 3.647 4.559c2.204.589 3.166-.026 3.166-.026s-1.697-1.389-2.039-3.826c-.012 0-3.685-2.594-4.774-.707z" fill="#163560"/><path d="M175.527 138.922s-1.064.406-1.507 1.219c-.43.786-.798 1.834-.709 3.105 0 0-1.089-2.699.139-4.232 1.292-1.611 2.077-.092 2.077-.092z" fill="#163560"/><path d="M183.011 151.421c-.406.34-.798.628-1.191.891-.164.104-.329.209-.494.301-.164.092-.316.17-.481.249-4.444 2.148-7.623-1.075-7.623-1.075-.025.053-.405.76-.899 1.953a30.9 30.9 0 00-1.507 4.585c-.57 2.319.051 5.725.646 8.07h13.727c.088-.655.152-1.48.202-2.345l.038-.642c.089-1.939.114-3.865.114-4.205v-.053l-2.532-7.729z" fill="#fff"/><path d="M181.086 160.211c.202 1.795.532 3.97.899 6.171h-.342c-.355-2.188-.684-4.35-.887-6.131a27.61 27.61 0 01-.202-2.856c-.051-1.795.076-3.171.215-4.127.025-.144.051-.288.076-.419.253-1.18.671-1.756.722-1.821v-.014l.152.027.076.013s-.013.026-.025.065a8.67 8.67 0 00-.444 1.481c-.24 1.074-.481 2.712-.43 4.912.025.826.088 1.73.19 2.699z" fill="#0C2442"/><path d="M190.026 166.382h-5.319a19.667 19.667 0 00-1.291-2.764l-.266-.472c-.19-.328-.367-.655-.519-.996a10.913 10.913 0 01-1.001-4.375 10.515 10.515 0 01.393-3.001c.012-.065.038-.131.05-.183l.95-3.17s.899.131 1.976.786c.848.524 1.81 1.388 2.494 2.803.481.983.899 2.791 1.292 4.782 0 .013 0 .039.012.053.431 2.305.836 4.834 1.229 6.537z" fill="#fff"/><path d="M190.875 125.965h-.19v-3.904h4.064v.197h-3.874v3.707zm14.574.145h-.19v-3.996h-3.583v-.197h3.773v4.193zm.001 10.231h-4.053v-.196h3.863v-3.708h.19v3.904zm-10.992.145h-3.773v-4.193h.19v3.996h3.583v.197zm-28.188 2.973h-.278v-5.725h5.951v.289h-5.673v5.436zm21.363.223h-.266v-5.869h-5.268v-.288h5.534v6.157zm0 15.001h-5.939v-.289h5.673v-5.436h.266v5.725zm-16.108.209h-5.533v-6.157h.278v5.869h5.255v.288zm-20.02-28.769h-.164v-3.42h3.545v.171h-3.381v3.249zm12.752.131h-.164v-3.511h-3.141v-.171h3.305v3.682zm0 8.948h-3.558v-.171h3.393v-3.249h.165v3.42zm-9.624.13h-3.292v-3.681h.164v3.511h3.128v.17z" fill="#B64C41"/></g><g opacity=".4"><path d="M100.841 62.57h-5.775v34.64h5.775V62.57z" fill="#618DB8"/><path d="M102.145 62.57h-5.774v34.64h5.774V62.57z" fill="#D5E7F7"/><path d="M96.373 64.56h5.774v-2.005h-5.774v2.005zm0 4.345h5.774v-2.004h-5.774v2.004zm0 4.345h5.774v-2.004h-5.774v2.005zm0 4.332h5.774v-2.004h-5.774v2.004zm0 4.346h5.774v-2.005h-5.774v2.005zm0 4.345h5.774v-2.004h-5.774v2.004zm0 4.332h5.774V88.6h-5.774v2.005zm0 4.345h5.774v-2.004h-5.774v2.004zm13.712-27.48h-5.774v29.74h5.774V67.47z" fill="#618DB8"/><path d="M111.376 67.47h-5.774v29.739h5.774v-29.74z" fill="#D5E7F7"/><path d="M105.612 69.182h5.775v-1.717h-5.775v1.717zm0 3.732h5.775v-1.716h-5.775v1.716zm0 3.719h5.775v-1.716h-5.775v1.716zm0 3.733h5.775V78.65h-5.775v1.716zm0 3.719h5.775V82.37h-5.775v1.716zm0 3.733h5.775v-1.716h-5.775v1.716zm0 3.732h5.775v-1.716h-5.775v1.716zm0 3.72h5.775v-1.716h-5.775v1.716z" fill="#618DB8"/><path d="M91.94 100.495h2.419v-4.35H91.94v4.35z" fill="#DCEAF9"/><path d="M89.862 90.213V76.34H87.05v7.52h-2.28v2.765h-3.976v-1.612h-1.722v-6.38H74.45v-10.94h-3.66v5.83h-.835V68.65h-3.66v7.52h-1.444l.178 2.555.342 4.886.063.983.063.917.076 1.074.064.826v.065l.063 1.009.013.223.038.576.076 1.074.266 3.786.316 4.546.19 2.739.038.445.025.341v.078H92.71v-12.08h-2.85z" fill="#D5E7F7"/><path d="M70.781 69.552h3.66V68.44h-3.66v1.113zm0 2.091h3.66v-1.114h-3.66v1.114zm0 1.893h3.66v-1.114h-3.66v1.114zm-4.488 0h3.66v-1.114h-3.66v1.114zm0-1.893h3.66v-1.114h-3.66v1.114zm0-1.875h3.66v-1.113h-3.66v1.113zm-.005 5.586h8.155V74.24h-8.155v1.114zm0 1.831h8.155V76.07h-8.155v1.114zm20.742.87h2.837V76.34H87.03v1.716zm0 2.562h2.837V78.9H87.03v1.716zm0 2.56h2.837v-1.716H87.03v1.716zm0 2.678h2.837v-1.717H87.03v1.716zm0 2.602h2.837V86.74H87.03v1.716zm0 2.589h2.837V89.33H87.03v1.716zm0 2.724h2.837v-1.715H87.03v1.716zM66.288 78.565h8.155v-.707h-8.155v.707z" fill="#618DB8"/><path d="M87.063 76.34h-1.05v7.52h1.05v-7.52zm-2.291 7.52h-2.103v2.763h2.103V83.86zM66.296 68.649v7.52h-.722V68.74c.038-.027.064-.066.102-.092h.62zm4.483-.943h-.444v5.83h.444v-5.83z" fill="#618DB8"/><path d="M77.697 80.813h.62v-1.075h-.62v1.075zm-1.167 0h.62v-1.075h-.62v1.075zm-1.128 0h.62v-1.075h-.62v1.075zm-1.074 0h.62v-1.075h-.62v1.075zm-1.102 0h.62v-1.075h-.62v1.075zm-1.103 0h.62v-1.075h-.62v1.075zm-1.167 0h.62v-1.075h-.62v1.075zm-1.128 0h.62v-1.075h-.62v1.075zm-1.074 0h.62v-1.075h-.62v1.075zm-1.102 0h.62v-1.075h-.62v1.075zm-1.132 0h.621v-1.075h-.62v1.075zm-1.166 0h.62v-1.075h-.62v1.075zm12.343 1.904h.62v-1.075h-.62v1.075zm-1.167 0h.62v-1.075h-.62v1.075zm-1.128 0h.62v-1.075h-.62v1.075zm-1.074 0h.62v-1.075h-.62v1.075zm-1.102 0h.62v-1.075h-.62v1.075zm-1.103 0h.62v-1.075h-.62v1.075zm-1.167 0h.62v-1.075h-.62v1.075zm-1.128 0h.62v-1.075h-.62v1.075zm-1.074 0h.62v-1.075h-.62v1.075zm-1.102 0h.62v-1.075h-.62v1.075zm-1.132 0h.621v-1.075h-.62v1.075zm-1.166 0h.62v-1.075h-.62v1.075zm12.343 1.873h.62v-1.075h-.62v1.074zm-1.167 0h.62v-1.075h-.62v1.074zm-1.128 0h.62v-1.075h-.62v1.074zm-1.074 0h.62v-1.075h-.62v1.074zm-1.102 0h.62v-1.075h-.62v1.074zm-1.103 0h.62v-1.075h-.62v1.074zm-1.167 0h.62v-1.075h-.62v1.074zm-1.128 0h.62v-1.075h-.62v1.074zm-1.074 0h.62v-1.075h-.62v1.074zm-1.102 0h.62v-1.075h-.62v1.074zm-1.132 0h.621v-1.075h-.62v1.074zm-1.098-.01h.558v-1.075h-.62v.105l.063.97zm12.275 1.997h.62v-1.074h-.62v1.074zm-1.167 0h.62v-1.074h-.62v1.074zm-1.127 0h.62v-1.074h-.62v1.074zm-1.074 0h.62v-1.074h-.62v1.074zm-1.103 0h.62v-1.074h-.62v1.074zm-1.102 0h.62v-1.074h-.62v1.074zm-1.167 0h.62v-1.074h-.62v1.074zm-1.128 0h.62v-1.074h-.62v1.074zm-1.075 0h.621v-1.074h-.62v1.074zm-1.101 0h.62v-1.074h-.62v1.074zm-1.132 0h.62v-1.074h-.62v1.074zm-.541-1.08v1.074h-.418l-.076-1.074h.494zm11.717 2.984h.62v-1.074h-.62v1.074zm-1.167 0h.62v-1.074h-.62v1.074zm-1.127 0h.62v-1.074h-.62v1.074zm-1.074 0h.62v-1.074h-.62v1.074zm-1.103 0h.62v-1.074h-.62v1.074zm-1.102 0h.62v-1.074h-.62v1.074zm-1.167 0h.62v-1.074h-.62v1.074zm-1.128 0h.62v-1.074h-.62v1.074zm-1.075 0h.621v-1.074h-.62v1.074zm-1.101 0h.62v-1.074h-.62v1.074zm-1.133 0h.621v-1.074h-.62v1.074zm-.54-1.085v1.088h-.292l-.063-1.01v-.025l-.013-.053h.368zm11.717 2.957h.62V89.28h-.62v1.074zm-1.167 0h.62V89.28h-.62v1.074zm-1.127 0h.62V89.28h-.62v1.074zm-1.074 0h.62V89.28h-.62v1.074zm-1.103 0h.62V89.28h-.62v1.074zm-1.102 0h.62V89.28h-.62v1.074zm-1.167 0h.62V89.28h-.62v1.074zm-1.128 0h.62V89.28h-.62v1.074zm-1.075 0h.621V89.28h-.62v1.074zm-1.101 0h.62V89.28h-.62v1.074zm-1.132 0h.62V89.28h-.62v1.075zm-.541-1.083v1.074h-.165l-.063-1.074h.228z" opacity=".8" fill="#618DB8"/><path d="M68.296 102.21H82.67v-9.564H68.296v9.564z" fill="#618DB8"/><path d="M79.194 102.209h14.373v-4.782H79.194v4.782zm-12.062-8.066v8.07h-.494l-.025-.34-.025-.459-.19-2.725-.317-4.546h1.051z" fill="#618DB8"/><path d="M79.022 95.545h2.685v-1.768h-2.684v1.768zm-3.444 0h2.685v-1.768h-2.685v1.768zm-3.364 0h2.684v-1.768h-2.684v1.768zm-3.31 0h2.684v-1.768h-2.684v1.768z" fill="#D5E7F7"/><path d="M67.06 102.292h1.38V92.65h-1.38v9.642z" fill="#ADC9E0"/><path d="M89.223 76.334h.076v-.747h-.076v.746zm-2.685 0h.076v-.747h-.076v.746z" fill="#DCEAF9"/><path d="M90.843 102.135h9.865v-8.188h-9.865v8.188z" fill="#D5E7F7"/><path d="M90.843 95.534h9.865v-2.66h-9.865v2.66zm8.691 1.672h.506v-.878h-.507v.878zm-.946 0h.506v-.878h-.506v.878zm-.929 0h.506v-.878h-.507v.878zm-.872 0h.507v-.878h-.507v.878zm-.904 0h.506v-.878h-.506v.878zm-.9 0h.506v-.878h-.506v.878zm-.946 0h.506v-.878h-.506v.878zm-.929 0h.506v-.878h-.506v.878zm-.884 0h.507v-.878h-.507v.878zm-.892 0h.506v-.878h-.506v.878zm8.202 1.563h.506v-.878h-.507v.878zm-.946 0h.506v-.878h-.506v.878zm-.929 0h.506v-.878h-.507v.878zm-.872 0h.507v-.878h-.507v.878zm-.904 0h.506v-.878h-.506v.878zm-.9 0h.506v-.878h-.506v.878zm-.946 0h.506v-.878h-.506v.878zm-.929 0h.506v-.878h-.506v.878zm-.884 0h.507v-.878h-.507v.878zm-.892 0h.506v-.878h-.506v.878zm8.202 1.528h.506v-.877h-.507v.877zm-.946 0h.506v-.877h-.506v.877zm-.929 0h.506v-.877h-.507v.877zm-.872 0h.507v-.877h-.507v.877zm-.904 0h.506v-.877h-.506v.877zm-.9 0h.506v-.877h-.506v.877zm-.946 0h.506v-.877h-.506v.877zm-.929 0h.506v-.877h-.506v.877zm-.884 0h.507v-.877h-.507v.877zm-.892 0h.506v-.877h-.506v.877z" fill="#618DB8"/><path d="M99.528 94.53h.431v-.903h-.43v.904zm-4.228 0h.43v-.903h-.43v.904zm-3.36 0h.43v-.903h-.43v.904z" fill="#ADC9E0"/><path d="M101.338 102.135h9.865v-8.188h-9.865v8.188z" fill="#D5E7F7"/><path d="M101.338 95.534h9.865v-2.66h-9.865v2.66zm8.691 1.672h.506v-.878h-.506v.878zm-.947 0h.507v-.878h-.507v.878zm-.928 0h.506v-.878h-.506v.878zm-.884 0h.506v-.878h-.506v.878zm-.892 0h.506v-.878h-.506v.878zm-.913 0h.507v-.878h-.507v.878zm-.946 0h.506v-.878h-.506v.878zm-.929 0h.507v-.878h-.507v.878zm-.871 0h.507v-.878h-.507v.878zm-.892 0h.506v-.878h-.506v.878zm8.202 1.563h.506v-.878h-.506v.878zm-.947 0h.507v-.878h-.507v.878zm-.928 0h.506v-.878h-.506v.878zm-.884 0h.506v-.878h-.506v.878zm-.892 0h.506v-.878h-.506v.878zm-.913 0h.507v-.878h-.507v.878zm-.946 0h.506v-.878h-.506v.878zm-.929 0h.507v-.878h-.507v.878zm-.871 0h.507v-.878h-.507v.878zm-.892 0h.506v-.878h-.506v.878zm8.202 1.528h.506v-.877h-.506v.877zm-.947 0h.507v-.877h-.507v.877zm-.928 0h.506v-.877h-.506v.877zm-.884 0h.506v-.877h-.506v.877zm-.892 0h.506v-.877h-.506v.877zm-.913 0h.507v-.877h-.507v.877zm-.946 0h.506v-.877h-.506v.877zm-.929 0h.507v-.877h-.507v.877zm-.871 0h.507v-.877h-.507v.877zm-.892 0h.506v-.877h-.506v.877z" fill="#618DB8"/><path d="M110.024 94.53h.43v-.903h-.43v.904zm-4.229 0h.431v-.903h-.431v.904zm-3.373 0h.431v-.903h-.431v.904z" fill="#ADC9E0"/><path d="M122.004 102.135h9.864v-8.188h-9.864v8.188z" fill="#D5E7F7"/><path d="M122.004 95.534h9.864v-2.66h-9.864v2.66zm8.677 1.672h.507v-.878h-.507v.878zm-.946 0h.507v-.878h-.507v.878zm-.929 0h.507v-.878h-.507v.878zm-.871 0h.507v-.878h-.507v.878zm-.904 0h.506v-.878h-.506v.878zm-.9 0h.506v-.878h-.506v.878zm-.947 0h.507v-.878h-.507v.878zm-.928 0h.506v-.878h-.506v.878zm-.884 0h.506v-.878h-.506v.878zm-.892 0h.506v-.878h-.506v.878zm8.201 1.563h.507v-.878h-.507v.878zm-.946 0h.507v-.878h-.507v.878zm-.929 0h.507v-.878h-.507v.878zm-.871 0h.507v-.878h-.507v.878zm-.904 0h.506v-.878h-.506v.878zm-.9 0h.506v-.878h-.506v.878zm-.947 0h.507v-.878h-.507v.878zm-.928 0h.506v-.878h-.506v.878zm-.884 0h.506v-.878h-.506v.878zm-.892 0h.506v-.878h-.506v.878zm8.201 1.528h.507v-.877h-.507v.877zm-.946 0h.507v-.877h-.507v.877zm-.929 0h.507v-.877h-.507v.877zm-.871 0h.507v-.877h-.507v.877zm-.904 0h.506v-.877h-.506v.877zm-.9 0h.506v-.877h-.506v.877zm-.947 0h.507v-.877h-.507v.877zm-.928 0h.506v-.877h-.506v.877zm-.884 0h.506v-.877h-.506v.877zm-.892 0h.506v-.877h-.506v.877z" fill="#618DB8"/><path d="M130.676 94.53h.431v-.903h-.431v.904zm-4.228 0h.43v-.903h-.43v.904zm-3.36 0h.431v-.903h-.431v.904z" fill="#ADC9E0"/></g><g opacity=".4"><path d="M89.583 84.802v2.332c0 .21-.05.406-.127.577-.202.432-.633.72-1.127.72h-.405c-.697 0-1.266-.59-1.266-1.31V84.79c0-.249.063-.472.177-.668.228-.38.62-.629 1.076-.629h.406c.696.013 1.266.603 1.266 1.31z" fill="#A8302D"/><path opacity=".3" d="M89.444 87.724c-.203.432-.633.72-1.127.72h-.405c-.697 0-1.267-.59-1.267-1.31v-2.332c0-.249.064-.472.178-.668.038.144.57 3.34 2.621 3.59z" fill="#A8302D"/><path d="M69.563 101.873h6.243v-6.524h-6.509l.266 6.524z" fill="#661717"/><path d="M89.241 88.09h-.076l-2.051.053h-.089l-8.712.223-.62.013-.545.013-.62.013-.52.013-.62.013-.456.013-.62.013-.874.027h-.152l-1.406.039-6.18.157-.012-.223-.063-1.008v-.066l-.064-.825-.076-1.074-.063-.917-.063-.983-.342-4.887-.177-2.554-.279-4.022h14.145c1.912 0 3.672 1.113 4.546 2.882l.126.249 1.19 2.41L86 80.86l1.014 2.253.012.026.013.027.013.026.202.458.203.446.772 1.716.393.878.405.89.19.42.025.092z" fill="#C94C43"/><path d="M71.83 100.812c0 1.768.887 3.72.887 3.72h1.494c1.317 0 2.38-1.663 2.38-3.72 0-2.057-2.557-3.72-3.862-3.72-1.33 0-.899 1.663-.899 3.72z" fill="#631818"/><path d="M70.336 100.812c0 2.057 1.064 3.72 2.38 3.72 1.318 0 2.381-1.663 2.381-3.72 0-2.057-1.063-3.72-2.38-3.72s-2.381 1.663-2.381 3.72z" fill="#822121"/><path d="M70.944 100.812c0 1.546.798 2.803 1.785 2.803.988 0 1.786-1.257 1.786-2.803s-.798-2.804-1.786-2.804c-.975 0-1.785 1.258-1.785 2.804z" fill="#661717"/><path d="M88.988 100.812c0 1.768.887 3.72.887 3.72h1.494c1.317 0 2.38-1.663 2.38-3.72 0-2.057-2.557-3.72-3.861-3.72-1.33 0-.9 1.663-.9 3.72z" fill="#631818"/><path d="M87.494 100.812c0 2.057 1.064 3.72 2.38 3.72 1.318 0 2.381-1.663 2.381-3.72 0-2.057-1.063-3.72-2.38-3.72s-2.38 1.663-2.38 3.72z" fill="#822121"/><path d="M88.115 100.812c0 1.546.797 2.803 1.785 2.803.988 0 1.786-1.257 1.786-2.803s-.798-2.804-1.786-2.804-1.785 1.258-1.785 2.804z" fill="#661717"/><path d="M96.105 98.768v-2.437a5.095 5.095 0 00-.102-.786 6.179 6.179 0 00-.303-1.009 4.125 4.125 0 00-.266-.59c-.013-.038-.038-.065-.051-.104-.025-.04-.038-.079-.063-.118a5.218 5.218 0 00-.228-.393c-.051-.079-.102-.17-.165-.249a.725.725 0 00-.076-.105c-.025-.026-.038-.052-.063-.078l-.013-.013c-.063-.092-.127-.17-.177-.236a.347.347 0 01-.064-.079c-.025-.026-.038-.052-.063-.065-.088-.105-.14-.17-.14-.17s-.62-.014-1.633-.04h-.012c-.747-.026-1.722-.052-2.799-.092-.886-.039-1.849-.078-2.836-.13-4.407-.223-9.37-.616-10.308-1.258-.215-.144-.443-.315-.696-.472a30.267 30.267 0 00-.62-.432 9.873 9.873 0 01-.457-.328c-.14-.105-.278-.196-.418-.301-.38-.275-.747-.537-1.076-.773l-.025-.026a1.639 1.639 0 00-.19-.131c-.177-.131-.342-.25-.481-.354-.279-.197-.494-.354-.62-.445-.026-.014-.039-.027-.064-.04l-.038-.026-.038-.026h-6.408l.064 1.009.012.222.038.577.076 1.074.266 3.786.317 4.546.19 2.738.038.446h3.115c-.026-.144-.038-.301-.05-.446-.013-.157-.013-.327-.013-.497v-.262c0-.066 0-.131.012-.197 0-.052.013-.105.013-.157 0-.053.012-.105.012-.144.013-.066.013-.118.026-.184v-.013c.012-.065.012-.118.038-.183.012-.04.012-.079.025-.105 0-.026.013-.066.013-.092a1.72 1.72 0 01.038-.144c.012-.04.012-.065.025-.105 0-.013.013-.039.013-.052v-.013c.012-.026.012-.066.025-.092.013-.04.025-.092.038-.13.013-.04.025-.066.038-.106 0-.013.013-.039.013-.052v-.013c.012-.026.025-.066.038-.092a.491.491 0 01.063-.144c.025-.066.05-.118.076-.17.025-.066.063-.118.089-.17a1.05 1.05 0 01.076-.132c.012-.013.025-.039.038-.052.025-.04.05-.092.076-.131.025-.052.063-.092.088-.131l.013-.013a2.65 2.65 0 01.291-.354c.013-.026.038-.04.05-.052l.051-.053.064-.065c.025-.026.05-.04.076-.066.05-.039.101-.078.139-.118.025-.013.05-.039.076-.052a.175.175 0 01.05-.04c.013-.012.039-.025.051-.039a.298.298 0 00.064-.039c.05-.026.088-.052.139-.078.025-.014.05-.027.063-.04.114-.052.228-.105.355-.144.025-.013.038-.013.063-.013.013 0 .025-.013.025-.013.026-.013.051-.013.076-.026.013 0 .038-.013.051-.013.025 0 .05-.013.076-.013.076-.014.14-.027.215-.027.038 0 .076-.013.102-.013h.202a.27.27 0 01.102.013c.075 0 .139.013.215.026.025 0 .05.014.076.014.012 0 .038.013.05.013.026 0 .051.013.064.013.012 0 .025 0 .025.013.025 0 .038.013.063.013.013 0 .038.013.051.013.025.013.05.013.076.026a.443.443 0 01.114.053c.038.013.076.039.114.052.025.013.05.026.063.04a2.237 2.237 0 01.494.353c.025.026.05.053.089.079a55.427 55.427 0 01.164.17l.076.079.076.078c.026.026.051.066.076.092.026.026.05.066.076.092.026.026.038.052.064.091l.076.118c.012.026.037.053.05.079.013.026.038.052.05.079.013.026.039.065.052.091.037.066.063.118.088.184l.038.078.038.079.038.078.076.197c.013.026.025.065.038.092.013.039.025.065.038.105.013.039.025.091.038.13.013.04.025.092.038.132.013.039.025.091.038.13.013.08.038.145.05.223.013.04.013.066.026.105a.676.676 0 01.025.157c.013.079.026.144.038.223.013.065.013.118.013.183 0 .04.013.079.013.118.012.079.012.157.012.236v.21c0 .17-.012.327-.025.498-.013.157-.038.301-.05.445h17.816c.025 0 .05 0 .076-.013a2.628 2.628 0 001.216-.432 2.76 2.76 0 001.013-1.245c.088-.21.152-.446.19-.681 0-.026.012-.053.012-.079v-.052c.013-.105.013-.197.013-.302a2.55 2.55 0 00.013-.301z" fill="#C94C43"/><path d="M86.772 87.449H72.995a.804.804 0 01-.735-.498l-3.406-7.847c-.114-.263.076-.55.342-.55h14.537c.317 0 .608.196.734.497l2.444 5.778.608 1.44c.228.55-.164 1.18-.747 1.18z" fill="#A2C2DD"/><path d="M80.327 97.432a17.626 17.626 0 00-.177-1.887c-.026-.13-.038-.249-.064-.367a1.43 1.43 0 00-.05-.249c-.013-.039-.013-.078-.026-.118-.012-.078-.038-.157-.05-.222a16.742 16.742 0 00-.114-.406c-.013-.027-.013-.04-.026-.066a1.699 1.699 0 00-.139-.34l-.038-.08c0-.012-.013-.025-.025-.038-.013-.014-.013-.027-.026-.027l-.025-.026a.56.56 0 00-.076-.091 3.68 3.68 0 00-.354-.276l-.114-.078a2.164 2.164 0 00-.178-.118c-.05-.04-.101-.066-.152-.105-.012-.013-.025-.013-.038-.026-.038-.026-.076-.053-.114-.066-.05-.026-.1-.065-.139-.091-.05-.027-.101-.066-.152-.092-.316-.197-.671-.406-1.038-.629-.912-.537-1.938-1.14-2.85-1.664a.266.266 0 01-.075-.052c-.165-.092-.317-.184-.482-.275-.215-.131-.43-.262-.62-.38a11.825 11.825 0 01-.582-.367c-.368-.236-.608-.42-.646-.511-.013-.04-.051-.105-.102-.223-.076-.17-.177-.406-.304-.707-.05-.118-.1-.25-.151-.38 0-.013-.013-.026-.013-.052-.102-.25-.228-.525-.342-.826-.038-.078-.063-.157-.101-.236-.228-.537-.469-1.14-.735-1.755a56.309 56.309 0 00-.405-.97l-.456-1.1c-.126-.302-.24-.59-.367-.878-.266-.642-.52-1.258-.735-1.782-.012-.039-.038-.078-.05-.13a40 40 0 01-.481-1.18 26.533 26.533 0 00-.203-.51V72.16h-2.963l.278 4.022.178 2.555.342 4.886.063.983.063.917.076 1.074.063.826v.065l.064 1.009.013.222.038.577.075 1.074.266 3.786.317 4.546.19 2.739.038.445h3.115c-.025-.144-.038-.301-.05-.445-.013-.158-.013-.328-.013-.498v-.262c0-.066 0-.131.012-.197 0-.052.013-.105.013-.157 0-.052.013-.105.013-.144.012-.066.012-.118.025-.184v-.013l.038-.183c.013-.04.013-.079.025-.105 0-.026.013-.065.013-.092.013-.052.025-.104.038-.144.013-.039.013-.065.025-.105 0-.013.013-.039.013-.052v-.013c.013-.026.013-.066.025-.092.013-.039.026-.091.038-.13.013-.04.026-.066.038-.105 0-.014.013-.04.013-.053V98.9c.013-.026.025-.066.038-.092.013-.04.038-.078.05-.13 0-.014.013-.014.013-.027.026-.066.05-.118.076-.17.025-.066.063-.118.089-.17a1.05 1.05 0 01.076-.132c.013-.013.025-.039.038-.052.025-.04.05-.092.076-.131.025-.052.063-.092.088-.131l.013-.013c.089-.131.19-.249.291-.354.013-.026.038-.04.051-.052l.05-.053.064-.065c.025-.026.05-.04.076-.066.05-.039.101-.078.14-.118.025-.013.05-.039.075-.052.013-.013.025-.026.05-.04.014-.012.039-.026.052-.039a.276.276 0 00.063-.039c.05-.026.089-.052.14-.079.024-.013.05-.026.062-.039.114-.052.228-.105.355-.144.025-.013.038-.013.063-.013.013 0 .026-.013.026-.013.025-.013.05-.013.076-.026.012 0 .038-.013.05-.013.026 0 .05-.014.076-.014.076-.013.14-.026.215-.026.038 0 .077-.013.102-.013h.202c.038 0 .064 0 .102.013.076 0 .139.013.215.026.025 0 .05.014.076.014.013 0 .038.013.05.013.026 0 .051.013.064.013.013 0 .025 0 .025.013.026 0 .038.013.064.013.012 0 .038.013.05.013.025.013.05.013.076.026.038.013.076.026.114.053.038.013.076.039.114.052.025.013.05.026.063.04a2.237 2.237 0 01.494.353c.026.026.051.052.089.079a55.427 55.427 0 01.165.17l.076.079.076.078c.025.026.05.066.076.092.025.026.05.066.075.092.026.026.038.052.064.091l.076.118c.012.026.038.053.05.079.013.026.038.052.051.079.013.026.038.065.05.091a1.2 1.2 0 01.09.184l.037.078.038.079.038.078.076.197c.013.026.026.066.038.092.013.039.026.065.038.105.013.039.026.091.038.13.013.04.026.092.038.132.013.052.026.091.038.13.013.08.038.145.05.223.014.04.014.066.026.105a.676.676 0 01.026.157c.012.079.025.144.037.223a.888.888 0 01.013.183c0 .04.013.079.013.118.013.079.013.157.013.236v.21c0 .17-.013.327-.026.498-.013.157-.038.301-.05.445h3.09s.113-.105.29-.275c.051-.053.102-.105.153-.17.392-.459.924-1.206.987-2.044.013-.21.026-.446.026-.681.063-.42.05-.852.025-1.284z" fill="#A8302D"/><path d="M70.564 87.449h-4.951v-.04l-.064-.825-.076-1.074-.063-.917-.063-.983-.342-4.886 1.418-.014c.836.132.975.616 1.203 1.258l.025.066.304.786 1.051 2.699.051.144.291.746.456 1.166.393 1.01.367.864z" fill="#A2C2DD"/><path d="M94.32 92.322H77.983l-5.964-4.86-.025-.013h16.462l4.697 3.904 1.165.97z" fill="#C94C43"/><path d="M95.37 93.855c-.1.157-.215.262-.354.288l-2.292.446c-.19.039-.342-.315-.291-.668l.228-1.599.012-.039.038-.328c.038-.275.165-.497.304-.55l.127-.052 1.165.97c.013 0 .57.589 1.064 1.532z" fill="#618DB8"/><path d="M80.1 95.165l-1.482-.157a1.173 1.173 0 01-1.026-.983L77.25 92.1c-.013-.027-.013-.066-.013-.092 1.051.629 1.938 1.179 2.28 1.493.253.236.443.878.582 1.664z" fill="#A8302D"/><path d="M82.897 95.453l-2.798-.288-1.482-.157a1.173 1.173 0 01-1.025-.983L77.25 92.1c-.013-.027-.013-.066-.013-.092a.634.634 0 01.747-.655l4.356.917a.772.772 0 01.57.55l.507 1.965a.497.497 0 01-.52.668z" fill="#618DB8"/><path d="M84.582 77.688H67.575s-.063-1.126-.494-2.41c-.38-1.14-1.038-2.398-2.19-3.131h13.904c2.266 0 4.28 1.257 5.065 3.13.038.08.076.158.101.237.24.655.456 1.375.62 2.174z" fill="#C94C43"/><path d="M80.1 95.165l-1.482-.157a1.173 1.173 0 01-1.026-.983L77.25 92.1c-.013-.027-.013-.066-.013-.092 1.051.629 1.938 1.192 2.28 1.493.253.236.443.878.582 1.664z" fill="#A2C2DD"/><path opacity=".3" d="M96.105 99.056c0 1.559-1.266 2.817-2.85 2.817H75.807a5.7 5.7 0 00.076-.944c0-.812-.164-1.585-.443-2.24h20.653c.013.118.013.236.013.367zm-26.01-.366c-.013.038-.038.078-.05.13-.013.026-.026.066-.039.092v.013c0 .013-.012.04-.012.052-.013.04-.026.066-.038.105-.013.04-.026.092-.038.131-.013.026-.013.066-.026.092v.013c0 .013-.012.04-.012.053-.013.039-.013.065-.026.104-.012.053-.025.092-.037.144 0 .027-.013.066-.013.092-.013.04-.013.066-.026.105-.012.065-.025.118-.038.183v.013c-.012.066-.012.118-.025.184-.013.052-.013.105-.013.144 0 .052-.012.105-.012.157 0 .066-.013.131-.013.197v.262c0 .17 0 .327.013.498.013.157.038.301.05.445h-3.115l-.038-.445-.19-2.739h3.698v-.026zm14.512-6.237h6.673c.216 0 .38.302.342.63l-.24 2.397c-.038.353-.228.615-.456.615H85.43c-.355 0-.658-.366-.772-.89l-.393-2.044c-.063-.34.101-.708.342-.708z" fill="#8E2323"/><path d="M86.9 84.829c-7.877-.42-13.208-4.782-14.817-6.276h11.625c.317 0 .608.197.734.498L86.9 84.83z" fill="#618DB8"/><path d="M69.07 83.61s.253 3.026-1.19 3.852h2.697L69.07 83.61z" fill="#631818"/><path d="M69.475 85.628s-.608-.446-.659-.826v2.11h.798l-.14-1.284z" fill="#631818"/><path d="M68.804 84.802v2.332c0 .21-.051.406-.127.577-.203.432-.633.72-1.127.72h-.405c-.697 0-1.267-.59-1.267-1.31V84.79c0-.249.064-.472.178-.668.228-.38.62-.629 1.076-.629h.405c.71.013 1.267.603 1.267 1.31z" fill="#C94C43"/><path opacity=".3" d="M68.677 87.724c-.203.432-.633.72-1.127.72h-.405c-.697 0-1.267-.59-1.267-1.31v-2.332c0-.249.064-.472.178-.668.038.144.57 3.34 2.62 3.59zm15.905-10.036H67.575s-.063-1.126-.493-2.41h16.79c.039.078.077.157.102.236.228.655.443 1.375.608 2.174z" fill="#8E2323"/></g><path d="M300.08 167.509h-74.509v-55.26h74.509v55.26zm-73.382-1.18h72.242v-52.901h-72.242v52.901z" fill="#2E3239"/><path d="M276.527 147.556l-7.573 31.468-1.038 4.311-3.52 14.646h-65.519l12.993-50.425h64.657z" fill="#4868AF"/><path d="M276.527 147.556l1.051.367-11.79 51.159-1.392-1.101 12.131-50.425z" fill="#757575"/><path d="M265.789 199.082h-65.113l-1.799-1.101h65.519l1.393 1.101z" fill="#757575"/><path d="M276.527 147.556H211.87l-10.485 40.534h65.366l9.776-40.534z" fill="#455F97"/><path d="M204.437 186.335h60.528l6.864-28.259.519-2.175.456-1.847 1.051-4.323h-59.668l-1.152 4.323-.494 1.847-.583 2.175-7.521 28.259z" fill="#E9F3FE"/><path d="M271.386 151.683c.076-.302-.102-.537-.393-.537-.291 0-.583.248-.659.537-.075.301.102.537.393.537.291 0 .583-.236.659-.537zm-1.748 0c.076-.302-.101-.537-.393-.537-.291 0-.582.248-.658.537-.076.301.101.537.392.537a.697.697 0 00.659-.537zm-1.861 0c.076-.302-.102-.537-.393-.537-.291 0-.582.248-.658.537-.076.301.101.537.392.537.291 0 .583-.236.659-.537z" fill="#E9F3FE"/><path d="M274.146 149.731h-59.984l-9.725 36.748h60.959l8.75-36.748z" fill="#D2E0FF"/><path d="M207.26 184.894h56.161l6.356-25.626.482-1.965.417-1.677.975-3.93h-55.337l-1.076 3.93-.456 1.677-.532 1.965-6.99 25.626z" fill="#455F97"/><path d="M215.44 164.404h18.184l2.052-8.306.164-.629.127-.537.317-1.284h-17.918l-.342 1.284-.152.537-.165.629-2.267 8.306zm41.294-10.756l-.316 1.284-.127.537-.164.629-2.052 8.306h-18.184l2.267-8.306.177-.629.139-.537.355-1.284h17.905zm-23.616 13.193l-.316 1.27-.127.538-.165.641-2.051 8.293h-18.184l2.267-8.293.177-.641.139-.538.342-1.27h17.918zm-.38 10.742h18.172l2.051-8.293.165-.641.126-.538.317-1.27h-17.906l-.354 1.27-.139.538-.178.641-2.254 8.293z" fill="#D2E0FF"/><path d="M265.688 154.106l3.089.027.089-.341-3.09-.013-.088.327zm.62.904l2.229.027.088-.341-2.228-.013-.089.327zm-2.545-.013l2.216.013.088-.327-2.216-.027-.088.341zm-1.849-.013l1.38.013.089-.34-1.38-.013-.089.34zm1.292-.891l1.912.013.088-.34-1.899-.013-.101.34zm-2.597-.026l1.9.013.088-.327-1.899-.013-.089.327zm4.762 2.974l2.609.026.088-.341-2.608-.013-.089.328zm-1.925-.013l1.457.013.088-.328-1.456-.013-.089.328zm-2.9-.013l2.229.013.089-.341-2.229-.013-.089.341zm4.103.904l3.09.026.088-.341-3.077-.026-.101.341zm.633.904l2.216.026.089-.341-2.216-.013-.089.328zm-2.558-.014l2.216.013.101-.327-2.228-.026-.089.34zm-1.849-.013l1.381.014.088-.341-1.38-.013-.089.34zm1.305-.904l1.899.027.089-.341-1.9-.013-.088.327zm-2.609-.013l1.912.013.089-.327-1.912-.013-.089.327zm4.673 3.341l2.609.013.088-.327-2.608-.027-.089.341zm-1.937-.013l1.456.013.089-.34-1.457-.014-.088.341zm-2.9-.026l2.241.013.089-.328-2.242-.013-.088.328zm4.115.904l3.09.026.088-.327-3.089-.027-.089.328zm.621.917l2.216.013.101-.327-2.229-.027-.088.341zm-2.559-.026l2.229.026.089-.341-2.216-.013-.102.328zm-1.835-.013l1.367.013.101-.328-1.38-.013-.088.328zm1.291-.891l1.912.013.089-.328-1.912-.013-.089.328zm-2.608-.013l1.912.013.088-.341-1.899-.013-.101.341zm4.723 3.157l2.608.013.089-.328-2.609-.026-.088.341zm-1.938-.026l1.457.013.101-.328-1.469-.013-.089.328zm-2.887-.013l2.229.013.088-.328-2.228-.026-.089.341zm4.103.904l3.089.026.089-.341-3.09-.013-.088.328zm.62.917l2.229.013.089-.341-2.216-.013-.102.341zm-2.545-.026l2.216.013.088-.328-2.216-.013-.088.328zm-1.849-.014l1.38.013.089-.34h-1.38l-.089.327zm1.292-.89l1.912.013.088-.341-1.899-.013-.101.341zm-2.596-.027l1.899.013.089-.327-1.899-.013-.089.327zm4.686 3.275l2.608.014.089-.328-2.609-.026-.088.34zm-1.938-.026l1.456.013.102-.327-1.457-.013-.101.327zm-2.887-.013l2.229.013.088-.327-2.229-.026-.088.34zm4.102.904l3.09.026.089-.34-3.09-.013-.089.327zm.621.917l2.229.014.088-.341-2.216-.013-.101.34zm-2.545-.026l2.216.013.088-.327-2.216-.013-.088.327zm-1.849-.013l1.38.013.089-.341h-1.38l-.089.328zm1.291-.891l1.913.013.088-.34-1.899-.013-.102.34zm-2.595-.026l1.899.013.101-.327-1.912-.014-.088.328zm4.47 4.218l2.608.027.089-.341-2.608-.013-.089.327zm-1.938-.013l1.469.013.089-.327-1.456-.013-.102.327zm-2.887-.013l2.229.013.089-.34-2.229-.013-.089.34zm4.103.904l3.09.026.088-.34-3.09-.013-.088.327zm.62.904l2.229.026.089-.34-2.216-.013-.102.327zm-2.545-.013l2.216.013.101-.327-2.228-.013-.089.327zm-1.849-.013l1.381.013.088-.34-1.38-.014-.089.341zm1.305-.891l1.899.013.089-.34-1.9-.013-.088.34zm-2.609-.026l1.9.013.101-.328-1.912-.013-.089.328zm4.496 3.904l2.608.013.089-.328-2.609-.026-.088.341zm-1.938-.026l1.456.013.089-.328-1.456-.013-.089.328zm-2.9-.013l2.242.013.088-.328-2.228-.026-.102.341zm4.116.904l3.089.026.089-.328-3.09-.026-.088.328zm.62.917l2.229.013.089-.341-2.229-.013-.089.341zm-2.545-.026l2.216.013.089-.328-2.216-.013-.089.328zm-1.849-.014l1.38.013.089-.34H255l-.089.327zm1.292-.89l1.912.013.088-.341-1.912-.013-.088.341zm-2.596-.027l1.899.013.089-.327-1.899-.013-.089.327z" fill="#83817F"/><path d="M228.876 172.159c-.595-.628.165-2.41-.164-3.17-.469-1.1-1.951-1.258-1.951-1.258-2.76-.327-5.001 1.415-5.28 2.359-.62 2.043-3.14 2.672-1.887 3.917.431.419 1.343.668 2.432.786a1.916 1.916 0 01-.786.498l-.139.013v.026a1.44 1.44 0 01-.228.052s-1.76.04-2.811.786c-.456.328-1.038.891-1.532 1.415h11.118c-.038-.484-.152-.943-.367-1.192-.596-.642-1.659-.799-1.659-.799-.393-.105-.621-.38-.646-.734 1.203-.052 2.241-.209 2.685-.393 1.203-.471 1.81-1.677 1.215-2.306zm4.014-11.45c-.405-.432.114-1.637-.114-2.161-.316-.747-1.329-.852-1.329-.852-1.887-.223-3.407.956-3.597 1.611-.418 1.389-2.14 1.822-1.279 2.66.292.288.912.459 1.646.537a1.512 1.512 0 01-.531.341l-.102.013v.026l-.152.039s-1.19.027-1.912.537c-.316.223-.709.603-1.051.97h7.56c-.025-.328-.101-.642-.253-.812-.405-.433-1.127-.537-1.127-.537-.266-.079-.431-.262-.443-.498.81-.04 1.519-.144 1.836-.262.835-.367 1.253-1.193.848-1.612zm20.375-3.301c-.469-.249.025-1.703-.481-2.11-.494-.406-1.241-.327-1.241-.327-2.204.131-2.178 2.109-2.685 2.673-.506.563-.899 1.244-.785 1.821a.541.541 0 00.127.209 2.625 2.625 0 00-.697.812c-.532.944-1.026 2.961-1.418 3.603-.063.092-.127.21-.203.315h4.306c-.013-.04-.026-.066-.038-.092.076-.197.076-.38.076-.419v-.013s.05-.013.126-.066c.076-.052.19-.157.33-.327a.374.374 0 00.038-.066c.012.288.05.629.114.983h1.316c.026-.341.026-.642.026-.878-.013-.38.152-1.284.266-2.07.709-.118 1.317-.904 1.165-1.258-.203-.445.139-.681.481-1.428.329-.747-.355-1.113-.823-1.362zm-9.788 5.017c-.026-.026-.038-.065-.038-.117 0-.079.038-.171.076-.262.05-.118-.038-.223-.178-.197h-.025c.013-.079.025-.157.051-.236.012-.078.038-.157.05-.236.013-.052.026-.117.038-.17.342.066.684.039.684.039-.025-.039-.038-.157-.038-.157.013.079.152.131.152.131.101 0 .329-.078.329-.078s-.215-.014-.329-.341c.253-.341.494-.891.659-1.363 0 0 .405-.589.405-1.126a.79.79 0 00-.127-.446.725.725 0 00-.228-.222c-.063-.079-.139-.131-.202-.184-.431-.314-.937-.367-.937-.367a2.477 2.477 0 00-.76 0c-2.267-.497-3.343 3.38-3.039 3.629.304.249 1.152.236 1.152.236-.038-.039-.063-.131-.063-.131.101.092.342.131.557.144-.063.171-.114.315-.19.446-.013-.013-.025-.013-.038-.026-.063-.04-.165-.014-.19.065-.101.275-.304.773-.469.773-.227-.013-1.874.131-2.026.301-.05.053-.62.839-1.355 1.887h7.383c.114-.655.19-1.166.139-1.31-.114-.341-1.051-.59-1.443-.682zm-20.768-.13a.192.192 0 01-.038-.118c0-.079.038-.184.076-.289.063-.131-.051-.249-.19-.209h-.025c.012-.079.038-.171.05-.262.026-.079.038-.171.064-.249a.762.762 0 01.05-.184c.355.066.722.04.722.04-.038-.04-.038-.158-.038-.158.013.079.165.132.165.132.114 0 .354-.092.354-.092s-.24-.013-.342-.367c.279-.367.532-.943.71-1.467 0 0 .443-.629.443-1.206a.785.785 0 00-.14-.471.663.663 0 00-.24-.236c-.063-.079-.152-.144-.215-.197a2.451 2.451 0 00-1.013-.393 2.418 2.418 0 00-.811 0c-2.418-.524-3.571 3.603-3.254 3.865.316.262 1.241.262 1.241.262a.544.544 0 01-.076-.144c.114.105.367.144.595.157a4.111 4.111 0 01-.203.485c-.012-.013-.025-.026-.05-.026-.064-.053-.178-.013-.203.065-.101.289-.317.826-.506.826-.254-.013-2.001.131-2.166.314-.05.066-.658.891-1.443 2.018h7.889c.114-.695.202-1.258.152-1.402-.14-.328-1.14-.603-1.558-.694zm26.871 8.292c-.469-.248.025-1.703-.481-2.109-.494-.406-1.241-.327-1.241-.327-2.204.131-2.178 2.109-2.685 2.672-.506.564-.899 1.245-.785 1.821.013.066.063.131.127.21-.228.17-.482.432-.697.812-.532.943-1.026 2.961-1.418 3.603-.063.092-.127.21-.203.314h4.306c-.013-.039-.026-.065-.038-.091.076-.197.076-.38.076-.42v-.013s.05-.013.126-.065c.076-.053.19-.157.33-.328a.328.328 0 00.038-.065c.012.288.05.629.113.982h1.317c.026-.34.026-.642.026-.877-.013-.38.152-1.284.266-2.07.709-.118 1.317-.904 1.165-1.258-.203-.445.139-.681.481-1.428.342-.734-.355-1.114-.823-1.363zm-9.776 5.031c-.025-.026-.038-.065-.038-.118 0-.078.038-.17.076-.262.051-.118-.038-.223-.177-.196h-.025c.012-.079.025-.158.05-.236.013-.079.038-.157.051-.236.013-.052.025-.118.038-.17.342.065.684.039.684.039-.026-.039-.038-.157-.038-.157.012.078.152.131.152.131.101 0 .329-.079.329-.079s-.215-.013-.329-.34c.253-.341.494-.891.658-1.363 0 0 .405-.589.405-1.127a.794.794 0 00-.126-.445.73.73 0 00-.228-.223c-.063-.078-.139-.131-.203-.183a2.143 2.143 0 00-.937-.367 2.477 2.477 0 00-.76 0c-2.266-.498-3.343 3.38-3.039 3.629.304.249 1.153.236 1.153.236-.038-.039-.064-.131-.064-.131.102.092.342.131.558.144-.064.17-.114.314-.19.445-.013-.013-.026-.013-.038-.026-.064-.039-.165-.013-.19.066-.102.275-.304.773-.469.773-.228-.014-1.874.131-2.026.301-.051.052-.62.838-1.355 1.886h7.383c.114-.655.19-1.166.139-1.31-.114-.34-1.064-.589-1.444-.681z" fill="#B1C9F2"/><path d="M141.286 106.904H66.587l-3.735-54.277h74.698l3.736 54.277zm-73.635-1.166h72.419l-3.571-51.932h-72.42l3.572 51.932zm154.096 1.428h-74.699l-3.736-54.278h74.699l3.736 54.278zM148.112 106h72.419l-3.571-51.932h-72.419L148.112 106zm152.474 1.035h-74.699l-3.735-54.277h74.699l3.735 54.277zm-73.635-1.166h72.42L295.8 53.937h-72.42l3.571 51.932z" fill="#2E3239"/><path d="M208.945 192.086s11.675-2.804 14.664 0c2.988 2.803 3.938 6.878 3.938 6.878h-18.602v-6.878zM102.892 141.32l7.243 7.192h12.334c.013-1.022-.025-5.306-.076-9.184 0-.222-.013-.458-.013-.681-.012-.864-.025-1.69-.025-2.45a799.74 799.74 0 00-.051-3.681l-3.165-2.24-7.054-4.992-3.811-2.699c0 .066-.317 3.59-.367 4.101-.823 9.131-5.015 14.634-5.015 14.634z" fill="#E3B799"/><path d="M120.836 140.023c-.241-.105-13.588-6.302-15.145-5.765-1.558.537-3.508 5.463-3.508 5.463l23.503 5.503s-1.849-3.891-4.85-5.201z" fill="#1D60CC"/><path d="M208.945 192.086v6.944l-41.611 1.179a7.482 7.482 0 01-1.519-.118c-3.584-.695-18.932-3.852-26.567-7.966-.507 8.359-1.039 18.512-1.976 27.932-.126 1.31-.266 2.607-.418 3.877h-17.183l-36.508-.013H66.271c1.089-8.673 2.76-18.865 4.597-28.887-5.268-2.594-8.826-6.813-7.763-13.612 2.064-13.154 9.51-23.634 14.702-29.543a65.077 65.077 0 013.178-3.38c3.09-4.808 21.211-8.764 21.211-8.764s.557.131 1.532.353c.203.053.418.092.646.158.127.026.253.065.392.091.14.026.279.066.418.092.355.079.747.17 1.165.275l.507.118c.43.105.874.21 1.342.314l.405.092.52.118c.025.013.05.013.075.013.14.039.279.066.418.105.013 0 .026 0 .038.013l.444.105c.215.052.443.105.671.157.608.144 1.215.288 1.848.432.152.04.317.079.469.105l.912.21c1.621.38 3.292.773 4.926 1.153l.937.222c.012 0 .038.014.05.014l.861.196c.342.079.672.157 1.001.236l.342.078.342.079.62.144c.038.013.076.013.101.026.292.066.57.131.849.197a84.03 84.03 0 011.659.393s13.245 1.48 20.716 14.267c4.622 7.913 17.855 25.992 26.542 26.555 8.699.564 36.001 6.04 36.001 6.04z" fill="#2958B7"/><path d="M110.262 129.529l.633.406s5.813 4.323 11.473 6.262a799.74 799.74 0 00-.051-3.681l-3.165-2.24-8.89-.747z" fill="#D7AC8E"/><path d="M126.635 132.621s-18.981 2.319-20.197-9.931c-1.216-12.249-4.483-20.201 7.585-22.206 12.068-2.004 14.892 2.424 16.259 6.407 1.368 3.995 1.267 24.813-3.647 25.73z" fill="#E3B799"/><path d="M129.776 105.646s-3.584 13.297-6.18 12.184c-2.596-1.114-4.964-2.018-5.305 2.135-.342 4.153 2.558 9.577-5.901 8.686s-16.412-25.416-13.373-29.176c8.801-10.86 42.979-6.799 30.759 6.171z" fill="#0B2442"/><path d="M130.295 176.784v47.151h-10.624l-36.508-.014H66.271l-18.741-.013v-47.124c0-13.756 8.7-24.918 19.425-24.918h43.915c10.725 0 19.425 11.149 19.425 24.918z" fill="#455F97"/><path d="M125.622 176.784v47.151h-5.964l-36.508-.014H66.258l-18.741-.013h-4.66v-47.124c0-13.756 8.7-24.918 19.425-24.918h43.915c10.738 0 19.425 11.149 19.425 24.918z" fill="#4868AF"/></g><defs><clipPath id="clip0_1512_9523"><path fill="#fff" transform="translate(-15)" d="M0 0h372v224H0z"/></clipPath></defs></svg>