<svg width="35" height="35" fill="none" xmlns="http://www.w3.org/2000/svg"><path d="M35 17.5C35 27.165 27.165 35 17.5 35S0 27.165 0 17.5 7.835 0 17.5 0 35 7.835 35 17.5z" fill="#2E3239"/><path d="M22.556 34.09c-3.89 1.383-7.765.877-9.291.502 1.285.129 1.178-2.034.964-3.13-3.695.722-5.14-1.526-5.542-2.65-.322-.9-1.259-1.873-1.687-2.248 1.22-.257 1.9.107 2.088.321 2.731 3.131 4.177 2.489 4.9 2.409.574-.064.615-1.338.562-2.007-9.446-2.248-7.31-10.356-5.06-12.363-.803-1.526-.375-3.506.16-4.416 2.185-.128 3.802 1.285 4.338 2.007 3.148-1.092 6.238-.455 7.389 0 .964-1.605 3.293-2.007 4.337-2.007.964 1.606.562 3.613.24 4.416 4.017 3.692 2.009 11.48-5.06 12.363.483 1.364 0 3.371.242 5.459.193 1.67 1.03 1.344 1.42 1.344z" fill="#fff"/></svg>