<svg width="90" height="90" fill="none" xmlns="http://www.w3.org/2000/svg"><path fill-rule="evenodd" clip-rule="evenodd" d="M18.068 68.056a18.61 18.61 0 005.164 0h50.679c11.491.831 12.457-7.691 12.862-11.268l.043-.375c0-7.621-6.535-13.8-14.597-13.8-1.654 0-3.244.26-4.727.74a7.27 7.27 0 00.043-.784c0-4.146-3.583-7.507-8.003-7.507-.832 0-1.634.119-2.387.34-1.75-7.166-8.122-12.476-15.713-12.476-7.713 0-14.166 5.48-15.793 12.819a18.416 18.416 0 00-4.989-.683c-9.669 0-17.507 7.426-17.507 16.587 0 8.055 6.06 14.769 14.097 16.272v.135h.828z" fill="url(#paint0_linear_656_4980)"/><path d="M9.162 39.375l12.312 7.316m0 0l-17.85 8.392m17.85-8.392l-5.446 20.645 24.898-10.233M21.474 46.69l4.211-10.546s10.011.018 16.66-.315M21.475 46.69s12.72-6.444 20.87-10.86m-20.87 10.86l19.451 10.413M21.474 46.69l40.049 4.758M42.345 35.829c5.845 0 14.647-.09 14.647-.09l4.53 15.709M42.346 35.829c3.79-4.557 7.873-9.784 7.873-9.784m-7.873 9.784L36.258 24.16m6.087 11.67l19.178 15.618m-20.597 5.655l2.426 10.502 8.696-7.675m-11.122-2.827l11.122 2.828m-11.122-2.828l20.597-5.655m-9.475 8.483l9.475-8.483m-9.475 8.483l10.97 2.378m-1.495-10.861l1.494 10.861m-1.494-10.861l19.315 15.26-17.82-4.399m-1.495-10.861l24.853 2.11m-24.853-2.11l5.95-7.764M63.72 67.65l-.703-5.34" stroke="#fff" stroke-width=".5" stroke-linecap="round" stroke-linejoin="round"/><circle cx="25.661" cy="36.533" r="1.5" fill="#fff"/><circle cx="22.037" cy="46.193" r="1.5" fill="#fff"/><circle cx="42.574" cy="35.723" r="1.5" fill="#fff"/><circle cx="36.533" cy="23.85" r="1.5" fill="#fff"/><circle cx="49.219" cy="25.055" r="1.5" fill="#fff"/><circle cx="57.07" cy="35.328" r="1.5" fill="#fff"/><circle cx="40.763" cy="56.467" r="1.5" fill="#fff"/><circle cx="61.299" cy="51.633" r="1.5" fill="#fff"/><circle cx="67.339" cy="43.783" r="1.5" fill="#fff"/><circle cx="85.46" cy="52.838" r="1.5" fill="#fff"/><circle cx="80.628" cy="66.732" r="1.5" fill="#fff"/><circle cx="64.318" cy="67.945" r="1.5" fill="#fff"/><circle cx="43.178" cy="67.945" r="1.5" fill="#fff"/><circle cx="16.602" cy="67.34" r="1.5" fill="#fff"/><circle cx="4.123" cy="54.656" r="1.5" fill="#fff"/><circle cx="8.748" cy="38.949" r="1.5" fill="#fff"/><defs><linearGradient id="paint0_linear_656_4980" x1="3.143" y1="54.121" x2="86.816" y2="53.385" gradientUnits="userSpaceOnUse"><stop stop-color="#46C0EF"/><stop offset="1" stop-color="#4865AD"/></linearGradient></defs></svg>