<svg width="972" height="889" fill="none" xmlns="http://www.w3.org/2000/svg"><path opacity=".8" d="M18.72 1.293c1.96-1.724 5.392-1.724 7.352 0 1.47 1.232 1.96 3.202 1.144 4.926l113.557 98.771v124.88l27.613 24.139v135.717l94.767 82.515 14.705-12.808-73.036-63.549v-74.386l.327-.246 83.166-72.416v-25.37l-47.056-40.888c-1.961 1.232-4.902 1.232-6.699-.492-1.961-1.724-1.961-4.68 0-6.404 1.96-1.724 5.392-1.724 7.352 0 1.798 1.478 1.961 3.941.491 5.911l47.056 40.888v27.341l-.327.246-83.166 72.415v72.416l55.227 48.031v-31.035l-25.326-21.922c-1.961 1.231-4.902 1.231-6.699-.493-1.961-1.724-1.961-4.68 0-6.404 1.96-1.724 5.392-1.724 7.352 0 1.798 1.478 1.961 3.941.491 5.912l25.325 21.921v33.006l16.666 14.532 19.771-17.241v-53.943l-37.254-32.513v-37.439l.327-.246 78.428-68.229c-1.471-1.724-1.307-4.187.49-5.911 1.961-1.724 5.392-1.724 7.353 0 1.961 1.724 1.961 4.68 0 6.404-1.798 1.478-4.739 1.724-6.699.493l-78.755 68.474v35.223l36.11 31.528v-37.194l.326-.246 48.037-41.873c-1.47-1.724-1.307-4.187.491-5.911 1.96-1.724 5.391-1.724 7.352 0 1.961 1.724 1.961 4.68 0 6.404-1.797 1.478-4.738 1.724-6.699.492l-48.2 42.12v91.135l13.888-12.069 22.875 19.951 20.75-17.981v-43.843l.327-.247 54.736-47.538v-41.38c-1.143 0-2.287-.493-3.104-1.232-1.961-1.724-1.961-4.679 0-6.404 1.961-1.724 5.392-1.724 7.353 0 1.96 1.725 1.96 4.68 0 6.404-.817.739-1.961 1.232-3.105 1.232v42.366l-.327.246-54.736 47.538v41.873l89.049-77.588v-82.268l-48.364-42.119h-44.443l-76.14-66.258c-1.961 1.231-4.902 1.231-6.699-.493-1.961-1.724-1.961-4.68 0-6.404 1.96-1.724 5.392-1.724 7.352 0 1.798 1.478 1.961 4.187.491 5.911l75.323 65.519h41.992l-139.7-121.678c-1.961 1.232-4.902 1.232-6.699-.492-1.961-1.724-1.961-4.68 0-6.404 1.961-1.725 5.392-1.725 7.352 0 1.798 1.478 1.961 4.187.491 5.911l190.351 165.768v84.238l-.327.247-110.616 96.308 22.221 19.458L549.252 304.01v-98.032l.326-.246 64.213-55.913c-1.47-1.724-1.307-4.187.49-5.911 1.961-1.725 5.392-1.725 7.353 0 1.961 1.724 1.961 4.679 0 6.404-1.797 1.478-4.738 1.724-6.699.492l-64.54 56.159v98.032l-.326.247-188.718 164.289 21.241 18.474 186.92-162.566h111.433l69.605-60.592v-93.106c-.654-.247-1.471-.493-1.961-.985-1.96-1.725-1.96-4.68 0-6.405 1.961-1.724 5.392-1.724 7.353 0 1.961 1.725 1.961 4.68 0 6.405-1.144.985-2.614 1.477-4.085 1.231v93.845l-.327.246-70.258 61.085H569.839L412.166 464.359h31.698l53.756-46.799h41.665l57.514 50.001c1.96-1.232 4.901-1.232 6.699.493 1.96 1.724 1.96 4.679 0 6.404-1.961 1.724-5.392 1.724-7.353 0-1.797-1.478-1.961-4.188-.49-5.912l-56.86-49.508h-40.848l-53.756 46.799h-33.985l-26.307 22.907 56.534 49.262 16.176-14.04v-36.7l40.848-35.469c-1.471-1.724-1.308-4.187.49-5.912 1.96-1.724 5.392-1.724 7.352 0 1.961 1.725 1.961 4.68 0 6.405-1.797 1.477-4.738 1.724-6.699.492l-40.848 35.469v34.73l43.626-37.686h20.751l24.672 21.429c1.96-1.231 4.902-1.231 6.699.493 1.961 1.724 1.961 4.68 0 6.404-1.961 1.724-5.392 1.724-7.353 0-1.797-1.478-1.96-4.187-.49-5.911l-23.855-20.69h-20.097l-59.965 52.218 10.947 9.606-34.802 30.296 16.339 14.286h24.672l17.646-15.271c-1.47-1.724-1.143-4.187.654-5.665 1.961-1.725 5.392-1.725 7.353 0 1.96 1.724 1.96 4.68 0 6.404-1.798 1.724-4.739 1.724-6.699.492l-18.464 16.011h-22.874l41.501 36.207 97.708-84.977h70.422l39.541 34.484c1.96-1.232 4.901-1.232 6.699.492 1.96 1.724 1.96 4.68 0 6.404-1.961 1.724-5.392 1.724-7.353 0-1.797-1.478-1.961-4.187-.49-5.911l-38.887-33.745h-69.769l-75.323 65.519h32.188l31.535-27.341c-1.471-1.724-1.307-4.187.49-5.911 1.961-1.724 5.392-1.724 7.352 0 1.961 1.724 1.961 4.68 0 6.404-1.797 1.478-4.738 1.724-6.699.493l-32.351 28.079h-34.639l-19.444 16.996 49.671 43.104h158.653l122.871-107.638c-1.471-1.724-1.307-4.187.49-5.911 1.961-1.725 5.392-1.725 7.353 0 1.96 1.724 1.96 4.679 0 6.404-1.798 1.478-4.739 1.724-6.699.492L687.317 676.926H530.462l19.607 17.242H667.71l57.841 50.493c1.961-1.231 4.902-1.231 6.699.493 1.961 1.724 1.961 4.68 0 6.404-1.961 1.724-5.392 1.724-7.353 0-1.797-1.478-1.96-4.187-.49-5.911l-57.187-49.755H549.578l-133-115.767-14.705 12.809 139.863 121.677h102.446L767.706 822.25H938.94l33.005-28.819v1.971l-32.841 28.572H767.216l-77.611-67.49v39.903l51.141 44.582c1.961-1.231 4.902-1.231 6.699.493 1.961 1.724 1.961 4.68 0 6.404-1.96 1.724-5.391 1.724-7.352 0-1.797-1.478-1.961-4.187-.49-5.912l-51.142-44.582v-41.627h.327l-45.096-39.163H541.245L400.729 594.165l-16.83 14.532 272.864 237.445V889h-1.144v-41.873L382.756 609.683l-20.751 17.98 140.68 122.417v21.922l24.999 21.675v50.248l48.364 42.119c1.961-1.231 4.902-1.231 6.699.493.817.739 1.144 1.478 1.47 2.217h-10.13c.164-.493.49-1.232.817-1.724l-48.364-42.12v-50.247l-23.855-20.69v80.543l-14.052 12.316 25.326 21.922h-2.287l-24.182-20.937-24.182 20.937h-2.288l40.521-35.223V751.066l-140.68-122.417-18.953 16.503 99.669 86.455c1.96-1.232 4.901-1.232 6.699.493 1.96 1.724 1.96 4.679 0 6.404-1.961 1.724-5.392 1.724-7.353 0-1.797-1.478-1.961-3.941-.49-5.912l-99.505-86.701-18.3 15.763L441.74 765.352h32.352c.163-.739.653-1.725 1.47-2.217 1.961-1.724 5.392-1.724 7.353 0 1.96 1.724 1.96 4.68 0 6.404-1.961 1.724-5.392 1.724-7.353 0-.817-.739-1.307-1.478-1.47-2.217H441.25l-119.766-104.19-7.353 6.404-5.718-4.926-28.594 24.878v34.483l23.528 20.444h37.09l40.521 35.223c1.961-1.232 4.902-1.232 6.699.492 1.961 1.724 1.961 4.68 0 6.404-1.96 1.725-5.391 1.725-7.352 0-1.797-1.477-1.961-4.187-.49-5.911l-39.868-34.73h-34.639l69.278 60.346c1.961-1.478 4.902-1.231 6.863.247 1.96 1.724 1.96 4.68 0 6.404-1.961 1.724-5.392 1.724-7.353 0-1.797-1.478-1.961-3.941-.654-5.665l-86.434-75.372v16.749l51.469 44.829v31.528l41.828 36.454c1.961-1.231 4.902-1.231 6.699.493 1.961 1.724 1.961 4.68 0 6.404-1.961 1.724-5.392 1.724-7.353 0-1.797-1.478-1.96-4.187-.49-5.912l-41.828-36.454v-31.528l-51.468-44.828v-18.72l-7.19-6.158v-36.7l28.594-24.878-18.79-16.256-58.658 51.233v58.129l39.868 34.73c1.961-1.478 4.902-1.231 6.862.246 1.961 1.725 1.961 4.68 0 6.404-1.96 1.725-5.392 1.725-7.352 0-1.798-1.477-1.961-3.941-.654-5.665l-38.724-33.744v47.045l30.555 26.602v56.898h-1.144v-55.913l-29.411-25.616v81.529h-1.143V697.123l58.657-51.232-21.077-18.228-76.794 66.751v159.117l-36.927 32.021v3.202h-1.144v-4.188l36.927-32.02V693.429l76.794-66.751-15.686-13.547-103.59 90.15v135.718l-57.35 49.755H86.2l58.494-50.74V702.296l103.591-90.15-25.326-21.922L50.581 740.228v67.489l-59.148 51.479v-1.97l57.84-50.494v-67.489l96.892-84.485h-76.63L-8.568 722.74v-1.971l78.101-67.982h78.918l73.363-63.794-29.41-25.617-63.069 54.928H28.033l-36.436 31.774v-1.971l8.006-6.896h-8.006v-1.725h9.966l26.143-22.66H129.01l17.646-15.272h-43.299L81.79 582.835H-8.24l-.327.246v-1.97h88.232l-24.346-21.183c-1.96 1.231-4.901 1.231-6.699-.493-1.96-1.724-1.96-4.68 0-6.404 1.961-1.724 5.392-1.724 7.353 0 1.797 1.478 1.96 4.187.49 5.912l47.22 41.134h44.769l42.646-36.947-15.686-13.794 10.13-8.867h-29.41l-38.397 33.499c1.47 1.724 1.307 4.187-.49 5.911-1.961 1.724-5.392 1.724-7.353 0-1.961-1.724-1.961-4.68 0-6.404 1.797-1.478 4.738-1.724 6.699-.493l39.377-34.237h31.698l21.568-18.72-13.235-11.576h-23.528l-20.587-17.981h-15.359l-34.802 30.296c1.633 1.724 1.47 4.188-.491 5.912-1.96 1.724-5.392 1.724-7.352 0-1.961-1.724-1.961-4.68 0-6.404 1.797-1.478 4.575-1.725 6.535-.493l35.62-31.035h16.012l20.587 17.98h21.241l-42.318-36.946h-22.875l-47.71 41.38H-8.567v-1.724h89.212l47.71-41.38h23.692l58.331 50.74 15.359-13.301-65.847-57.391h-46.403L75.09 481.354H-8.403v-1.724h83.166l36.273-31.528H-8.404v-2.217h168.622l66.663 58.13 17.32-15.025-91.826-80.051H-8.403v-1.724h117.151L-8.403 305.242v-1.971l119.439 103.944h40.521l-87.088-75.864v-16.75l-41.665-36.207c-1.96 1.231-4.901 1.231-6.699-.493-1.96-1.724-1.96-4.68 0-6.404 1.961-1.724 5.392-1.724 7.353 0 1.797 1.478 1.96 3.941.49 5.911l22.712 19.705v-45.814l-55.063-47.784v-1.971l56.206 48.77v47.785l17.81 15.517v16.749l87.741 76.357-.327.739 92.317 80.297 16.829-14.532-94.767-82.514V254.994L-8.404 102.035v-1.971L139.63 228.885V106.222L26.236 7.697l-.164.247c-1.96 1.724-5.392 1.724-7.352 0-1.961-1.97-1.961-4.68 0-6.65zm159.143 547.304l136.105 118.476 136.105-118.476-136.105-118.475-136.105 118.475z" fill="#2E3239" fill-opacity=".17"/></svg>