<svg width="35" height="35" fill="none" xmlns="http://www.w3.org/2000/svg"><path fill="#fff" d="M4.667 6.223h25.667v21.778H4.667z"/><path d="M22.716 9.31H12.284a3.023 3.023 0 00-3.02 3.02v10.432a3.023 3.023 0 003.02 3.02h10.432a3.024 3.024 0 003.02-3.02V12.33a3.023 3.023 0 00-3.02-3.02zM17.5 22.969a5.428 5.428 0 01-5.422-5.422 5.428 5.428 0 015.422-5.422 5.428 5.428 0 015.423 5.422 5.429 5.429 0 01-5.423 5.422zm5.597-9.723a1.284 1.284 0 01-1.283-1.283c0-.707.575-1.283 1.283-1.283.707 0 1.283.576 1.283 1.283s-.576 1.283-1.283 1.283z" fill="#2E3239"/><path d="M17.5 14.417a3.135 3.135 0 00-3.13 3.13 3.135 3.135 0 003.13 3.132 3.135 3.135 0 003.131-3.132 3.135 3.135 0 00-3.13-3.13z" fill="#2E3239"/><path d="M17.5 0C7.835 0 0 7.835 0 17.5S7.835 35 17.5 35 35 27.165 35 17.5 27.165 0 17.5 0zm10.527 22.763a5.316 5.316 0 01-5.311 5.31H12.284a5.317 5.317 0 01-5.31-5.31V12.331a5.317 5.317 0 015.31-5.31h10.432a5.317 5.317 0 015.31 5.31v10.432z" fill="#2E3239"/></svg>