<svg width="45" height="45" fill="none" xmlns="http://www.w3.org/2000/svg"><path fill="#fff" d="M6 8h33v28H6z"/><path d="M29.206 11.97H15.794a3.887 3.887 0 00-3.883 3.883v13.412a3.887 3.887 0 003.883 3.883h13.412a3.887 3.887 0 003.883-3.883V15.853a3.887 3.887 0 00-3.883-3.882zM22.5 29.53a6.98 6.98 0 01-6.972-6.97 6.98 6.98 0 016.972-6.972 6.98 6.98 0 016.971 6.971 6.98 6.98 0 01-6.971 6.972zm7.195-12.5c-.91 0-1.65-.74-1.65-1.65 0-.91.74-1.65 1.65-1.65.91 0 1.65.74 1.65 1.65 0 .91-.74 1.65-1.65 1.65z" fill="#000"/><path d="M22.5 18.535a4.03 4.03 0 00-4.025 4.025 4.031 4.031 0 004.025 4.026 4.03 4.03 0 004.026-4.026 4.03 4.03 0 00-4.026-4.025z" fill="#000"/><path d="M22.5 0C10.074 0 0 10.074 0 22.5S10.074 45 22.5 45 45 34.926 45 22.5 34.926 0 22.5 0zm13.534 29.267a6.836 6.836 0 01-6.828 6.828H15.794a6.836 6.836 0 01-6.828-6.828V15.855a6.836 6.836 0 016.828-6.829h13.412a6.836 6.836 0 016.828 6.829v13.412z" fill="#000"/></svg>