<svg width="239" height="180" fill="none" xmlns="http://www.w3.org/2000/svg"><rect x="48.533" y="41.762" width="165.917" height="110.612" rx="8" fill="#292929"/><rect x="48.533" y="42.891" width="165.917" height="90.295" rx="6" fill="#121212"/><rect x="54.177" y="47.404" width="154.63" height="80.137" rx="9" fill="#000"/><rect x="109.482" y="15.801" width="74.493" height="55.306" rx="6" fill="#fff" fill-opacity=".24"/><rect x="112.869" y="25.959" width="68.85" height="41.761" rx="6" fill="#FFEA39"/><path d="M139.957 90.057v-5.405l19.188 7.672v6.102l-19.188 7.671v-5.056l13.987-5.579-13.987-5.405zm-18.059 10.636v5.405l-18.059-7.672v-6.102l18.059-7.671v5.056l-13.164 5.579 13.164 5.405z" fill="#fff"/><path d="M107.519 19.074L70.297 36.192c-.343 5.626-5.08 10.084-10.872 10.084a10.935 10.935 0 01-7.6-3.046L61.854 39l.383-4.504-4.024-2.425-9.67 3.901a10.94 10.94 0 01-.009-.437c0-5.932 4.877-10.74 10.892-10.74 2.55 0 4.895.863 6.75 2.31l37.348-17.075c.366-5.534 4.993-9.948 10.713-10.029a10.94 10.94 0 017.643 2.94l-9.965 4.37-.318 4.509 4.06 2.368 9.612-4.037c.008.145.013.29.015.437.086 5.931-4.721 10.808-10.736 10.893a10.943 10.943 0 01-7.028-2.407z" fill="#E9E9E9" fill-opacity=".87"/><path d="M111.74 44.372l11.352-8.39c2.719-2.157 7.804-4.197 12.593 2.097l13.302 18.356m-16.93 12.415c.283-.399 20.41-14.809 30.439-21.964 2.536-2.163 8.778-5.192 13.45 0 4.672 5.192 6.548 7.155 6.902 7.488" stroke="#fff" stroke-width="7"/><circle cx="149.551" cy="41.197" r="3.95" fill="#fff"/><path d="M181.006 97.27l3.062-2.444 2.787 3.491a1.959 1.959 0 01-3.062 2.444l-2.787-3.492z" fill="#fff"/><path d="M185.594 101.804l2.023-1.615 15.856 18.43-2.988 2.284-14.891-19.099z" fill="#fff"/><path d="M206.805 133.1l-4.77-6.076 7.067-6.254 5.123 6.254c1.131 2.002 4.593 3.455 6.183 3.932 1.131.143 1.767.893 1.944 1.251-3.958.715-9.776 6.97-12.19 10.008-.884-.358-.707-2.324-.707-2.145.565-1.858-1.531-5.421-2.65-6.97z" fill="#FFEA39"/><path d="M198.797 125.297a1.548 1.548 0 01-.085-1.681c1.975-3.35 3.917-4.945 7.722-6.562a1.58 1.58 0 011.803.426c1.601 1.835 1.024 4.636-.935 6.082a25.19 25.19 0 00-2.524 2.142c-1.742 1.671-4.585 1.561-5.981-.407z" fill="#FFEA39"/><ellipse cx="130.363" cy="176.076" rx="91.988" ry="3.386" fill="#464444"/><path d="M211.839 144.157a4 4 0 01.5-5.635l6.037-5.054a4 4 0 015.635.499l9.894 11.818a7.937 7.937 0 01-12.172 10.19l-9.894-11.818z" fill="#FFEA39"/><rect x="214.901" y="139.137" width="4.619" height="20.927" rx="2.31" transform="rotate(-39.935 214.901 139.137)" fill="#fff"/><path d="M223.125 135.846a1.87 1.87 0 01.233-2.635l12.417 14.832a1.87 1.87 0 01-2.635-.233l-10.015-11.964zm.181 19.215a1.87 1.87 0 01-.244 2.634l-12.357-14.882a1.87 1.87 0 012.634.244l9.967 12.004zm-87.685-79.438h6.594l-13.901 38.375h-6.416l13.723-38.375z" fill="#fff"/><path d="M68.978 81.266L13.544 95.705l10.82 41.995 31.117-8.105c1.942 4.132 6.507 7.033 11.828 7.033 7.085 0 12.828-5.142 12.828-11.484 0-1.581-.357-3.087-1.002-4.457L68.978 81.266z" fill="#D9D9D9" fill-opacity=".68"/><path d="M23.702 106.097c.14 0 28.651-7.524 42.89-11.286M25.96 116.256c.139 0 28.651-7.525 42.89-11.287M47.405 120.77c.077 0 15.834-4.515 23.703-6.772M55.306 129.8c.058 0 12.063-3.763 18.059-5.644" stroke="#F5F5F5" stroke-width="5"/><path fill-rule="evenodd" clip-rule="evenodd" d="M70.613 135.398c-.901.176-1.838.269-2.8.269-5.949 0-10.952-3.551-12.403-8.366L0 141.384c1.577 6.205 7.886 9.957 14.091 8.38l56.522-14.366z" fill="#fff"/><path d="M95.939 174.947a2.258 2.258 0 012.257-2.258h64.335a2.258 2.258 0 012.258 2.258h-68.85z" fill="#D0D0D0"/><path d="M112.111 155.76h35.023v10.789c1.629 4.239 3.097 5.431 6.368 6.141h-47.405c3.786-1.644 5.138-2.977 6.014-6.141V155.76z" fill="#D0D0D0"/><path d="M112.869 153.502h34.99v9.029c-13.867-6.426-21.48-6.256-34.99 0v-9.029z" fill="#AFAFAF"/><circle cx="131.492" cy="142.779" r="3.95" fill="#444"/></svg>