<svg width="519" height="482" fill="none" xmlns="http://www.w3.org/2000/svg"><path d="M16.7 182.037l-7 .2s-9.8.6-9.7 10l.1 240.2c0 .6-.1 4.5 2.9 7.4 1.9 1.8 4.1 2.3 5 2.4 2.4 0 4.8-.1 7.1-.1l1.6-260.1z" fill="#000"/><path d="M26.501 182.138c-2.2 0-6.6-.1-12.5 0 0 0-9.4 2.1-8.9 11.1v240.3s.7 8.4 7.7 8.8h.2c2.1.1 87.6-6 325.4-23.4 1.2-.1 4.1-1 6.1-3.4 1.6-2 2-4.6 1.9-6.8.1-1.5.3-6.1 0-11.8-6.2-107-177.2-212.1-319.9-214.8z" fill="#1C1C1C"/><path d="M26.4 197.437c-.8.1-2.7.3-4.4 1.8-2.9 2.4-2.9 6.1-2.9 6.6l-.1 209.4s-.5 10 9.4 9.4l298.2-20.5s7.5-1.2 7.5-5.4.4-195.2.4-195.2.6-7.2-6.8-7.5l-301.3 1.4z" fill="#DEDEDE"/><path d="M338.801 418.938c3.8-.4 7.6-.7 11.3-1.1 1.3-.1 2.8 0 4.4.1.9.1 1.7.2 2.4.3l162.1 21.9v6.3c0 4.3-5.1 5.8-5.1 5.8l-224.4 18.6-52.9 4.3-34.3 2.9s-34.9 2.7-40.3 3.1c-5.4.4-9.5-.6-9.5-.6l-140.9-24.9c-6 .1-6.5-6.4-6.5-6.4v-8.1l333.7-22.2z" fill="#000"/><path d="M5.8 443.237l148.401 25.9s7.9 1.8 10.4.8l329.7-28.8c-21.2-3-42.5-6-63.7-9.1-27.8-4-55.6-7.9-83.4-11.9l-341.4 23.1z" fill="#1C1C1C"/><path d="M429.7 434.537l-282.4 22-90.4-13 286.6-21.4 86.2 12.4z" fill="#000"/><path d="M22.77 112.106c-.093-11.111 8.888-20.168 20-20.168H306.1c11.046 0 20 8.954 20 19.999l.001 183.971c0 10.659-8.36 19.445-19.007 19.975L45.419 328.902c-11.356.565-20.898-8.438-20.994-19.807L22.77 112.106z" fill="#CDCDCD"/><path d="M44.6 150.438h262.001v148l-260 11.5-2-159.5z" fill="#EAEEF6"/><path fill="#C4C4C4" d="M290.601 134.438h18v8h-18z"/><path d="M305.601 150.438h-184c43.144 14.745 67.5 22 88.5 58.5s-2.37 57.149-12 93.5l107.5-4.5v-147.5z" fill="#E7E7E7"/><path d="M247.369 16.267c0-7.86 6.468-14.179 14.325-13.996l208.992 4.85c7.603.176 13.675 6.39 13.675 13.996v156.7c0 7.582-6.036 13.787-13.616 13.995l-208.992 5.732c-7.879.216-14.384-6.112-14.384-13.995V16.267z" fill="#fff" fill-opacity=".65"/><path d="M72.4 307.038c-1.4-6.3-8.8-42.7 13.7-69.2 5.3-6.3 11.3-10.8 16.9-14 7.9-3.1 19.601-7.2 34.201-10.5 27.9-6.2 48.799-5.5 73.799-4.6 26 .9 32.6 3.5 37.5 6.1 14.8 7.9 21.9 20.8 25.5 27.3 12.6 22.7 11.101 45.6 9.701 55.7l-211.3 9.2z" fill="#FFEA39"/><path d="M262.601 23.438l207 3.5v123.5h-207v-127z" fill="#E7E7E7"/><path d="M257.983 257.424c.065-6.975 5.624-12.655 12.596-12.872l167.618-5.197c7.334-.228 13.403 5.656 13.403 12.994v125.989c0 6.819-5.268 12.479-12.069 12.967l-168.868 12.124c-7.575.544-14.002-5.495-13.93-13.089l1.25-132.916z" fill="#fff" fill-opacity=".75"/><path d="M269.4 264.635l169.201-5.198 1.909 119.213-170.579 12.779-.531-126.794z" fill="#E6E6E6"/><path d="M269.598 284.437l169.502-6.999 1.441 102.5-170.943 11.5V284.437z" fill="#E7E7E7"/><path fill="#fff" d="M416 267h18v6h-18z"/><path d="M262.601 50.438l207 3.5v123.5h-207v-127z" fill="#EAEEF6"/><circle cx="267.601" cy="13.438" r="3" fill="#fff"/><circle cx="277.601" cy="13.438" r="3" fill="#fff"/><circle cx="287.601" cy="13.438" r="3" fill="#fff"/><path fill-rule="evenodd" clip-rule="evenodd" d="M95.78 129.091c-9.642 5.017-21.266 7.946-33.78 7.946-33.357 0-60.4-20.819-60.4-46.5s27.043-46.5 60.4-46.5c33.359 0 60.401 20.819 60.401 46.5 0 8.723-3.12 16.884-8.547 23.86 1.62 4.348 4.842 12.994 5.947 15.941 1.5 4-4 2.6-4 2.6l-20.021-3.847z" fill="#fff"/><path fill="#fff" d="M447.601 40.438h18v6h-18z"/><path stroke="#FFEA39" stroke-width="5" stroke-linecap="round" d="M25.101 73.938h73m-73 14h73m-73 14h40"/><path d="M202 149.737l-3.1 17.5s1.7 1.2 5.9-4.6 2.3-11.5 2.3-11.5-1-2.7-5.1-1.4zm-54.704 2.785l7.156 16.339s-1.452 1.576-7.045-3.083c-5.593-4.66-4.969-10.675-4.969-10.675s.397-2.873 4.858-2.581z" fill="#fff"/><path d="M294.616 388.437c0-25.83 20.131-47.185 45.917-48.707l28.194-1.664c25.437-1.502 47.275 17.902 48.776 43.339l-122.887 7.032z" fill="#FFEA39"/><path d="M447.501 151.938c.1-.9.3-2.3.1-4.1-.2-2.1-.9-3.4-2.3-7.3-.9-2.4-1.3-3.6-1.6-4.4-1.5-4.7-1.5-11-1.5-11 0-6.8 1.4-7.3.9-11.7-.4-4.2-2.1-7.6-3.7-10-1-1.8-2.6-4.3-5.1-6.9-3.5-3.7-5.1-3.7-8.8-7.1-2-1.9-5.2-5.4-7.7-10.6-1.9-4.1-2.7-7.8-3-10.4-1-4.3-1.2-6.6-2.4-10.5-1-3.1-2.2-5.6-3-7.1-.6-1.6-2.2-5.1-5.8-8-3.8-3-7.7-3.7-9.4-4h-9.7c-5.7 0-6.6.1-7.9-.3-4.9-1.6-6.4-5.1-9.9-8-6.8-5.8-18.4-7.2-21.1-3.7-2.4 3.1 1.5 11.4 9.1 19.7 0 0 5.9 9.1-7.6 11.3-13.5 2.2-19.5 12.8-19.5 12.8s-7 6.6-2.3 11.3c4.7 4.7 14.7 14 14.7 14l12.1 16.2 58.8 39.8 23.8 11.4 12.8-11.4z" fill="#000"/><path d="M323.01 138.438s9.618-6.679 18.305-8.221c8.687-1.541 19.132-13.152 12.41-22.297-6.723-9.145-9.205-15.515-20.684-21.886-11.479-6.37 2.275-19.112 2.275-19.112s12.721-9.042 18.409-9.145c5.584-.102 12.306-9.967 3.929-12.844-8.376-2.877-12.053-17.995-12.053-17.995s-1.598 1.76-1.908 7.104c-.31 5.24-5.688 12.33-5.688 12.33-.931 1.027-2.482 2.466-4.757 3.288-3.62 1.336-5.998.205-9.928.103-7.032-.206-12.513 3.288-13.961 4.212-4.24 2.877-6.619 6.782-7.963 9.762-.724 1.644-1.655 4.315-1.758 7.604-.517 9.453 4.447 15.926 10.858 23.016 17.374 19.317 12.514 44.081 12.514 44.081zm-120.009 12.4c-.8 2.4-1.2 4.3-1.9 8.2-1 5.5-1.5 10.1-1.7 13.4l-.8 10.2s-.5 7.9-12.1 9.4c-2.9.7-7 1.4-12.1 1.1-4.9-.3-8.8-1.5-11.5-2.5-1-.6-2.5-1.7-3.9-3.4-1.7-2-2.6-4.2-3.5-7.5-1.3-4.6-1.6-7.5-2.1-9.7-1.3-6.6-4.3-11.1-8.8-17.9-3.6-5.4-3.8-4.5-8-10.7-7-10.6-6.9-14.1-6.7-15.5.4-3 2-6.4 4.4-8.9 1.5-1.5 1.9-1.3 3.2-2.6 3.8-3.7 2.4-7.9 4.6-12.7 2.1-4.6 6.8-8.5 11.8-9.6 4.6-1 10.9-.1 14.6 3.7 2.3 2.3 4.4 6.3 8.4 8.7.5.3 1.3.7 2.3.8 2.4.2 3.9-1.8 5.8-3.1 4-2.7 10.3-3.2 13.2-.5 1.1 1.1 2.2 3.1 1.9 5-.2 1.7-1.3 2.3-1.4 4.5-.1.8-.2 2.1.4 3.2.9 1.7 2.3 2.9 6.7 3.4 10.7 1.3 5.8 13.4 5.8 13.4-.5 1.1-1.3 3.1-2.3 5.4-3 7.4-4.6 9.2-6.3 14.2z" fill="#000"/><path d="M183.7 125.037c-.1 1-.6 3.9-3 5.9-2.2 1.9-4.9 1.9-6.9 2-3.5.1-3.9-1.1-7.4-1.2-1.2 0-5.6-.2-8.7 2.3-.7.6-2.5 2.3-3.7 9.2-1.1 6.5-2.5 14.8 2.1 20.2.8 1 2.9 3.5 6.1 3.8 1.3.1 2.3-.1 3-.4 1.6-.6 4.4-1.5 7.9-1.8 6.3-.6 8.8 1.2 14.5-.1 2.1-.5 4.9-1.1 7.5-3.4 3.5-3.1 4.3-7.2 4.6-8.9.4-2.6.8-7.3-1.2-12.7-3.6-10.2-13.1-14.2-14.8-14.9zm162.801 195.301c.5 2.8.7 5.1.7 6.8.1 3.8.1 7.3-2 10.8-.7 1.2-1.5 2.1-2 2.6-.4.3-.9.8-1.7 1.3-1.3 1-1.5 1-1.5 1.2-.2 1.2 7.8 5.2 16.3 4.7 2.8-.2 7.9-1 13.6-4.9.3-.3.6-.8.5-1.2-.1-.6-.7-.9-.8-1-1.6-1-4.2-6.2-4.9-7.7-2.4-5.3-2.3-11.3-2.3-13.2-5.3.1-10.6.3-15.9.6z" fill="#fff"/><path d="M341.018 310.442l2.721 9.749s1.612 4.132 6.247 3.073l11.487-.53s4.937.318 5.441-2.967l3.224-10.597s3.829.848 4.736-2.755c.806-1.801 1.209-3.285 1.411-4.45.302-1.802.604-3.603-.202-5.298-.201-.53-.705-1.378-1.612-1.59-1.008-.318-2.217.318-3.124 1.59 0 0 .404-13.564-3.526-14.094-3.93-.635-25.09 1.166-25.09 1.166s-7.154 3.285-1.713 17.378c-.302-2.013-1.411-3.603-3.023-4.026-1.007-.318-1.814 0-2.317.105-.605.424-1.008.954-1.31 1.378-2.116 3.391.806 8.477.907 8.689.403.53 1.108 1.59 2.418 2.331 1.41.742 2.72.848 3.325.848z" fill="#fff"/><path d="M168.101 172.037c.8.7 3.9 3 8.4 2.9 4.8 0 7.9-2.7 8.6-3.3-2.1.6-5.1 1.3-8.7 1.4-3.3 0-6.2-.5-8.3-1z" fill="#070707"/><path d="M143.631 293.523a9.3 9.3 0 10-1.111-18.567 9.3 9.3 0 001.111 18.567zm42.125-2.524a9.3 9.3 0 10-9.839-8.727 9.3 9.3 0 009.839 8.727zm41.426-2.48a9.3 9.3 0 10-1.111-18.567 9.3 9.3 0 001.111 18.567z" fill="#fff"/><path d="M176.601 205.538c-4.3 1.3-8.8 2.5-13.5 3.7-4.9 1.2-9.6 2.3-14.2 3.3-.1 0-1.9.6-2.4 2.4-.3 1.2.2 2.1.3 2.4 3.6 5.2 7 9.9 9.9 13.8 3.3 4.5 7.1 9.5 13.1 14.6 3.8 3.2 6 4.3 8.3 4.3 1.9 0 4.2-.7 8.8-4.8 3.6-3.3 5.5-5.2 9.8-11.4 4.9-7.1 8.7-12.8 11.4-16.5.8-1.1 2.6-3.7 1.7-5.5-.4-.8-1.1-1.2-1.7-1.4-3.7-1.2-7.9-2.3-12.6-3.1-7.1-1.5-13.5-1.9-18.9-1.8z" fill="#000"/><path d="M164.401 190.838c.7 2.8 1.5 7.7.4 13.6-.8 4.4-2.3 7.8-3.6 10l17.8 18.8 17.8-23.2s-6.6-8.3-5.2-19c-9 0-18.1-.1-27.2-.2z" fill="#fff"/><path d="M366.701 55.238s4.9 9-2 10.6c0 0-23 4-20.5 12.6.9 4.2 1.9 7.6 2.8 10.2 1.6 4.7 2.9 7.1 3.5 8.1 0 0 .1.1.2.3 1.6 2.6 4 6.6 7.2 8.3 4.2 2.2 9.6.3 12.5-1.7 3.6-2.4 5.2-5.9 6.3-8.3 1.1-2.3 1.5-4.2 1.8-5.4.8-3.6 2.1-9.7 3.5-18.2-.9.2-2.4.5-4.3.2-3.1-.5-6.9-2.6-7.3-5.4-.2-1.1.4-1.1.7-4 .2-2.1.4-3.1-.1-4.1-.8-2.2-3.3-3-4.3-3.2z" fill="#EBEBEB"/><path d="M355.9 100.837c-.1.3-.1.5-.2 3.9 0 1.5-.1 3-.1 4.4-.1 2.1-.9 5.5-4.5 11.7-1.3 2-2.7 3.2-3.7 3.9-1.3.9-2.6 1.6-3.2 1.8-2.6 1.2-3.4.8-4.7 1.9-.2.2-1.5 1.4-1.6 3 0 1.8 1.6 3.1 2.2 3.6 3 2.5 10.8 10 21.8 20.6 0 0 4 4.8 7.1 0 8.9-11.8 14.4-17.8 18-20.9 1-.9 3.7-3.1 3.3-5.5-.3-1.9-2.4-3-3.7-3.6-1.1-.4-2.5-1-4-2-2.8-1.8-4.5-3.9-5.4-5.1-.6-.7-2.9-3.8-4.4-8.5-.3-1.1-.9-2.9-1.1-5.4-.3-2.8.2-3.2-.3-4.1-1.9-3.7-13.9-3.5-15.5.3z" fill="#EBEBEB"/><path d="M339.701 290.237c-.4 1.8-.2 3.3 0 4.6.3 2.1.8 2.8 1.1 5.3.1.9.2 2.1-.1 2.2-.1 0-.3 0-1.8-2.6-.9-1.5-1.3-2.3-1.4-2.8-.2-.7-.4-2.1.3-4.1 0-1.1-.1-2.7-.6-4.5-.8-2.9-1.8-3.3-2.8-5.9-.5-1.4-2-5.4-.2-8.9.9-1.8 2.5-2.8 3.4-3.4 1.1-.9 2.2-1.8 3.2-2.7-.2-2.2.8-4.2 2.4-5 1.3-.7 2.8-.4 2.9-.3.5.1 1.4.3 1.9 1 .9 1.2.1 2.6.8 3.1.5.3 1.3-.1 2.1-.6.5-.3 1.3-.8 2.9-2.4 1.4-1.4 1.8-2 2.7-2.1.2 0 .7-.1 1.2.2.4.2.5.5 1 1.4.8 1.4.9 1.5 1 1.6.7.5 1.8 0 2.5-.3 2.1-.9 2.4-2.1 4.1-2.4.4-.1 1.1-.2 1.5.2.6.5.1 1.3.6 2.1.4.8 1.2.8 3.2 1.5 2.3.8 3.8 1.4 4.4 2.7.1.2.4.9.2 1.7-.2.7-.5.8-1 1.7-.2.4-.7 1.2-.7 2.1 0 1.1.7 1.2 1.2 2.8.1.5.5 1.5.3 2.6s-.6 1.4-1.4 2.8c-.9 1.6-1.7 3-1.8 4.7 0 1.4.5 1.7.3 3.2-.1.9-.3 1.3-.9 2.6-.7 1.8-1.3 3.3-1.6 4.6-.2 1-.4 2.6 0 4.6l-1.3.4c.2-3.1.3-6.1.5-9.2.1-2.5-.6-4.3-1-5.3-.6-1.4-1.3-2.8-2.7-3.5-1-.4-1.8-.3-4.1.1-1.9.3-3.7.7-5.6 1-2.7.5-4.9.5-9.3.5-3.6 0-5-.2-6.1.9-.8 1.3-1.1 2.8-1.3 3.8zm96.9-118.799c2.327-1.658 3.144-3.633 6-7.5 3.384-4.531 4.153-9.517 5-12.5 0 0-11.741 11.049-22 3.093l11 16.907z" fill="#000"/><path d="M300.33 178.214c-.609-28.213 21.769-51.579 49.983-52.188l32.304-.697c29.519-.638 54.025 22.657 54.883 52.171l-137.17.714z" fill="#FFEA39"/></svg>