<svg width="220" height="204" fill="none" xmlns="http://www.w3.org/2000/svg"><path d="M108.117 17.548a.254.254 0 01.217.007.261.261 0 01.108.347c-.159.303-.31.606-.462.91a.255.255 0 01-.346.115.255.255 0 01-.116-.346c.152-.311.31-.614.469-.925a.242.242 0 01.13-.108z" fill="#44464B"/><path d="M123.066 3.448a.26.26 0 01.332.13c.058.13 0 .281-.129.34-.6.274-1.191.562-1.769.873a.254.254 0 01-.346-.108.254.254 0 01.108-.347 29.739 29.739 0 011.797-.888c.007.007.007.007.007 0zm3.01-1.185c.008 0 .015-.007.015-.007a30.88 30.88 0 011.92-.585.264.264 0 01.318.18.258.258 0 01-.181.318c-.635.173-1.27.361-1.891.57a.258.258 0 01-.325-.158.256.256 0 01.144-.318zm-7.564 3.742a.26.26 0 01.31.094.25.25 0 01-.072.353 32.02 32.02 0 00-1.603 1.156.254.254 0 01-.36-.05.255.255 0 01.05-.362 29.419 29.419 0 011.631-1.17c.015-.007.029-.021.044-.021zm12.639-4.999c.022-.007.036-.014.058-.014a30.574 30.574 0 011.992-.26.253.253 0 01.281.23.253.253 0 01-.231.282c-.656.065-1.313.152-1.956.253a.26.26 0 01-.296-.21.254.254 0 01.152-.28zm-16.718 8.256a.27.27 0 01.289.058.26.26 0 01-.007.361l-.137.13a34.43 34.43 0 00-1.263 1.272.26.26 0 01-.361.014.26.26 0 01-.015-.361c.412-.44.845-.874 1.285-1.293l.137-.13c.015-.022.044-.036.072-.05zM136.355.587a.23.23 0 01.101-.022c.664 0 1.343.022 2.007.065.144.008.245.13.238.275a.253.253 0 01-.274.238 30.096 30.096 0 00-1.971-.065.248.248 0 01-.252-.26c-.008-.1.057-.188.151-.23zM110.933 13.15a.248.248 0 01.252.036.256.256 0 01.051.36c-.397.52-.787 1.063-1.148 1.612a.256.256 0 01-.354.072.257.257 0 01-.072-.354 29.01 29.01 0 011.17-1.633.158.158 0 01.101-.094zM141.56 1.027c.043-.015.093-.022.137-.015.657.109 1.321.246 1.97.39a.263.263 0 01.195.31.263.263 0 01-.31.196 33.83 33.83 0 00-1.935-.383.26.26 0 01-.209-.296.247.247 0 01.152-.202zm5.06 1.278a.258.258 0 01.18-.007c.628.217 1.263.455 1.877.708.13.058.195.202.137.332-.058.13-.202.195-.332.137a33.314 33.314 0 00-1.848-.7.25.25 0 01-.159-.325.284.284 0 01.145-.145zm4.778 2.095a.246.246 0 01.224.014c.585.318 1.169.658 1.732 1.005a.25.25 0 01.08.353.25.25 0 01-.354.08 33.4 33.4 0 00-1.704-.99.253.253 0 01-.101-.346.24.24 0 01.123-.116zm4.374 2.846a.249.249 0 01.253.036c.527.412 1.047.838 1.545 1.279a.253.253 0 01.021.36.253.253 0 01-.361.023 27.69 27.69 0 00-1.523-1.257.254.254 0 01-.043-.361.516.516 0 01.108-.08zm3.855 3.532a.25.25 0 01.289.065c.454.492.902.997 1.321 1.51a.26.26 0 01-.037.361.26.26 0 01-.36-.036 31.501 31.501 0 00-1.3-1.488.253.253 0 01.015-.361.12.12 0 01.072-.05zm3.234 4.103a.26.26 0 01.31.094c.368.556.722 1.127 1.054 1.705a.26.26 0 01-.094.354.26.26 0 01-.354-.094 36.153 36.153 0 00-1.039-1.683.257.257 0 01.072-.354c.022-.007.036-.015.051-.022zm2.519 4.58a.26.26 0 01.332.13 33.815 33.815 0 01.758 1.864.252.252 0 01-.145.325h-.007a.256.256 0 01-.332-.152c-.13-.347-.267-.7-.411-1.048a37.61 37.61 0 00-.34-.78.264.264 0 01.145-.34c-.007 0 0 0 0 0z" fill="url(#paint0_linear_1512_9405)"/><path d="M167.113 24.41c.014-.008.021-.008.036-.015a.251.251 0 01.31.18c.087.333.166.672.245 1.005a.266.266 0 01-.194.31.267.267 0 01-.311-.195 21.2 21.2 0 00-.238-.99.258.258 0 01.152-.295zm-3.487 24.458a.261.261 0 01.231.015.258.258 0 01.087.354c-.181.296-.361.592-.549.88a.265.265 0 01-.354.08.26.26 0 01-.079-.354c.188-.289.361-.577.541-.866a.254.254 0 01.123-.109zm-57.631-6.436c.007 0 .015-.007.022-.007a.257.257 0 01.325.166c.216.657.454 1.315.714 1.965a.255.255 0 01-.137.332.253.253 0 01-.332-.144 38.762 38.762 0 01-.729-1.994.246.246 0 01.137-.318zm2.173 5.07c.123-.05.26 0 .325.116a30.11 30.11 0 001.046 1.806.262.262 0 01-.079.354.264.264 0 01-.354-.08 31.031 31.031 0 01-1.061-1.834.255.255 0 01.108-.347c-.007-.007.008-.007.015-.014zm3.01 4.624a.26.26 0 01.303.08c.426.541.881 1.083 1.343 1.603a.254.254 0 01-.022.361.253.253 0 01-.361-.022 36.2 36.2 0 01-1.364-1.625.262.262 0 01.043-.361.159.159 0 01.058-.036zm3.761 4.038a.273.273 0 01.274.043c.512.462 1.047.917 1.595 1.35.108.087.13.254.043.362a.26.26 0 01-.36.043 28.57 28.57 0 01-1.617-1.372.253.253 0 01-.022-.361.254.254 0 01.087-.065zm4.396 3.33a.257.257 0 01.238.021 27.9 27.9 0 001.804 1.048.251.251 0 01.101.346.251.251 0 01-.346.102 31.313 31.313 0 01-1.834-1.07.25.25 0 01-.079-.353.364.364 0 01.116-.094zm4.908 2.52a.26.26 0 01.195 0c.642.26 1.299.506 1.956.723a.257.257 0 01.166.325.256.256 0 01-.325.166 31.145 31.145 0 01-1.985-.737.258.258 0 01-.144-.332.21.21 0 01.137-.144zm5.262 1.626a.218.218 0 01.152-.014 34.09 34.09 0 002.05.375.258.258 0 01.216.289.258.258 0 01-.289.217 29.39 29.39 0 01-2.086-.383.257.257 0 01-.195-.303.293.293 0 01.152-.181zm31.573-11.131a.255.255 0 01.296.397 33.01 33.01 0 01-1.386 1.604.253.253 0 01-.361.014.26.26 0 01-.015-.361 31 31 0 001.365-1.582.319.319 0 01.101-.072zM134.976 64.34a.296.296 0 01.109-.022c.693.029 1.393.036 2.086.014.144 0 .26.109.26.253 0 .145-.109.26-.253.26-.7.015-1.415.015-2.122-.014a.254.254 0 01-.246-.267.288.288 0 01.166-.224zm22.276-7.852a.255.255 0 01.289.065.26.26 0 01-.022.361c-.527.462-1.083.917-1.638 1.343a.256.256 0 01-.361-.05.255.255 0 01.05-.361c.549-.42 1.09-.867 1.617-1.322a.183.183 0 01.065-.036zm-16.761 7.599a.215.215 0 01.065-.015c.686-.094 1.379-.21 2.057-.34a.26.26 0 01.304.203.261.261 0 01-.203.304c-.693.137-1.393.252-2.093.346-.137.022-.267-.08-.289-.224a.263.263 0 01.159-.274zm12.315-4.334a.253.253 0 01.317.1.258.258 0 01-.086.355c-.6.368-1.22.715-1.848 1.04a.253.253 0 01-.347-.108.261.261 0 01.108-.347 29.614 29.614 0 001.819-1.026c.015-.007.022-.014.037-.014zm-6.93 3.142c.007 0 .014-.007.022-.007.664-.21 1.321-.44 1.97-.694.13-.05.282.015.332.145.051.13-.014.267-.144.332-.657.253-1.328.491-2 .7a.261.261 0 01-.324-.166.249.249 0 01.144-.31zm-40.964-24.797a.135.135 0 01.051-.014.255.255 0 01.296.21c.058.331.123.664.195 1.003a.256.256 0 01-.195.303.256.256 0 01-.303-.194c-.073-.34-.137-.68-.195-1.019-.029-.123.043-.238.151-.289zm7.017-4.139a.384.384 0 00.238.376l4.309 1.762a20.277 20.277 0 002.166 6.205l-2.267 4.067a.382.382 0 00.051.44l3.717 4.168a.39.39 0 00.433.101l4.288-1.798a20.263 20.263 0 005.919 2.853l1.27 4.478a.37.37 0 00.347.275l5.572.31a.385.385 0 00.375-.238l1.762-4.312a20.272 20.272 0 006.2-2.167l4.064 2.268a.38.38 0 00.44-.05l4.165-3.72a.39.39 0 00.101-.434l-1.797-4.29a20.274 20.274 0 002.851-5.924l4.475-1.271a.37.37 0 00.275-.347l.31-5.576a.385.385 0 00-.238-.376l-4.309-1.762a20.33 20.33 0 00-2.166-6.205l2.267-4.067a.384.384 0 00-.051-.44l-3.717-4.169a.39.39 0 00-.433-.1l-4.288 1.798a20.263 20.263 0 00-5.919-2.853l-1.27-4.479a.372.372 0 00-.347-.274l-5.572-.31a.386.386 0 00-.376.237l-1.761 4.313a20.266 20.266 0 00-6.2 2.167l-4.064-2.268a.383.383 0 00-.441.05l-4.164 3.72a.392.392 0 00-.102.434l1.798 4.29a20.274 20.274 0 00-2.851 5.924l-4.476 1.27a.37.37 0 00-.274.348l-.31 5.576z" fill="#44464B"/><path d="M134.558 27.733a5.207 5.207 0 014.922.49 5.195 5.195 0 012.202 3.33 5.19 5.19 0 01-.801 3.916 5.194 5.194 0 01-3.328 2.203 5.177 5.177 0 01-3.912-.802 5.226 5.226 0 01-1.4-7.245 5.137 5.137 0 012.317-1.892zm3.818 9.152a4.67 4.67 0 002.086-1.712c.7-1.04.96-2.297.722-3.526a4.688 4.688 0 00-1.985-3.004 4.705 4.705 0 00-6.525 1.264 4.713 4.713 0 001.263 6.53c1.039.7 2.295.96 3.522.722.318-.058.621-.152.917-.274z" fill="url(#paint1_linear_1512_9405)"/><path d="M131.411 19.86c5.241-2.175 11.521-.94 15.512 3.531a13.526 13.526 0 012.44 3.88c2.173 5.243.938 11.528-3.53 15.522a13.638 13.638 0 01-9.918 3.475 13.637 13.637 0 01-9.47-4.566 13.604 13.604 0 01-1.581-2.16 3.353 3.353 0 01-.122-.216c-.008-.007-.008-.022-.015-.029-.05-.115 0-.26.108-.325a.25.25 0 01.347.094 13.094 13.094 0 001.646 2.283 13.103 13.103 0 009.116 4.391 13.15 13.15 0 009.55-3.344c4.295-3.843 5.493-9.889 3.4-14.938a13.113 13.113 0 00-2.353-3.734c-4.858-5.44-13.231-5.91-18.659-1.048a13.246 13.246 0 00-3.812 5.923.255.255 0 01-.324.166.261.261 0 01-.159-.144.24.24 0 01-.008-.173 13.687 13.687 0 013.963-6.155 13.528 13.528 0 013.869-2.434z" fill="url(#paint2_linear_1512_9405)"/><path d="M172.468 42.67l2.483.795a11.4 11.4 0 001.487 3.373l-1.09 2.37a.22.22 0 00.043.245l2.267 2.16c.065.065.166.08.245.036l2.317-1.199a11.427 11.427 0 003.436 1.33l.91 2.448a.204.204 0 00.209.137l3.126-.072a.218.218 0 00.202-.152l.794-2.484a11.404 11.404 0 003.371-1.488l2.367 1.09a.22.22 0 00.246-.043l2.158-2.268a.209.209 0 00.036-.246l-1.198-2.319a11.453 11.453 0 001.328-3.438l2.447-.91a.204.204 0 00.137-.21l-.072-3.127a.217.217 0 00-.152-.203l-2.483-.794a11.4 11.4 0 00-1.487-3.373l1.09-2.37a.22.22 0 00-.043-.245l-2.267-2.16a.208.208 0 00-.245-.036l-2.317 1.199a11.424 11.424 0 00-3.436-1.33l-.909-2.448a.205.205 0 00-.21-.137l-3.125.072a.216.216 0 00-.202.152l-.794 2.485a11.39 11.39 0 00-3.371 1.488l-2.368-1.091a.219.219 0 00-.245.043l-2.159 2.268a.209.209 0 00-.036.246l1.199 2.319a11.43 11.43 0 00-1.329 3.438l-2.447.91a.205.205 0 00-.137.21l.072 3.127a.228.228 0 00.152.203z" fill="#44464B"/><path d="M184.847 37.78a3.028 3.028 0 012.657.16 3.036 3.036 0 01-2.989 5.288 3.04 3.04 0 01-1.147-4.14 3.114 3.114 0 011.479-1.308zm2.137 5.136a2.523 2.523 0 10-2.216-.13 2.525 2.525 0 001.913.238c.108-.036.209-.072.303-.108z" fill="url(#paint3_linear_1512_9405)"/><path d="M169.552 36.654a.223.223 0 01.152-.015.26.26 0 01.195.311 22.39 22.39 0 00-.195.99.251.251 0 01-.296.209.25.25 0 01-.209-.296c.058-.34.123-.686.195-1.026a.337.337 0 01.158-.173z" fill="#44464B"/><path d="M178.965 25.074c.13-.05.274.008.332.13.057.13 0 .282-.13.34-.585.267-1.162.57-1.711.903a.258.258 0 11-.267-.44c.563-.34 1.162-.658 1.761-.933h.015zm3.01-1.04c.014-.007.021-.007.036-.014a16.295 16.295 0 011.956-.354.265.265 0 01.289.224.27.27 0 01-.224.289c-.635.08-1.278.195-1.898.346a.257.257 0 01-.311-.187.256.256 0 01.152-.304zm-7.305 3.858a.254.254 0 01.267.426c-.476.433-.931.895-1.357 1.38a.253.253 0 01-.361.021.254.254 0 01-.022-.361c.433-.499.903-.975 1.393-1.423.029-.015.058-.036.08-.043zm12.415-4.291a.298.298 0 01.116-.022c.664.043 1.328.13 1.978.253a.258.258 0 11-.102.506 16.868 16.868 0 00-1.912-.246.254.254 0 01-.239-.274.256.256 0 01.159-.217zm-15.649 8.278a.26.26 0 01.325.368c-.036.065-.08.13-.116.202a16.825 16.825 0 00-.765 1.525.256.256 0 11-.469-.21c.231-.534.498-1.062.787-1.567.036-.073.079-.138.115-.21a.295.295 0 01.123-.108zm20.651-7.144a.26.26 0 01.195 0c.614.245 1.22.527 1.805.838a.252.252 0 01.101.346.252.252 0 01-.347.102 17.418 17.418 0 00-1.754-.817.26.26 0 01-.144-.332.297.297 0 01.144-.137zm4.425 2.6a.26.26 0 01.26.036c.513.42 1.011.874 1.473 1.344a.253.253 0 01-.008.361.253.253 0 01-.361-.007 17.201 17.201 0 00-1.422-1.308.255.255 0 01-.036-.36.223.223 0 01.094-.066z" fill="url(#paint4_linear_1512_9405)"/><path d="M199.955 31.157a.258.258 0 01.31.094c.188.288.368.585.542.888a.26.26 0 01-.448.26 16.903 16.903 0 00-.527-.867.257.257 0 01.072-.354c.022-.014.036-.021.051-.021zm2.238 13.262a.242.242 0 01.159-.015.256.256 0 01.187.31c-.086.34-.18.673-.281 1.005a.257.257 0 01-.325.166.257.257 0 01-.166-.325c.101-.318.195-.65.274-.975a.251.251 0 01.152-.166zm-28.88 7.006a.254.254 0 01.288.065c.419.477.866.932 1.336 1.351.108.094.115.26.021.361a.253.253 0 01-.361.022 16.825 16.825 0 01-1.378-1.394.253.253 0 01.094-.405zm3.868 3.244a.26.26 0 01.231.014c.159.094.311.188.47.275.389.224.794.433 1.205.62.13.059.188.21.123.34a.248.248 0 01-.339.123 19.99 19.99 0 01-1.242-.636 10.842 10.842 0 01-.484-.288.258.258 0 01-.086-.354.4.4 0 01.122-.094zm23.51-6.379a.231.231 0 01.217.015.26.26 0 01.108.347c-.058.108-.115.216-.18.325-.26.462-.549.917-.845 1.35a.262.262 0 01-.361.065.263.263 0 01-.065-.36c.289-.42.571-.86.823-1.308.058-.101.116-.21.173-.31a.27.27 0 01.13-.124zm-18.854 8.336a.244.244 0 01.159-.014 16.91 16.91 0 001.862.354.264.264 0 01.224.289.265.265 0 01-.289.223 17.776 17.776 0 01-1.927-.368.257.257 0 01-.188-.31.292.292 0 01.159-.174zm15.823-4.29a.256.256 0 01.281.057.253.253 0 010 .361c-.462.456-.96.889-1.472 1.293a.26.26 0 01-.361-.043.26.26 0 01.043-.361c.498-.39.982-.81 1.429-1.25a.153.153 0 01.08-.057zm-10.799 4.767l.087-.022a16.52 16.52 0 001.884-.217.26.26 0 01.296.21.26.26 0 01-.21.296c-.642.108-1.299.188-1.949.224a.263.263 0 01-.274-.238c0-.116.065-.21.166-.253zm6.706-1.82c.123-.05.267 0 .325.122a.259.259 0 01-.109.347c-.397.202-.808.39-1.219.564h-.008c-.187.079-.375.151-.563.223a.256.256 0 01-.332-.151.263.263 0 01.152-.332c.188-.073.375-.145.556-.217.397-.166.801-.354 1.183-.55 0 0 .008 0 .015-.006zm-22.587-7.31a.252.252 0 01.325.122c.152.304.318.6.484.889a.26.26 0 01-.448.26 14.346 14.346 0 01-.498-.917.255.255 0 01.116-.347c.007 0 .014 0 .021-.007z" fill="#44464B"/><path d="M183.079 33.367c2.772-1.148 6.085-.643 8.388 1.56a7.824 7.824 0 011.819 2.644c1.148 2.774.642 6.09-1.559 8.4-2.974 3.114-7.926 3.23-11.037.26a10.09 10.09 0 01-.397-.404 7.877 7.877 0 01-.606-.758c-.022-.036-.051-.072-.072-.108-.008-.015-.022-.03-.022-.044a.264.264 0 01.094-.31.254.254 0 01.354.065 7.308 7.308 0 009.737 2.196 7.61 7.61 0 001.473-1.142l.057-.058.051-.05c2.057-2.153 2.526-5.252 1.458-7.845a7.182 7.182 0 00-1.696-2.47c-2.909-2.781-7.536-2.673-10.308.238a7.346 7.346 0 00-1.841 3.424.26.26 0 01-.491.043.228.228 0 01-.014-.151 7.847 7.847 0 011.963-3.67 7.85 7.85 0 012.649-1.82z" fill="url(#paint5_linear_1512_9405)"/><path d="M110.608 162.556H92.519v18.102h18.089v-18.102z" fill="url(#paint6_linear_1512_9405)"/><path d="M2.637 162.881a3.55 3.55 0 003.544 3.54H197.69a3.554 3.554 0 003.544-3.54l1.595-110.134c0-1.95-2.295-5.75-6.496-5.461L9.162 42.432a8.928 8.928 0 00-6.54 2.607 8.922 8.922 0 00-2.62 6.53l2.635 111.312z" fill="#1D2024"/><path d="M6.13 157.457c0 1.813 1.51 3.293 3.35 3.293h183.59c1.841 0 3.349-1.48 3.349-3.293l1.502-98.31c-.181-5.916-5.45-8.04-8.64-7.917L9.892 46.49a6.323 6.323 0 00-4.592 1.8 6.11 6.11 0 00-1.834 4.514L6.13 157.457z" fill="#314673"/><path d="M194.433 111.949a.458.458 0 01-.454-.462l.115-8.105c.007-.252.209-.433.462-.447.253 0 .455.209.448.462l-.116 8.104a.451.451 0 01-.455.448zm.297-19.871s-.008 0 0 0a.46.46 0 01-.455-.463l.455-31.053c-.008-1.856-.571-3.337-1.675-4.392-2.057-1.972-5.313-1.87-5.457-1.863l-57.327-1.546a.455.455 0 01.014-.91h.014l57.299 1.538c.354-.014 3.797-.08 6.092 2.117 1.285 1.235 1.942 2.932 1.956 5.056l-.454 31.06a.474.474 0 01-.462.456z" fill="#91B3FA"/><path d="M144.151 177.48H59.127a3.038 3.038 0 00-3.031 3.041 2.586 2.586 0 002.577 2.586h85.478c1.422 0 2.389-1.033 2.389-2.463v-.455c0-1.423-.96-2.709-2.389-2.709z" fill="#292B2F"/><path d="M101.008 117.078c31.932 0 57.818-14.298 57.818-31.934 0-17.638-25.886-31.935-57.818-31.935S43.19 67.506 43.19 85.143s25.886 31.935 57.818 31.935z" fill="#38538F"/><path d="M75.277 91.89a.5.5 0 00.5.5h13.661v5.364a.5.5 0 00.5.5h4.647a.5.5 0 00.5-.5V92.39h4.073a.5.5 0 00.5-.5v-4.056a.5.5 0 00-.5-.5h-4.073v-4.7a.5.5 0 00-.5-.5h-4.5a.5.5 0 00-.5.5v4.7h-6.938L94.025 72.24a.5.5 0 00-.399-.8H88.5a.5.5 0 00-.397.196L75.38 88.268a.5.5 0 00-.103.303v3.32zm33.037-7.944V71.94a.5.5 0 00-.5-.5h-4.795a.5.5 0 00-.5.5v25.815a.5.5 0 00.5.5h4.795a.5.5 0 00.5-.5v-6.41l3.583-3.666 8.736 10.398a.5.5 0 00.383.178h5.605a.5.5 0 00.389-.814L115.763 83.5l10.558-11.217a.5.5 0 00-.364-.843h-5.384a.499.499 0 00-.36.154l-11.899 12.353z" fill="#fff" stroke="#fff" stroke-linejoin="round"/><path d="M23.974 85.007c8.981 0 16.262-7.287 16.262-16.275 0-8.987-7.28-16.274-16.262-16.274S7.71 59.745 7.71 68.733c0 8.987 7.281 16.274 16.263 16.274z" fill="#38538F"/><path d="M26.796 58.613a.695.695 0 00-.924.657v12.48c-.945-.78-2.266-1.263-3.724-1.263-2.873 0-5.205 1.863-5.205 4.168 0 2.297 2.332 4.168 5.205 4.168s5.204-1.864 5.204-4.168c0-.022 0-.036-.007-.058h.007v-12.41c2.057.31 3.458 1.878 4.28 3.157.347.534 1.17.267 1.134-.369-.21-3.871-4.136-5.713-5.97-6.363z" fill="#7389BA"/><path d="M48.595 56.908c9.36 0 16.949-7.594 16.949-16.96 0-9.368-7.588-16.961-16.949-16.961-9.36 0-16.948 7.593-16.948 16.96s7.588 16.96 16.948 16.96z" fill="#38538F"/><path d="M48.978 49.699c-.166 0-.332-.007-.505-.014-5.739-.253-10.221-4.826-9.99-10.2.115-2.615 1.313-5.013 3.37-6.768 2.043-1.741 4.7-2.63 7.471-2.514 5.739.253 10.221 4.825 9.99 10.2-.115 2.607-1.313 5.013-3.37 6.768-1.92 1.64-4.375 2.528-6.966 2.528zm-.152-18.123c-2.259 0-4.403.773-6.077 2.196-1.769 1.502-2.794 3.553-2.888 5.778-.202 4.616 3.689 8.545 8.677 8.762 2.425.101 4.742-.672 6.518-2.181 1.768-1.503 2.793-3.554 2.887-5.786.202-4.616-3.688-8.546-8.676-8.762-.145-.007-.296-.007-.44-.007z" fill="#7389BA"/><path d="M51.39 39.99c0 1.597-.11 3.2-.39 4.776-.073.39-.152.787-.253 1.17-.101.39-.21.773-.354 1.148a5.184 5.184 0 01-.527 1.084 2.365 2.365 0 01-.39.462c-.08.065-.166.123-.26.166a.732.732 0 01-.606.014.967.967 0 01-.26-.158 2.202 2.202 0 01-.404-.455 5.323 5.323 0 01-.534-1.077 10.583 10.583 0 01-.354-1.148c-.1-.39-.18-.78-.252-1.17a24.028 24.028 0 01-.304-2.377 29.492 29.492 0 01-.079-3.597c.014-.397.036-.802.065-1.2a26.87 26.87 0 01.274-2.383c.065-.397.145-.787.231-1.177.094-.39.202-.773.332-1.156.065-.188.137-.376.224-.556.087-.18.173-.361.289-.528.108-.166.238-.325.39-.454.079-.066.166-.116.26-.16a.693.693 0 01.295-.05c.101 0 .203.029.296.072.094.044.18.094.26.16.159.13.289.28.404.447.231.332.405.693.549 1.069.152.368.267.751.375 1.141.109.383.195.773.275 1.17.317 1.568.447 3.172.447 4.768zm-.116 0c0-.794-.03-1.595-.094-2.383a23.905 23.905 0 00-.31-2.369c-.073-.39-.16-.78-.26-1.163a10.335 10.335 0 00-.361-1.134 5.42 5.42 0 00-.535-1.062 1.898 1.898 0 00-.39-.44 1.097 1.097 0 00-.245-.16.735.735 0 00-.281-.072.748.748 0 00-.282.05 1.07 1.07 0 00-.245.153 1.724 1.724 0 00-.376.447 3.664 3.664 0 00-.274.528 7.41 7.41 0 00-.216.556c-.13.375-.231.758-.318 1.148-.087.39-.159.78-.224 1.17a26.253 26.253 0 00-.252 2.377 37.64 37.64 0 00-.065 2.391c0 .795.021 1.59.086 2.384.058.794.152 1.589.29 2.369.064.39.143.78.245 1.17.093.383.209.766.346 1.142.137.368.296.736.513 1.069.108.166.23.317.382.44.072.058.159.116.245.152a.59.59 0 00.275.05.726.726 0 00.274-.065 1.05 1.05 0 00.238-.158c.145-.13.267-.282.376-.448.216-.333.368-.701.505-1.07.137-.375.245-.758.34-1.14.093-.383.172-.774.237-1.17.137-.788.224-1.576.282-2.37.065-.795.094-1.596.094-2.391z" fill="#7389BA"/><path d="M48.898 49.1a.954.954 0 01-.368-.073 1.307 1.307 0 01-.317-.188 2.229 2.229 0 01-.448-.505 5.45 5.45 0 01-.556-1.127c-.13-.354-.252-.737-.36-1.17a19.95 19.95 0 01-.26-1.192 24.865 24.865 0 01-.31-2.399 29.255 29.255 0 01-.08-3.618c.014-.405.036-.81.065-1.207a27.87 27.87 0 01.281-2.405c.073-.426.152-.816.239-1.192.1-.44.216-.824.339-1.177.072-.217.151-.405.23-.578a3.68 3.68 0 01.304-.556c.144-.217.282-.383.44-.513.109-.087.21-.152.318-.195a1.03 1.03 0 01.39-.073 1.11 1.11 0 01.693.282c.158.13.296.282.447.498.21.304.39.658.578 1.113.137.354.267.73.382 1.163.101.376.195.766.274 1.184.296 1.489.44 3.063.44 4.819 0 1.762-.13 3.337-.396 4.818-.08.426-.159.816-.253 1.191a9.81 9.81 0 01-.36 1.17c-.174.463-.347.824-.55 1.127a2.264 2.264 0 01-.44.513 1.346 1.346 0 01-.31.203 1.11 1.11 0 01-.39.093c0-.007-.014-.007-.022-.007zm-.122-17.662a.497.497 0 00-.173.036.661.661 0 00-.188.116 1.749 1.749 0 00-.332.397 3.852 3.852 0 00-.26.491c-.072.16-.137.34-.21.535-.115.34-.216.708-.31 1.127-.08.36-.151.744-.216 1.155-.116.737-.195 1.51-.246 2.355a39.645 39.645 0 00.015 4.746c.065.845.159 1.61.281 2.347.072.412.152.788.239 1.149.1.419.216.78.332 1.12.158.426.31.75.49 1.018.116.173.224.296.34.39.065.05.13.087.187.116a.423.423 0 00.18.036.47.47 0 00.188-.044c.058-.028.123-.072.188-.122a1.88 1.88 0 00.332-.398c.173-.267.325-.6.484-1.025.122-.333.23-.701.332-1.12.086-.361.166-.737.238-1.156.123-.73.216-1.495.282-2.347a31.575 31.575 0 00-.008-4.739 23.399 23.399 0 00-.303-2.34c-.08-.412-.159-.788-.252-1.149a10.687 10.687 0 00-.354-1.112c-.166-.419-.325-.744-.505-1.011a1.75 1.75 0 00-.347-.398.963.963 0 00-.195-.122.662.662 0 00-.188-.051h-.021z" fill="#7389BA"/><path d="M55.403 39.99a11.752 11.752 0 01-.412 3.049 9.89 9.89 0 01-1.27 2.795c-.29.426-.607.831-.968 1.192-.36.361-.758.694-1.198.968a5.808 5.808 0 01-1.393.643 5.136 5.136 0 01-1.516.224 5.387 5.387 0 01-2.909-.867 6.701 6.701 0 01-1.198-.968 8.16 8.16 0 01-.974-1.192 9.908 9.908 0 01-1.278-2.795 12.19 12.19 0 01-.31-1.51 12.25 12.25 0 01-.101-1.538c0-.513.036-1.033.108-1.539a10.61 10.61 0 01.31-1.51c.282-.99.7-1.943 1.278-2.795.288-.426.613-.83.974-1.192a6.666 6.666 0 011.199-.96 5.524 5.524 0 011.393-.636 5.144 5.144 0 013.032.007c.49.152.96.368 1.392.636.434.274.83.6 1.191.967.361.362.686.766.968 1.192a9.69 9.69 0 011.27 2.796c.274.975.404 2.008.412 3.034zm-.138 0c0-1.018-.13-2.036-.397-3.019a9.786 9.786 0 00-1.227-2.78 8.365 8.365 0 00-.945-1.193 6.612 6.612 0 00-1.177-.967 5.318 5.318 0 00-1.379-.636 5.253 5.253 0 00-1.501-.231c-.505 0-1.01.08-1.501.23a5.84 5.84 0 00-1.38.644 6.83 6.83 0 00-1.169.968 7.545 7.545 0 00-.945 1.191 9.783 9.783 0 00-1.227 2.781 11.916 11.916 0 00-.397 3.02 11.647 11.647 0 00.397 3.02 9.654 9.654 0 001.227 2.773c.274.426.592.823.946 1.192a6.83 6.83 0 001.169.968 5.384 5.384 0 002.866.867c.505 0 1.01-.08 1.494-.232a5.818 5.818 0 001.378-.635 6.82 6.82 0 001.177-.968c.354-.361.671-.766.946-1.192.555-.852.96-1.799 1.234-2.774.289-.99.411-2.008.411-3.026z" fill="#7389BA"/><path d="M48.646 49.1a5.34 5.34 0 01-1.581-.239 6.095 6.095 0 01-1.45-.664 6.98 6.98 0 01-1.235-.997c-.361-.361-.7-.78-1.004-1.228a9.988 9.988 0 01-1.306-2.868 11.98 11.98 0 01-.318-1.546 14.088 14.088 0 01-.108-1.567c0-.535.036-1.062.108-1.575.072-.527.174-1.04.318-1.546a9.99 9.99 0 011.306-2.867 8.39 8.39 0 011.004-1.228c.382-.39.801-.723 1.234-.997a5.972 5.972 0 011.45-.665 5.343 5.343 0 013.163 0 5.98 5.98 0 011.45.665 7.25 7.25 0 011.235.997c.36.368.7.78.996 1.228a10.23 10.23 0 011.306 2.86c.275.99.419 2.037.426 3.113a11.956 11.956 0 01-.418 3.114 10.173 10.173 0 01-1.3 2.867 8.404 8.404 0 01-.996 1.228c-.382.39-.801.723-1.234.997a6.098 6.098 0 01-1.451.665 5.076 5.076 0 01-1.595.252zm0-17.698c-.484 0-.96.072-1.43.217a5.459 5.459 0 00-1.32.614c-.39.253-.773.563-1.134.932-.332.346-.642.73-.916 1.156a9.695 9.695 0 00-1.199 2.708 11.277 11.277 0 00-.281 4.442c.065.506.166.997.289 1.467a9.603 9.603 0 001.198 2.709c.274.426.584.809.916 1.156a6.44 6.44 0 001.134.931c.419.268.866.47 1.314.614a4.83 4.83 0 002.858 0 5.459 5.459 0 001.32-.614c.39-.253.773-.563 1.134-.931.332-.34.643-.73.924-1.156a9.824 9.824 0 001.205-2.709c.253-.939.39-1.929.39-2.954 0-1.026-.13-2.016-.39-2.955a9.513 9.513 0 00-1.198-2.709 7.296 7.296 0 00-.924-1.155 6.412 6.412 0 00-1.133-.932 5.459 5.459 0 00-1.32-.614 5.13 5.13 0 00-1.437-.217z" fill="#7389BA"/><path d="M40.764 36.48l2.028-.014 2.029-.008 4.056-.007 4.057.007 2.028.008 2.029.014s.007 0 .007.007c0 0 0 .008-.007.008l-2.029.014-2.028.007-4.057.007-4.056-.007-2.029-.007-2.028-.014c-.007 0-.007-.008-.007-.008 0-.007 0-.007.007-.007z" fill="#7389BA"/><path d="M48.877 36.762l-6.085-.015-2.13-.022-.143-.137v-.108l.007-.224.23-.007 4.065-.03 4.056-.006 6.092.021 2.26.015.007.47-.238.006-4.057.03-4.064.007zm-5.76-3.698c.483-.008.96-.015 1.443-.015l1.444-.007c.483-.007.96 0 1.444-.007h1.443l2.88.007 1.444.007c.483.007.96.007 1.444.015h.007c0 .007 0 .007-.007.007-.484.007-.96.014-1.444.014l-1.444.008-2.88.007h-1.444c-.483 0-.96 0-1.443-.008l-1.444-.007c-.483-.007-.96-.007-1.443-.014-.008 0-.008-.007-.008-.007 0 .007 0 0 .008 0z" fill="#7389BA"/><path d="M48.877 33.352h-1.812c-.354 0-.715 0-1.068-.007l-1.92-.014c-.318 0-.643-.008-.96-.015l-.231-.007-.008-.47.239-.007c.31-.007.62-.007.93-.014l1.957-.015c.34 0 .678 0 1.018-.007l1.87-.007 4.85.021c.303 0 .613.008.917.015l.238.007-.007.47-.231.007c-.318.007-.636.007-.96.014l-1.92.015-2.902.014zm-8.821 6.545l2.21-.015 2.208-.007 4.41-.007 4.41.007 2.21.007 2.208.015s.008 0 .008.007c0 0 0 .007-.008.007l-2.208.015-2.21.007-4.41.007-4.41-.007-2.209-.007-2.209-.015c-.007 0-.007-.007-.007-.007 0-.007 0-.007.008-.007z" fill="#7389BA"/><path d="M48.877 40.178l-6.62-.014-2.432-.022-.007-.47.238-.014 4.41-.021 4.41-.008 6.62.015 2.302.022.145.144-.014.325-.232.007-4.41.03-4.41.006zm-8.113 3.128l2.028-.014 2.029-.007 4.056-.007 4.057.007 2.028.007 2.029.014h.007c0 .008 0 .008-.007.008l-2.029.014-2.028.007-4.057.008-4.056-.008-2.029-.007-2.028-.014c-.007 0-.007-.008-.007-.008 0 .008 0 0 .007 0z" fill="#7389BA"/><path d="M48.877 43.595l-6.085-.021-2.13-.015-.143-.144v-.102l.007-.23.23-.008 4.065-.029 4.056-.007 6.092.022 2.26.021.007.47-.238.007-4.057.022-4.064.014zm6.056 3.165H43.405c-.014 0-.029-.015-.029-.03 0-.014.015-.029.03-.029h11.527c.014 0 .029.015.029.03 0 .021-.015.028-.03.028z" fill="#7389BA"/><path d="M54.933 46.997H43.406a.26.26 0 01-.26-.267c0-.145.115-.267.26-.267h11.527a.26.26 0 01.26.267.265.265 0 01-.26.267z" fill="#7389BA"/><path d="M124.827 39.506c8.695 0 15.743-7.053 15.743-15.754 0-8.7-7.048-15.754-15.743-15.754-8.694 0-15.743 7.053-15.743 15.754s7.049 15.754 15.743 15.754z" fill="#38538F"/><path d="M132.753 31.683h-15.692a2.053 2.053 0 01-2.05-2.05V18.081c0-1.134.924-2.052 2.05-2.052h15.692c1.133 0 2.05.925 2.05 2.052v11.55a2.045 2.045 0 01-2.05 2.051zm-15.692-14.432a.835.835 0 00-.83.831v11.55c0 .455.375.83.83.83h15.692c.455 0 .83-.375.83-.83v-11.55a.835.835 0 00-.83-.83h-15.692z" fill="#7389BA"/><path d="M124.957 24.236a.59.59 0 01-.353-.115l-8.864-6.292a.612.612 0 01.707-.997l8.51 6.039 8.402-5.974a.612.612 0 01.708.997l-8.756 6.227a.576.576 0 01-.354.115z" fill="#7389BA"/><path d="M116.187 31.43l-.093-.606-.08-.607.08.607-.513-.332c.159-.253 3.357-5.858 5.471-9.564a.608.608 0 01.831-.231.608.608 0 01.231.83s-1.372 2.399-2.736 4.797c-.686 1.199-1.372 2.398-1.891 3.3-1.004 1.756-1.004 1.756-1.3 1.807zm17.49 0c-.296-.043-.296-.043-1.307-1.798-.52-.903-1.205-2.102-1.891-3.301-1.371-2.398-2.736-4.796-2.736-4.796a.606.606 0 01.231-.831.607.607 0 01.83.231c2.115 3.706 5.32 9.311 5.472 9.564l-.513.318v.014l-.086.6z" fill="#7389BA"/><path d="M87.242 41.132c9.237 0 16.725-7.493 16.725-16.736 0-9.244-7.488-16.737-16.725-16.737-9.237 0-16.724 7.493-16.724 16.736 0 9.244 7.487 16.737 16.724 16.737z" fill="#38538F"/><path d="M86.845 34.646c-5.616 0-10.185-4.573-10.185-10.193 0-5.62 4.569-10.192 10.185-10.192 5.615 0 10.185 4.573 10.185 10.192 0 5.62-4.57 10.193-10.185 10.193zm0-18.68c-4.678 0-8.482 3.807-8.482 8.487 0 4.681 3.804 8.488 8.482 8.488 4.677 0 8.481-3.807 8.481-8.488 0-4.68-3.804-8.487-8.481-8.487z" fill="#7389BA"/><path fill-rule="evenodd" clip-rule="evenodd" d="M83.655 28.375v-7.324c0-.78.852-1.271 1.523-.867l6.171 3.662c.657.39.657 1.344 0 1.741l-6.171 3.663c-.671.397-1.523-.094-1.523-.875z" fill="#7389BA"/><path d="M163.086 156.842l3.984 1.943c3.516-.339 6.223-1.43 8.309-2.824-1.249-3.114-2.527-4.963-3.523-6.046-3.284 4.608-8.77 6.927-8.77 6.927z" fill="url(#paint7_linear_1512_9405)"/><path d="M181.825 147.199l-5.847-9.145c-.382 5.158-2.122 9.037-4.136 11.868.996 1.084 2.274 2.933 3.523 6.046 5.197-3.467 6.46-8.769 6.46-8.769z" fill="url(#paint8_linear_1512_9405)"/><path d="M192.349 174.366a.187.187 0 00.13-.051.183.183 0 000-.26l-1.891-1.936a.183.183 0 10-.26.26l1.891 1.936c.029.036.08.051.13.051z" fill="url(#paint9_linear_1512_9405)"/><path d="M155.24 164.231a1.54 1.54 0 01-.678-1.119c-.094-.889-.087-2.254.866-2.362 1.422-.166 2.923 2.867 2.923 2.867l.527 2.139.845.816c-1.003-.051-2.642-1.048-4.483-2.341z" fill="url(#paint10_linear_1512_9405)"/><path d="M137.49 142.583l12.531-14.859a8.636 8.636 0 0112.184-1.032l54.722 46.215a8.653 8.653 0 011.032 12.193l-12.531 14.858a8.637 8.637 0 01-12.184 1.033l-54.722-46.215c-3.652-3.084-4.114-8.545-1.032-12.193z" fill="url(#paint11_linear_1512_9405)"/><path d="M142.045 150.391a3.316 3.316 0 004.678-.397 3.324 3.324 0 00-.397-4.681 3.317 3.317 0 00-4.678.398 3.316 3.316 0 00.397 4.68z" fill="url(#paint12_linear_1512_9405)"/><path d="M164.891 144.533a3.704 3.704 0 003.703-3.705 3.704 3.704 0 00-3.703-3.706 3.704 3.704 0 00-3.703 3.706 3.704 3.704 0 003.703 3.705zm-11.996 14.223a3.704 3.704 0 003.703-3.705 3.704 3.704 0 00-3.703-3.706 3.704 3.704 0 00-3.703 3.706 3.704 3.704 0 003.703 3.705zm39.144 9.853a3.704 3.704 0 104.779-5.663 3.704 3.704 0 10-4.779 5.663zm-11.997 14.223a3.704 3.704 0 104.779-5.663 3.705 3.705 0 10-4.779 5.663zm-6.344-6.256a2.836 2.836 0 003.999-.339l12.227-14.505a2.84 2.84 0 00-.339-4.001l-.094-.08a2.837 2.837 0 00-3.999.34l-12.227 14.504a2.841 2.841 0 00.339 4.002l.094.079zm20.543 5.129a3.907 3.907 0 003.905-3.908 3.907 3.907 0 00-3.905-3.908 3.907 3.907 0 000 7.816zm-1.04 19.25l23.683-28.077-2.952-2.492-23.683 28.077 2.952 2.492zm-23.272-34.246c5.17 0 9.362-4.194 9.362-9.369 0-5.174-4.192-9.368-9.362-9.368-5.171 0-9.362 4.194-9.362 9.368 0 5.175 4.191 9.369 9.362 9.369z" fill="#2E3239"/><path d="M167.006 160.808a4.53 4.53 0 006.388-.542 4.538 4.538 0 00-.541-6.393 4.531 4.531 0 00-6.389.542 4.539 4.539 0 00.542 6.393z" fill="#2E3239"/><path d="M164.465 155.571a.492.492 0 00.115-.303l.051-2.485 2.44-.47a.482.482 0 00-.181-.946l-2.822.542a.477.477 0 00-.39.462l-.058 2.875a.48.48 0 00.477.491.457.457 0 00.368-.166zm8.214 6.941a.516.516 0 01.282-.166l2.44-.469.05-2.485a.489.489 0 01.491-.477.488.488 0 01.476.491l-.057 2.875a.473.473 0 01-.39.462l-2.822.542a.482.482 0 01-.563-.383.448.448 0 01.093-.39zm-4.424.376a.499.499 0 00-.303-.116l-2.484-.05-.469-2.442a.483.483 0 00-.563-.383.483.483 0 00-.382.564l.541 2.824c.043.224.238.39.462.39l2.873.058a.48.48 0 00.491-.477.448.448 0 00-.166-.368zm6.937-8.22a.501.501 0 01-.166-.282l-.469-2.441-2.483-.051a.488.488 0 01-.477-.491.489.489 0 01.491-.477l2.873.058a.472.472 0 01.462.39l.541 2.824a.484.484 0 01-.382.564.442.442 0 01-.39-.094z" opacity=".8" fill="#fff"/><path d="M169.77 155.361c.534-.636 1.364-.643 2.014-.094.614.52.78 1.3.238 1.936-.534.629-1.321.694-2.028.101-.592-.498-.78-1.278-.224-1.943zm.397.318c-.281.332-.108.802.282 1.127.418.354.887.426 1.169.101.274-.325.144-.773-.274-1.134-.426-.354-.895-.426-1.177-.094zm.657 2.875l-.404.484-.7-.592-.383-.008.484 1.315-.477.571-.599-1.799-1.516-.065.506-.6 1.126.116c.115.015.238.029.361.051l.007-.008-.953-.801.404-.484 2.144 1.82zm-24.838-9.181a2.208 2.208 0 00-.259-3.106 2.171 2.171 0 00-1.61-.513.363.363 0 00.058.723c.397-.037.779.086 1.075.346.621.528.7 1.459.173 2.088-.527.621-1.458.7-2.086.173a1.475 1.475 0 01-.519-1.004.363.363 0 00-.722.058c.05.585.325 1.12.772 1.502.938.78 2.332.665 3.118-.267z" fill="#fff"/><path d="M144.095 148.412c.159.131.404.102.549-.072l.029-.036c.144-.173.202-.498.043-.628l-1.646-1.387c-.159-.13-.469-.022-.613.152l-.029.036c-.145.173-.137.419.021.556l1.646 1.379z" fill="#fff"/><defs><linearGradient id="paint0_linear_1512_9405" x1="109.62" y1="15.184" x2="166.482" y2="14.458" gradientUnits="userSpaceOnUse"><stop stop-color="#46C0EF"/><stop offset="1" stop-color="#4865AD"/></linearGradient><linearGradient id="paint1_linear_1512_9405" x1="131.35" y1="32.547" x2="141.779" y2="32.547" gradientUnits="userSpaceOnUse"><stop stop-color="#DAE3FE"/><stop offset="1" stop-color="#E9EFFD"/></linearGradient><linearGradient id="paint2_linear_1512_9405" x1="123.562" y1="32.545" x2="150.406" y2="32.545" gradientUnits="userSpaceOnUse"><stop stop-color="#DAE3FE"/><stop offset="1" stop-color="#E9EFFD"/></linearGradient><linearGradient id="paint3_linear_1512_9405" x1="182.981" y1="40.584" x2="189.049" y2="40.584" gradientUnits="userSpaceOnUse"><stop stop-color="#DAE3FE"/><stop offset="1" stop-color="#E9EFFD"/></linearGradient><linearGradient id="paint4_linear_1512_9405" x1="170.389" y1="30.84" x2="198.315" y2="30.488" gradientUnits="userSpaceOnUse"><stop stop-color="#46C0EF"/><stop offset="1" stop-color="#4865AD"/></linearGradient><linearGradient id="paint5_linear_1512_9405" x1="178.462" y1="40.577" x2="193.883" y2="40.577" gradientUnits="userSpaceOnUse"><stop stop-color="#DAE3FE"/><stop offset="1" stop-color="#E9EFFD"/></linearGradient><linearGradient id="paint6_linear_1512_9405" x1="101.564" y1="162.556" x2="101.564" y2="180.658" gradientUnits="userSpaceOnUse"><stop stop-color="#1D2024"/><stop offset="1" stop-color="#2D2F33"/></linearGradient><linearGradient id="paint7_linear_1512_9405" x1="167.126" y1="150.835" x2="179.747" y2="184.258" gradientUnits="userSpaceOnUse"><stop stop-color="#FEBBBA"/><stop offset="1" stop-color="#FF928E"/></linearGradient><linearGradient id="paint8_linear_1512_9405" x1="175.187" y1="141.839" x2="183.689" y2="176.39" gradientUnits="userSpaceOnUse"><stop stop-color="#CB236D"/><stop offset="1" stop-color="#4C246D"/></linearGradient><linearGradient id="paint9_linear_1512_9405" x1="184.233" y1="163.94" x2="197.214" y2="180.712" gradientUnits="userSpaceOnUse"><stop stop-color="#09005D"/><stop offset="1" stop-color="#1A0F91"/></linearGradient><linearGradient id="paint10_linear_1512_9405" x1="156.778" y1="157.498" x2="158.527" y2="193.184" gradientUnits="userSpaceOnUse"><stop stop-color="#FEBBBA"/><stop offset="1" stop-color="#FF928E"/></linearGradient><linearGradient id="paint11_linear_1512_9405" x1="138.446" y1="127.624" x2="249.53" y2="229.917" gradientUnits="userSpaceOnUse"><stop stop-color="#1D2024"/><stop offset="1" stop-color="#292B2F"/></linearGradient><linearGradient id="paint12_linear_1512_9405" x1="140.641" y1="128.14" x2="144.721" y2="150.807" gradientUnits="userSpaceOnUse"><stop stop-color="#FF928E"/><stop offset="1" stop-color="#FE7062"/></linearGradient></defs></svg>