<svg width="512" height="512" xmlns="http://www.w3.org/2000/svg" class="svg-inline--fa fa-tasks fa-w-16" data-icon="tasks" data-prefix="fas" aria-hidden="true"><path stroke="null" d="M165.798 121.52a9.352 8.667 0 00-13.248 0l-49.626 45.725-17.69-15.976a9.352 8.667 0 00-13.248 0l-12.235 11.353a9.352 8.667 0 000 12.279l37.087 34.234a9.96 9.23 0 0013.723 0l12.15-11.282 56.265-52.138a9.422 8.732 0 00.07-12.278l-13.248-11.917zm0 114.973a9.352 8.667 0 00-13.248 0l-49.626 46.021-17.69-15.961a9.352 8.667 0 00-13.248 0l-12.235 11.332a9.352 8.667 0 000 12.278l36.993 34.306a9.952 9.223 0 0013.716 0l12.235-11.332 56.265-52.16a9.352 8.667 0 00.07-12.206l-13.232-12.278zm-58.923 125.172c-20.643 0-37.866 15.528-37.866 34.667S86.247 431 106.875 431a37.406 34.668 0 000-69.335zm336.656 11.556H219.094a12.469 11.556 0 00-12.469 11.556v23.111a12.469 11.556 0 0012.469 11.556H443.53A12.469 11.556 0 00456 407.888v-23.111a12.469 11.556 0 00-12.469-11.556zm0-231.117H219.094a12.469 11.556 0 00-12.469 11.555v23.112a12.469 11.556 0 0012.469 11.556H443.53A12.469 11.556 0 00456 176.771V153.66a12.469 11.556 0 00-12.469-11.555zm0 115.558H219.094a12.469 11.556 0 00-12.469 11.556v23.112a12.469 11.556 0 0012.469 11.556H443.53A12.469 11.556 0 00456 292.33v-23.112a12.469 11.556 0 00-12.469-11.556z" fill="currentColor"/></svg>