<svg width="1000" height="1000" xmlns="http://www.w3.org/2000/svg"><g stroke="null" stroke-width=".1"><path d="M1 417.127v175.818h201.81c200.15 0 201.81 0 201.81 6.112 0 5.508-1.66 6.111-14.482 6.111-10.204 0-14.246.918-13.534 3.672.479 2.138 2.852 11.922 5.225 21.404 4.511 17.43 4.745 17.731 13.768 17.731h9.023v13.758c0 11.62-.713 13.757-4.746 13.757s-4.746 2.138-4.746 15.292v15.292h370.615l-.713-14.676-.713-14.374-21.365-1.534-21.366-1.534v-24.473l16.142-.918 15.906-.918v-41.889h21.6c18.28 0 22.323-.918 26.59-6.111 15.428-18.046 43.922-26.295 64.819-18.964 6.17 2.137 16.385 8.865 23.025 14.675l11.874 10.4h47.008c26.121-.301 48.2-.918 49.39-2.137 1.426-.918 1.426-5.509 0-11.62-1.19-5.194-2.85-28.132-3.798-50.453-1.191-35.16-2.138-41.272-5.937-44.328-3.798-3.358-4.277-8.25-4.277-47.397 0-43.109 0-43.725 4.99-41.89 4.277 1.837 4.746 1.22 3.086-5.193-.947-3.672-1.66-13.757-1.192-21.705 1.192-32.105-12.587-60.538-37.272-76.748-22.078-14.374-36.56-17.731-84.759-18.964-56.743-1.22-63.149-2.44-80.726-11.62-17.8-9.783-21.365-9.783-28.494-.301l-5.937 7.33v324.437h-16.62c-14.96 0-16.62-.616-16.62-6.111 0-5.194 1.66-6.112 11.875-6.112h11.874V241.323H1.001v175.804zm880.837-15.593c0 6.728-4.99 67.266-5.703 68.184-.234.302-10.449-1.22-22.557-3.672-29.441-5.508-33.474-10.4-33.474-37.299 0-31.489 0-31.489 33.24-31.489 22.79 0 28.494.918 28.494 4.276zm87.365-.604c1.905 2.44 2.852 17.43 2.852 47.7v44.026l-15.907-2.138c-9.023-1.22-28.494-4.59-43.444-7.331l-27.302-4.892-.713-40.67-.713-40.367h41.315c28.718 0 42.018 1.22 43.912 3.672zM558.943 599.057c0 6.111-1.66 6.111-71.225 6.111s-71.224 0-71.224-6.111 1.66-6.112 71.224-6.112 71.225 0 71.225 6.112zm140.076 0c0 6.111-1.66 6.111-65.287 6.111-63.628 0-65.288 0-65.288-6.111s1.66-6.112 65.288-6.112c63.627 0 65.287 0 65.287 6.112zm-261.16 62.676v13.757h-21.365v-27.515h21.365v13.758zm33.24 0c0 12.537-.479 13.757-5.937 13.757s-5.938-1.22-5.938-13.757c0-12.538.48-13.758 5.938-13.758s5.937 1.22 5.937 13.758zm42.73 0v13.757h-21.365v-27.515h21.365v13.758zm44.635.616l.713 13.141h-23.982v-11.62c0-14.977 1.191-16.511 13.055-15.292 9.267.932 9.502 1.233 10.214 13.771zm21.844-.616c0 12.537-.478 13.757-5.937 13.757-5.458 0-5.937-1.22-5.937-13.757 0-12.538.479-13.758 5.937-13.758 5.459 0 5.937 1.22 5.937 13.758zm42.731 0v13.757h-21.365v-27.515h21.365v13.758zm42.74 0v13.757h-21.364v-11.62c0-14.675.947-15.895 12.342-15.895h9.023v13.758zm33.24 0c0 11.62-.712 13.757-4.745 13.757s-4.746-2.138-4.746-13.757c0-11.62.713-13.758 4.746-13.758s4.745 2.138 4.745 13.758z"/><path d="M829.605 595.7c-30.388 12.235-52.711 48-56.031 91.423-1.904 23.541 2.373 25.994 4.746 2.754 6.17-58.702 49.38-95.096 91.877-77.05 25.642 11.004 47.252 48.315 47.252 81.024 0 6.728 1.191 12.236 2.373 12.236 1.425 0 2.373-3.357 2.373-7.646 0-7.646.234-7.646 20.184-7.646 19.705 0 20.184.302 20.184 7.344 0 12.237 15.906 12.237 26.59-.301 3.563-4.276 4.276-10.4 4.276-41.273v-36.079h-92.121l-13.769-10.701c-7.597-5.81-17.566-12.237-22.322-13.758-9.736-3.397-27.068-3.698-35.612-.328zm-797.27 24.458c-5.458 8.25-9.97 18.033-9.97 21.404 0 6.426.947 6.426 61.255 6.426h61.255l7.118-9.482c9.97-13.757 23.738-21.705 40.358-23.541 18.993-1.836 35.134 5.193 49.147 21.089 12.82 14.374 18.524 14.977 29.206 2.754 15.673-17.731 26.356-22.938 47.242-22.938 20.419 0 30.623 4.892 46.061 21.403l7.363 8.25v-40.368H42.071l-9.736 15.003z"/><path d="M820.337 628.408c-36.803 23.856-44.156 88.67-14.002 125.666 38.464 47.397 101.613 13.141 101.613-55.344 0-44.945-25.643-77.968-60.777-78.27-10.682 0-17.332 1.836-26.834 7.948zm47.487 21.102c9.257 6.426 18.28 21.403 21.131 35.462 6.65 31.489-10.448 63.292-35.612 66.348-15.429 1.836-22.078-.616-32.293-12.236-37.985-42.794 2.139-119.24 46.774-89.574zm-689.465-18.65c-47.252 22.623-52.466 103.962-8.544 134.532 51.998 36.696 108.028-40.97 75.023-104.263-14.492-27.83-43.688-41.285-66.48-30.269zm41.305 27.817c10.448 8.564 16.854 25.075 16.854 42.807 0 29.05-17.099 50.453-40.358 50.453-21.365 0-38.464-22.02-38.464-49.837 0-42.807 33.953-66.663 61.968-43.423z"/><path d="M299.443 630.86c-47.487 22.938-52.711 103.647-8.31 134.834 42.73 29.968 94.015-19.869 82.62-80.722-5.937-32.105-26.355-54.728-51.52-57.18-8.31-.919-17.332.314-22.79 3.068zm41.305 27.817c31.813 26.295 15.428 93.26-22.791 93.26-29.676 0-48.434-40.053-35.378-75.214 9.735-26.295 37.516-34.86 58.169-18.046z"/></g></svg>