<svg xmlns="http://www.w3.org/2000/svg" viewBox="0 0 1000 1000"><path d="M10 430.19v134.06h198.17c196.54 0 198.17 0 198.17 4.66 0 4.2-1.63 4.66-14.22 4.66-10.02 0-13.99.7-13.29 2.8.47 1.63 2.8 9.09 5.13 16.32 4.43 13.29 4.66 13.52 13.52 13.52h8.86v10.49c0 8.86-.7 10.49-4.66 10.49s-4.66 1.63-4.66 11.66v11.66h363.93l-.7-11.19-.7-10.96-20.98-1.17-20.98-1.17v-18.66l15.85-.7 15.62-.7v-31.94h21.21c17.95 0 21.92-.7 26.11-4.66 15.15-13.76 43.13-20.05 63.65-14.46 6.06 1.63 16.09 6.76 22.61 11.19l11.66 7.93h46.16c25.65-.23 47.33-.7 48.5-1.63 1.4-.7 1.4-4.2 0-8.86-1.17-3.96-2.8-21.45-3.73-38.47-1.17-26.81-2.1-31.47-5.83-33.8-3.73-2.56-4.2-6.29-4.2-36.14 0-32.87 0-33.34 4.9-31.94 4.2 1.4 4.66.93 3.03-3.96-.93-2.8-1.63-10.49-1.17-16.55 1.17-24.48-12.36-46.16-36.6-58.52-21.68-10.96-35.9-13.52-83.23-14.46-55.72-.93-62.01-1.86-79.27-8.86-17.48-7.46-20.98-7.46-27.98-.23l-5.83 5.59v247.38h-16.32c-14.69 0-16.32-.47-16.32-4.66 0-3.96 1.63-4.66 11.66-4.66h11.66V296.14H10v134.05zm864.95-11.89c0 5.13-4.9 51.29-5.6 51.99-.23.23-10.26-.93-22.15-2.8-28.91-4.2-32.87-7.93-32.87-28.44 0-24.01 0-24.01 32.64-24.01 22.38 0 27.98.7 27.98 3.26zm85.79-.46c1.87 1.86 2.8 13.29 2.8 36.37v33.57l-15.62-1.63c-8.86-.93-27.98-3.5-42.66-5.59l-26.81-3.73-.7-31.01-.7-30.78h40.57c28.2 0 41.26.93 43.12 2.8zM557.88 568.91c0 4.66-1.63 4.66-69.94 4.66s-69.94 0-69.94-4.66 1.63-4.66 69.94-4.66 69.94 0 69.94 4.66zm137.55 0c0 4.66-1.63 4.66-64.11 4.66s-64.11 0-64.11-4.66 1.63-4.66 64.11-4.66 64.11 0 64.11 4.66zM438.98 616.7v10.49H418v-20.98h20.98v10.49zm32.64 0c0 9.56-.47 10.49-5.83 10.49s-5.83-.93-5.83-10.49.47-10.49 5.83-10.49 5.83.93 5.83 10.49zm41.96 0v10.49H492.6v-20.98h20.98v10.49zm43.83.47l.7 10.02h-23.55v-8.86c0-11.42 1.17-12.59 12.82-11.66 9.1.71 9.33.94 10.03 10.5zm21.45-.47c0 9.56-.47 10.49-5.83 10.49s-5.83-.93-5.83-10.49.47-10.49 5.83-10.49 5.83.93 5.83 10.49zm41.96 0v10.49h-20.98v-20.98h20.98v10.49zm41.97 0v10.49h-20.98v-8.86c0-11.19.93-12.12 12.12-12.12h8.86v10.49zm32.64 0c0 8.86-.7 10.49-4.66 10.49s-4.66-1.63-4.66-10.49.7-10.49 4.66-10.49 4.66 1.63 4.66 10.49z"/><path d="M823.66 566.35c-29.84 9.33-51.76 36.6-55.02 69.71-1.87 17.95 2.33 19.82 4.66 2.1 6.06-44.76 48.49-72.51 90.22-58.75 25.18 8.39 46.4 36.84 46.4 61.78 0 5.13 1.17 9.33 2.33 9.33 1.4 0 2.33-2.56 2.33-5.83 0-5.83.23-5.83 19.82-5.83 19.35 0 19.82.23 19.82 5.6 0 9.33 15.62 9.33 26.11-.23 3.5-3.26 4.2-7.93 4.2-31.47v-27.51h-90.46l-13.52-8.16c-7.46-4.43-17.25-9.33-21.92-10.49-9.56-2.59-26.58-2.82-34.97-.25zM40.77 585c-5.36 6.29-9.79 13.75-9.79 16.32 0 4.9.93 4.9 60.15 4.9h60.15l6.99-7.23c9.79-10.49 23.31-16.55 39.63-17.95 18.65-1.4 34.5 3.96 48.26 16.08 12.59 10.96 18.19 11.42 28.68 2.1 15.39-13.52 25.88-17.49 46.39-17.49 20.05 0 30.07 3.73 45.23 16.32l7.23 6.29v-30.78H50.33L40.77 585z"/><path d="M814.56 591.29c-36.14 18.19-43.36 67.61-13.75 95.82 37.77 36.14 99.78 10.02 99.78-42.2 0-34.27-25.18-59.45-59.68-59.68-10.49 0-17.02 1.4-26.35 6.06zm46.63 16.09c9.09 4.9 17.95 16.32 20.75 27.04 6.53 24.01-10.26 48.26-34.97 50.59-15.15 1.4-21.68-.47-31.71-9.33-37.3-32.63 2.1-90.92 45.93-68.3zm-677.03-14.22c-46.4 17.25-51.52 79.27-8.39 102.58 51.06 27.98 106.08-31.24 73.67-79.5-14.23-21.22-42.9-31.48-65.28-23.08zm40.56 21.21c10.26 6.53 16.55 19.12 16.55 32.64 0 22.15-16.79 38.47-39.63 38.47-20.98 0-37.77-16.79-37.77-38 0-32.64 33.34-50.83 60.85-33.11z"/><path d="M303.06 593.16c-46.63 17.49-51.76 79.03-8.16 102.81 41.96 22.85 92.32-15.15 81.13-61.55-5.83-24.48-25.88-41.73-50.59-43.6-8.16-.7-17.02.24-22.38 2.34zm40.56 21.21c31.24 20.05 15.15 71.11-22.38 71.11-29.14 0-47.56-30.54-34.74-57.35 9.56-20.05 36.84-26.58 57.12-13.76z"/></svg>