<svg width="8" height="6" fill="none" xmlns="http://www.w3.org/2000/svg"><path d="M3.88 3.734h.25v-.472l-.39.265.14.207zm.156 1.782l-.14-.207.14.207zM7.65 3.063l-.14-.206.14.206zm-.002-.166l-.135.21.135-.21zM4.034.573l.135-.21-.135.21zm-.154 1.69l-.135.21.385.248v-.458h-.25zM1.25.573l-.135.21.135-.21zm.002 4.943l-.14-.207.14.207zm2.877-.083v-1.7h-.5v1.7h.5zm-.234-.124a.15.15 0 01.234.124h-.5a.35.35 0 00.546.29l-.28-.414zM7.51 2.857L3.896 5.309l.28.414L7.791 3.27l-.281-.413zm.003.25a.15.15 0 01-.003-.25l.28.413a.35.35 0 00-.007-.584l-.27.42zM3.899.783l3.614 2.324.27-.42L4.17.362l-.27.42zm.23-.126a.15.15 0 01-.23.126l.27-.42a.35.35 0 00-.54.294h.5zm0 1.606V.657h-.5v1.606h.5zM1.117.783l2.629 1.69.27-.42-2.63-1.69-.27.42zm.231-.126a.15.15 0 01-.23.127l.27-.421a.35.35 0 00-.54.294h.5zm0 4.776V.657h-.5v4.776h.5zm-.234-.124a.15.15 0 01.234.124h-.5a.35.35 0 00.547.29l-.281-.414zM3.74 3.527L1.113 5.309l.28.414L4.02 3.94l-.28-.414z" fill="#fff"/></svg>