<svg width="8" height="10" fill="none" xmlns="http://www.w3.org/2000/svg"><path d="M3.63.827a2.956 2.956 0 00-.961.295A3.155 3.155 0 00.997 3.315a3.53 3.53 0 00-.064.787v.315l-.081.007a.478.478 0 00-.37.278c-.03.066-.03.07-.03 1.095v1.028l.039.08a.507.507 0 00.258.24c.07.026.101.029.26.025.155-.005.19-.01.242-.037.043-.024.06-.027.064-.014l.022.082a.487.487 0 00.176.254.458.458 0 00.716-.31c.02-.103.02-2.594 0-2.697a.464.464 0 00-.417-.392.46.46 0 00-.475.337l-.022.082c-.003.013-.02.01-.064-.01a.923.923 0 00-.085-.036c-.026-.008-.027-.03-.02-.424.006-.435.02-.561.093-.832a2.93 2.93 0 012.072-2.071 2.88 2.88 0 011.432 0 2.922 2.922 0 012.08 2.11c.07.279.079.36.087.792l.007.413-.059.01a.478.478 0 00-.113.036l-.054.029-.007-.038a.474.474 0 00-.34-.383.463.463 0 00-.529.244l-.037.07v2.823l.037.07a.54.54 0 00.216.216l.058.027c.012.007-.102.23-.165.324-.24.353-.595.57-1.065.654a1.574 1.574 0 01-.198.02c-.071 0-.075-.002-.075-.035 0-.119-.12-.295-.254-.368l-.074-.043h-.356c-.348 0-.356 0-.425.034a.536.536 0 00-.227.24c-.035.076-.038.093-.038.286 0 .196.002.21.04.287.048.1.126.183.221.234l.074.04h.348c.328 0 .353-.002.415-.032a.51.51 0 00.273-.358l.01-.063.147-.017c.512-.058.886-.234 1.191-.56.162-.173.255-.326.365-.596.01-.024.034-.04.069-.052a.472.472 0 00.318-.373l.008-.039.085.036c.08.032.1.035.27.03.164-.005.189-.009.251-.043a.5.5 0 00.215-.224l.036-.078V4.754l-.037-.074a.479.479 0 00-.33-.253l-.058-.01v-.3c0-.164-.007-.37-.014-.455a3.158 3.158 0 00-1.245-2.246 3.035 3.035 0 00-1.45-.59 3.94 3.94 0 00-.783 0zM1.89 4.292c.037.017.073.05.098.088l.04.06v1.348c0 1.298-.002 1.35-.027 1.403a.256.256 0 01-.204.135.257.257 0 01-.234-.115l-.038-.058V4.44l.038-.06a.255.255 0 01.328-.09zm4.45 0a.223.223 0 01.12.133c.019.046.022.216.022 1.372 0 1.411.001 1.374-.067 1.45a.266.266 0 01-.286.062.312.312 0 01-.15-.178c-.009-.038-.013-.473-.01-1.365l.004-1.31.038-.065a.251.251 0 01.329-.1zm-5.16.369a.234.234 0 01.094.09l.035.063V6.78l-.033.058a.288.288 0 01-.092.092c-.05.028-.076.033-.204.031a.479.479 0 01-.184-.021.32.32 0 01-.127-.14C.66 6.772.654 6.441.654 5.794c0-1.05-.003-1.015.08-1.095.066-.063.133-.082.268-.076a.396.396 0 01.177.037zm6.037 0a.234.234 0 01.094.09l.035.063V6.78l-.033.058c-.056.096-.117.122-.293.122a.52.52 0 01-.187-.02.32.32 0 01-.127-.14c-.01-.027-.015-.358-.015-1.005 0-1.05-.003-1.015.08-1.095.066-.063.133-.082.269-.076a.396.396 0 01.177.037zM4.185 8.28a.33.33 0 01.173.145.557.557 0 01.03.165c.008.164-.018.26-.094.33-.078.071-.155.085-.442.08-.235-.006-.238-.006-.305-.049-.105-.066-.133-.131-.133-.316 0-.123.006-.16.03-.211a.27.27 0 01.166-.143 2.79 2.79 0 01.575-.002z" fill="#fff"/></svg>