<svg width="6" height="8" fill="none" xmlns="http://www.w3.org/2000/svg"><path d="M4.953 4.086v-.603c0-.88-.585-1.625-1.386-1.869v-.273a.568.568 0 00-1.134 0v.273a1.957 1.957 0 00-1.386 1.87v.602a2.97 2.97 0 01-.83 2.064.189.189 0 00.137.32h1.72a.947.947 0 001.852 0h1.72a.189.189 0 00.136-.32 2.968 2.968 0 01-.83-2.064zM2.81 1.341a.19.19 0 01.378 0v.198a1.968 1.968 0 00-.378 0v-.198zM3 6.848a.568.568 0 01-.535-.378h1.07A.568.568 0 013 6.848zM.76 6.092c.43-.577.664-1.276.664-2.006v-.603c0-.868.706-1.575 1.575-1.575.868 0 1.575.707 1.575 1.575v.603c0 .73.233 1.429.664 2.006H.76z" fill="#fff"/></svg>