<svg width="7" height="8" fill="none" xmlns="http://www.w3.org/2000/svg"><path d="M6.497 4.96l-.818-.487.818-.488a.105.105 0 000-.18l-.818-.488.818-.488a.105.105 0 000-.18L3.377.789a.105.105 0 00-.108 0L.148 2.649a.105.105 0 000 .18l.818.488-.818.488a.105.105 0 000 .18l.818.488-.818.487a.105.105 0 000 .181l3.12 1.86c.034.02.075.02.108 0l3.121-1.86a.105.105 0 000-.18zM.407 2.74l2.915-1.738 2.916 1.737-2.916 1.738L.407 2.739zm0 1.155l.764-.456L3.27 4.69c.033.02.074.02.107 0l2.097-1.25.765.456-2.916 1.737L.407 3.895zm2.915 2.893L.407 5.051l.764-.456 2.098 1.25c.033.02.074.02.107 0l2.097-1.25.765.456-2.916 1.737z" fill="#fff"/></svg>