<svg width="360" height="421" fill="none" xmlns="http://www.w3.org/2000/svg"><path opacity=".1" d="M359.916 52.92l-12.457 11.565v37.117L236.695 203.809l-8.417-7.8 57.15-52.717v-9.414l10.1-9.279v-21.652l19.611-18.155c.842.538 1.936.538 2.693-.135.842-.807.842-2.017 0-2.69-.841-.806-2.188-.806-2.946 0-.757.673-.841 1.749-.252 2.556l-19.611 18.155v21.652l-9.679 8.876V98.509l-.084-.135-5.556-5.11 33.499-30.931V27.636l23.819-21.92c.842.537 1.936.537 2.694-.135.841-.807.841-2.017 0-2.69-.842-.807-2.189-.807-2.946 0-.758.673-.842 1.749-.253 2.556l-23.819 21.92v34.697L279.2 92.995l-54.457-50.297V3.833c.421 0 .926-.27 1.263-.538.842-.807.842-2.017 0-2.69-.842-.807-2.189-.807-2.946 0-.842.807-.842 2.017 0 2.69.337.269.757.538 1.262.538v39.269l.085.134 32.741 30.26h-23.904L213.97 55.742c.589-.807.505-1.882-.253-2.555-.841-.807-2.188-.807-2.945 0-.842.807-.842 2.017 0 2.69.757.672 1.935.807 2.693.134l19.611 18.156h24.829l26.934 24.879v44.11l-57.066 52.18-7.659-7.128 40.4-37.251c.842.537 1.936.537 2.694-.135.841-.807.841-2.017 0-2.69-.842-.807-2.189-.807-2.946 0-.758.673-.842 1.749-.253 2.556l-40.4 37.251-7.407-6.858 48.397-44.649h13.13c.084.404.252.673.589.942.841.807 2.188.807 2.946 0 .841-.807.841-2.018 0-2.69-.842-.807-2.189-.807-2.946 0-.337.269-.505.672-.589.941h-13.383l-48.564 45.052-2.946-2.689-.084.134-2.189 2.017-11.615-10.624v-14.927l9.595-8.876h14.982l16.581-15.197c.842.538 1.936.538 2.693-.134.842-.807.842-2.018 0-2.69-.841-.807-2.188-.807-2.946 0-.757.672-.841 1.748-.252 2.555l-16.244 14.659h-14.14l28.111-25.956c.842.538 2.02.538 2.778-.134.842-.807.842-2.017 0-2.69-.842-.807-2.188-.807-2.946 0-.757.673-.842 1.749-.252 2.421l-35.098 32.411v-7.128l20.873-19.231v-13.583l17.002-15.735c.842.538 1.936.538 2.693-.134.842-.807.842-2.017 0-2.69-.841-.807-2.188-.807-2.945 0-.758.673-.842 1.749-.253 2.556l-17.002 15.734v13.583l-20.789 18.962v8.069l-2.946 2.69v15.734l11.615 10.624-7.575 6.994-23.819-22.056v-25.014l16.16-14.927c.842.538 2.02.538 2.777-.135.842-.807.842-2.017 0-2.689-.841-.807-2.188-.807-2.945 0-.758.672-.842 1.748-.253 2.42l-15.739 14.524v-20.172l12.457-11.431V69.864c.42 0 .925-.269 1.262-.538.842-.807.842-2.017 0-2.69-.842-.806-2.188-.806-2.946 0-.841.807-.841 2.018 0 2.69.337.27.758.538 1.263.538v37.521l-11.952 11.028V51.44h-.505v114.445l23.819 22.055-8.585 7.935-31.142-28.779V98.643l-14.981-13.851V58.97l-13.215-12.238c.59-.807.505-1.883-.252-2.555-.842-.807-2.188-.807-2.946 0-.842.807-.842 2.017 0 2.69.758.672 1.936.806 2.693.134l13.215 12.238v25.82l14.981 13.852v68.452l31.142 28.78-6.312 5.783-42.084-38.866v-58.366l-.084-.134-37.286-34.159c.589-.807.505-1.883-.253-2.555-.841-.807-2.188-.807-2.946 0-.841.807-.841 2.017 0 2.69.758.672 1.936.806 2.694.134l37.37 34.428v58.365l.084.135 41.916 38.731-10.269 9.414-69.943-64.552v-29.048l-.084-.135-58.58-54.062c.589-.807.505-1.883-.253-2.555-.842-.807-2.188-.807-2.946 0-.841.806-.841 2.017 0 2.69.758.672 1.936.806 2.694.134l58.664 54.197v29.048l.084.134 39.222 36.176h-31.142l-36.023-33.217c.589-.807.505-1.883-.253-2.555-.841-.807-2.188-.807-2.946 0-.841.807-.841 2.017 0 2.69.758.672 1.936.806 2.694.134l36.36 33.621h32.068l29.795 27.434-11.952 11.028-25.418-23.131H92.685l-46.797-43.169H19.965l-10.606-9.817c.59-.807.505-1.883-.252-2.556-.842-.807-2.188-.807-2.946 0-.842.807-.842 2.018 0 2.69.758.672 1.936.807 2.693.134l10.942 10.087H45.72l35.35 32.545H50.517l-14.645-13.314c.59-.807.505-1.883-.252-2.555-.842-.807-2.189-.807-2.946 0-.842.807-.842 2.017 0 2.689.757.673 1.936.807 2.693.135l15.066 13.852h31.479l10.605 9.817h41.157l7.155 6.59h-17.507l-8.754 8.069H78.04l-10.269-9.549H47.066c-.084-.403-.252-.672-.589-.941-.841-.807-2.188-.807-2.946 0-.841.807-.841 2.017 0 2.69.842.806 2.189.806 2.946 0 .337-.269.505-.673.59-.942h20.536l10.269 9.548h35.855l-9.848 9.145c-.841-.538-1.936-.538-2.693.135-.842.807-.842 2.017 0 2.689.842.807 2.188.807 2.946 0 .757-.672.841-1.748.252-2.555l19.19-17.751h18.18l17.255 16.003-6.397 5.917.337.269 3.787 3.497h-11.952l-15.655-14.39c.59-.807.505-1.883-.252-2.555-.842-.807-2.189-.807-2.946 0-.842.807-.842 2.017 0 2.69.757.672 1.936.807 2.693.134l15.992 14.793h12.878l8.753 8.069-5.387 4.976h-9.595l-8.332 7.666h-6.229l-14.14-13.045c.674-.807.589-1.883-.168-2.555-.842-.807-2.188-.807-2.946 0-.842.807-.842 2.017 0 2.689.758.673 1.852.807 2.693.269l14.477 13.314h6.565l8.333-7.665h8.585l-17.17 15.869h-9.259l-19.358-17.887H55.988l-36.192-33.352c.59-.806.59-1.882-.168-2.555-.842-.807-2.189-.807-2.946 0-.842.807-.842 2.017 0 2.69.757.672 1.852.807 2.693.269l36.529 33.755h58.244l19.358 17.886h9.595l23.651-21.786 6.228 5.783-26.765 24.61h-18.853l-15.571-14.389h-39.98c-.084-.404-.252-.673-.589-.942-.841-.807-2.188-.807-2.945 0-.758.807-.842 2.018 0 2.69.841.807 2.188.807 2.945 0 .337-.269.505-.672.59-.941h39.811l14.729 13.582H69.96l-53.615 49.49c-.841-.538-1.936-.538-2.693.135-.842.807-.842 2.017 0 2.689.842.807 2.188.807 2.946 0 .757-.672.841-1.748.252-2.555l53.362-49.221h76.172l27.017-24.879 7.07 6.455-37.286 34.966H77.451l-57.486 52.986h-66.998l-39.137-35.907c.589-.807.505-1.883-.253-2.555-.842-.807-2.188-.807-2.946 0-.841.807-.841 2.017 0 2.69.758.672 1.936.807 2.694.134l39.39 36.311h67.334l57.486-52.987h47.807L55.23 355.372v17.08l-28.027 25.82c-.842-.538-1.936-.538-2.694.135-.841.807-.841 2.017 0 2.689.842.807 2.189.807 2.946 0 .758-.672.842-1.748.253-2.555l28.028-25.82v-17.08l70.7-65.224h16.413l-35.351 32.679v7.128l-16.917 15.6c-.842-.538-1.936-.538-2.694.134-.841.807-.841 2.018 0 2.69.842.807 2.189.807 2.946 0 .758-.672.842-1.748.253-2.555l9.174-8.473v19.635l-53.194 49.086c-.841-.538-1.936-.538-2.693.135-.842.807-.842 2.017 0 2.689.842.807 2.188.807 2.946 0 .757-.672.841-1.748.252-2.555l53.194-49.086v-20.576l7.238-6.724v-7.128l35.687-32.948-.084-.269 37.455-34.562 6.817 6.32-38.464 35.504v58.366l-70.785 65.359h.926l58.58-54.063v52.852l-1.346 1.211h.925l.842-.807V366.4l11.194-10.355v-58.366l38.465-35.504 5.976 5.514-29.711 27.435v32.007l.084.134 33.751 31.066v10.893l-19.106 17.617c-.842-.538-1.936-.538-2.693.135-.842.807-.842 2.017 0 2.689.841.807 2.188.807 2.945 0 .758-.672.842-1.748.253-2.555l19.106-17.617v-11.7l-.084-.135-33.751-31.065v-31.2l22.388-20.711v13.314l-10.268 9.548c-.842-.538-1.936-.538-2.694.135-.841.807-.841 2.017 0 2.689.842.807 2.189.807 2.946 0 .758-.672.842-1.748.253-2.555l10.268-9.548V274.01l6.818-6.321 7.995 7.397v23.265l-15.15 13.987v16.003l.085.134 31.815 29.318c-.589.807-.505 1.883.252 2.555.842.807 2.189.807 2.946 0 .842-.807.842-2.017 0-2.69-.757-.672-1.936-.807-2.693-.134l-31.984-29.452v-15.197l14.645-13.582v16.003l19.611 18.021c-.589.807-.505 1.883.253 2.555.841.807 2.188.807 2.946 0 .841-.807.841-2.017 0-2.69-.758-.672-1.936-.806-2.694-.134l-19.611-18.021v-39.269l5.64 5.245.084-.135 9.174-8.472 8.417 7.8v18.828l22.304 20.576v17.751c-.421 0-.926.269-1.263.538-.841.807-.841 2.018 0 2.69.842.807 2.189.807 2.946 0 .842-.807.842-2.017 0-2.69-.336-.269-.757-.538-1.262-.538v-18.155l-22.22-20.038v-18.021l36.192 33.352v35.369l-19.611 18.156h-18.096l-30.89 28.51c-.841-.538-1.936-.538-2.693.135-.842.806-.842 2.017 0 2.689.842.807 2.188.807 2.946 0 .757-.672.841-1.748.252-2.555l30.637-28.241h17.086l-56.729 52.314c-.841-.538-1.935-.538-2.693.134h3.451l76.929-71.007v-36.176l-.084-.135-44.946-41.421 9.006-8.337 76.676 70.738v42.227l26.176 24.207c-.589.807-.505 1.883.253 2.556.842.807 2.188.807 2.946 0 .842-.807.842-2.018 0-2.69-.758-.672-1.936-.807-2.693-.134L304.87 376.62v-42.227l-.084-.135-76.592-70.603 8.585-7.935 75.835 69.931h45.282l2.104 2.018v-.807l-2.02-1.883h-45.282l-64.051-59.038h12.877l21.884 20.172h16.917l23.315-21.517c.841.538 1.936.538 2.693-.135.842-.806.842-2.017 0-2.689-.842-.807-2.188-.807-2.946 0-.757.672-.841 1.748-.252 2.555l-23.062 21.248h-16.581l-21.883-20.172h-13.804l-10.689-9.817 22.978-21.249 6.565 6.052v15.869l16.581 15.331c-.59.807-.506 1.883.252 2.555.842.807 2.188.807 2.946 0 .842-.807.842-2.017 0-2.689-.758-.673-1.936-.807-2.693-.135l-16.581-15.331v-14.928l17.675 16.273h8.501l10.015-9.28c.842.538 1.936.538 2.694-.134.841-.807.841-2.017 0-2.69-.842-.807-2.189-.807-2.946 0-.758.673-.842 1.749-.253 2.556l-9.679 9.01h-8.164l-24.408-22.997 4.46-4.034-.336-.269-13.804-12.642 6.65-6.051h10.015l7.155 6.589c-.59.807-.505 1.749.252 2.421.842.807 2.189.807 2.946 0 .842-.807.842-2.017 0-2.69-.757-.672-1.936-.807-2.778-.134l-7.49-6.859h-9.343l16.833-15.6 39.727 36.58h28.617l16.076-14.794c.084.135.253.135.337.135v-3.497a3.527 3.527 0 00-.589.404c-.758.672-.842 1.748-.253 2.555l-15.823 14.524h-28.28l-30.637-28.241h13.13l12.793 11.834c-.589.807-.505 1.883.253 2.555.841.807 2.188.807 2.946 0 .841-.807.841-2.017 0-2.689-.758-.673-1.936-.807-2.694-.135l-13.13-12.103h-14.056l-7.912-7.262 20.116-18.559h64.052v-.807h-63.294l7.996-7.397h47.723l7.575-6.993v-.807l-7.744 7.128h-47.723l-54.035 49.893-5.976-5.513 56.813-52.449h41.579l17.086-15.735v-.806l-17.255 16.003h-41.578l-57.066 52.718-6.817-6.321L347.88 102.544V65.426l12.036-11.028V52.92zm-95.782 176.845l-55.298 50.969-55.298-50.969 55.298-50.969 55.298 50.969z" fill="#000"/></svg>