<svg width="360" height="375" fill="none" xmlns="http://www.w3.org/2000/svg"><path opacity=".1" d="M379.929 47.137L369.41 57.439V90.5l-93.534 91.04-7.108-6.948 48.26-46.958v-8.385l8.529-8.265V91.699l16.56-16.172c.711.48 1.635.48 2.275-.12.71-.718.71-1.796 0-2.395-.711-.72-1.848-.72-2.488 0-.64.599-.711 1.557-.213 2.275L325.13 91.46v19.286l-8.173 7.906V87.746l-.071-.12-4.691-4.552 28.288-27.552V24.617L360.597 5.09c.71.48 1.634.48 2.274-.12.711-.718.711-1.797 0-2.396-.711-.718-1.848-.718-2.488 0-.639.6-.71 1.558-.213 2.276l-20.114 19.526v30.906l-28.288 27.551-45.985-44.8V3.413c.356 0 .782-.24 1.066-.48.711-.718.711-1.796 0-2.395-.71-.719-1.848-.719-2.487 0-.711.719-.711 1.797 0 2.396.284.24.639.479 1.066.479v34.978l.071.12 27.648 26.953h-20.185l-16.276-15.812c.497-.72.426-1.677-.214-2.276-.71-.72-1.847-.72-2.487 0-.711.718-.711 1.796 0 2.395.64.6 1.635.72 2.274.12l16.561 16.172h20.967l22.743 22.16v39.292l-48.188 46.478-6.468-6.349 34.116-33.182c.711.48 1.635.48 2.274-.119.711-.719.711-1.797 0-2.396-.71-.719-1.848-.719-2.487 0-.64.599-.711 1.557-.214 2.276l-34.115 33.181-6.255-6.109 40.868-39.77h11.088c.071.359.213.599.497.839.711.718 1.848.718 2.488 0 .71-.719.71-1.797 0-2.396-.711-.719-1.848-.719-2.488 0-.284.239-.426.599-.497.838h-11.301l-41.01 40.13-2.488-2.396-.071.12-1.848 1.797-9.808-9.464v-13.296l8.102-7.906h12.652l14.001-13.537c.711.48 1.635.48 2.275-.119.71-.719.71-1.797 0-2.396-.711-.719-1.848-.719-2.488 0-.64.599-.711 1.557-.213 2.276l-13.718 13.057h-11.94l23.739-23.119c.711.479 1.706.479 2.345-.12.711-.719.711-1.797 0-2.396-.71-.719-1.848-.719-2.487 0-.64.599-.711 1.557-.214 2.156l-29.638 28.869v-6.348l17.627-17.13V98.886l14.357-14.015c.711.479 1.635.479 2.274-.12.711-.719.711-1.797 0-2.396-.71-.719-1.848-.719-2.487 0-.64.599-.711 1.557-.214 2.276l-14.357 14.015v12.099l-17.555 16.89v7.188l-2.488 2.395v14.016l9.809 9.463-6.397 6.229-20.114-19.645V125l13.646-13.297c.711.48 1.706.48 2.346-.119.71-.719.71-1.797 0-2.396-.711-.719-1.848-.719-2.488 0-.64.599-.711 1.557-.213 2.156l-13.291 12.937v-17.968l10.519-10.182v-33.9c.355 0 .782-.24 1.066-.48.711-.718.711-1.796 0-2.395-.711-.72-1.848-.72-2.488 0-.71.718-.71 1.796 0 2.395.285.24.64.48 1.067.48v33.42l-10.093 9.823V45.819h-.426V147.76l20.114 19.645-7.25 7.068-26.298-25.635V87.865l-12.651-12.338v-23l-11.159-10.9c.498-.719.427-1.677-.213-2.276-.711-.719-1.848-.719-2.487 0-.711.718-.711 1.797 0 2.395.639.6 1.634.72 2.274.12l11.159 10.901v23l12.651 12.338v60.973l26.298 25.635-5.331 5.15-35.537-34.619V93.256l-.071-.12-31.486-30.426c.497-.72.426-1.677-.214-2.276-.71-.72-1.848-.72-2.487 0-.711.718-.711 1.797 0 2.395.639.6 1.634.72 2.274.12l31.557 30.666v51.989l.071.12 35.395 34.499-8.671 8.385-59.063-57.499v-25.874l-.071-.12-49.468-48.155c.498-.719.427-1.677-.213-2.276-.711-.719-1.848-.719-2.487 0-.711.719-.711 1.797 0 2.396.639.599 1.634.718 2.274.12l49.539 48.274v25.875l.071.12 33.121 32.223h-26.298l-30.42-29.588c.498-.719.427-1.677-.213-2.276-.711-.719-1.848-.719-2.488 0-.71.719-.71 1.797 0 2.396.64.599 1.635.719 2.275.12l30.704 29.947h27.079l25.161 24.437-10.093 9.823-21.464-20.604h-34.756l-39.517-38.453H92.859l-8.956-8.744c.498-.719.427-1.677-.213-2.276-.71-.719-1.848-.719-2.487 0-.711.719-.711 1.797 0 2.396.64.599 1.634.718 2.274.119l9.24 8.985h21.891l29.851 28.989h-25.8l-12.367-11.859c.497-.719.426-1.678-.213-2.276-.711-.719-1.848-.719-2.488 0-.711.718-.711 1.796 0 2.395.64.599 1.635.719 2.275.12l12.722 12.338h26.582l8.955 8.745h34.756l6.041 5.87h-14.784l-7.391 7.187H141.9l-8.671-8.505h-17.484a1.342 1.342 0 00-.498-.839c-.71-.718-1.848-.718-2.487 0-.711.719-.711 1.797 0 2.396.711.719 1.848.719 2.487 0 .285-.239.427-.599.498-.838h17.342l8.671 8.505h30.278l-8.316 8.145c-.711-.479-1.635-.479-2.274.12-.711.719-.711 1.797 0 2.396.711.719 1.848.719 2.487 0 .64-.599.711-1.557.214-2.276l16.205-15.812h15.352l14.57 14.255-5.402 5.27.285.24 3.198 3.115h-10.093l-13.219-12.818c.497-.719.426-1.677-.214-2.276-.71-.719-1.848-.719-2.487 0-.711.719-.711 1.797 0 2.396.639.599 1.634.719 2.274.12l13.504 13.176h10.875l7.391 7.188-4.548 4.432h-8.103l-7.036 6.828h-5.26l-11.94-11.62c.568-.718.497-1.677-.142-2.276-.711-.718-1.848-.718-2.488 0-.711.719-.711 1.797 0 2.396.64.599 1.564.719 2.274.24l12.225 11.859h5.544l7.036-6.828h7.25l-14.499 14.135h-7.818l-16.348-15.932h-49.254l-30.562-29.708c.497-.718.497-1.677-.142-2.276-.711-.718-1.848-.718-2.488 0-.71.719-.71 1.797 0 2.396.64.599 1.564.719 2.274.24l30.847 30.067h49.183l16.347 15.932h8.103l19.972-19.406 5.259 5.151-22.601 21.921H183.55l-13.149-12.817h-33.76a1.342 1.342 0 00-.498-.839c-.71-.718-1.848-.718-2.487 0-.64.719-.711 1.797 0 2.396.71.719 1.848.719 2.487 0 .285-.239.427-.599.498-.838h33.618l12.438 12.098h-47.62l-45.274 44.083c-.711-.479-1.635-.479-2.275.12-.71.718-.71 1.796 0 2.395.711.719 1.848.719 2.488 0 .64-.599.71-1.557.213-2.276l45.061-43.843h64.323l22.815-22.16 5.97 5.749-31.486 31.146h-55.509l-48.544 47.196H36.284l-33.05-31.983c.497-.719.426-1.677-.213-2.276-.711-.719-1.848-.719-2.488 0-.71.719-.71 1.797 0 2.396.64.599 1.635.718 2.274.119l33.263 32.343h56.86l48.544-47.196h40.37l-59.205 57.738v15.213l-23.668 23c-.71-.48-1.634-.48-2.274.119-.71.719-.71 1.797 0 2.396.71.719 1.848.719 2.487 0 .64-.599.711-1.557.214-2.276l23.668-22.999v-15.214l59.702-58.097h13.86l-29.852 29.109v6.348l-14.286 13.896c-.71-.479-1.634-.479-2.274.12-.711.718-.711 1.796 0 2.395.711.719 1.848.719 2.488 0 .639-.599.71-1.557.213-2.276l7.747-7.546v17.489l-44.919 43.723c-.711-.479-1.635-.479-2.274.12-.711.719-.711 1.797 0 2.396.71.718 1.847.718 2.487 0 .64-.599.711-1.558.213-2.276l44.919-43.723v-18.328l6.113-5.99v-6.348l30.135-29.349-.071-.239 31.629-30.786 5.757 5.63-32.481 31.624v51.989l-59.774 58.217h.782l49.468-48.155v47.077l-1.138 1.078h.782l.711-.719v-47.795l9.453-9.224v-51.989l32.481-31.624 5.046 4.911-25.089 24.437v28.51l.071.12 28.501 27.671v9.703l-16.134 15.693c-.711-.48-1.635-.48-2.274.119-.711.719-.711 1.797 0 2.396.71.719 1.847.719 2.487 0 .64-.599.711-1.557.213-2.276l16.134-15.692v-10.422l-.071-.12-28.501-27.671v-27.791l18.906-18.448v11.86l-8.671 8.505c-.711-.48-1.635-.48-2.274.119-.711.719-.711 1.797 0 2.396.71.719 1.848.719 2.487 0 .64-.599.711-1.557.213-2.276l8.672-8.505V244.07l5.757-5.63 6.752 6.589v20.723l-12.794 12.458v14.255l.071.12 26.867 26.114c-.498.719-.427 1.677.213 2.276.71.719 1.848.719 2.487 0 .711-.719.711-1.797 0-2.396-.639-.599-1.634-.718-2.274-.119l-27.008-26.234V278.69l12.367-12.099v14.255l16.56 16.051c-.498.719-.426 1.678.213 2.276.711.719 1.848.719 2.488 0 .711-.718.711-1.796 0-2.395-.64-.599-1.635-.719-2.275-.12l-16.56-16.052v-34.978l4.762 4.671.071-.119 7.747-7.547 7.108 6.948v16.77l18.834 18.328v15.812c-.355 0-.781.24-1.066.479-.71.719-.71 1.797 0 2.396.711.719 1.848.719 2.488 0 .711-.719.711-1.797 0-2.396-.284-.239-.64-.479-1.066-.479V284.32l-18.764-17.849v-16.052l30.562 29.708v31.505l-16.56 16.171h-15.281l-26.085 25.395c-.71-.479-1.634-.479-2.274.12-.711.719-.711 1.797 0 2.396.711.719 1.848.719 2.488 0 .639-.599.71-1.557.213-2.276l25.871-25.156h14.428l-47.904 46.598c-.711-.479-1.635-.479-2.274.12h2.914l64.962-63.249v-32.223l-.071-.12-37.954-36.895 7.605-7.427 64.749 63.009v37.614l22.104 21.562c-.498.719-.427 1.677.213 2.276.711.719 1.848.719 2.488 0 .711-.719.711-1.797 0-2.396-.64-.599-1.635-.718-2.275-.119l-22.104-21.562v-37.614l-.071-.12-64.678-62.889 7.25-7.068 64.038 62.29h38.238l1.777 1.797v-.718l-1.706-1.677h-38.238l-54.088-52.588h10.875l18.479 17.969h14.286l19.688-19.167c.711.479 1.634.479 2.274-.12.711-.718.711-1.796 0-2.395-.711-.719-1.848-.719-2.487 0-.64.599-.711 1.557-.214 2.276l-19.474 18.926h-14.002l-18.479-17.968h-11.656l-9.027-8.745 19.404-18.926 5.543 5.39v14.135l14.002 13.656c-.497.719-.426 1.677.213 2.276.711.719 1.848.719 2.488 0 .711-.718.711-1.797 0-2.396-.64-.598-1.635-.718-2.275-.119l-14.001-13.656v-13.297l14.925 14.495h7.179l8.458-8.266c.711.479 1.635.479 2.274-.12.711-.718.711-1.796 0-2.395-.711-.719-1.848-.719-2.487 0-.64.599-.711 1.557-.214 2.276l-8.173 8.025h-6.894l-20.612-20.484 3.767-3.593-.284-.24-11.657-11.26 5.615-5.39h8.458l6.041 5.869c-.497.719-.426 1.557.214 2.156.71.719 1.848.719 2.487 0 .711-.718.711-1.796 0-2.395-.639-.599-1.634-.719-2.345-.12l-6.326-6.109h-7.889l14.215-13.896 33.547 32.583h24.165l13.576-13.177c.071.12.213.12.284.12v-3.115c-.213.12-.355.24-.498.36-.639.599-.71 1.557-.213 2.276l-13.362 12.937h-23.881l-25.871-25.156h11.088l10.803 10.541c-.498.719-.426 1.678.213 2.276.711.719 1.848.719 2.488 0 .711-.718.711-1.796 0-2.395-.64-.599-1.635-.719-2.275-.12l-11.087-10.781h-11.87l-6.681-6.469 16.987-16.531h54.088v-.718H326.41l6.752-6.589h40.299l6.397-6.229v-.719l-6.539 6.349H333.02l-45.63 44.442-5.046-4.911 47.975-46.718h35.111l14.428-14.015v-.719l-14.57 14.255h-35.111l-48.189 46.957-5.757-5.63 93.534-91.04V58.277l10.164-9.822v-1.318zM299.046 204.66l-46.696 45.4-46.696-45.4 46.696-45.4 46.696 45.4z" fill="#6F747D"/></svg>